<svg width="40" height="41" viewBox="0 0 40 41" fill="none" xmlns="http://www.w3.org/2000/svg">
<rect y="0.118652" width="40" height="40" rx="20" fill="url(#paint0_linear_2777_59515)"/>
<path d="M16.6712 20.1703C16.6712 18.3277 18.164 16.8337 20.006 16.8337C21.848 16.8337 23.3416 18.3277 23.3416 20.1703C23.3416 22.0128 21.848 23.5068 20.006 23.5068C18.164 23.5068 16.6712 22.0128 16.6712 20.1703ZM14.868 20.1703C14.868 23.0088 17.1683 25.3097 20.006 25.3097C22.8437 25.3097 25.144 23.0088 25.144 20.1703C25.144 17.3317 22.8437 15.0308 20.006 15.0308C17.1683 15.0308 14.868 17.3317 14.868 20.1703ZM24.1466 14.827C24.1465 15.0646 24.2169 15.2968 24.3487 15.4944C24.4806 15.692 24.6681 15.846 24.8874 15.937C25.1068 16.028 25.3482 16.0519 25.5811 16.0056C25.8141 15.9594 26.0281 15.845 26.1961 15.6771C26.3641 15.5092 26.4785 15.2953 26.5249 15.0623C26.5713 14.8293 26.5477 14.5878 26.4569 14.3683C26.3661 14.1488 26.2122 13.9612 26.0148 13.8291C25.8174 13.6971 25.5853 13.6265 25.3478 13.6265H25.3474C25.029 13.6266 24.7238 13.7531 24.4987 13.9782C24.2735 14.2033 24.1469 14.5086 24.1466 14.827V14.827ZM15.9636 28.3173C14.988 28.2728 14.4578 28.1103 14.1054 27.973C13.6383 27.791 13.3049 27.5744 12.9545 27.2243C12.604 26.8742 12.3871 26.5411 12.206 26.0738C12.0687 25.7215 11.9062 25.191 11.8618 24.2151C11.8133 23.1601 11.8036 22.8432 11.8036 20.1703C11.8036 17.4975 11.8141 17.1815 11.8618 16.1256C11.9063 15.1497 12.07 14.6202 12.206 14.2669C12.3879 13.7996 12.6045 13.4662 12.9545 13.1156C13.3045 12.765 13.6375 12.5481 14.1054 12.3669C14.4576 12.2295 14.988 12.067 15.9636 12.0226C17.0183 11.9741 17.3351 11.9644 20.006 11.9644C22.6769 11.9644 22.994 11.9749 24.0496 12.0226C25.0252 12.0671 25.5545 12.2308 25.9078 12.3669C26.3749 12.5481 26.7083 12.7655 27.0587 13.1156C27.4092 13.4657 27.6253 13.7996 27.8072 14.2669C27.9445 14.6192 28.107 15.1497 28.1514 16.1256C28.1999 17.1815 28.2096 17.4975 28.2096 20.1703C28.2096 22.8432 28.1999 23.1592 28.1514 24.2151C28.1069 25.191 27.9436 25.7214 27.8072 26.0738C27.6253 26.5411 27.4087 26.8745 27.0587 27.2243C26.7087 27.574 26.3749 27.791 25.9078 27.973C25.5556 28.1104 25.0252 28.2729 24.0496 28.3173C22.9949 28.3658 22.6781 28.3755 20.006 28.3755C17.3339 28.3755 17.018 28.3658 15.9636 28.3173V28.3173ZM15.8807 10.222C14.8155 10.2705 14.0877 10.4395 13.452 10.6869C12.7937 10.9424 12.2364 11.2852 11.6795 11.8413C11.1226 12.3975 10.7808 12.9559 10.5254 13.6144C10.278 14.2506 10.1091 14.9783 10.0606 16.0438C10.0113 17.111 10 17.4522 10 20.1703C10 22.8884 10.0113 23.2295 10.0606 24.2967C10.1091 25.3623 10.278 26.0899 10.5254 26.7262C10.7808 27.3843 11.1227 27.9432 11.6795 28.4992C12.2363 29.0551 12.7937 29.3974 13.452 29.6536C14.0889 29.9011 14.8155 30.07 15.8807 30.1185C16.9482 30.1671 17.2887 30.1792 20.006 30.1792C22.7233 30.1792 23.0644 30.1679 24.1313 30.1185C25.1966 30.07 25.9239 29.9011 26.56 29.6536C27.2179 29.3974 27.7756 29.0554 28.3325 28.4992C28.8894 27.943 29.2305 27.3843 29.4866 26.7262C29.734 26.0899 29.9037 25.3622 29.9514 24.2967C29.9999 23.2287 30.0112 22.8884 30.0112 20.1703C30.0112 17.4522 29.9999 17.111 29.9514 16.0438C29.9029 14.9782 29.734 14.2502 29.4866 13.6144C29.2305 12.9563 28.8885 12.3984 28.3325 11.8413C27.7765 11.2843 27.2179 10.9424 26.5608 10.6869C25.9239 10.4395 25.1965 10.2697 24.1321 10.222C23.0652 10.1735 22.7241 10.1614 20.0068 10.1614C17.2895 10.1614 16.9482 10.1727 15.8807 10.222Z" fill="white"/>
<defs>
<linearGradient id="paint0_linear_2777_59515" x1="39.2312" y1="40.1187" x2="-0.768799" y2="0.118651" gradientUnits="userSpaceOnUse">
<stop stop-color="#FBE18A"/>
<stop offset="0.21" stop-color="#FCBB45"/>
<stop offset="0.38" stop-color="#F75274"/>
<stop offset="0.52" stop-color="#D53692"/>
<stop offset="0.74" stop-color="#8F39CE"/>
<stop offset="1" stop-color="#5B4FE9"/>
</linearGradient>
</defs>
</svg>
