<svg width="40" height="41" viewBox="0 0 40 41" fill="none" xmlns="http://www.w3.org/2000/svg">
<rect y="0.118652" width="40" height="40" rx="20" fill="#34AADF"/>
<path d="M11.1281 19.4102C11.1281 19.4102 19.266 15.9827 22.0883 14.7758C23.1702 14.293 26.8393 12.7482 26.8393 12.7482C26.8393 12.7482 28.5328 12.0724 28.3916 13.7137C28.3446 14.3896 27.9683 16.7551 27.592 19.3137C27.0275 22.9344 26.416 26.8929 26.416 26.8929C26.416 26.8929 26.3219 28.0033 25.5222 28.1964C24.7226 28.3895 23.4054 27.5206 23.1702 27.3274C22.982 27.1826 19.6422 25.0102 18.4192 23.9481C18.0899 23.6585 17.7136 23.0792 18.4662 22.4033C20.1597 20.8102 22.1824 18.831 23.4054 17.5758C23.9699 16.9965 24.5344 15.6447 22.1824 17.2861C18.8426 19.6516 15.5498 21.8723 15.5498 21.8723C15.5498 21.8723 14.7972 22.355 13.386 21.9205C11.9747 21.4861 10.3283 20.9068 10.3283 20.9068C10.3283 20.9068 9.19946 20.1827 11.1281 19.4102Z" fill="white"/>
</svg>
