<svg width="40" height="41" viewBox="0 0 40 41" fill="none" xmlns="http://www.w3.org/2000/svg">
<rect y="0.118652" width="40" height="40" rx="20" fill="#2787F5"/>
<path fill-rule="evenodd" clip-rule="evenodd" d="M31.6733 14.3592C31.8423 13.8304 31.6733 13.4419 30.8688 13.4419H28.2084C27.532 13.4419 27.2202 13.7775 27.051 14.1477C27.051 14.1477 25.6982 17.241 23.7817 19.2503C23.1616 19.832 22.8798 20.017 22.5416 20.017C22.3725 20.017 22.1277 19.8319 22.1277 19.3032V14.3592C22.1277 13.7247 21.9314 13.4419 21.3676 13.4419H17.1872C16.7644 13.4419 16.5102 13.7364 16.5102 14.0155C16.5102 14.617 17.4684 14.7558 17.5672 16.4478V20.1228C17.5672 20.9285 17.4121 21.0746 17.0739 21.0746C16.172 21.0746 13.9782 17.9675 12.6771 14.4121C12.4221 13.721 12.1664 13.4419 11.4865 13.4419H8.82618C8.06609 13.4419 7.91406 13.7775 7.91406 14.1477C7.91406 14.8087 8.81597 18.087 12.1135 22.4229C14.3118 25.384 17.4091 26.9891 20.2275 26.9891C21.9185 26.9891 22.1277 26.6326 22.1277 26.0186V23.7806C22.1277 23.0676 22.2879 22.9253 22.8234 22.9253C23.218 22.9253 23.8944 23.1103 25.4728 24.538C27.2765 26.2301 27.5739 26.9891 28.5885 26.9891H31.2488C32.0089 26.9891 32.3889 26.6326 32.1697 25.9291C31.9298 25.2279 31.0686 24.2106 29.9258 23.0046C29.3058 22.3172 28.3757 21.5769 28.0938 21.2067C27.6993 20.7309 27.812 20.5193 28.0938 20.0964C28.0938 20.0964 31.335 15.8133 31.6733 14.3592Z" fill="white"/>
</svg>
