<svg width="40" height="41" viewBox="0 0 40 41" fill="none" xmlns="http://www.w3.org/2000/svg">
<rect y="0.118652" width="40" height="40" rx="20" fill="#00D95F"/>
<path d="M10 29.3786L11.435 24.0431C10.2777 21.9647 9.91003 19.5393 10.3994 17.2121C10.8888 14.8848 12.2024 12.8118 14.0992 11.3734C15.996 9.93508 18.3487 9.22784 20.7256 9.3815C23.1026 9.53516 25.3443 10.5394 27.0394 12.21C28.7345 13.8805 29.7694 16.1054 29.9541 18.4762C30.1387 20.847 29.4608 23.2048 28.0447 25.1169C26.6286 27.029 24.5694 28.3671 22.2448 28.8858C19.9202 29.4044 17.4863 29.0687 15.3896 27.9404L10 29.3786ZM15.6494 25.9438L15.9827 26.1412C17.5014 27.0399 19.2752 27.4118 21.0277 27.1989C22.7802 26.9861 24.4129 26.2004 25.6715 24.9645C26.9301 23.7285 27.7437 22.1116 27.9857 20.3657C28.2277 18.6199 27.8844 16.8431 27.0093 15.3124C26.1342 13.7817 24.7765 12.5829 23.1478 11.903C21.519 11.223 19.7108 11.1 18.0047 11.5532C16.2986 12.0064 14.7907 13.0103 13.7158 14.4084C12.6409 15.8066 12.0594 17.5204 12.062 19.2829C12.0606 20.7443 12.4654 22.1774 13.2315 23.4227L13.4405 23.7668L12.6383 26.7447L15.6494 25.9438Z" fill="white"/>
<path fill-rule="evenodd" clip-rule="evenodd" d="M23.7365 20.6525C23.5411 20.4952 23.3123 20.3844 23.0675 20.3287C22.8228 20.273 22.5685 20.2738 22.3241 20.331C21.9569 20.4833 21.7196 21.0586 21.4823 21.3462C21.4323 21.4152 21.3588 21.4636 21.2756 21.4823C21.1924 21.5009 21.1052 21.4887 21.0304 21.4478C19.686 20.9221 18.5591 19.9581 17.8328 18.7123C17.7709 18.6346 17.7415 18.5359 17.751 18.437C17.7605 18.3381 17.8081 18.2468 17.8837 18.1822C18.1483 17.9206 18.3426 17.5967 18.4486 17.2403C18.4721 16.8472 18.3819 16.4556 18.1887 16.1123C18.0394 15.6309 17.7551 15.2023 17.3696 14.8771C17.1707 14.7878 16.9502 14.7579 16.7347 14.7909C16.5192 14.8239 16.3178 14.9185 16.1549 15.0632C15.8722 15.3068 15.6477 15.6106 15.4981 15.9522C15.3485 16.2938 15.2776 16.6646 15.2906 17.0372C15.2914 17.2465 15.318 17.4548 15.3697 17.6576C15.5008 18.1449 15.7026 18.6104 15.9685 19.0395C16.1604 19.3681 16.3697 19.6863 16.5956 19.9926C17.3298 20.9988 18.2526 21.8531 19.313 22.5081C19.845 22.8409 20.4137 23.1116 21.0078 23.3146C21.6249 23.5939 22.3062 23.7011 22.9794 23.6248C23.363 23.5669 23.7264 23.4157 24.0377 23.1846C24.349 22.9534 24.5987 22.6495 24.7647 22.2994C24.8622 22.088 24.8918 21.8515 24.8494 21.6226C24.7477 21.1545 24.1206 20.8781 23.7365 20.6525Z" fill="white"/>
</svg>
