<svg width="42" height="31" viewBox="0 0 42 31" fill="none" xmlns="http://www.w3.org/2000/svg">
<g opacity="0.6">
<path d="M8.50417 19.8626C7.74724 24.2982 6.53617 27.3081 5.47648 29.3675C5.02233 30.1596 5.93063 30.9517 6.53617 30.4764C15.0137 25.4071 18.6469 17.8032 19.1011 11.9418C19.5552 6.71411 16.0734 1.4864 11.0777 0.535911C5.93064 -0.414581 1.08634 3.07056 0.178035 8.45668C-0.881654 14.0012 2.90295 19.3873 8.50417 19.8626Z" fill="#A9D953"/>
<path d="M31.3633 19.8626C30.6064 24.2982 29.3953 27.3081 28.3356 29.3675C27.8815 30.1596 28.7898 30.9517 29.3953 30.4764C37.8728 25.4071 41.5061 17.8032 41.9602 11.9418C42.4144 6.71411 38.9325 1.4864 33.9369 0.535911C28.7898 -0.414581 23.9455 3.07056 23.0372 8.45668C21.9775 14.0012 25.7621 19.3873 31.3633 19.8626Z" fill="#A9D953"/>
</g>
</svg>
