<svg width="21" height="20" viewBox="0 0 21 20" fill="none" xmlns="http://www.w3.org/2000/svg">
<path d="M13.1187 1.05933V3.05933" stroke="#040E07" stroke-width="1.5" stroke-linecap="round" stroke-linejoin="round"/>
<path d="M5.11865 1.05933V3.05933" stroke="#040E07" stroke-width="1.5" stroke-linecap="round" stroke-linejoin="round"/>
<path d="M1.11865 6.05933H17.1187" stroke="#040E07" stroke-width="1.5" stroke-linecap="round" stroke-linejoin="round"/>
<path d="M17.1187 8.05933V4.05933C17.1187 2.95433 16.2237 2.05933 15.1187 2.05933H3.11865C2.01365 2.05933 1.11865 2.95433 1.11865 4.05933V15.0593C1.11865 16.1643 2.01365 17.0593 3.11865 17.0593H9.11865" stroke="#040E07" stroke-width="1.5" stroke-linecap="round" stroke-linejoin="round"/>
<path d="M5.11766 8.80933C4.97966 8.80933 4.86766 8.92133 4.86866 9.05933C4.86866 9.19733 4.98066 9.30933 5.11866 9.30933C5.25666 9.30933 5.36866 9.19733 5.36866 9.05933C5.36866 8.92133 5.25666 8.80933 5.11766 8.80933" stroke="#040E07" stroke-width="1.5" stroke-linecap="round" stroke-linejoin="round"/>
<path d="M5.11766 12.8093C4.97966 12.8093 4.86766 12.9213 4.86866 13.0593C4.86866 13.1973 4.98066 13.3093 5.11866 13.3093C5.25666 13.3093 5.36866 13.1973 5.36866 13.0593C5.36866 12.9213 5.25666 12.8093 5.11766 12.8093" stroke="#040E07" stroke-width="1.5" stroke-linecap="round" stroke-linejoin="round"/>
<path d="M8.86865 9.06032C8.86865 9.19832 8.98065 9.31032 9.11865 9.30932C9.25665 9.30932 9.36865 9.19732 9.36865 9.05932C9.36865 8.92132 9.25665 8.80932 9.11865 8.80932C8.98065 8.80932 8.86865 8.92132 8.86865 9.06032" stroke="#040E07" stroke-width="1.5" stroke-linecap="round" stroke-linejoin="round"/>
<path fill-rule="evenodd" clip-rule="evenodd" d="M15.4117 18.7663L19.8257 14.3523C20.2167 13.9613 20.2167 13.3283 19.8257 12.9383L18.2397 11.3523C17.8487 10.9613 17.2157 10.9613 16.8257 11.3523L12.4117 15.7663C12.2237 15.9543 12.1187 16.2083 12.1187 16.4733V19.0593H14.7047C14.9697 19.0593 15.2237 18.9543 15.4117 18.7663V18.7663Z" stroke="#040E07" stroke-width="1.5" stroke-linecap="round" stroke-linejoin="round"/>
</svg>
