<svg width="24" height="24" viewBox="0 0 24 24" fill="none" xmlns="http://www.w3.org/2000/svg">
<path d="M7.07783 21.808C9.78583 21.808 11.9818 19.612 11.9818 16.904C11.9818 14.196 9.78683 12 7.07783 12C4.36883 12 2.17383 14.196 2.17383 16.904" stroke="white" stroke-width="1.5" stroke-linecap="round" stroke-linejoin="round"/>
<path d="M7.083 21.8128C6.345 21.8128 5.646 21.6498 5.018 21.3588L2 21.9998L2.631 18.9758C2.338 18.3458 2.174 17.6438 2.174 16.9038" stroke="white" stroke-width="1.5" stroke-linecap="round" stroke-linejoin="round"/>
<path d="M6.557 12.0278C6.199 11.2068 6 10.3118 6 9.37281C6 5.35581 9.598 2.13281 14 2.13281C18.402 2.13281 22 5.35581 22 9.37281C22 11.7468 20.738 13.8368 18.801 15.1548C18.802 15.9108 18.8 16.9298 18.8 17.9998L15.661 16.4538C15.124 16.5568 14.569 16.6128 14 16.6128C13.293 16.6128 12.607 16.5288 11.953 16.3718" stroke="white" stroke-width="1.5" stroke-linecap="round" stroke-linejoin="round"/>
</svg>
