<svg width="16" height="16" viewBox="0 0 16 16" fill="none" xmlns="http://www.w3.org/2000/svg">
<path fill-rule="evenodd" clip-rule="evenodd" d="M6.94295 9.07196C5.96795 8.09696 5.23295 7.00529 4.74461 5.89779C4.64128 5.66363 4.70211 5.38946 4.88295 5.20863L5.56545 4.52696C6.12461 3.96779 6.12461 3.17696 5.63628 2.68863L4.65795 1.71029C4.00711 1.05946 2.95211 1.05946 2.30128 1.71029L1.75795 2.25363C1.14045 2.87113 0.882947 3.76196 1.04961 4.64529C1.46128 6.82279 2.72628 9.20696 4.76711 11.2478C6.80795 13.2886 9.19212 14.5536 11.3696 14.9653C12.2529 15.132 13.1438 14.8745 13.7613 14.257L14.3038 13.7145C14.9546 13.0636 14.9546 12.0086 14.3038 11.3578L13.3263 10.3803C12.8379 9.89196 12.0463 9.89196 11.5588 10.3803L10.8063 11.1336C10.6254 11.3145 10.3513 11.3753 10.1171 11.272C9.00961 10.7828 7.91795 10.047 6.94295 9.07196Z" stroke="#868B88" stroke-linecap="round" stroke-linejoin="round"/>
</svg>
