<svg width="24" height="25" viewBox="0 0 24 25" fill="none" xmlns="http://www.w3.org/2000/svg">
<g clip-path="url(#clip0_2601_28331)">
<path d="M21.3702 18.0725C21.163 16.4108 20.1331 15.1208 19.1375 13.873C18.5825 13.1773 18.0584 12.5206 17.6788 11.8123C17.0188 10.5819 17.1805 8.27375 18.1592 4.95172C18.5778 3.53094 19.0658 2.21516 19.4047 1.35359C19.5659 0.943437 19.2641 0.5 18.8234 0.5H10.97C10.7872 0.5 10.6138 0.580625 10.4947 0.719375C9.96875 1.33297 9.38375 1.8725 8.81609 2.39656C7.68312 3.44234 6.61297 4.43 6.50187 5.66281C6.40719 6.71375 6.91062 7.4075 7.34937 7.80406L7.86547 8.27L7.25141 8.59672C6.73719 8.87 5.96 9.34719 5.17812 10.07C3.48219 11.637 2.58594 13.6297 2.58594 15.8323C2.58594 17.4012 3.13859 18.7606 4.22891 19.872C5.18094 20.8428 6.37344 21.4536 7.18766 21.8286C8.08344 22.2406 8.7275 23.06 8.9375 24.0073C9.00125 24.2942 9.25344 24.5 9.54781 24.5H18.3889C18.5769 24.5 18.7555 24.4152 18.8741 24.2689C20.7805 21.92 21.5975 19.8903 21.3702 18.0725ZM13.6137 16.2223L10.7577 19.0747C10.6208 19.2116 10.4408 19.2805 10.2608 19.2805C10.0812 19.2805 9.90125 19.2116 9.76391 19.0747L6.90828 16.2223C6.46625 15.7808 6.2225 15.193 6.2225 14.5681C6.2225 13.9433 6.46625 13.3559 6.90828 12.9139C7.82094 12.0027 9.30594 12.0027 10.2186 12.9139L10.2608 12.9566L10.3034 12.9139C11.2161 12.0027 12.7011 12.0027 13.6137 12.9139C14.0558 13.3559 14.2995 13.9433 14.2995 14.5681C14.2995 15.193 14.0558 15.7808 13.6137 16.2223Z" fill="#A9D953"/>
<path d="M12.6241 13.909C12.2594 13.5448 11.6659 13.5448 11.3012 13.909L10.7617 14.4481C10.4875 14.7218 10.0427 14.7218 9.76797 14.4481L9.22891 13.909C9.04656 13.7271 8.80703 13.6357 8.5675 13.6357C8.32797 13.6357 8.08844 13.7271 7.90609 13.909C7.72984 14.0853 7.63281 14.3192 7.63281 14.5681C7.63281 14.817 7.72984 15.0514 7.90609 15.2276L10.2648 17.5836L12.6241 15.2276C12.8003 15.0514 12.8973 14.817 12.8973 14.5681C12.8973 14.4434 12.873 14.3229 12.8266 14.2114C12.7806 14.0998 12.7122 13.9971 12.6241 13.909Z" fill="#A9D953"/>
</g>
<defs>
<clipPath id="clip0_2601_28331">
<rect width="24" height="24" fill="white" transform="translate(0 0.5)"/>
</clipPath>
</defs>
</svg>
