<svg width="20" height="20" viewBox="0 0 20 20" fill="none" xmlns="http://www.w3.org/2000/svg">
<path d="M3.66699 16.6667C3.66699 16.9428 3.89085 17.1667 4.16699 17.1667C4.44313 17.1667 4.66699 16.9428 4.66699 16.6667H3.66699ZM15.2503 16.6667C15.2503 16.9428 15.4742 17.1667 15.7503 17.1667C16.0265 17.1667 16.2503 16.9428 16.2503 16.6667H15.2503ZM4.66699 16.6667C4.66699 14.8669 6.10235 13.5 7.83366 13.5V12.5C5.56497 12.5 3.66699 14.2998 3.66699 16.6667H4.66699ZM7.83366 13.5H12.0837V12.5H7.83366V13.5ZM12.0837 13.5C13.8835 13.5 15.2503 14.9354 15.2503 16.6667H16.2503C16.2503 14.398 14.4505 12.5 12.0837 12.5V13.5Z" fill="#868B88"/>
<path d="M12.5002 4.3335C13.9169 5.75016 13.9169 8.00016 12.5002 9.3335C11.0836 10.6668 8.83357 10.7502 7.50024 9.3335C6.1669 7.91683 6.08357 5.66683 7.50024 4.3335C8.9169 3.00016 11.0836 3.00016 12.5002 4.3335" stroke="#868B88" stroke-linecap="round" stroke-linejoin="round"/>
</svg>
