<svg width="225" height="225" viewBox="0 0 225 225" fill="none" xmlns="http://www.w3.org/2000/svg">
<path d="M205.718 122.147L212.111 116.367L206.149 115.952L206.294 113.869L219.043 114.756L218.898 116.839L213.404 116.457L218.542 121.956L218.358 124.614L212.647 118.515L205.521 124.984L205.718 122.147Z" fill="#040E07"/>
<path d="M205.064 127.337L217.569 129.97L216.62 134.479C216.377 135.63 215.85 136.476 215.037 137.016C214.234 137.57 213.309 137.737 212.264 137.517C211.384 137.332 210.707 136.932 210.236 136.317C209.774 135.717 209.539 134.938 209.532 133.98L202.934 137.447L203.469 134.91L209.928 131.488L210.125 130.555L204.63 129.397L205.064 127.337ZM211.922 130.933L211.458 133.135C211.329 133.745 211.369 134.257 211.577 134.668C211.796 135.082 212.17 135.345 212.698 135.456C213.227 135.568 213.669 135.477 214.025 135.184C214.393 134.893 214.641 134.443 214.769 133.832L215.233 131.63L211.922 130.933Z" fill="#040E07"/>
<path d="M202.747 138.373L212.789 148.049L212.15 149.771L198.227 150.557L198.991 148.498L202.637 148.296L204.628 142.929L201.99 140.415L202.747 138.373ZM209.809 147.904L206.101 144.34L204.674 148.188L209.809 147.904Z" fill="#040E07"/>
<path d="M194.987 156.693L208.768 158.169L207.655 160.186L197.364 159.053L203.821 167.137L202.699 169.17L194.1 158.3L194.987 156.693Z" fill="#040E07"/>
<path d="M188.592 166.94L197.25 173.335L199.453 170.353L201.075 171.551L195.407 179.224L193.785 178.026L195.999 175.029L187.341 168.634L188.592 166.94Z" fill="#040E07"/>
<path d="M179.418 177.947L188.222 187.211L182.716 192.444L181.327 190.983L185.307 187.201L183.037 184.813L179.906 187.789L178.53 186.341L181.661 183.365L177.891 179.398L179.418 177.947Z" fill="#040E07"/>
<path d="M168.054 190.019C167.037 190.742 166.433 191.716 166.244 192.94C166.054 194.164 166.327 195.295 167.064 196.332C167.801 197.368 168.779 197.998 169.998 198.222C171.216 198.445 172.334 198.195 173.352 197.472C174.379 196.742 174.987 195.765 175.177 194.541C175.367 193.316 175.093 192.186 174.356 191.149C173.619 190.112 172.641 189.482 171.423 189.259C170.204 189.036 169.081 189.289 168.054 190.019ZM164.177 192.642C164.48 190.852 165.379 189.425 166.876 188.361C168.372 187.297 170.012 186.912 171.796 187.205C173.586 187.508 175.017 188.412 176.087 189.918C177.158 191.425 177.538 193.068 177.229 194.849C176.926 196.639 176.026 198.066 174.53 199.13C173.034 200.194 171.39 200.574 169.6 200.271C167.809 199.969 166.382 199.069 165.318 197.573C164.255 196.076 163.874 194.433 164.177 192.642Z" fill="#040E07"/>
<path d="M153.41 198.682C152.282 199.215 151.516 200.067 151.114 201.239C150.712 202.411 150.783 203.572 151.326 204.723C151.869 205.873 152.721 206.665 153.881 207.099C155.041 207.533 156.186 207.484 157.314 206.951C158.454 206.413 159.225 205.558 159.627 204.386C160.029 203.214 159.958 202.053 159.415 200.903C158.872 199.753 158.02 198.961 156.86 198.526C155.7 198.092 154.55 198.144 153.41 198.682ZM149.132 200.583C149.745 198.873 150.882 197.627 152.542 196.843C154.202 196.059 155.884 195.968 157.588 196.57C159.298 197.183 160.547 198.325 161.336 199.996C162.125 201.667 162.21 203.352 161.592 205.05C160.98 206.76 159.843 208.006 158.183 208.79C156.523 209.574 154.838 209.66 153.129 209.047C151.419 208.434 150.173 207.297 149.389 205.637C148.605 203.977 148.519 202.292 149.132 200.583Z" fill="#040E07"/>
<path d="M142.589 201.294L146.026 213.603L142.246 214.658C140.42 215.168 138.724 215.006 137.158 214.172C135.592 213.339 134.566 212.049 134.079 210.304C133.591 208.559 133.802 206.924 134.709 205.4C135.617 203.876 136.984 202.859 138.81 202.349L142.589 201.294ZM141.089 203.75L139.337 204.239C138.043 204.6 137.104 205.298 136.521 206.333C135.926 207.371 135.8 208.503 136.142 209.728C136.484 210.953 137.178 211.856 138.224 212.436C139.259 213.019 140.424 213.13 141.719 212.769L143.47 212.28L141.089 203.75Z" fill="#040E07"/>
<path d="M122.823 208.994C123.241 208.95 123.62 209.061 123.962 209.327C124.292 209.607 124.48 209.961 124.525 210.391C124.569 210.808 124.458 211.188 124.192 211.529C123.914 211.872 123.566 212.065 123.148 212.109C122.719 212.154 122.338 212.037 122.008 211.758C121.665 211.48 121.472 211.132 121.428 210.714C121.383 210.284 121.5 209.898 121.778 209.556C122.045 209.226 122.393 209.039 122.823 208.994Z" fill="#040E07"/>
<path d="M103.131 205.801L108.985 212.127L109.331 206.161L111.415 206.281L110.676 219.04L108.592 218.919L108.91 213.42L103.47 218.622L100.811 218.468L106.843 212.688L100.292 205.637L103.131 205.801Z" fill="#040E07"/>
<path d="M97.909 205.184L95.4187 217.719L90.899 216.822C89.7456 216.592 88.8941 216.075 88.3448 215.268C87.7813 214.471 87.6036 213.549 87.8117 212.501C87.9871 211.618 88.3792 210.938 88.9882 210.459C89.583 209.99 90.3593 209.747 91.3171 209.729L87.7751 203.171L90.3174 203.676L93.8133 210.096L94.749 210.282L95.8434 204.774L97.909 205.184ZM94.3913 212.083L92.1844 211.645C91.5724 211.523 91.0617 211.569 90.6525 211.781C90.241 212.005 89.9826 212.382 89.8773 212.911C89.7721 213.441 89.868 213.882 90.165 214.235C90.4596 214.599 90.913 214.842 91.525 214.964L93.7319 215.402L94.3913 212.083Z" fill="#040E07"/>
<path d="M86.994 203.018L77.4314 213.168L75.7029 212.549L74.7592 198.636L76.8266 199.376L77.0702 203.02L82.459 204.95L84.9436 202.284L86.994 203.018ZM77.5431 210.187L81.0652 206.439L77.2015 205.055L77.5431 210.187Z" fill="#040E07"/>
<path d="M68.5347 195.442L67.2113 209.239L65.1817 208.149L66.2011 197.846L58.1891 204.392L56.1436 203.293L66.9173 194.574L68.5347 195.442Z" fill="#040E07"/>
<path d="M58.228 189.159L51.9279 197.886L54.9344 200.057L53.7545 201.691L46.0192 196.108L47.1992 194.473L50.2203 196.654L56.5204 187.926L58.228 189.159Z" fill="#040E07"/>
<path d="M47.2551 180.215L38.1203 189.153L32.808 183.723L34.2489 182.314L38.0884 186.238L40.4429 183.934L37.4217 180.846L38.8498 179.449L41.871 182.537L45.7822 178.71L47.2551 180.215Z" fill="#040E07"/>
<path d="M34.9819 168.94C34.2478 167.93 33.2675 167.338 32.0412 167.161C30.8148 166.985 29.6873 167.271 28.6587 168.019C27.6301 168.767 27.0108 169.752 26.8009 170.973C26.5911 172.194 26.8532 173.309 27.5874 174.319C28.3286 175.337 29.3123 175.935 30.5387 176.111C31.765 176.288 32.8925 176.002 33.9212 175.254C34.9498 174.505 35.5691 173.521 35.7789 172.3C35.9888 171.078 35.7231 169.958 34.9819 168.94ZM32.3163 165.091C34.1099 165.374 35.5467 166.258 36.6268 167.743C37.7068 169.228 38.1102 170.863 37.8368 172.65C37.5538 174.444 36.6651 175.884 35.1706 176.971C33.6762 178.058 32.037 178.457 30.253 178.167C28.4594 177.884 27.0225 177 25.9425 175.515C24.8625 174.03 24.464 172.391 24.747 170.597C25.03 168.804 25.9139 167.367 27.3987 166.287C28.8834 165.207 30.5226 164.808 32.3163 165.091Z" fill="#040E07"/>
<path d="M26.1815 154.477C25.6361 153.355 24.7753 152.599 23.599 152.21C22.4227 151.821 21.2625 151.904 20.1184 152.46C18.9743 153.016 18.1916 153.877 17.7705 155.042C17.3494 156.207 17.4115 157.351 17.9569 158.473C18.5075 159.607 19.371 160.368 20.5473 160.757C21.7235 161.146 22.8838 161.063 24.0279 160.507C25.172 159.951 25.9546 159.09 26.3757 157.925C26.7969 156.76 26.7321 155.611 26.1815 154.477ZM24.2334 150.221C25.9495 150.815 27.2087 151.937 28.011 153.589C28.8133 155.24 28.923 156.921 28.34 158.632C27.7463 160.348 26.6183 161.61 24.9561 162.417C23.2939 163.225 21.6102 163.329 19.9049 162.73C18.1889 162.136 16.9297 161.014 16.1274 159.362C15.325 157.711 15.2207 156.027 15.8145 154.311C16.4083 152.595 17.5309 151.336 19.1823 150.534C20.8337 149.731 22.5174 149.627 24.2334 150.221Z" fill="#040E07"/>
<path d="M23.4288 143.693L11.1593 147.268L10.0613 143.501C9.53085 141.681 9.67352 139.983 10.4894 138.408C11.3052 136.833 12.583 135.792 14.3226 135.285C16.0622 134.778 17.6992 134.969 19.2336 135.86C20.768 136.75 21.8004 138.105 22.3309 139.925L23.4288 143.693ZM20.9559 142.22L20.4473 140.474C20.0712 139.184 19.3624 138.253 18.321 137.682C17.2761 137.099 16.1431 136.985 14.9219 137.341C13.7007 137.697 12.8061 138.401 12.238 139.454C11.6666 140.496 11.5689 141.662 11.945 142.952L12.4537 144.698L20.9559 142.22Z" fill="#040E07"/>
<path d="M15.4853 124C15.5337 124.418 15.427 124.798 15.165 125.143C14.8897 125.477 14.5375 125.669 14.1083 125.719C13.6912 125.767 13.3103 125.66 12.9658 125.398C12.6198 125.125 12.4227 124.779 12.3742 124.362C12.3244 123.933 12.4371 123.551 12.7124 123.217C12.9863 122.871 13.3319 122.674 13.7491 122.626C14.1782 122.576 14.5657 122.688 14.9116 122.962C15.2442 123.225 15.4355 123.571 15.4853 124Z" fill="#040E07"/>
<path d="M18.4373 104.393L12.1803 110.32L18.1499 110.596L18.0532 112.682L5.2869 112.09L5.38355 110.005L10.8856 110.26L5.62103 104.88L5.74435 102.219L11.5945 108.184L18.569 101.552L18.4373 104.393Z" fill="#040E07"/>
<path d="M18.9581 99.2L6.39535 96.8536L7.24139 92.3239C7.4573 91.1679 7.96534 90.3106 8.7655 89.752C9.55607 89.1795 10.4763 88.9912 11.5261 89.1873C12.4108 89.3525 13.0959 89.7369 13.5814 90.3402C14.0572 90.9296 14.3095 91.7031 14.3382 92.6606L20.8551 89.0437L20.3792 91.5916L13.9994 95.1609L13.8242 96.0987L19.3448 97.1298L18.9581 99.2ZM12.0194 95.7616L12.4325 93.5499C12.5471 92.9365 12.4959 92.4264 12.2789 92.0197C12.0501 91.6107 11.6703 91.3566 11.1395 91.2575C10.6086 91.1583 10.1686 91.2593 9.81942 91.5603C9.45842 91.8591 9.22064 92.3152 9.10607 92.9286L8.69297 95.1403L12.0194 95.7616Z" fill="#040E07"/>
<path d="M20.9257 88.4421L10.633 79.0333L11.226 77.2957L25.1233 76.1426L24.414 78.2209L20.7745 78.5194L18.9257 83.9366L21.6291 86.3808L20.9257 88.4421ZM13.6152 79.1001L17.4157 82.5654L18.7412 78.6813L13.6152 79.1001Z" fill="#040E07"/>
<path d="M28.3298 69.6189L14.5193 68.4487L15.5871 66.4071L25.9003 67.3121L19.2663 59.3732L20.3425 57.3156L29.1808 67.992L28.3298 69.6189Z" fill="#040E07"/>
<path d="M34.4109 59.3306L25.6147 53.1266L23.4775 56.1567L21.83 54.9948L27.3286 47.1988L28.976 48.3607L26.8285 51.4056L35.6247 57.6096L34.4109 59.3306Z" fill="#040E07"/>
<path d="M43.1712 48.2417L34.1344 39.2049L39.5055 33.8337L40.9311 35.2592L37.0491 39.1412L39.3783 41.4704L42.433 38.4157L43.8458 39.8285L40.7911 42.8832L44.6604 46.7525L43.1712 48.2417Z" fill="#040E07"/>
<path d="M54.4738 35.6654C55.4749 34.9203 56.0569 33.9336 56.2198 32.7054C56.3827 31.4772 56.0844 30.3529 55.3249 29.3325C54.5655 28.3121 53.5741 27.7037 52.3508 27.5072C51.1275 27.3108 50.0153 27.5851 49.0141 28.3302C48.0034 29.0825 47.4166 30.0728 47.2537 31.301C47.0908 32.5292 47.3891 33.6535 48.1486 34.6739C48.908 35.6943 49.8994 36.3027 51.1227 36.4992C52.346 36.6957 53.463 36.4178 54.4738 35.6654ZM58.2925 32.9578C58.0291 34.7544 57.161 36.2009 55.6882 37.2971C54.2154 38.3933 52.5842 38.8146 50.7948 38.5608C48.9981 38.2974 47.5481 37.4245 46.4447 35.9421C45.3413 34.4596 44.9249 32.8249 45.1954 31.0379C45.4588 29.2412 46.3269 27.7948 47.7997 26.6986C49.2725 25.6024 50.9073 25.1859 52.7039 25.4493C54.5006 25.7127 55.947 26.5808 57.0432 28.0536C58.1394 29.5264 58.5559 31.1611 58.2925 32.9578Z" fill="#040E07"/>
<path d="M68.686 26.7608C69.8024 26.203 70.5486 25.3338 70.9245 24.1532C71.3005 22.9727 71.2041 21.8135 70.6356 20.6756C70.067 19.5378 69.1978 18.7648 68.028 18.3566C66.8582 17.9485 65.7151 18.0233 64.5987 18.5812C63.4716 19.1444 62.7201 20.0163 62.3441 21.1968C61.9682 22.3774 62.0645 23.5366 62.633 24.6744C63.2016 25.8123 64.0708 26.5853 65.2406 26.9934C66.4104 27.4016 67.5589 27.324 68.686 26.7608ZM72.9207 24.7655C72.3461 26.488 71.2376 27.7596 69.5952 28.5803C67.9528 29.401 66.2731 29.5294 64.5559 28.9655C62.8334 28.3908 61.5591 27.2769 60.733 25.6238C59.907 23.9707 59.784 22.2883 60.364 20.5765C60.9386 18.854 62.0472 17.5824 63.6895 16.7617C65.3319 15.941 67.0143 15.818 68.7369 16.3926C70.4594 16.9673 71.731 18.0758 72.5517 19.7182C73.3724 21.3605 73.4954 23.043 72.9207 24.7655Z" fill="#040E07"/>
<path d="M79.5118 23.8233L75.797 11.5951L79.5515 10.4545C81.3657 9.90334 83.0649 10.0267 84.6493 10.8247C86.2336 11.6226 87.2891 12.8884 87.8158 14.6222C88.3425 16.3559 88.1695 17.995 87.2967 19.5394C86.424 21.0838 85.0805 22.1315 83.2664 22.6826L79.5118 23.8233ZM80.9566 21.3338L82.6961 20.8054C83.982 20.4147 84.9048 19.6954 85.4644 18.6475C86.0354 17.5961 86.1361 16.4619 85.7663 15.2448C85.3966 14.0277 84.682 13.1412 83.6226 12.5851C82.5747 12.0255 81.4078 11.9411 80.1218 12.3317L78.3823 12.8602L80.9566 21.3338Z" fill="#040E07"/>
<path d="M99.1299 15.6306C98.7133 15.6839 98.3313 15.5815 97.9837 15.3235C97.6466 15.0521 97.4506 14.7021 97.3958 14.2736C97.3426 13.857 97.4449 13.4749 97.703 13.1274C97.9729 12.7783 98.3161 12.5772 98.7327 12.5239C99.1613 12.4691 99.5441 12.5774 99.8812 12.8489C100.23 13.1188 100.431 13.4621 100.485 13.8787C100.539 14.3072 100.432 14.696 100.162 15.045C99.9025 15.3806 99.5584 15.5758 99.1299 15.6306Z" fill="#040E07"/>
<path d="M118.655 18.3327L112.656 12.1446L112.449 18.117L110.362 18.0445L110.806 5.27221L112.892 5.34472L112.701 10.8494L118.019 5.52288L120.682 5.6154L114.785 11.5342L121.497 18.4314L118.655 18.3327Z" fill="#040E07"/>
<path d="M123.925 18.778L126.128 6.1891L130.667 6.9831C131.825 7.18574 132.688 7.6839 133.256 8.4776C133.837 9.26154 134.036 10.1795 133.852 11.2316C133.697 12.1181 133.321 12.8075 132.723 13.2999C132.139 13.7825 131.368 14.0437 130.411 14.0833L134.103 20.5582L131.55 20.1116L127.907 13.7732L126.968 13.6088L126 19.1408L123.925 18.778ZM127.284 11.8003L129.5 12.188C130.115 12.2955 130.624 12.2384 131.029 12.0168C131.435 11.7833 131.685 11.4006 131.778 10.8687C131.871 10.3367 131.765 9.89793 131.46 9.5522C131.157 9.19466 130.698 8.96212 130.083 8.8546L127.867 8.46691L127.284 11.8003Z" fill="#040E07"/>
<path d="M134.713 20.5989L144.005 10.2005L145.749 10.7738L147.059 24.6572L144.973 23.9715L144.633 20.3356L139.196 18.5481L136.782 21.279L134.713 20.5989ZM143.972 13.1833L140.55 17.0227L144.448 18.3043L143.972 13.1833Z" fill="#040E07"/>
<path d="M153.782 27.8441L154.799 14.0214L156.852 15.0665L156.062 25.389L163.926 18.6672L165.996 19.7205L155.418 28.6769L153.782 27.8441Z" fill="#040E07"/>
<path d="M164.146 33.8087L170.253 24.9449L167.2 22.8411L168.343 21.181L176.199 26.5937L175.055 28.2538L171.987 26.1398L165.88 35.0036L164.146 33.8087Z" fill="#040E07"/>
<path d="M175.367 42.4806L184.305 33.3458L189.734 38.6582L188.324 40.0991L184.4 36.2597L182.096 38.6141L185.184 41.6353L183.787 43.0635L180.699 40.0422L176.872 43.9535L175.367 42.4806Z" fill="#040E07"/>
<path d="M188.062 53.6537C188.818 54.6466 189.811 55.2178 191.041 55.3673C192.271 55.5167 193.392 55.2061 194.404 54.4355C195.416 53.6649 196.014 52.6669 196.197 51.4416C196.38 50.2162 196.093 49.1071 195.337 48.1141C194.574 47.1117 193.577 46.5357 192.347 46.3863C191.117 46.2369 189.996 46.5474 188.984 47.318C187.972 48.0886 187.375 49.0866 187.192 50.312C187.009 51.5374 187.299 52.6513 188.062 53.6537ZM190.811 57.4426C189.012 57.1989 187.556 56.3467 186.444 54.886C185.332 53.4252 184.893 51.7988 185.127 50.0066C185.37 48.2072 186.227 46.7477 187.698 45.6282C189.168 44.5086 190.798 44.0743 192.588 44.3253C194.387 44.569 195.843 45.4212 196.955 46.8819C198.068 48.3426 198.502 49.9727 198.258 51.7721C198.015 53.5716 197.162 55.0274 195.702 56.1397C194.241 57.252 192.611 57.6863 190.811 57.4426Z" fill="#040E07"/>
<path d="M197.142 67.8183C197.712 68.9284 198.589 69.6648 199.774 70.0276C200.959 70.3905 202.117 70.2813 203.248 69.7001C204.379 69.1189 205.143 68.2412 205.538 67.0669C205.933 65.8926 205.845 64.7504 205.275 63.6403C204.7 62.5195 203.819 61.7777 202.635 61.4149C201.45 61.0521 200.292 61.1613 199.161 61.7425C198.029 62.3237 197.266 63.2014 196.871 64.3757C196.476 65.55 196.566 66.6975 197.142 67.8183ZM199.184 72.0305C197.455 71.4751 196.171 70.3808 195.332 68.7476C194.493 67.1145 194.346 65.4362 194.891 63.7129C195.447 61.9841 196.546 60.6975 198.19 59.8532C199.834 59.0088 201.515 58.8671 203.233 59.428C204.962 59.9835 206.246 61.0778 207.085 62.7109C207.923 64.3441 208.065 66.0251 207.51 67.7539C206.954 69.4827 205.86 70.7665 204.227 71.6054C202.594 72.4443 200.913 72.586 199.184 72.0305Z" fill="#040E07"/>
<path d="M200.177 78.5872L212.362 74.734L213.545 78.4754C214.117 80.2831 214.013 81.9837 213.233 83.5769C212.453 85.1702 211.199 86.24 209.472 86.7864C207.744 87.3327 206.103 87.1782 204.549 86.323C202.995 85.4678 201.932 84.1363 201.36 82.3286L200.177 78.5872ZM202.683 80.0036L203.231 81.737C203.636 83.0185 204.366 83.933 205.42 84.4807C206.478 85.0398 207.613 85.1276 208.826 84.744C210.039 84.3605 210.917 83.636 211.461 82.5704C212.009 81.5162 212.08 80.3484 211.675 79.0669L211.127 77.3335L202.683 80.0036Z" fill="#040E07"/>
<path d="M208.568 98.0818C208.51 97.6659 208.608 97.2827 208.862 96.9322C209.129 96.5919 209.477 96.3919 209.905 96.3322C210.321 96.2742 210.704 96.3721 211.054 96.6261C211.406 96.892 211.612 97.2329 211.67 97.6489C211.729 98.0768 211.625 98.4608 211.358 98.801C211.092 99.1532 210.751 99.3583 210.335 99.4163C209.907 99.4761 209.517 99.373 209.165 99.1071C208.827 98.8514 208.627 98.5097 208.568 98.0818Z" fill="#040E07"/>
</svg>
