<svg width="554" height="553" viewBox="0 0 554 553" fill="none" xmlns="http://www.w3.org/2000/svg">
<path d="M524.119 282.925L542.048 283.548L542.263 277.372L545.621 277.489L545.069 293.379L541.711 293.262L541.926 287.056L523.997 286.433L524.119 282.925Z" fill="#040E07"/>
<path d="M525.277 307.737C525.014 309.8 525.524 311.64 526.81 313.256C528.095 314.872 529.789 315.814 531.892 316.083C533.995 316.352 535.872 315.866 537.523 314.625C539.173 313.385 540.131 311.733 540.394 309.67C540.661 307.587 540.151 305.737 538.866 304.121C537.58 302.505 535.886 301.562 533.783 301.294C531.68 301.025 529.804 301.511 528.153 302.751C526.502 303.992 525.544 305.654 525.277 307.737ZM524.11 315.451C522.258 313.057 521.527 310.342 521.915 307.307C522.303 304.272 523.684 301.827 526.058 299.973C528.452 298.122 531.177 297.392 534.232 297.782C537.287 298.173 539.731 299.564 541.562 301.955C543.413 304.349 544.145 307.064 543.757 310.099C543.369 313.135 541.978 315.578 539.584 317.429C537.19 319.281 534.475 320.012 531.44 319.624C528.404 319.236 525.961 317.845 524.11 315.451Z" fill="#040E07"/>
<path d="M525.989 327.141L540.155 330.464L536.674 345.301L515.937 340.436L516.745 336.99L534.211 341.087L536.075 333.143L524.713 330.478C522.552 329.97 521.043 329.134 520.187 327.967C519.331 326.801 519.092 325.41 519.471 323.794C519.659 322.995 519.837 322.411 520.006 322.039L523.19 322.786C523.045 323.142 522.91 323.583 522.787 324.109C522.613 324.849 522.748 325.456 523.192 325.93C523.635 326.404 524.568 326.807 525.989 327.141Z" fill="#040E07"/>
<path d="M525.116 355.577L523.932 359.135C523.243 361.204 522.108 362.681 520.528 363.567C518.947 364.453 517.226 364.587 515.367 363.968C513.526 363.355 512.242 362.211 511.514 360.535C510.78 358.878 510.753 357.025 511.436 354.976L513.738 348.059L533.948 354.786L532.83 358.145L525.116 355.577ZM515.723 352.45L514.557 355.952C514.172 357.109 514.138 358.099 514.454 358.921C514.79 359.749 515.46 360.331 516.466 360.666C517.491 361.007 518.376 360.943 519.122 360.475C519.887 360.013 520.463 359.203 520.848 358.046L522.013 354.545L515.723 352.45Z" fill="#040E07"/>
<path d="M501.982 379.119L515.208 373.516L506.049 369.602L507.417 366.402L527.003 374.772L525.636 377.972L517.194 374.365L522.276 385.835L520.531 389.917L514.877 377.192L500.119 383.478L501.982 379.119Z" fill="#040E07"/>
<path d="M496.568 396.478C495.563 398.299 495.361 400.198 495.962 402.174C496.562 404.149 497.79 405.649 499.647 406.673C501.503 407.697 503.427 407.936 505.418 407.39C507.41 406.844 508.908 405.661 509.912 403.839C510.927 402.001 511.134 400.093 510.533 398.118C509.933 396.142 508.705 394.642 506.848 393.618C504.992 392.594 503.068 392.355 501.077 392.901C499.085 393.447 497.582 394.639 496.568 396.478ZM492.643 403.221C491.803 400.314 492.122 397.52 493.6 394.841C495.078 392.161 497.262 390.397 500.152 389.547C503.059 388.707 505.861 389.031 508.558 390.518C511.255 392.006 513.015 394.199 513.838 397.096C514.678 400.004 514.359 402.797 512.881 405.477C511.403 408.156 509.21 409.916 506.303 410.756C503.395 411.596 500.602 411.277 497.922 409.799C495.243 408.321 493.483 406.128 492.643 403.221Z" fill="#040E07"/>
<path d="M474.046 425.045C475.963 422.508 478.399 421.027 481.352 420.602C484.31 420.205 487.033 420.946 489.522 422.828C492.012 424.709 493.461 427.12 493.87 430.061C494.283 433.031 493.531 435.784 491.614 438.321C490.095 440.332 488.194 441.653 485.912 442.285C483.633 442.944 481.477 442.844 479.445 441.985L481.724 438.969C482.974 439.338 484.258 439.281 485.576 438.797C486.894 438.314 488.005 437.474 488.909 436.277C490.236 434.522 490.745 432.638 490.436 430.625C490.127 428.612 489.111 426.954 487.388 425.652C485.665 424.35 483.793 423.825 481.772 424.077C479.751 424.33 478.077 425.334 476.751 427.089C475.846 428.286 475.342 429.584 475.237 430.984C475.132 432.383 475.427 433.634 476.123 434.737L473.844 437.753C472.462 436.032 471.77 433.979 471.766 431.595C471.767 429.239 472.527 427.056 474.046 425.045Z" fill="#040E07"/>
<path d="M464.325 437.813L480.029 452.203L475.063 457.622C473.806 458.994 472.359 459.729 470.721 459.829C469.07 459.943 467.64 459.447 466.431 458.339C465.133 457.15 464.569 455.737 464.738 454.102C462.505 455.148 460.489 454.847 458.69 453.198C457.378 451.996 456.718 450.51 456.712 448.741C456.707 447 457.38 445.392 458.731 443.917L464.325 437.813ZM464.32 442.569L461.158 446.02C460.402 446.846 460.02 447.676 460.014 448.512C460.008 449.347 460.344 450.076 461.023 450.697C461.686 451.305 462.434 451.57 463.266 451.491C464.112 451.426 464.914 450.98 465.67 450.155L468.832 446.704L464.32 442.569ZM471.044 448.731L468.571 451.429C467.936 452.122 467.628 452.858 467.648 453.635C467.668 454.413 467.988 455.086 468.607 455.653C469.197 456.194 469.887 456.447 470.678 456.412C471.47 456.378 472.183 456.014 472.818 455.321L475.291 452.623L471.044 448.731Z" fill="#040E07"/>
<path d="M450.364 452.655L464.925 468.201L455.576 476.958L453.279 474.505L460.066 468.148L456.334 464.163L450.86 469.29L448.563 466.838L454.037 461.71L450.099 457.507L443.312 463.864L441.015 461.412L450.364 452.655Z" fill="#040E07"/>
<path d="M418.305 479.446L431.215 481.494L425.49 473.976L428.282 471.849L433.989 479.344L435.443 466.397L439.023 463.671L437.449 478.293L451.211 481.162L447.845 483.725L435.334 481.11L441.186 488.796L438.394 490.922L432.541 483.236L431.71 496.011L428.345 498.573L429.263 484.526L414.725 482.172L418.305 479.446Z" fill="#040E07"/>
<path d="M408.29 485.902L410.925 484.346L421.758 502.685L418.71 504.486L410.928 491.313L408.404 510.574L405.77 512.13L394.936 493.791L397.958 492.006L405.755 505.205L408.29 485.902Z" fill="#040E07"/>
<path d="M388.657 496.983L397.823 516.21L386.259 521.722L384.814 518.689L393.208 514.687L390.859 509.758L384.089 512.986L382.643 509.953L389.413 506.725L386.934 501.526L378.54 505.528L377.094 502.495L388.657 496.983Z" fill="#040E07"/>
<path d="M350.073 512.541L355.675 529.584L365.394 526.389L359.791 509.346L363.097 508.259L369.749 528.494L353.418 533.862L346.767 513.627L350.073 512.541Z" fill="#040E07"/>
<path d="M332.229 537.091C330.584 536.121 329.535 534.672 329.083 532.744C328.63 530.817 328.923 529.043 329.961 527.423C331.003 525.823 332.575 524.776 334.678 524.283L337.862 523.536L336.176 516.351L339.593 515.549L344.458 536.286L337.857 537.835C335.754 538.328 333.878 538.08 332.229 537.091ZM332.89 529.139C332.349 529.985 332.199 530.924 332.442 531.956C332.684 532.988 333.233 533.753 334.089 534.251C334.93 534.772 335.945 534.894 337.133 534.615L340.287 533.875L338.615 526.749L335.461 527.489C334.273 527.767 333.416 528.318 332.89 529.139Z" fill="#040E07"/>
<path d="M312.25 524.017C310.19 524.305 308.549 525.281 307.328 526.946C306.106 528.611 305.642 530.493 305.935 532.593C306.228 534.692 307.19 536.376 308.821 537.642C310.451 538.909 312.297 539.399 314.357 539.111C316.437 538.821 318.087 537.843 319.309 536.178C320.53 534.514 320.995 532.631 320.702 530.532C320.409 528.432 319.447 526.749 317.816 525.482C316.185 524.215 314.33 523.727 312.25 524.017ZM304.5 524.917C306.324 522.502 308.751 521.083 311.781 520.66C314.812 520.237 317.534 520.927 319.946 522.731C322.361 524.555 323.782 526.992 324.208 530.042C324.633 533.093 323.933 535.816 322.107 538.211C320.283 540.626 317.856 542.046 314.825 542.469C311.795 542.892 309.072 542.191 306.657 540.368C304.241 538.544 302.822 536.117 302.399 533.086C301.976 530.056 302.676 527.333 304.5 524.917Z" fill="#040E07"/>
<path d="M278.577 519.088L278.731 523.525L293.332 523.018L293.178 518.58L296.386 518.469L296.657 526.264L296.267 526.278C294.448 526.341 293.617 528.621 293.773 533.118L294.162 544.302L278.961 544.83L278.338 526.901L275.639 526.995L275.368 519.199L278.577 519.088ZM290.507 541.067L290.221 532.822C290.121 529.963 290.468 527.84 291.26 526.452L281.846 526.779L282.352 541.35L290.507 541.067Z" fill="#040E07"/>
<path d="M267.88 523.149L267.679 526.413C267.184 526.302 266.568 526.224 265.83 526.178C265.111 526.134 264.483 526.245 263.945 526.513C263.407 526.8 262.892 527.349 262.401 528.16L269.699 544.782L265.687 544.534L260.156 531.899L253.081 543.755L249.158 543.513L258.744 527.514C259.775 525.734 260.814 524.486 261.861 523.769C262.907 523.052 264.149 522.738 265.586 522.827C266.205 522.865 266.969 522.972 267.88 523.149Z" fill="#040E07"/>
<path d="M232.993 519.559L241.692 530.989L243.22 521.147L246.659 521.681L243.391 542.729L239.952 542.195L241.361 533.124L231.504 540.883L227.116 540.202L238.049 531.577L228.309 518.832L232.993 519.559Z" fill="#040E07"/>
<path d="M221.392 517.102L217.228 534.552L223.239 535.987L222.459 539.255L206.994 535.564L207.773 532.296L213.814 533.738L217.978 516.288L221.392 517.102Z" fill="#040E07"/>
<path d="M199.583 524.944L196.039 523.719C193.978 523.007 192.514 521.856 191.646 520.265C190.778 518.674 190.664 516.953 191.304 515.1C191.937 513.267 193.096 511.995 194.78 511.286C196.445 510.571 198.298 510.566 200.339 511.271L207.23 513.652L200.274 533.784L196.928 532.628L199.583 524.944ZM202.816 515.586L199.328 514.381C198.175 513.983 197.186 513.937 196.36 514.245C195.528 514.571 194.939 515.235 194.593 516.237C194.24 517.257 194.294 518.144 194.754 518.895C195.207 519.665 196.01 520.249 197.163 520.648L200.651 521.853L202.816 515.586ZM190.755 507.96L183.8 528.092L180.482 526.946L187.438 506.814L190.755 507.96Z" fill="#040E07"/>
<path d="M168.172 504.428C168.803 504.732 169.244 505.222 169.496 505.898C169.721 506.583 169.678 507.25 169.365 507.899C169.062 508.53 168.572 508.971 167.896 509.223C167.202 509.466 166.539 509.436 165.909 509.132C165.26 508.82 164.823 508.321 164.598 507.636C164.355 506.941 164.385 506.279 164.689 505.648C165.001 505 165.504 504.554 166.198 504.311C166.866 504.077 167.524 504.116 168.172 504.428Z" fill="#040E07"/>
<path d="M151.033 488.829L141.738 504.174L147.024 507.376L145.283 510.25L131.683 502.012L133.424 499.138L138.736 502.355L148.03 487.011L151.033 488.829Z" fill="#040E07"/>
<path d="M129.123 477.919C127.45 476.683 125.594 476.233 123.557 476.568C121.519 476.903 119.871 477.923 118.611 479.628C117.351 481.333 116.861 483.209 117.14 485.255C117.419 487.301 118.395 488.942 120.068 490.178C121.757 491.425 123.621 491.882 125.658 491.547C127.696 491.212 129.344 490.192 130.604 488.487C131.864 486.781 132.354 484.906 132.075 482.86C131.796 480.814 130.812 479.167 129.123 477.919ZM122.956 473.14C125.948 472.69 128.676 473.374 131.137 475.192C133.598 477.011 135.06 479.408 135.522 482.385C135.971 485.377 135.281 488.113 133.451 490.59C131.622 493.067 129.216 494.523 126.235 494.957C123.242 495.407 120.515 494.723 118.054 492.905C115.593 491.086 114.137 488.681 113.687 485.688C113.237 482.695 113.921 479.968 115.739 477.507C117.557 475.046 119.963 473.59 122.956 473.14Z" fill="#040E07"/>
<path d="M111.805 469.012L102.014 479.775L90.7403 469.52L105.074 453.764L107.692 456.146L95.6199 469.416L101.656 474.908L109.509 466.275C111.003 464.633 112.468 463.721 113.903 463.54C115.339 463.359 116.67 463.827 117.898 464.944C118.505 465.496 118.929 465.936 119.171 466.264L116.971 468.683C116.73 468.383 116.41 468.051 116.011 467.688C115.448 467.177 114.852 466.999 114.223 467.157C113.593 467.314 112.787 467.932 111.805 469.012Z" fill="#040E07"/>
<path d="M87.4377 454.45L84.9041 451.685C83.4313 450.078 82.6919 448.368 82.6861 446.556C82.6802 444.744 83.3998 443.175 84.8448 441.851C86.2751 440.541 87.8994 439.974 89.7177 440.153C91.5224 440.317 93.1545 441.195 94.6138 442.787L99.539 448.162L83.8354 462.552L81.4438 459.942L87.4377 454.45ZM94.7365 447.761L92.2435 445.041C91.4193 444.141 90.571 443.63 89.6987 443.507C88.8117 443.397 87.9774 443.701 87.1959 444.417C86.3997 445.147 86.0249 445.951 86.0714 446.831C86.1032 447.724 86.5312 448.62 87.3555 449.52L89.8485 452.24L94.7365 447.761Z" fill="#040E07"/>
<path d="M77.9671 422.592L76.4172 436.872L84.2972 430.78L86.4256 433.534L69.5738 446.561L67.4454 443.807L74.7083 438.193L62.2162 437.043L59.5007 433.53L73.3686 434.792L75.0681 418.842L77.9671 422.592Z" fill="#040E07"/>
<path d="M65.7725 409.965C64.6624 408.206 63.0973 407.113 61.0771 406.685C59.057 406.257 57.1505 406.609 55.3577 407.74C53.5649 408.872 52.427 410.441 51.944 412.449C51.4609 414.457 51.7745 416.34 52.8846 418.099C54.0054 419.875 55.5759 420.977 57.596 421.405C59.6162 421.833 61.5226 421.481 63.3154 420.349C65.1082 419.218 66.2462 417.648 66.7292 415.641C67.2122 413.633 66.8933 411.741 65.7725 409.965ZM61.7617 403.273C64.7136 403.941 67.0061 405.568 68.6393 408.156C70.2725 410.744 70.7638 413.508 70.1131 416.449C69.4455 419.401 67.8094 421.699 65.2048 423.343C62.6002 424.987 59.8304 425.47 56.8954 424.791C53.9435 424.124 51.651 422.496 50.0178 419.908C48.3846 417.321 47.9018 414.551 48.5694 411.599C49.237 408.647 50.8646 406.355 53.4523 404.721C56.0401 403.088 58.8099 402.605 61.7617 403.273Z" fill="#040E07"/>
<path d="M51.687 376.477C52.9801 379.382 53.0985 382.23 52.0421 385.021C50.9593 387.801 48.9928 389.826 46.1424 391.095C43.292 392.363 40.4806 392.466 37.7081 391.401C34.9092 390.326 32.8631 388.336 31.5699 385.431C30.5452 383.129 30.3083 380.826 30.8593 378.523C31.3839 376.21 32.514 374.372 34.2494 373.008L35.7866 376.461C34.8591 377.378 34.2881 378.529 34.0737 379.917C33.8592 381.304 34.057 382.682 34.667 384.053C35.5616 386.063 36.9646 387.419 38.8759 388.123C40.7872 388.826 42.7295 388.739 44.7028 387.861C46.6761 386.982 48.041 385.597 48.7974 383.706C49.5537 381.815 49.4846 379.865 48.5899 377.855C47.9799 376.485 47.0878 375.415 45.9137 374.646C44.7395 373.877 43.5016 373.531 42.1999 373.607L40.6628 370.153C42.8374 369.776 44.9688 370.163 47.0571 371.313C49.1189 372.453 50.6622 374.174 51.687 376.477Z" fill="#040E07"/>
<path d="M45.1129 361.5L24.9033 368.227L22.5818 361.254C21.9943 359.489 22.055 357.867 22.7639 356.387C23.4666 354.888 24.5959 353.88 26.1519 353.362C27.8218 352.806 29.3302 352.999 30.6769 353.942C30.8486 351.482 32.0921 349.867 34.4071 349.096C36.096 348.534 37.7151 348.68 39.2642 349.534C40.7881 350.376 41.8659 351.746 42.4976 353.643L45.1129 361.5ZM40.9586 359.183L39.4804 354.743C39.1266 353.68 38.5862 352.943 37.859 352.532C37.1318 352.12 36.3318 352.06 35.4589 352.35C34.605 352.635 34.0103 353.159 33.6748 353.925C33.3203 354.696 33.3199 355.613 33.6737 356.676L35.1519 361.116L40.9586 359.183ZM32.3055 362.064L31.1494 358.591C30.8525 357.699 30.3595 357.073 29.6702 356.712C28.981 356.351 28.2379 356.304 27.4409 356.569C26.6818 356.822 26.1251 357.302 25.7706 358.01C25.4162 358.719 25.3874 359.519 25.6843 360.41L26.8403 363.883L32.3055 362.064Z" fill="#040E07"/>
<path d="M38.8981 341.961L18.218 347.062L15.15 334.625L18.4122 333.82L20.6396 342.85L25.9407 341.542L24.1444 334.26L27.4066 333.456L29.2029 340.737L34.7952 339.358L32.5679 330.328L35.8301 329.524L38.8981 341.961Z" fill="#040E07"/>
<path d="M31.2504 301.643L23.1787 311.924L32.5329 310.582L33.0315 314.056L23.707 315.394L34.3097 322.965L34.9489 327.419L22.9412 318.929L13.737 329.554L13.1362 325.367L21.5095 315.71L11.9474 317.082L11.4489 313.607L21.0109 312.235L10.2558 305.292L9.65498 301.105L21.4797 308.743L30.6112 297.189L31.2504 301.643Z" fill="#040E07"/>
<path d="M30.4156 289.083L30.4865 292.142L9.19218 292.635L9.11021 289.096L24.4061 288.742L8.83302 277.129L8.76216 274.07L30.0564 273.577L30.1377 277.086L14.8118 277.441L30.4156 289.083Z" fill="#040E07"/>
<path d="M30.304 266.433L9.04981 265.037L9.88937 252.255L13.2421 252.475L12.6326 261.755L18.0809 262.113L18.5724 254.629L21.9252 254.849L21.4337 262.333L27.1813 262.71L27.7908 253.43L31.1436 253.651L30.304 266.433Z" fill="#040E07"/>
<path d="M35.561 224.79L17.9517 221.361L15.9966 231.403L33.6059 234.831L32.9408 238.247L12.0334 234.176L15.3187 217.303L36.2261 221.374L35.561 224.79Z" fill="#040E07"/>
<path d="M22.7592 197.422C24.4089 196.461 26.1853 196.253 28.0883 196.8C29.9913 197.347 31.3962 198.468 32.303 200.165C33.1906 201.855 33.3361 203.739 32.7396 205.815L31.8365 208.958L38.9295 210.996L37.9602 214.369L17.4885 208.487L19.3609 201.971C19.9574 199.895 21.0902 198.379 22.7592 197.422ZM29.3746 201.883C28.9007 200.997 28.1543 200.408 27.1356 200.116C26.1168 199.823 25.1812 199.929 24.3288 200.433C23.4627 200.912 22.8612 201.738 22.5243 202.911L21.6295 206.025L28.6649 208.046L29.5596 204.932C29.8965 203.76 29.8349 202.743 29.3746 201.883Z" fill="#040E07"/>
<path d="M44.0793 185.839C44.8392 183.903 44.7933 181.995 43.9416 180.113C43.0899 178.232 41.6773 176.904 39.7039 176.13C37.7304 175.356 35.7918 175.368 33.888 176.168C31.9843 176.968 30.6525 178.336 29.8926 180.272C29.1255 182.227 29.1677 184.145 30.0194 186.026C30.8711 187.907 32.2836 189.235 34.2571 190.01C36.2306 190.784 38.1692 190.771 40.073 189.972C41.9767 189.172 43.3122 187.794 44.0793 185.839ZM47.0963 178.644C48.3066 181.418 48.3529 184.229 47.235 187.078C46.1172 189.926 44.1807 191.959 41.4254 193.177C38.6516 194.387 35.8311 194.43 32.9639 193.305C30.0968 192.18 28.0674 190.234 26.8757 187.467C25.6653 184.693 25.6191 181.882 26.7369 179.034C27.8548 176.185 29.8006 174.156 32.5745 172.946C35.3483 171.735 38.1595 171.689 41.008 172.807C43.8565 173.925 45.886 175.87 47.0963 178.644Z" fill="#040E07"/>
<path d="M64.7704 159.049L60.8285 157.006L54.105 169.977L58.0469 172.02L56.5697 174.87L49.6447 171.28L49.8242 170.934C50.6618 169.318 49.0829 167.475 45.0878 165.404L35.1531 160.255L42.1527 146.751L58.0802 155.007L59.3227 152.61L66.2477 156.199L64.7704 159.049ZM39.7653 158.658L47.0898 162.455C49.6289 163.771 51.3089 165.115 52.1298 166.486L56.4649 158.123L43.5205 151.413L39.7653 158.658Z" fill="#040E07"/>
<path d="M65.9044 148.579L63.1585 146.803C63.4972 146.427 63.8674 145.928 64.2692 145.307C64.6602 144.702 64.8709 144.1 64.9013 143.5C64.915 142.89 64.6886 142.172 64.2221 141.346L46.1565 139.561L48.3393 136.185L62.0637 137.557L55.1973 125.579L57.3313 122.279L66.5784 138.476C67.624 140.247 68.2028 141.765 68.3148 143.028C68.4268 144.291 68.0918 145.528 67.3099 146.737C66.9732 147.258 66.5048 147.872 65.9044 148.579Z" fill="#040E07"/>
<path d="M85.6295 120.394L71.4119 122.439L79.2696 128.559L77.1312 131.305L60.327 118.216L62.4654 115.471L69.7078 121.112L67.7192 108.726L70.4475 105.223L72.6693 118.969L88.5422 116.654L85.6295 120.394Z" fill="#040E07"/>
<path d="M93.1518 111.662L79.9254 99.5417L75.7501 104.098L73.2729 101.828L84.0151 90.1055L86.4923 92.3755L82.2968 96.9539L95.5232 109.074L93.1518 111.662Z" fill="#040E07"/>
<path d="M97.6696 87.9539L100.462 85.4506C102.085 83.9954 103.803 83.2748 105.615 83.2887C107.427 83.3026 108.987 84.0392 110.296 85.4986C111.591 86.9431 112.139 88.5734 111.941 90.3897C111.757 92.1925 110.861 93.8149 109.253 95.2568L103.825 100.123L89.6068 84.2635L92.2426 81.9004L97.6696 87.9539ZM104.278 95.3252L107.026 92.862C107.934 92.0477 108.455 91.205 108.587 90.3341C108.706 89.4484 108.412 88.6108 107.704 87.8216C106.983 87.0174 106.183 86.6338 105.303 86.6708C104.409 86.6929 103.508 87.1111 102.6 87.9255L99.8525 90.3887L104.278 95.3252ZM116.803 88.488L102.585 72.6284L105.198 70.2854L119.417 86.145L116.803 88.488Z" fill="#040E07"/>
<path d="M131.034 70.2935C130.462 70.6969 129.819 70.8442 129.106 70.7353C128.398 70.5986 127.836 70.236 127.421 69.6476C127.018 69.0756 126.871 68.433 126.979 67.7199C127.105 66.9952 127.453 66.4312 128.025 66.0277C128.614 65.6127 129.262 65.4736 129.97 65.6104C130.695 65.7356 131.259 66.0842 131.663 66.6563C132.078 67.2446 132.222 67.9012 132.097 68.6258C131.977 69.3226 131.622 69.8785 131.034 70.2935Z" fill="#040E07"/>
<path d="M152.859 62.9416L143.963 47.3627L138.597 50.4272L136.93 47.5094L150.738 39.6249L152.404 42.5427L147.011 45.6221L155.907 61.201L152.859 62.9416Z" fill="#040E07"/>
<path d="M171.736 49.6556C173.627 48.7885 174.918 47.3823 175.61 45.4367C176.302 43.4912 176.207 41.5549 175.323 39.6278C174.439 37.7008 173.034 36.3648 171.109 35.6197C169.183 34.8747 167.274 34.9357 165.384 35.8027C163.475 36.6781 162.174 38.0886 161.482 40.0341C160.79 41.9796 160.886 43.9159 161.77 45.843C162.654 47.77 164.058 49.106 165.984 49.8511C167.91 50.5961 169.828 50.5309 171.736 49.6556ZM178.901 46.5678C177.848 49.4051 175.931 51.4615 173.149 52.737C170.368 54.0125 167.563 54.1328 164.734 53.0978C161.897 52.0447 159.836 50.1182 158.552 47.3186C157.268 44.5189 157.157 41.7096 158.219 38.8905C159.272 36.0532 161.189 33.9968 163.971 32.7213C166.752 31.4458 169.561 31.3346 172.399 32.3877C175.236 33.4409 177.292 35.3582 178.568 38.1397C179.843 40.9212 179.955 43.7306 178.901 46.5678Z" fill="#040E07"/>
<path d="M187.983 38.6501L183.335 24.8624L197.777 19.9943L204.581 40.1784L201.226 41.3092L195.495 24.3091L187.763 26.9156L191.491 37.9742C192.2 40.0779 192.285 41.8011 191.745 43.1437C191.206 44.4863 190.15 45.4228 188.577 45.953C187.8 46.215 187.209 46.3719 186.804 46.4239L185.76 43.3252C186.139 43.2607 186.584 43.1422 187.096 42.9697C187.816 42.7269 188.261 42.2922 188.429 41.6655C188.598 41.0388 188.449 40.0337 187.983 38.6501Z" fill="#040E07"/>
<path d="M212.688 24.2876L216.335 23.4172C218.456 22.9112 220.309 23.0961 221.896 23.9717C223.482 24.8474 224.503 26.2385 224.958 28.1449C225.408 30.0319 225.114 31.7266 224.074 33.229C223.054 34.7267 221.493 35.7262 219.392 36.2276L212.301 37.9196L207.357 17.2013L210.801 16.3796L212.688 24.2876ZM214.985 33.9173L218.575 33.0608C219.761 32.7776 220.62 32.2848 221.152 31.5822C221.679 30.8602 221.819 29.9837 221.573 28.9527C221.322 27.9022 220.801 27.1835 220.01 26.7966C219.214 26.3903 218.222 26.3287 217.036 26.6118L213.447 27.4683L214.985 33.9173Z" fill="#040E07"/>
<path d="M245.219 31.4198L233.495 23.1205L234.985 32.9684L231.545 33.4891L228.358 12.4289L231.799 11.9082L233.172 20.9848L240.252 10.6289L244.642 9.96458L236.795 21.4682L249.906 30.7106L245.219 31.4198Z" fill="#040E07"/>
<path d="M261.818 26.8555C263.895 26.7432 265.613 25.9093 266.971 24.3537C268.329 22.7981 268.951 20.9618 268.836 18.8449C268.722 16.728 267.906 14.9695 266.388 13.5694C264.87 12.1694 263.072 11.5255 260.996 11.6378C258.899 11.7512 257.171 12.5856 255.813 14.1412C254.455 15.6968 253.833 17.5331 253.948 19.65C254.062 21.7669 254.878 23.5254 256.396 24.9255C257.914 26.3256 259.721 26.9689 261.818 26.8555ZM269.617 26.6141C267.595 28.8665 265.057 30.0754 262.001 30.2406C258.946 30.4058 256.292 29.4877 254.041 27.4864C251.789 25.4651 250.579 22.9166 250.413 19.8411C250.247 16.7656 251.175 14.1116 253.197 11.8792C255.219 9.62676 257.757 8.41794 260.812 8.25271C263.868 8.08749 266.522 9.01554 268.774 11.0369C271.027 13.0582 272.236 15.5966 272.401 18.6522C272.566 21.7077 271.638 24.3617 269.617 26.6141Z" fill="#040E07"/>
<path d="M299.422 30.7731C296.255 30.4792 293.714 29.1888 291.797 26.9019C289.902 24.5969 289.099 21.891 289.387 18.7844C289.675 15.6778 290.962 13.176 293.247 11.279C295.554 9.36402 298.29 8.55346 301.457 8.84735C303.966 9.08024 306.09 10.0005 307.829 11.6081C309.59 13.1976 310.64 15.0827 310.98 17.2635L307.216 16.9141C306.871 15.6568 306.146 14.5953 305.041 13.7295C303.936 12.8637 302.637 12.3615 301.144 12.2228C298.953 12.0195 297.083 12.5791 295.534 13.9016C293.986 15.2242 293.111 16.9608 292.912 19.1116C292.712 21.2623 293.252 23.1302 294.531 24.7152C295.81 26.3002 297.545 27.1943 299.735 27.3976C301.229 27.5363 302.598 27.2817 303.843 26.634C305.088 25.9863 305.996 25.0763 306.567 23.9041L310.331 24.2534C309.596 26.3344 308.215 28.0039 306.19 29.2622C304.187 30.5024 301.931 31.006 299.422 30.7731Z" fill="#040E07"/>
<path d="M316.287 32.3856L320.277 11.4628L327.497 12.8399C329.324 13.1884 330.711 14.0331 331.656 15.374C332.621 16.7186 332.95 18.1964 332.643 19.8074C332.313 21.5362 331.408 22.7583 329.928 23.4736C331.991 24.8242 332.795 26.6978 332.337 29.0946C332.004 30.8431 331.086 32.1849 329.584 33.1201C328.106 34.0394 326.385 34.3117 324.42 33.937L316.287 32.3856ZM320.336 29.8901L324.933 30.7669C326.033 30.9768 326.94 30.8647 327.654 30.4308C328.368 29.9969 328.811 29.3281 328.984 28.4244C329.152 27.5403 328.985 26.7652 328.48 26.0989C327.98 25.413 327.18 24.9652 326.08 24.7553L321.483 23.8785L320.336 29.8901ZM322.045 20.9316L325.64 21.6173C326.563 21.7934 327.35 21.6687 328.002 21.2432C328.653 20.8177 329.057 20.1924 329.215 19.3673C329.365 18.5814 329.217 17.861 328.772 17.206C328.327 16.551 327.642 16.1354 326.719 15.9593L323.124 15.2736L322.045 20.9316Z" fill="#040E07"/>
<path d="M336.56 36.5209L342.209 15.9837L354.56 19.3811L353.669 22.6208L344.702 20.1542L343.254 25.4187L350.485 27.4079L349.594 30.6475L342.363 28.6584L340.835 34.2121L349.802 36.6786L348.911 39.9183L336.56 36.5209Z" fill="#040E07"/>
<path d="M375.646 49.6196L370.647 37.5426L367.228 46.3523L363.956 45.0824L367.364 36.3006L355.565 41.826L351.37 40.1978L364.66 33.8994L359.916 20.6666L363.859 22.197L368.167 34.231L371.662 25.2255L374.935 26.4954L371.439 35.501L382.765 29.5347L386.709 31.0652L374.252 37.6225L379.841 51.2477L375.646 49.6196Z" fill="#040E07"/>
<path d="M385.619 54.3093L382.913 52.8811L392.855 34.0436L395.986 35.6959L388.844 49.2271L406.572 41.283L409.278 42.7113L399.336 61.5487L396.232 59.9104L403.387 46.3528L385.619 54.3093Z" fill="#040E07"/>
<path d="M406.358 65.748L417.99 47.9042L428.721 54.8993L426.886 57.7141L419.095 52.6357L416.114 57.2097L422.397 61.3052L420.562 64.1201L414.279 60.0245L411.134 64.8499L418.925 69.9284L417.09 72.7432L406.358 65.748Z" fill="#040E07"/>
<path d="M439.648 90.3216L451.229 76.621L443.417 70.0167L431.835 83.7172L429.177 81.4706L442.928 65.204L456.056 76.3017L442.305 92.5682L439.648 90.3216Z" fill="#040E07"/>
<path d="M470.036 92.7126C470.072 94.622 469.387 96.2741 467.982 97.6691C466.576 99.0641 464.912 99.7439 462.989 99.7086C461.08 99.6593 459.365 98.8682 457.843 97.3353L455.539 95.0146L450.302 100.214L447.829 97.7232L462.945 82.7166L467.721 87.5282C469.243 89.0611 470.015 90.7892 470.036 92.7126ZM462.916 96.3143C463.921 96.332 464.799 95.9675 465.551 95.2207C466.303 94.4739 466.667 93.6055 466.642 92.6155C466.646 91.6255 466.218 90.6976 465.358 89.8318L463.076 87.5325L457.881 92.6897L460.164 94.989C461.023 95.8548 461.941 96.2966 462.916 96.3143Z" fill="#040E07"/>
<path d="M469.366 116.463C470.692 118.066 472.383 118.951 474.442 119.117C476.5 119.284 478.346 118.692 479.98 117.341C481.614 115.99 482.542 114.288 482.765 112.235C482.988 110.183 482.437 108.355 481.112 106.752C479.773 105.133 478.075 104.241 476.017 104.074C473.959 103.907 472.113 104.499 470.479 105.85C468.845 107.201 467.917 108.903 467.694 110.956C467.471 113.009 468.028 114.844 469.366 116.463ZM474.198 122.589C471.185 122.303 468.703 120.981 466.754 118.623C464.804 116.265 463.964 113.585 464.234 110.585C464.52 107.572 465.849 105.084 468.223 103.122C470.597 101.159 473.283 100.327 476.28 100.626C479.293 100.911 481.774 102.233 483.724 104.591C485.674 106.95 486.506 109.635 486.221 112.648C485.935 115.661 484.613 118.143 482.255 120.092C479.896 122.042 477.211 122.874 474.198 122.589Z" fill="#040E07"/>
<path d="M482.584 147.186L486.276 144.721L478.164 132.57L474.472 135.035L472.689 132.365L479.176 128.034L479.393 128.359C480.403 129.872 482.78 129.38 486.523 126.881L495.829 120.668L504.274 133.318L489.354 143.279L490.853 145.525L484.366 149.856L482.584 147.186ZM495 125.478L488.139 130.059C485.76 131.647 483.772 132.469 482.175 132.526L487.405 140.36L499.531 132.264L495 125.478Z" fill="#040E07"/>
<path d="M491.262 153.267L494.142 151.719C494.308 152.197 494.567 152.762 494.917 153.414C495.257 154.049 495.683 154.524 496.193 154.84C496.721 155.146 497.46 155.295 498.408 155.285L508.693 140.326L510.595 143.867L502.768 155.224L516.573 154.993L518.433 158.455L499.784 158.734C497.728 158.795 496.12 158.569 494.959 158.057C493.799 157.545 492.878 156.655 492.196 155.387C491.903 154.841 491.591 154.134 491.262 153.267Z" fill="#040E07"/>
<path d="M507.078 185.714L512.219 172.301L503.046 176.181L501.69 172.976L521.308 164.679L522.663 167.884L514.209 171.46L525.994 175.758L527.724 179.848L514.637 175.09L508.924 190.079L507.078 185.714Z" fill="#040E07"/>
<path d="M510.804 195.972L527.826 190.306L525.874 184.442L529.062 183.381L534.084 198.467L530.896 199.528L528.934 193.636L511.913 199.303L510.804 195.972Z" fill="#040E07"/>
<path d="M529.178 210.976L530.007 214.633C530.489 216.759 530.283 218.61 529.389 220.187C528.495 221.763 527.093 222.768 525.181 223.201C523.289 223.63 521.598 223.316 520.107 222.259C518.621 221.222 517.64 219.65 517.162 217.543L515.551 210.433L536.325 205.727L537.107 209.179L529.178 210.976ZM519.523 213.163L520.338 216.762C520.608 217.952 521.091 218.817 521.787 219.356C522.503 219.891 523.378 220.041 524.412 219.807C525.465 219.568 526.19 219.056 526.586 218.269C527.001 217.477 527.074 216.487 526.804 215.297L525.989 211.698L519.523 213.163ZM519.403 227.432L540.177 222.726L540.952 226.149L520.179 230.856L519.403 227.432Z" fill="#040E07"/>
<path d="M528.278 247.994C528.203 247.298 528.386 246.665 528.827 246.094C529.29 245.541 529.88 245.225 530.595 245.148C531.291 245.072 531.925 245.255 532.495 245.696C533.068 246.157 533.393 246.736 533.468 247.432C533.546 248.148 533.353 248.782 532.89 249.335C532.429 249.908 531.85 250.232 531.154 250.308C530.439 250.385 529.794 250.194 529.221 249.733C528.67 249.289 528.356 248.71 528.278 247.994Z" fill="#040E07"/>
</svg>
