<svg width="40" height="40" viewBox="0 0 40 40" fill="none" xmlns="http://www.w3.org/2000/svg">
<rect width="40" height="40" rx="20" fill="#F8FCF1"/>
<g clip-path="url(#clip0_2980_34876)">
<path d="M29.893 15.4997C29.2419 14.4628 28.4917 13.4916 27.653 12.5997C26.5325 11.2295 25.2305 10.0183 23.783 8.99971C23.4214 8.74079 22.9877 8.60156 22.543 8.60156C22.0982 8.60156 21.6646 8.74079 21.303 8.99971C21.1688 9.10909 21.051 9.23705 20.953 9.37971C20.653 9.78971 20.103 10.5997 21.073 12.2097C21.3763 12.6685 21.7104 13.1061 22.073 13.5197V13.5197L17.723 17.3197C17.243 17.7597 16.723 18.1997 16.303 18.6597C15.303 19.6597 14.373 20.7097 13.433 21.7497C13.025 21.3379 12.5871 20.9569 12.123 20.6097C10.573 19.5297 9.73298 20.0397 9.30298 20.3097C9.15442 20.3998 9.01968 20.511 8.90298 20.6397C8.62554 20.986 8.46375 21.4107 8.44043 21.8538C8.41711 22.2969 8.53342 22.7362 8.77298 23.1097C8.89298 23.3597 11.523 26.5297 12.163 27.1997C12.8538 27.9704 13.6286 28.6613 14.473 29.2597C15.2778 29.8195 16.2238 30.1417 17.203 30.1897C17.578 30.128 17.9276 29.9607 18.211 29.7075C18.4944 29.4542 18.6997 29.1255 18.803 28.7597C18.8798 28.4192 18.8875 28.0668 18.8256 27.7232C18.7638 27.3797 18.6337 27.0521 18.443 26.7597C18.217 26.3985 17.9521 26.0632 17.653 25.7597C17.483 25.5797 17.303 25.3997 17.113 25.2297C17.673 24.7097 18.903 23.6997 20.243 22.4997C20.693 22.0997 21.143 21.6797 21.583 21.2497C22.023 20.8197 22.473 20.3797 22.883 19.9497C23.883 18.9497 24.733 18.0097 25.283 17.3897C25.463 17.5997 25.643 17.8097 25.833 18.0097C26.1316 18.3344 26.4672 18.6231 26.833 18.8697C27.115 19.0837 27.4384 19.2368 27.7827 19.3194C28.1269 19.402 28.4845 19.4123 28.833 19.3497C29.2022 19.2689 29.5409 19.085 29.8099 18.8196C30.079 18.5541 30.2672 18.2178 30.353 17.8497C30.4772 17.4506 30.5002 17.0268 30.4199 16.6166C30.3396 16.2064 30.1585 15.8225 29.893 15.4997V15.4997ZM17.473 27.3097C17.6922 27.6465 17.7712 28.0556 17.693 28.4497C17.6367 28.609 17.538 28.75 17.4077 28.8575C17.2773 28.9649 17.1201 29.0349 16.953 29.0597C16.6614 29.11 16.3626 29.0995 16.0752 29.0289C15.7878 28.9584 15.5181 28.8293 15.283 28.6497C14.4257 27.9961 13.6291 27.2665 12.903 26.4697C11.7916 25.5202 10.7644 24.4763 9.83298 23.3497C9.24298 22.5297 8.83298 21.7097 9.40298 21.0597C9.47661 20.976 9.56062 20.9021 9.65298 20.8397C10.203 20.4497 10.923 20.6497 11.653 21.2197C12.3201 21.7904 12.9451 22.4087 13.523 23.0697L15.633 25.1897C16.013 25.5797 16.453 25.9997 16.833 26.4497C17.0826 26.7075 17.2977 26.9966 17.473 27.3097ZM22.003 19.2197C21.303 19.8597 20.563 20.5397 19.883 21.2197C18.423 22.6797 17.183 24.0997 16.633 24.7497L16.313 24.4497L14.123 22.4497L13.863 22.1997C15.003 21.2997 16.003 20.3997 17.063 19.4797C17.553 19.0497 18.063 18.5997 18.503 18.1697C18.943 17.7397 19.623 17.0897 20.163 16.5197C20.903 15.7497 21.643 14.9297 22.513 13.9697L22.783 14.2797L24.663 16.5997L24.793 16.7597C24.173 17.3197 23.143 18.1997 22.003 19.2197ZM29.163 17.4897C29.133 17.6575 29.0559 17.8132 28.9409 17.9389C28.8258 18.0646 28.6774 18.155 28.513 18.1997C28.1162 18.2512 27.7149 18.1473 27.393 17.9097C27.0959 17.713 26.818 17.4886 26.563 17.2397C26.563 17.2397 26.563 17.2397 25.393 15.9497L23.393 13.7097C22.7621 13.0919 22.1835 12.423 21.663 11.7097C21.133 10.9097 20.993 10.1897 21.403 9.70971C21.4736 9.61744 21.5579 9.53651 21.653 9.46971C22.383 8.99971 23.173 9.38971 24.003 9.99971C25.0651 11.0034 26.0418 12.0939 26.923 13.2597C27.6634 14.0349 28.3327 14.8749 28.923 15.7697C29.0896 16.0199 29.2 16.3032 29.2466 16.6001C29.2932 16.897 29.2749 17.2005 29.193 17.4897H29.163Z" fill="#040E07" stroke="#040E07" stroke-width="0.3"/>
<path d="M14.33 30.5196C14.2037 30.6131 14.0596 30.6799 13.9066 30.716C13.7536 30.7521 13.5949 30.7568 13.44 30.7296C13.2459 30.6661 13.0683 30.5602 12.92 30.4196C12.59 30.1596 12.28 29.8196 12.01 29.5796C11.1731 28.9273 10.3997 28.1974 9.70003 27.3996C9.26327 26.9314 8.97755 26.3425 8.88003 25.7096C8.84227 25.4662 8.88437 25.2171 9.00003 24.9996C9.12751 24.805 9.27867 24.627 9.45003 24.4696C9.61003 24.3196 9.28003 23.8196 9.00003 23.9696C8.76642 24.1433 8.55486 24.3448 8.37003 24.5696C8.12715 24.9112 7.99772 25.3205 8.00003 25.7396C8.00481 26.5893 8.29343 27.4129 8.82003 28.0796C9.54902 28.9665 10.3854 29.7592 11.31 30.4396C11.7013 30.7675 12.1121 31.0714 12.54 31.3496C12.7729 31.5005 13.0355 31.5994 13.31 31.6396C13.745 31.6777 14.1805 31.5723 14.55 31.3396C14.984 31.0519 15.3466 30.6688 15.61 30.2196C15.72 29.9096 15.19 29.7196 14.9 29.9896C14.74 30.196 14.5475 30.375 14.33 30.5196Z" fill="#A9D953" stroke="#A9D953" stroke-width="0.3"/>
<path d="M31.7682 13.2399C31.5113 12.8113 31.2308 12.3974 30.9282 11.9999C30.306 11.0329 29.5671 10.1462 28.7282 9.35987C28.1047 8.77593 27.3001 8.42303 26.4482 8.35987C26.0325 8.33877 25.6215 8.4547 25.2782 8.68987C25.117 8.77844 24.9744 8.89727 24.8582 9.03987C24.5882 9.39987 24.9182 9.87987 25.1982 9.64987C25.3362 9.52068 25.4951 9.41586 25.6682 9.33987C25.8845 9.23173 26.1291 9.1933 26.3682 9.22987C26.9934 9.36706 27.5619 9.69146 27.9982 10.1599C28.7416 10.9071 29.4114 11.7242 29.9982 12.5999C30.2182 12.8799 30.5382 13.2199 30.7782 13.5999C30.9093 13.7562 31.0018 13.9412 31.0482 14.1399C31.0669 14.2965 31.0536 14.4554 31.0089 14.6067C30.9642 14.758 30.8891 14.8986 30.7882 15.0199C30.6584 15.1649 30.5105 15.2926 30.3482 15.3999C30.0682 15.7599 30.2382 16.0699 30.5982 16.0699C30.9871 15.8904 31.3294 15.6234 31.5982 15.2899C31.877 14.9193 32.0184 14.4632 31.9982 13.9999C31.9713 13.7341 31.8932 13.476 31.7682 13.2399Z" fill="#A9D953" stroke="#A9D953" stroke-width="0.3"/>
</g>
<defs>
<clipPath id="clip0_2980_34876">
<rect width="24" height="24" fill="white" transform="translate(8 8)"/>
</clipPath>
</defs>
</svg>
