<svg width="40" height="40" viewBox="0 0 40 40" fill="none" xmlns="http://www.w3.org/2000/svg">
<rect width="40" height="40" rx="20" fill="#F2F9E5"/>
<g clip-path="url(#clip0_2980_26622)">
<path d="M15.3859 8.58018C16.0388 8.78053 16.6396 9.12191 17.1459 9.58018C17.5759 9.93018 17.9759 10.3302 18.3359 10.6702C18.9959 11.3102 19.4759 11.8102 19.4759 11.8102C19.5357 11.8736 19.609 11.9227 19.6904 11.9538C19.7717 11.985 19.8591 11.9974 19.9459 11.9902C20.0306 11.9798 20.1119 11.9511 20.1844 11.9063C20.2569 11.8614 20.3189 11.8013 20.3659 11.7302C20.8396 11.0917 21.43 10.5488 22.1059 10.1302C22.7166 9.61451 23.4141 9.21156 24.1659 8.94018C24.2531 8.9488 24.3402 8.92345 24.4091 8.86943C24.478 8.8154 24.5235 8.73687 24.5359 8.65018C24.5415 8.60679 24.5384 8.56273 24.5268 8.52055C24.5152 8.47837 24.4953 8.43892 24.4683 8.40449C24.4414 8.37007 24.4078 8.34134 24.3696 8.32C24.3314 8.29866 24.2894 8.28512 24.2459 8.28018C23.2977 8.44265 22.3946 8.8039 21.5959 9.34018C20.9688 9.698 20.3878 10.1312 19.8659 10.6302C19.6559 10.4302 19.3759 10.1702 19.0559 9.90018C18.6121 9.53599 18.1444 9.20191 17.6559 8.90018C17.0012 8.44245 16.2533 8.13512 15.4659 8.00018C15.4278 7.99455 15.3889 7.99658 15.3516 8.00615C15.3142 8.01572 15.2792 8.03264 15.2484 8.05591C15.2177 8.07919 15.1919 8.10836 15.1726 8.14172C15.1533 8.17507 15.1408 8.21195 15.1359 8.25018C15.1303 8.28831 15.1323 8.32719 15.1419 8.36453C15.1515 8.40187 15.1684 8.43693 15.1917 8.46765C15.2149 8.49838 15.2441 8.52416 15.2775 8.54348C15.3108 8.5628 15.3477 8.57528 15.3859 8.58018V8.58018Z" fill="#040E07" stroke="#040E07" stroke-width="0.3"/>
<path d="M20.646 25.3403C20.6461 25.3018 20.6383 25.2636 20.623 25.2283C20.6076 25.193 20.5852 25.1612 20.5571 25.1349C20.5289 25.1086 20.4956 25.0884 20.4593 25.0756C20.423 25.0627 20.3844 25.0575 20.346 25.0603C20.2682 25.0654 20.1955 25.1007 20.1432 25.1585C20.0909 25.2164 20.0632 25.2924 20.066 25.3703C19.9741 25.4907 19.8969 25.6216 19.836 25.7603C19.8255 25.8131 19.8255 25.8675 19.836 25.9203C19.8312 25.9769 19.8312 26.0337 19.836 26.0903C19.896 26.2403 19.956 26.3403 20.026 26.4903C20.026 26.5778 20.0608 26.6617 20.1227 26.7236C20.1845 26.7855 20.2685 26.8203 20.356 26.8203C20.3993 26.8216 20.4425 26.8144 20.4831 26.799C20.5236 26.7837 20.5607 26.7605 20.5923 26.7307C20.6239 26.701 20.6493 26.6654 20.6671 26.6258C20.6849 26.5863 20.6947 26.5436 20.696 26.5003C20.766 26.3503 20.836 26.2603 20.896 26.1003C20.9055 26.044 20.9055 25.9866 20.896 25.9303C20.9108 25.8712 20.9108 25.8094 20.896 25.7503C20.8317 25.6029 20.7476 25.465 20.646 25.3403V25.3403Z" fill="black"/>
<path d="M28.9028 26.9004C28.4128 26.3204 27.8128 25.7704 27.1628 24.9004C26.7282 24.3699 26.3897 23.7675 26.1628 23.1204C25.9649 22.5528 25.8471 21.9604 25.8128 21.3604L26.1828 21.3004C26.3678 21.2626 26.5366 21.1682 26.6656 21.0302C26.7946 20.8923 26.8775 20.7176 26.9028 20.5304C26.9591 19.9573 26.8978 19.3789 26.7228 18.8304C27.3751 18.7262 28.0044 18.5097 28.5828 18.1904C29.3863 17.7804 30.0277 17.1108 30.4028 16.2904C30.8016 15.3409 30.8755 14.2862 30.6128 13.2904C30.3681 12.3578 29.9509 11.4793 29.3828 10.7004C29.2162 10.4818 29.1249 10.2151 29.1228 9.94036C29.1729 9.44968 29.2666 8.96444 29.4028 8.49036C29.4131 8.44766 29.4148 8.40332 29.4078 8.35995C29.4008 8.31658 29.3852 8.27505 29.3619 8.23779C29.3386 8.20053 29.3081 8.1683 29.2722 8.14298C29.2363 8.11767 29.1957 8.09978 29.1528 8.09036C29.0653 8.07252 28.9743 8.08978 28.8995 8.13843C28.8247 8.18707 28.772 8.26319 28.7528 8.35036C28.5925 8.86527 28.482 9.39436 28.4228 9.93036C28.4154 10.3518 28.5414 10.7648 28.7828 11.1104C29.2608 11.8348 29.5999 12.6419 29.7828 13.4904C29.9784 14.31 29.8976 15.1714 29.5528 15.9404C29.2567 16.5784 28.7524 17.0968 28.1228 17.4104C27.498 17.7459 26.8099 17.9468 26.1028 18.0004C26.0241 18.0007 25.9467 18.02 25.8771 18.0565C25.8075 18.0931 25.7477 18.1458 25.7028 18.2104C25.6564 18.2746 25.6267 18.3493 25.6162 18.4278C25.6057 18.5063 25.6149 18.5862 25.6428 18.6604C25.7702 19.0653 25.8638 19.48 25.9228 19.9004C25.9228 20.0804 25.8428 20.2704 25.8728 20.3704C23.9189 20.5608 21.9556 20.6376 19.9928 20.6004C17.9893 20.6404 15.9853 20.5536 13.9928 20.3404C13.9788 20.1907 13.9788 20.04 13.9928 19.8904C14.0454 19.4698 14.1358 19.0548 14.2628 18.6504C14.2907 18.5762 14.2998 18.4963 14.2893 18.4178C14.2789 18.3393 14.2491 18.2646 14.2028 18.2004C14.1603 18.1327 14.1012 18.077 14.0313 18.0385C13.9613 18 13.8826 17.98 13.8028 17.9804C13.1062 17.9282 12.4283 17.7306 11.8128 17.4004C11.1806 17.0918 10.6726 16.5768 10.3728 15.9404C10.0276 15.1684 9.93996 14.3059 10.1228 13.4804C10.3203 12.6202 10.68 11.8057 11.1828 11.0804C11.4187 10.7407 11.538 10.3336 11.5228 9.92036C11.4625 9.38451 11.352 8.85552 11.1928 8.34036C11.1858 8.30209 11.171 8.26568 11.1492 8.23346C11.1274 8.20124 11.0992 8.17391 11.0662 8.15321C11.0333 8.13251 10.9964 8.1189 10.958 8.11325C10.9195 8.10759 10.8802 8.11001 10.8428 8.12036C10.8056 8.12744 10.7702 8.14198 10.7388 8.16312C10.7074 8.18425 10.6806 8.21153 10.66 8.24331C10.6395 8.27509 10.6256 8.31071 10.6192 8.34801C10.6128 8.38532 10.614 8.42354 10.6228 8.46036C10.7552 8.93821 10.8456 9.42674 10.8928 9.92036C10.8928 10.2016 10.8015 10.4753 10.6328 10.7004C10.0605 11.4855 9.63993 12.3707 9.39276 13.3104C9.12689 14.3051 9.1972 15.3597 9.59276 16.3104C9.9466 17.1392 10.5752 17.8208 11.3728 18.2404C11.95 18.556 12.5749 18.7756 13.2228 18.8904C13.0426 19.4277 12.9679 19.9947 13.0028 20.5604C13.0281 20.7502 13.1121 20.9273 13.2429 21.0672C13.3738 21.207 13.545 21.3025 13.7328 21.3404L14.3728 21.4304C14.3477 22.0707 14.2298 22.7039 14.0228 23.3104C13.8017 23.9571 13.4626 24.5572 13.0228 25.0804C12.3828 25.9204 11.7828 26.4704 11.2828 27.0804C10.8728 27.5618 10.5359 28.1009 10.2828 28.6804C9.89427 29.6336 9.68738 30.6511 9.67276 31.6804C9.6696 31.7241 9.67606 31.7679 9.69168 31.8089C9.70729 31.8498 9.73168 31.8868 9.76313 31.9173C9.79459 31.9478 9.83234 31.9711 9.87374 31.9854C9.91514 31.9997 9.95917 32.0049 10.0028 32.0004C10.0409 32.0045 10.0794 32.0011 10.1162 31.9902C10.153 31.9794 10.1873 31.9613 10.217 31.9371C10.2468 31.913 10.2714 31.8831 10.2896 31.8493C10.3077 31.8156 10.319 31.7785 10.3228 31.7404C10.4424 30.805 10.734 29.8997 11.1828 29.0704C11.415 28.684 11.6901 28.3251 12.0028 28.0004C13.8379 28.7515 15.749 29.3014 17.7028 29.6404C19.0876 29.8642 20.4939 29.9247 21.8928 29.8204C24.1332 29.6873 26.2946 28.9438 28.1428 27.6704C28.5265 28.0477 28.8624 28.4709 29.1428 28.9304C29.5904 29.7567 29.8819 30.6584 30.0028 31.5904C30.0067 31.6284 30.0181 31.6654 30.0363 31.6991C30.0545 31.7327 30.0792 31.7625 30.1089 31.7866C30.1386 31.8108 30.1728 31.8288 30.2095 31.8398C30.2462 31.8507 30.2847 31.8543 30.3228 31.8504C30.3608 31.8464 30.3978 31.835 30.4315 31.8168C30.4651 31.7986 30.4949 31.7739 30.519 31.7442C30.5432 31.7145 30.5612 31.6803 30.5722 31.6436C30.5831 31.6069 30.5867 31.5684 30.5828 31.5304C30.5732 30.5015 30.3696 29.4837 29.9828 28.5304C29.7098 27.9341 29.3454 27.3842 28.9028 26.9004ZM21.7928 28.7204C20.4573 28.7722 19.1198 28.7187 17.7928 28.5604C15.976 28.3544 14.1797 27.9964 12.4228 27.4904C12.9563 26.9366 13.4571 26.3523 13.9228 25.7404C14.3689 25.0736 14.6908 24.3317 14.8728 23.5504C15.0472 22.8816 15.1246 22.1912 15.1028 21.5004C16.3828 21.6104 18.1828 21.6704 19.9928 21.6704C21.8028 21.6704 23.8628 21.6004 25.1428 21.4804C25.134 22.1265 25.2045 22.7714 25.3528 23.4004C25.5505 24.185 25.8893 24.9271 26.3528 25.5904C26.7629 26.1349 27.2036 26.6558 27.6728 27.1504C25.872 28.1501 23.8522 28.6894 21.7928 28.7204Z" fill="#040E07" stroke="#040E07" stroke-width="0.3"/>
<path d="M23.8528 17.7001C22.7928 17.7001 21.8528 17.5901 21.0028 17.5601C20.3428 17.5601 19.7228 17.5601 19.1128 17.5601C18.0528 17.5601 17.0428 17.6901 15.9328 17.7701C15.8549 17.77 15.7801 17.8002 15.7241 17.8544C15.6682 17.9085 15.6354 17.9822 15.6328 18.0601C15.6351 18.1372 15.6662 18.2107 15.7198 18.2662C15.7734 18.3216 15.8458 18.3551 15.9228 18.3601C16.9228 18.4501 17.7828 18.5801 18.6928 18.6401C19.0928 18.6401 19.4828 18.6401 19.8928 18.6401H21.0928C21.9428 18.6401 22.8428 18.4901 23.8728 18.3901C23.9612 18.3849 24.0441 18.3454 24.1039 18.2801C24.1637 18.2147 24.1956 18.1286 24.1928 18.0401C24.1942 17.995 24.1864 17.9502 24.1698 17.9083C24.1532 17.8664 24.1282 17.8284 24.0963 17.7966C24.0645 17.7647 24.0264 17.7397 23.9845 17.7231C23.9427 17.7065 23.8978 17.6987 23.8528 17.7001V17.7001Z" fill="#A9D953"/>
</g>
<defs>
<clipPath id="clip0_2980_26622">
<rect width="24" height="24" fill="white" transform="translate(8 8)"/>
</clipPath>
</defs>
</svg>
