<svg width="209" height="209" viewBox="0 0 209 209" fill="none" xmlns="http://www.w3.org/2000/svg">
<path d="M189.692 114.319L196.129 108.588L190.17 108.127L190.331 106.045L203.073 107.03L202.912 109.112L197.421 108.687L202.517 114.227L202.312 116.883L196.648 110.74L189.473 117.154L189.692 114.319Z" fill="#040E07"/>
<path d="M188.954 119.647L201.396 122.566L200.344 127.052C200.075 128.197 199.528 129.03 198.704 129.551C197.888 130.087 196.96 130.233 195.92 129.989C195.044 129.784 194.377 129.368 193.92 128.743C193.471 128.133 193.255 127.349 193.27 126.391L186.594 129.706L187.186 127.182L193.723 123.909L193.941 122.98L188.473 121.697L188.954 119.647ZM195.728 123.399L195.214 125.59C195.072 126.197 195.099 126.709 195.298 127.125C195.507 127.544 195.875 127.816 196.401 127.939C196.927 128.062 197.371 127.981 197.733 127.697C198.108 127.415 198.366 126.97 198.509 126.363L199.023 124.172L195.728 123.399Z" fill="#040E07"/>
<path d="M186.426 130.469L196.136 140.478L195.44 142.177L181.498 142.494L182.331 140.462L185.982 140.382L188.152 135.086L185.601 132.484L186.426 130.469ZM193.163 140.232L189.577 136.545L188.021 140.343L193.163 140.232Z" fill="#040E07"/>
<path d="M177.861 148.675L191.547 150.86L190.332 152.817L180.114 151.155L186.145 159.561L184.92 161.534L176.892 150.235L177.861 148.675Z" fill="#040E07"/>
<path d="M170.936 158.52L179.182 165.439L181.565 162.599L183.11 163.895L176.977 171.203L175.433 169.907L177.828 167.053L169.582 160.134L170.936 158.52Z" fill="#040E07"/>
<path d="M160.263 169.545L168.226 179.541L162.284 184.274L161.028 182.697L165.322 179.277L163.27 176.7L159.891 179.392L158.646 177.829L162.025 175.137L158.616 170.857L160.263 169.545Z" fill="#040E07"/>
<path d="M147.652 180.579C146.564 181.19 145.86 182.094 145.541 183.291C145.222 184.489 145.374 185.642 145.997 186.751C146.62 187.86 147.525 188.591 148.713 188.942C149.901 189.294 151.039 189.164 152.128 188.553C153.226 187.936 153.935 187.029 154.254 185.832C154.573 184.635 154.421 183.482 153.798 182.372C153.175 181.263 152.27 180.533 151.082 180.181C149.894 179.83 148.751 179.963 147.652 180.579ZM143.518 182.776C144.009 181.028 145.055 179.704 146.656 178.806C148.257 177.907 149.929 177.698 151.671 178.179C153.419 178.67 154.746 179.721 155.65 181.333C156.555 182.944 156.759 184.619 156.261 186.357C155.77 188.105 154.724 189.428 153.123 190.327C151.522 191.225 149.847 191.429 148.099 190.938C146.351 190.447 145.028 189.401 144.129 187.8C143.23 186.199 143.027 184.524 143.518 182.776Z" fill="#040E07"/>
<path d="M132.047 187.555C130.861 187.945 129.997 188.696 129.453 189.81C128.91 190.923 128.836 192.084 129.234 193.292C129.631 194.501 130.378 195.392 131.477 195.966C132.575 196.54 133.717 196.632 134.902 196.242C136.099 195.848 136.969 195.095 137.513 193.982C138.056 192.868 138.129 191.707 137.732 190.499C137.335 189.29 136.587 188.399 135.489 187.826C134.391 187.252 133.244 187.162 132.047 187.555ZM127.567 188.914C128.386 187.293 129.667 186.196 131.411 185.623C133.156 185.049 134.836 185.167 136.453 185.974C138.074 186.793 139.173 188.08 139.75 189.836C140.327 191.591 140.204 193.274 139.382 194.883C138.563 196.504 137.281 197.601 135.537 198.174C133.793 198.747 132.111 198.625 130.49 197.806C128.869 196.987 127.772 195.706 127.199 193.961C126.625 192.217 126.748 190.535 127.567 188.914Z" fill="#040E07"/>
<path d="M120.916 188.793L122.586 201.464L118.695 201.976C116.816 202.224 115.159 201.825 113.727 200.779C112.294 199.733 111.459 198.312 111.222 196.516C110.985 194.719 111.424 193.131 112.537 191.749C113.65 190.368 115.146 189.554 117.026 189.306L120.916 188.793ZM119.085 191.014L117.282 191.251C115.95 191.427 114.922 191.986 114.199 192.928C113.464 193.872 113.18 194.975 113.346 196.236C113.512 197.497 114.072 198.488 115.027 199.21C115.969 199.933 117.107 200.207 118.439 200.031L120.242 199.794L119.085 191.014Z" fill="#040E07"/>
<path d="M98.7257 193.478C99.1448 193.506 99.5002 193.68 99.7919 193.999C100.071 194.33 100.196 194.711 100.168 195.142C100.14 195.562 99.9666 195.917 99.6468 196.209C99.315 196.5 98.9396 196.631 98.5205 196.604C98.0894 196.575 97.7344 196.396 97.4555 196.065C97.1646 195.733 97.033 195.357 97.0605 194.938C97.0888 194.507 97.2688 194.146 97.6006 193.855C97.9196 193.576 98.2947 193.45 98.7257 193.478Z" fill="#040E07"/>
<path d="M79.1871 186.618L83.7018 193.96L85.1991 188.174L87.2205 188.697L84.0184 201.07L81.997 200.547L83.377 195.214L77.0306 199.261L74.4516 198.594L81.4916 194.094L76.4339 185.906L79.1871 186.618Z" fill="#040E07"/>
<path d="M74.1275 184.948L69.0613 196.681L64.8308 194.854C63.7512 194.388 63.0274 193.703 62.6596 192.799C62.276 191.901 62.2959 190.962 62.7193 189.982C63.076 189.155 63.6023 188.572 64.2981 188.232C64.9781 187.898 65.7883 187.823 66.7284 188.007L64.642 180.852L67.0216 181.879L69.0919 188.891L69.9678 189.269L72.194 184.113L74.1275 184.948ZM69.2399 190.954L67.1743 190.062C66.6014 189.815 66.0926 189.752 65.648 189.874C65.1985 190.007 64.8668 190.321 64.6527 190.817C64.4386 191.312 64.4398 191.764 64.6561 192.171C64.8677 192.589 65.2599 192.922 65.8328 193.169L67.8985 194.061L69.2399 190.954Z" fill="#040E07"/>
<path d="M63.8754 180.522L52.307 188.309L50.758 187.323L52.9107 173.545L54.7635 174.724L54.1963 178.332L59.0256 181.404L62.0378 179.353L63.8754 180.522ZM53.0744 185.426L57.3373 182.549L53.8748 180.346L53.0744 185.426Z" fill="#040E07"/>
<path d="M47.5428 168.938L43.0057 182.034L41.2901 180.496L44.7085 170.724L35.3797 175.197L33.6507 173.647L46.1757 167.712L47.5428 168.938Z" fill="#040E07"/>
<path d="M38.9885 160.319L30.7178 167.208L33.091 170.057L31.542 171.348L25.4363 164.017L26.9853 162.727L29.37 165.59L37.6407 158.701L38.9885 160.319Z" fill="#040E07"/>
<path d="M30.0215 147.897L18.7634 153.945L15.1684 147.254L16.9443 146.3L19.5426 151.136L22.4443 149.577L20.3998 145.771L22.1598 144.826L24.2044 148.631L29.0247 146.041L30.0215 147.897Z" fill="#040E07"/>
<path d="M21.4774 133.759C21.0654 132.581 20.2977 131.73 19.1743 131.208C18.0508 130.686 16.8888 130.634 15.6881 131.054C14.4874 131.474 13.6105 132.238 13.0575 133.347C12.5045 134.456 12.434 135.599 12.846 136.777C13.2619 137.967 14.0316 138.822 15.1551 139.345C16.2785 139.867 17.4406 139.919 18.6413 139.499C19.842 139.079 20.7188 138.314 21.2718 137.206C21.8248 136.097 21.8933 134.948 21.4774 133.759ZM20.0344 129.305C21.6703 130.094 22.7913 131.354 23.3974 133.087C24.0035 134.82 23.9181 136.503 23.1413 138.135C22.3531 139.771 21.0868 140.894 19.3424 141.504C17.598 142.114 15.9135 142.023 14.289 141.23C12.6531 140.442 11.5321 139.182 10.926 137.449C10.3199 135.716 10.411 134.031 11.1991 132.395C11.9873 130.759 13.2479 129.638 14.981 129.032C16.7141 128.426 18.3985 128.517 20.0344 129.305Z" fill="#040E07"/>
<path d="M17.3293 117.096C17.1568 115.86 16.5711 114.875 15.5722 114.142C14.5732 113.409 13.4439 113.131 12.1841 113.307C10.9243 113.483 9.91441 114.06 9.15436 115.038C8.39432 116.017 8.10056 117.124 8.27307 118.36C8.44725 119.608 9.03379 120.598 10.0327 121.331C11.0316 122.064 12.161 122.343 13.4207 122.167C14.6805 121.991 15.6904 121.414 16.4505 120.435C17.2105 119.457 17.5035 118.344 17.3293 117.096ZM16.7893 112.446C18.2385 113.54 19.09 114.996 19.3438 116.815C19.5976 118.633 19.1833 120.266 18.101 121.713C17.0068 123.163 15.5446 124.015 13.7143 124.27C11.8841 124.526 10.2503 124.106 8.81304 123.01C7.36388 121.916 6.5124 120.459 6.2586 118.641C6.0048 116.823 6.425 115.189 7.51918 113.74C8.61336 112.291 10.0696 111.439 11.888 111.185C13.7064 110.931 15.3402 111.352 16.7893 112.446Z" fill="#040E07"/>
<path d="M18.0532 105.631L5.2869 105.039L5.46854 101.12C5.55631 99.2256 6.24126 97.6657 7.52339 96.4397C8.80551 95.2137 10.3516 94.6427 12.1617 94.7266C13.9717 94.8104 15.4584 95.522 16.6216 96.8613C17.7849 98.2006 18.3226 99.8172 18.2348 101.711L18.0532 105.631ZM16.1908 103.436L16.2749 101.62C16.3372 100.278 15.9682 99.1675 15.1679 98.2896C14.3683 97.3996 13.3331 96.9252 12.0625 96.8663C10.7919 96.8074 9.71728 97.184 8.83874 97.9962C7.96076 98.7965 7.49066 99.8679 7.42844 101.21L7.34428 103.026L16.1908 103.436Z" fill="#040E07"/>
<path d="M17.2802 83.2704C17.1796 83.6782 16.9463 83.9976 16.5803 84.2287C16.2055 84.4452 15.8084 84.5018 15.389 84.3983C14.9812 84.2977 14.6618 84.0644 14.4307 83.6984C14.2026 83.3208 14.1387 82.9281 14.2393 82.5203C14.3428 82.1009 14.5819 81.7829 14.9567 81.5663C15.3343 81.3381 15.727 81.2743 16.1348 81.3749C16.5542 81.4784 16.8781 81.7189 17.1063 82.0966C17.3257 82.4597 17.3837 82.851 17.2802 83.2704Z" fill="#040E07"/>
<path d="M27.3484 65.4816L19.3277 68.6353L24.7598 71.1263L23.8894 73.0243L12.2726 67.697L13.143 65.7991L18.1497 68.0951L15.2814 61.136L16.3919 58.7145L19.5838 66.4359L28.5339 62.8965L27.3484 65.4816Z" fill="#040E07"/>
<path d="M29.981 60.5526L19.3261 53.4956L21.8706 49.6538C22.52 48.6734 23.322 48.0819 24.2766 47.8793C25.2278 47.6601 26.1486 47.8454 27.039 48.4351C27.7893 48.9321 28.2705 49.553 28.4824 50.2979C28.6909 51.0262 28.6218 51.8368 28.275 52.7298L35.6863 51.9387L34.255 54.0997L26.9886 54.9003L26.4618 55.6957L31.1439 58.7968L29.981 60.5526ZM24.9311 54.6819L26.1735 52.806C26.5181 52.2858 26.6697 51.7961 26.6284 51.3369C26.5771 50.8711 26.3263 50.4891 25.8761 50.1909C25.4259 49.8927 24.9813 49.8142 24.5424 49.9553C24.0935 50.0898 23.6968 50.4171 23.3522 50.9374L22.1098 52.8132L24.9311 54.6819Z" fill="#040E07"/>
<path d="M36.0224 51.3552L30.3702 38.607L31.6106 37.2534L44.8027 41.7738L43.319 43.3928L39.8656 42.2058L35.9984 46.4259L37.4939 49.7495L36.0224 51.3552ZM33.075 39.8649L35.1655 44.564L37.9382 41.5383L33.075 39.8649Z" fill="#040E07"/>
<path d="M50.2296 37.2765L38.1201 30.5342L39.9326 29.1118L48.9627 34.1751L46.1773 24.2113L48.004 22.7778L51.674 36.1431L50.2296 37.2765Z" fill="#040E07"/>
<path d="M60.2475 30.2951L54.9099 20.9477L51.6899 22.7864L50.6902 21.0358L58.9746 16.305L59.9743 18.0557L56.7387 19.9034L62.0764 29.2507L60.2475 30.2951Z" fill="#040E07"/>
<path d="M73.8587 23.6677L69.8678 11.5268L77.0839 9.15477L77.7134 11.07L72.498 12.7843L73.5266 15.9136L77.6306 14.5646L78.2545 16.4627L74.1506 17.8117L75.8593 23.0101L73.8587 23.6677Z" fill="#040E07"/>
<path d="M89.4549 17.6531C90.6874 17.4569 91.6604 16.8524 92.3741 15.8397C93.0878 14.8269 93.3446 13.6924 93.1447 12.4362C92.9447 11.18 92.3483 10.1814 91.3555 9.44023C90.3626 8.69909 89.2499 8.42661 88.0175 8.62279C86.7731 8.82086 85.7941 9.42629 85.0805 10.4391C84.3668 11.4518 84.1099 12.5863 84.3099 13.8425C84.5098 15.0987 85.1063 16.0974 86.0991 16.8385C87.092 17.5796 88.2105 17.8512 89.4549 17.6531ZM94.0937 17.0241C93.0275 18.494 91.5878 19.3732 89.7746 19.6618C87.9614 19.9504 86.3209 19.5676 84.8529 18.5132C83.383 17.447 82.5028 16.0014 82.2123 14.1764C81.9218 12.3514 82.3106 10.7099 83.3787 9.25182C84.4449 7.78194 85.8845 6.9027 87.6977 6.61408C89.5109 6.32546 91.1524 6.71425 92.6223 7.78044C94.0922 8.84664 94.9714 10.2863 95.26 12.0995C95.5487 13.9127 95.1599 15.5542 94.0937 17.0241Z" fill="#040E07"/>
<path d="M106.74 16.454C107.987 16.5022 109.059 16.0992 109.957 15.2452C110.855 14.3912 111.328 13.3287 111.377 12.0576C111.426 10.7866 111.036 9.69073 110.207 8.77005C109.378 7.84938 108.34 7.36496 107.093 7.31681C105.834 7.2682 104.755 7.67089 103.858 8.52489C102.96 9.3789 102.487 10.4414 102.438 11.7125C102.389 12.9835 102.779 14.0794 103.608 15.0001C104.437 15.9207 105.481 16.4054 106.74 16.454ZM111.412 16.7425C110.08 17.976 108.496 18.5573 106.661 18.4865C104.827 18.4156 103.293 17.7199 102.059 16.3993C100.825 15.0668 100.244 13.4771 100.315 11.6305C100.387 9.7839 101.088 8.24983 102.42 7.02832C103.753 5.79482 105.337 5.21349 107.171 5.28433C109.006 5.35517 110.54 6.05688 111.773 7.38946C113.007 8.72205 113.588 10.3057 113.517 12.1403C113.447 13.9749 112.745 15.509 111.412 16.7425Z" fill="#040E07"/>
<path d="M117.847 19.133L120.671 6.66894L124.498 7.53607C126.347 7.95504 127.762 8.90327 128.744 10.3808C129.726 11.8582 130.016 13.4806 129.616 15.2478C129.216 17.015 128.254 18.3536 126.731 19.2636C125.209 20.1736 123.523 20.4191 121.674 20.0001L117.847 19.133ZM120.334 17.6849L122.107 18.0866C123.418 18.3836 124.576 18.2153 125.581 17.5817C126.597 16.9507 127.246 16.015 127.527 14.7744C127.808 13.5339 127.626 12.4099 126.981 11.4023C126.347 10.3975 125.375 9.74656 124.064 9.44956L122.291 9.04782L120.334 17.6849Z" fill="#040E07"/>
<path d="M139.912 22.2523C139.528 22.0815 139.255 21.7957 139.092 21.3947C138.945 20.9877 138.959 20.5868 139.134 20.1922C139.305 19.8084 139.591 19.5351 139.992 19.372C140.404 19.2139 140.802 19.2202 141.185 19.391C141.58 19.5667 141.851 19.858 141.998 20.2651C142.156 20.677 142.15 21.0748 141.979 21.4585C141.804 21.8532 141.51 22.1296 141.098 22.2877C140.702 22.4398 140.306 22.428 139.912 22.2523Z" fill="#040E07"/>
<path d="M155.773 35.3364L154.081 26.8858L150.672 31.7944L148.957 30.6034L156.246 20.1061L157.961 21.2971L154.82 25.8213L162.175 24.2231L164.363 25.7426L156.201 27.5252L158.109 36.9585L155.773 35.3364Z" fill="#040E07"/>
<path d="M160.133 38.7464L168.938 29.4827L172.278 32.6571C173.13 33.4673 173.573 34.36 173.606 35.3353C173.657 36.3101 173.314 37.1846 172.578 37.9588C171.958 38.6111 171.263 38.9768 170.492 39.0558C169.739 39.1344 168.953 38.9252 168.134 38.4283L167.623 45.8641L165.744 44.0785L166.22 36.7836L165.529 36.1264L161.66 40.1972L160.133 38.7464ZM166.794 34.7956L168.425 36.3456C168.877 36.7755 169.333 37.01 169.792 37.0493C170.26 37.0798 170.68 36.8994 171.052 36.5079C171.424 36.1165 171.578 35.6924 171.516 35.2357C171.461 34.7702 171.208 34.3225 170.756 33.8927L169.125 32.3426L166.794 34.7956Z" fill="#040E07"/>
<path d="M168.161 46.3001L181.697 42.9479L182.815 44.4045L176.072 56.611L174.735 54.8687L176.504 51.674L173.02 47.1326L169.487 48.0281L168.161 46.3001ZM179.989 45.3931L174.998 46.6358L177.496 49.8918L179.989 45.3931Z" fill="#040E07"/>
<path d="M179.63 62.8689L188.389 52.1275L189.472 54.1611L182.905 62.1648L193.203 61.1676L194.294 63.2171L180.492 64.4895L179.63 62.8689Z" fill="#040E07"/>
<path d="M184.813 74.1495L194.96 70.558L193.722 67.0624L195.623 66.3898L198.806 75.3831L196.906 76.0557L195.662 72.5433L185.515 76.1348L184.813 74.1495Z" fill="#040E07"/>
<path d="M188.905 88.8282L201.562 87.0616L202.612 94.5847L200.616 94.8634L199.857 89.4261L196.594 89.8814L197.191 94.1599L195.213 94.4361L194.615 90.1576L189.196 90.914L188.905 88.8282Z" fill="#040E07"/>
</svg>
