<svg width="64" height="64" viewBox="0 0 64 64" fill="none" xmlns="http://www.w3.org/2000/svg">
<rect width="64" height="64" rx="32" fill="white"/>
<path opacity="0.3" fill-rule="evenodd" clip-rule="evenodd" d="M32 50C41.9411 50 50 41.9411 50 32C50 22.0589 41.9411 14 32 14C22.0589 14 14 22.0589 14 32C14 41.9411 22.0589 50 32 50Z" fill="#A9D953"/>
<path fill-rule="evenodd" clip-rule="evenodd" d="M31.4715 49.9924C21.7748 49.7128 14 41.7643 14 32C14 31.8337 14.0023 31.6679 14.0067 31.5026C15.3247 31.6287 17.7127 31.9148 17.8253 32.8408C17.981 34.1218 17.8253 35.7232 18.9161 36.2035C20.0069 36.6839 20.3186 34.2819 21.2535 34.9225C22.1884 35.5632 24.6817 36.1798 24.6817 37.3124C24.6817 38.4448 24.2143 40.2069 24.6817 40.5272C25.1492 40.8476 27.0179 43.0893 27.0184 43.4096C27.0191 43.7299 27.6771 45.3587 27.4808 45.9813C27.3181 46.4975 26.4972 48.1003 25.7012 48.8291C27.5063 49.5241 29.4472 49.9315 31.4715 49.9921L31.4715 49.9924ZM24.5655 15.6022C26.8317 14.5731 29.3489 14 32 14C39.0229 14 45.1064 18.0219 48.0729 23.8882C48.1393 25.4482 48.1277 26.7827 48.4723 27.2655C50.2264 29.7201 44.199 31.4086 45.1147 35.1211C45.5179 36.759 41.1056 36.2394 40.0279 37.7728C38.9496 39.3055 36.3149 38.2756 35.704 37.981C35.0931 37.6863 32.7533 38.6683 32.9578 36.999C33.1611 35.3293 34.5846 35.2312 36.1111 34.5439C37.6369 33.8573 39.8378 31.5743 38.7564 31.276C33.6646 29.8725 31.9275 24.957 31.9275 24.957C31.6221 24.898 31.6988 21.4822 30.3767 21.3841C29.0535 21.2856 28.3409 21.7768 26.4087 21.3841C24.4753 20.9915 24.8829 19.7149 24.5774 16.9651C24.5091 16.3483 24.5124 15.9143 24.5655 15.6022ZM49.9984 31.7541C49.9995 31.8359 50 31.9179 50 32C50 41.8814 42.0377 49.9031 32.179 49.9991C41.9405 49.9007 49.8674 41.7769 49.9984 31.7541Z" fill="#A9D953"/>
</svg>
