<svg width="32" height="33" viewBox="0 0 32 33" fill="none" xmlns="http://www.w3.org/2000/svg">
<path opacity="0.4" d="M25.7973 7.66583L17.4106 3.14589C16.5306 2.66589 15.4639 2.66589 14.5706 3.14589L6.18396 7.66583C5.57063 7.99916 5.19727 8.65253 5.19727 9.37253C5.19727 10.0925 5.57063 10.7458 6.18396 11.0792L14.5706 15.5992C15.0106 15.8392 15.5039 15.9592 15.9839 15.9592C16.4639 15.9592 16.9573 15.8392 17.3973 15.5992L25.7839 11.0792C26.3973 10.7458 26.7706 10.0925 26.7706 9.37253C26.7973 8.65253 26.4106 7.99916 25.7973 7.66583Z" fill="#A9D953"/>
<path opacity="0.4" d="M13.1983 17.1723L5.39832 13.2657C4.79832 12.959 4.10499 12.999 3.53166 13.3457C2.95832 13.6923 2.625 14.3057 2.625 14.9724V22.3457C2.625 23.6257 3.33165 24.7723 4.47831 25.3457L12.2783 29.239C12.545 29.3724 12.8383 29.439 13.1317 29.439C13.4783 29.439 13.825 29.3457 14.1317 29.1457C14.705 28.799 15.0383 28.1857 15.0383 27.519V20.1457C15.0517 18.8924 14.345 17.7456 13.1983 17.1723Z" fill="#A9D953"/>
<path opacity="0.4" d="M29.3739 14.9859V21.1059C29.3606 21.0926 29.3473 21.0659 29.3339 21.0526C29.3339 21.0393 29.3206 21.0259 29.3073 21.0125C29.254 20.9325 29.1873 20.8526 29.1206 20.7859C29.1073 20.7726 29.0939 20.7459 29.0806 20.7326C28.0006 19.5326 26.4139 18.7859 24.6673 18.7859C22.9873 18.7859 21.4539 19.4792 20.3606 20.5992C19.3073 21.6792 18.6673 23.1592 18.6673 24.7859C18.6673 25.9059 18.9873 26.9726 19.5339 27.8792C19.7606 28.2659 20.0406 28.6125 20.3473 28.9325L19.7206 29.2525C19.454 29.3859 19.1606 29.4526 18.8673 29.4526C18.5206 29.4526 18.174 29.3593 17.854 29.1593C17.294 28.8126 16.9473 28.1992 16.9473 27.5326V20.1725C16.9473 18.8925 17.654 17.7459 18.8006 17.1725L26.6006 13.2792C27.2006 12.9726 27.894 12.9992 28.4673 13.3592C29.0273 13.7059 29.3739 14.3193 29.3739 14.9859Z" fill="#A9D953"/>
<path d="M29.306 21.0125C28.2127 19.6658 26.546 18.8125 24.666 18.8125C23.2527 18.8125 21.946 19.3058 20.9194 20.1325C19.5327 21.2258 18.666 22.9192 18.666 24.8125C18.666 25.9325 18.986 26.9992 19.5327 27.9058C19.8927 28.5058 20.346 29.0258 20.8794 29.4525H20.8927C21.9194 30.3058 23.2393 30.8125 24.666 30.8125C26.186 30.8125 27.5593 30.2525 28.6127 29.3192C29.0793 28.9192 29.4794 28.4392 29.7994 27.9058C30.346 26.9992 30.666 25.9325 30.666 24.8125C30.666 23.3725 30.1594 22.0391 29.306 21.0125ZM27.6794 24.0658L24.4793 27.0258C24.2927 27.1991 24.0394 27.2925 23.7994 27.2925C23.546 27.2925 23.2927 27.1991 23.0927 26.9991L21.6127 25.5191C21.226 25.1325 21.226 24.4925 21.6127 24.1058C21.9993 23.7191 22.6393 23.7191 23.026 24.1058L23.826 24.9058L26.3193 22.5991C26.7193 22.2258 27.3593 22.2525 27.7327 22.6525C28.1193 23.0658 28.0927 23.6925 27.6794 24.0658Z" fill="#A9D953"/>
</svg>
