<svg width="32" height="33" viewBox="0 0 32 33" fill="none" xmlns="http://www.w3.org/2000/svg">
<g id="Stockholm-icons / Cooking / Dinner">
<path id="Combined Shape" opacity="0.3" fill-rule="evenodd" clip-rule="evenodd" d="M16.6667 25.4525C21.4531 25.4525 25.3333 21.5723 25.3333 16.7858C25.3333 11.9993 21.4531 8.11914 16.6667 8.11914C11.8802 8.11914 8 11.9993 8 16.7858C8 21.5723 11.8802 25.4525 16.6667 25.4525ZM16.6687 21.9859C13.7969 21.9859 11.4688 19.6578 11.4688 16.7859C11.4688 13.9141 13.7969 11.5859 16.6687 11.5859C19.5406 11.5859 21.8688 13.9141 21.8688 16.7859C21.8688 19.6578 19.5406 21.9859 16.6687 21.9859ZM20.1365 16.786C20.1365 18.7006 18.5844 20.2527 16.6698 20.2527C14.7552 20.2527 13.2031 18.7006 13.2031 16.786C13.2031 14.8714 14.7552 13.3193 16.6698 13.3193C18.5844 13.3193 20.1365 14.8714 20.1365 16.786Z" fill="#A9D953"/>
<rect id="Rectangle Copy" opacity="0.3" x="28.1328" y="18.1191" width="2.67931" height="7.33333" rx="1.125" fill="#A9D953"/>
<path id="Path 65" fill-rule="evenodd" clip-rule="evenodd" d="M28 6.78613V16.1195H32V10.7861C32 8.57699 30.2091 6.78613 28 6.78613Z" fill="#A9D953"/>
<path id="Combined Shape_2" fill-rule="evenodd" clip-rule="evenodd" d="M0.953125 6.78613H0V11.6458C0 13.3026 1.34314 14.6458 3 14.6458H3.66667C5.32352 14.6458 6.66667 13.3026 6.66667 11.6458V6.78613H5.71503L5.28479 11.2244C5.25872 11.4933 5.03276 11.6984 4.76265 11.6984C4.49253 11.6984 4.26657 11.4933 4.24051 11.2244L3.81027 6.78613H2.85789L2.42764 11.2244C2.40158 11.4933 2.17562 11.6984 1.90551 11.6984C1.63539 11.6984 1.40943 11.4933 1.38337 11.2244L0.953125 6.78613Z" fill="#A9D953"/>
<rect id="Rectangle" opacity="0.3" x="1.98438" y="16.6104" width="2.70286" height="8.8421" rx="1.125" fill="#A9D953"/>
</g>
</svg>
