<svg width="32" height="33" viewBox="0 0 32 33" fill="none" xmlns="http://www.w3.org/2000/svg">
<g id="Stockholm-icons / Cooking / Shovel">
<path id="Rectangle 84" opacity="0.3" fill-rule="evenodd" clip-rule="evenodd" d="M11.368 19.5331L13.2536 21.4187C13.7743 21.9394 13.7743 22.7836 13.2536 23.3043L6.65395 29.904C6.13325 30.4247 5.28903 30.4247 4.76833 29.904L2.88271 28.0184C2.36201 27.4977 2.36201 26.6535 2.88271 26.1328L9.48237 19.5331C10.0031 19.0124 10.8473 19.0124 11.368 19.5331Z" fill="#A9D953"/>
<path id="Combined Shape" fill-rule="evenodd" clip-rule="evenodd" d="M15.1407 15.7622L12.3123 12.9337C11.2709 11.8923 11.2709 10.2039 12.3123 9.16251L17.9692 3.50566C19.0106 2.46426 20.699 2.46426 21.7404 3.50566L29.2829 11.0481C30.3243 12.0895 30.3243 13.778 29.2829 14.8194L23.626 20.4762C22.5846 21.5176 20.8962 21.5176 19.8548 20.4762L17.0263 17.6478L14.1979 20.4762L12.3123 18.5906L15.1407 15.7622ZM20.3287 5.8623L14.6719 11.5192L15.6147 12.462L21.2715 6.80511L20.3287 5.8623ZM23.1569 8.69141L17.5 14.3483L18.4428 15.2911L24.0997 9.63422L23.1569 8.69141ZM25.985 11.5195L20.3281 17.1764L21.2709 18.1192L26.9278 12.4623L25.985 11.5195Z" fill="#A9D953"/>
</g>
</svg>
