<svg width="32" height="33" viewBox="0 0 32 33" fill="none" xmlns="http://www.w3.org/2000/svg">
<g id="Stockholm-icons / Shopping / Wallet">
<path id="Oval 47" opacity="0.3" fill-rule="evenodd" clip-rule="evenodd" d="M27.3359 18.7861C28.4405 18.7861 29.3359 17.8907 29.3359 16.7861C29.3359 15.6816 28.4405 14.7861 27.3359 14.7861C26.2314 14.7861 25.3359 15.6816 25.3359 16.7861C25.3359 17.8907 26.2314 18.7861 27.3359 18.7861Z" fill="#A9D953"/>
<rect id="Rectangle 162" opacity="0.3" x="3.20312" y="7.38379" width="24" height="9.33333" rx="1" transform="rotate(-15 3.20312 7.38379)" fill="#A9D953"/>
<path id="Combined Shape" fill-rule="evenodd" clip-rule="evenodd" d="M4.66406 5.45215C3.55949 5.45215 2.66406 6.34758 2.66406 7.45215V24.7855C2.66406 25.8901 3.55949 26.7855 4.66406 26.7855H27.3307C28.4353 26.7855 29.3307 25.89 29.3307 24.7855V21.0034C28.7246 21.2913 28.0465 21.4525 27.3307 21.4525C24.7534 21.4525 22.6641 19.3631 22.6641 16.7858C22.6641 14.2085 24.7534 12.1191 27.3307 12.1191C28.0465 12.1191 28.7246 12.2803 29.3307 12.5682V7.45215C29.3307 6.34758 28.4353 5.45215 27.3307 5.45215H4.66406Z" fill="#A9D953"/>
</g>
</svg>
