<svg width="22" height="22" viewBox="0 0 22 22" fill="none" xmlns="http://www.w3.org/2000/svg">
<path d="M20.2188 10.2187L11.7812 10.2188V1.78125C11.7812 1.34977 11.4315 1 11 1C10.5685 1 10.2188 1.34977 10.2188 1.78125V10.2188H1.78125C1.34977 10.2188 1 10.5685 1 11C1 11.4315 1.34977 11.7812 1.78125 11.7812H10.2188L10.2188 20.2188C10.2188 20.6502 10.5685 21 11 21C11.4315 21 11.7813 20.6502 11.7813 20.2188L11.7812 11.7812L20.2188 11.7812C20.6502 11.7812 21 11.4315 21 11C21 10.5685 20.6502 10.2187 20.2188 10.2187Z" fill="#040E07" stroke="#040E07" stroke-width="0.5"/>
</svg>
