<svg width="64" height="65" viewBox="0 0 64 65" fill="none" xmlns="http://www.w3.org/2000/svg">
<g id="Stockholm-icons / Shopping / Box#3">
<g id="Group 48374">
<path id="Combined Shape" opacity="0.3" fill-rule="evenodd" clip-rule="evenodd" d="M54.4164 18.0814C55.3794 18.5094 56 19.4644 56 20.5183V43.8829C56 44.8513 55.475 45.7436 54.6284 46.214L33.295 58.0658C32.4897 58.5132 31.5103 58.5132 30.705 58.0658L9.37162 46.214C8.52505 45.7436 8 44.8513 8 43.8829L8 20.5183C8 19.4644 8.62062 18.5094 9.58363 18.0814L30.917 8.59995C31.6065 8.29351 32.3935 8.29351 33.083 8.59995L54.4164 18.0814Z" fill="#A9D953"/>
<path id="Combined Shape Copy" fill-rule="evenodd" clip-rule="evenodd" d="M39.9114 11.3828L20.2656 22.2971V34.5329L25.599 37.1995V25.4353L46.0125 14.0944L39.9114 11.3828Z" fill="#A9D953"/>
</g>
</g>
</svg>
