<svg width="48" height="49" viewBox="0 0 48 49" fill="none" xmlns="http://www.w3.org/2000/svg">
<path opacity="0.4" d="M38 20.6783V34.9783C37.94 40.6783 36.3799 42.1183 30.4399 42.1183H11.5601C5.52006 42.1183 4 40.6183 4 34.6583V20.6783C4 15.2783 5.26 13.5383 10 13.2583C10.48 13.2383 11.0001 13.2183 11.5601 13.2183H30.4399C36.4799 13.2183 38 14.7183 38 20.6783Z" fill="#A9D953"/>
<path d="M44 13.5782V27.5582C44 32.9582 42.74 34.6982 38 34.9782V20.6782C38 14.7182 36.4799 13.2182 30.4399 13.2182H11.5601C11.0001 13.2182 10.48 13.2382 10 13.2582C10.06 7.55816 11.6201 6.11816 17.5601 6.11816H36.4399C42.4799 6.11816 44 7.61816 44 13.5782Z" fill="#A9D953"/>
<path d="M13.9205 37.2383H10.4805C9.66047 37.2383 8.98047 36.5583 8.98047 35.7383C8.98047 34.9183 9.66047 34.2383 10.4805 34.2383H13.9205C14.7405 34.2383 15.4205 34.9183 15.4205 35.7383C15.4205 36.5583 14.7605 37.2383 13.9205 37.2383Z" fill="#A9D953"/>
<path d="M25.1007 37.2383H18.2207C17.4007 37.2383 16.7207 36.5583 16.7207 35.7383C16.7207 34.9183 17.4007 34.2383 18.2207 34.2383H25.1007C25.9207 34.2383 26.6007 34.9183 26.6007 35.7383C26.6007 36.5583 25.9407 37.2383 25.1007 37.2383Z" fill="#A9D953"/>
<path d="M38 23.8384H4V26.8384H38V23.8384Z" fill="#A9D953"/>
</svg>
