<svg width="64" height="33" viewBox="0 0 64 33" fill="none" xmlns="http://www.w3.org/2000/svg">
<g clip-path="url(#clip0_2601_28069)">
<path d="M-0.335938 4.23633C-0.335938 2.02719 2.25086 0.236328 5.44184 0.236328H63.2196C66.4106 0.236328 68.9974 2.02719 68.9974 4.23633V28.2363C68.9974 30.4455 66.4106 32.2363 63.2196 32.2363H5.44184C2.25086 32.2363 -0.335938 30.4455 -0.335938 28.2363V4.23633Z" fill="#FFF4E1"/>
<path d="M36.7198 7.25272L27.5703 7.28418L27.8476 24.0346L36.9971 24.0031L36.7198 7.25272Z" fill="#FF5F00"/>
<path d="M28.1757 15.6948C28.1191 12.2879 29.6453 9.26074 32.0358 7.29718C30.2314 5.88126 27.9693 5.02983 25.5171 5.03823C19.7078 5.05812 15.0871 9.84388 15.185 15.7393C15.283 21.6347 20.0623 26.3883 25.8716 26.3684C28.3238 26.36 30.5573 25.4932 32.3144 24.0651C29.8594 22.1477 28.2323 19.1017 28.1757 15.6948Z" fill="#EB001B"/>
<path d="M49.3782 15.5493C49.4762 21.4447 44.8555 26.2305 39.0461 26.2504C36.594 26.2588 34.3319 25.4073 32.5275 23.9914C34.9472 22.0278 36.4442 19.0007 36.3876 15.5938C36.3309 12.1869 34.7043 9.1705 32.2488 7.22353C34.006 5.79542 36.2395 4.92859 38.6917 4.92019C44.501 4.90029 49.2807 9.68348 49.3782 15.5493Z" fill="#F79E1B"/>
</g>
<defs>
<clipPath id="clip0_2601_28069">
<rect y="0.118164" width="64" height="32" rx="6" fill="white"/>
</clipPath>
</defs>
</svg>
