<svg width="204" height="33" viewBox="0 0 204 33" fill="none" xmlns="http://www.w3.org/2000/svg">
<g clip-path="url(#clip0_2601_28053)">
<path d="M0 4.23633C0 2.02719 2.5868 0.236328 5.77778 0.236328H63.5556C66.7465 0.236328 69.3333 2.02719 69.3333 4.23633V28.2363C69.3333 30.4455 66.7465 32.2363 63.5556 32.2363H5.77778C2.5868 32.2363 0 30.4455 0 28.2363V4.23633Z" fill="#F2F9E5"/>
<path d="M47.8884 10H40.1875C40.6361 12.5421 43.1034 14.9346 45.795 14.9346H51.9258C52.0006 14.7103 52.0006 14.3364 52.0006 14.1121C52.0006 11.8692 50.1314 10 47.8884 10Z" fill="url(#paint0_linear_2601_28053)"/>
<path d="M40.8672 15.3828V21.5884H44.6055V18.2987H47.8952C49.6896 18.2987 51.2597 17.0277 51.7831 15.3828H40.8672Z" fill="#4FAD50"/>
<path d="M27.6953 10V21.514H30.9851C30.9851 21.514 31.8075 21.514 32.2561 20.6916C34.4991 16.2804 35.1719 14.9346 35.1719 14.9346H35.6206V21.514H39.3589V10H36.0692C36.0692 10 35.2467 10.0748 34.7981 10.8224C32.929 14.6355 31.8822 16.5794 31.8822 16.5794H31.4336V10H27.6953Z" fill="#4FAD50"/>
<path d="M12 21.5882V10.0742H15.7383C15.7383 10.0742 16.7851 10.0742 17.3832 11.7191C18.8785 16.0555 19.0281 16.6537 19.0281 16.6537C19.0281 16.6537 19.3271 15.6069 20.6729 11.7191C21.271 10.0742 22.3178 10.0742 22.3178 10.0742H26.0561V21.5882H22.3178V15.3826H21.8692L19.7757 21.5882H18.1309L16.0374 15.3826H15.5888V21.5882H12Z" fill="#4FAD50"/>
</g>
<g clip-path="url(#clip1_2601_28053)">
<path d="M70.3359 4.23633C70.3359 2.02719 72.9227 0.236328 76.1137 0.236328H133.891C137.082 0.236328 139.669 2.02719 139.669 4.23633V28.2363C139.669 30.4455 137.082 32.2363 133.891 32.2363H76.1137C72.9227 32.2363 70.3359 30.4455 70.3359 28.2363V4.23633Z" fill="#E5F4FF"/>
<path d="M119.311 10.1758H116.796C116.036 10.1758 115.451 10.4097 115.1 11.1699L110.305 22.1056H113.697C113.697 22.1056 114.281 20.6436 114.398 20.2927C114.749 20.2927 118.082 20.2927 118.55 20.2927C118.667 20.7021 118.96 22.0471 118.96 22.0471H122.001L119.311 10.1758ZM115.334 17.8366C115.626 17.1348 116.62 14.5033 116.62 14.5033C116.62 14.5617 116.913 13.8015 117.03 13.3922L117.264 14.4448C117.264 14.4448 117.907 17.3103 118.024 17.8951H115.334V17.8366Z" fill="#3362AB"/>
<path d="M110.54 18.1871C110.54 20.6433 108.318 22.2807 104.868 22.2807C103.406 22.2807 102.002 21.9883 101.242 21.6374L101.71 18.9474L102.119 19.1228C103.172 19.5906 103.874 19.7661 105.16 19.7661C106.096 19.7661 107.09 19.4152 107.09 18.5965C107.09 18.0702 106.681 17.7193 105.394 17.1345C104.166 16.5497 102.529 15.614 102.529 13.9181C102.529 11.5789 104.809 10 108.026 10C109.254 10 110.307 10.2339 110.95 10.5263L110.482 13.0994L110.248 12.8655C109.663 12.6316 108.903 12.3977 107.792 12.3977C106.564 12.4561 105.979 12.9825 105.979 13.4503C105.979 13.9766 106.681 14.386 107.792 14.9123C109.663 15.7895 110.54 16.7836 110.54 18.1871Z" fill="#3362AB"/>
<path d="M82 10.2925L82.0585 10.0586H87.0877C87.7895 10.0586 88.3158 10.2925 88.4912 11.0527L89.6023 16.3159C88.4912 13.5089 85.9181 11.2282 82 10.2925Z" fill="#F9B50B"/>
<path d="M96.6807 10.1757L91.593 22.047H88.1427L85.2188 12.1055C87.324 13.4505 89.0784 15.5558 89.7217 17.0178L90.0726 18.2458L93.2304 10.1172H96.6807V10.1757Z" fill="#3362AB"/>
<path d="M98.0233 10.1172H101.24L99.1929 22.047H95.9766L98.0233 10.1172Z" fill="#3362AB"/>
</g>
<g clip-path="url(#clip2_2601_28053)">
<path d="M139.664 4.23633C139.664 2.02719 142.251 0.236328 145.442 0.236328H203.22C206.411 0.236328 208.997 2.02719 208.997 4.23633V28.2363C208.997 30.4455 206.411 32.2363 203.22 32.2363H145.442C142.251 32.2363 139.664 30.4455 139.664 28.2363V4.23633Z" fill="#FFF4E1"/>
<path d="M176.72 7.25272L167.57 7.28418L167.848 24.0346L176.997 24.0031L176.72 7.25272Z" fill="#FF5F00"/>
<path d="M168.176 15.6948C168.119 12.2879 169.645 9.26074 172.036 7.29718C170.231 5.88126 167.969 5.02983 165.517 5.03823C159.708 5.05812 155.087 9.84388 155.185 15.7393C155.283 21.6347 160.062 26.3883 165.872 26.3684C168.324 26.36 170.557 25.4932 172.314 24.0651C169.859 22.1477 168.232 19.1017 168.176 15.6948Z" fill="#EB001B"/>
<path d="M189.378 15.5493C189.476 21.4447 184.855 26.2305 179.046 26.2504C176.594 26.2588 174.332 25.4073 172.527 23.9914C174.947 22.0278 176.444 19.0007 176.388 15.5938C176.331 12.1869 174.704 9.1705 172.249 7.22353C174.006 5.79542 176.24 4.92859 178.692 4.92019C184.501 4.90029 189.281 9.68348 189.378 15.5493Z" fill="#F79E1B"/>
</g>
<defs>
<linearGradient id="paint0_linear_2601_28053" x1="40.1742" y1="12.5027" x2="51.9741" y2="12.5027" gradientUnits="userSpaceOnUse">
<stop stop-color="#27B1E6"/>
<stop offset="1" stop-color="#148ACA"/>
</linearGradient>
<clipPath id="clip0_2601_28053">
<rect y="0.118164" width="64" height="32" rx="6" fill="white"/>
</clipPath>
<clipPath id="clip1_2601_28053">
<rect x="70" y="0.118164" width="64" height="32" rx="6" fill="white"/>
</clipPath>
<clipPath id="clip2_2601_28053">
<rect x="140" y="0.118164" width="64" height="32" rx="6" fill="white"/>
</clipPath>
</defs>
</svg>
