<svg width="64" height="65" viewBox="0 0 64 65" fill="none" xmlns="http://www.w3.org/2000/svg">
<path opacity="0.4" d="M58.6693 37.4512V45.4512C58.6693 49.8778 55.0959 53.4512 50.6693 53.4512H48.0026C48.0026 50.5178 45.6026 48.1178 42.6693 48.1178C39.7359 48.1178 37.3359 50.5178 37.3359 53.4512H26.6693C26.6693 50.5178 24.2693 48.1178 21.3359 48.1178C18.4026 48.1178 16.0026 50.5178 16.0026 53.4512H13.3359C8.90927 53.4512 5.33594 49.8778 5.33594 45.4512V37.4512H34.6693C37.6026 37.4512 40.0026 35.0512 40.0026 32.1178V13.4512H44.9093C46.8293 13.4512 48.5893 14.4912 49.5493 16.1445L54.1092 24.1178H50.6693C49.2026 24.1178 48.0026 25.3178 48.0026 26.7845V34.7845C48.0026 36.2512 49.2026 37.4512 50.6693 37.4512H58.6693Z" fill="#A9D953"/>
<path d="M21.3333 58.7848C24.2789 58.7848 26.6667 56.397 26.6667 53.4515C26.6667 50.506 24.2789 48.1182 21.3333 48.1182C18.3878 48.1182 16 50.506 16 53.4515C16 56.397 18.3878 58.7848 21.3333 58.7848Z" fill="#A9D953"/>
<path d="M42.6693 58.7848C45.6148 58.7848 48.0026 56.397 48.0026 53.4515C48.0026 50.506 45.6148 48.1182 42.6693 48.1182C39.7238 48.1182 37.3359 50.506 37.3359 53.4515C37.3359 56.397 39.7238 58.7848 42.6693 58.7848Z" fill="#A9D953"/>
<path d="M58.6667 33.5316V37.4515H50.6667C49.2 37.4515 48 36.2515 48 34.7848V26.7848C48 25.3182 49.2 24.1182 50.6667 24.1182H54.1066L57.9733 30.8914C58.4266 31.6914 58.6667 32.5982 58.6667 33.5316Z" fill="#A9D953"/>
<path d="M37.3281 5.45117H15.9948C10.7948 5.45117 6.47484 9.18451 5.5415 14.1178H18.6615C19.7548 14.1178 20.6615 15.0245 20.6615 16.1178C20.6615 17.2112 19.7548 18.1178 18.6615 18.1178H5.32812V22.1178H13.3281C14.4215 22.1178 15.3281 23.0245 15.3281 24.1178C15.3281 25.2112 14.4215 26.1178 13.3281 26.1178H5.32812V30.1178H7.99479C9.08812 30.1178 9.99479 31.0245 9.99479 32.1178C9.99479 33.2112 9.08812 34.1178 7.99479 34.1178H5.32812V37.4512H34.6615C37.5948 37.4512 39.9948 35.0512 39.9948 32.1178V8.11784C39.9948 6.65117 38.7948 5.45117 37.3281 5.45117Z" fill="#A9D953"/>
<path d="M5.54411 14.1182H2.66406C1.57073 14.1182 0.664062 15.0248 0.664062 16.1182C0.664062 17.2115 1.57073 18.1182 2.66406 18.1182H5.33073V16.1182C5.33073 15.4248 5.41077 14.7582 5.54411 14.1182Z" fill="#A9D953"/>
<path d="M2.66406 22.1182C1.57073 22.1182 0.664062 23.0248 0.664062 24.1182C0.664062 25.2115 1.57073 26.1182 2.66406 26.1182H5.33073V22.1182H2.66406Z" fill="#A9D953"/>
<path d="M2.66406 30.1182C1.57073 30.1182 0.664062 31.0248 0.664062 32.1182C0.664062 33.2115 1.57073 34.1182 2.66406 34.1182H5.33073V30.1182H2.66406Z" fill="#A9D953"/>
</svg>
