<svg width="48" height="49" viewBox="0 0 48 49" fill="none" xmlns="http://www.w3.org/2000/svg">
<path opacity="0.3" fill-rule="evenodd" clip-rule="evenodd" d="M41.0039 28.1187C42.6608 28.1187 44.0039 26.7755 44.0039 25.1187C44.0039 23.4618 42.6608 22.1187 41.0039 22.1187C39.3471 22.1187 38.0039 23.4618 38.0039 25.1187C38.0039 26.7755 39.3471 28.1187 41.0039 28.1187Z" fill="#A9D953"/>
<rect opacity="0.3" x="4.80469" y="11.0151" width="36" height="14" rx="1" transform="rotate(-15 4.80469 11.0151)" fill="#A9D953"/>
<path fill-rule="evenodd" clip-rule="evenodd" d="M5.99609 8.11768C4.89152 8.11768 3.99609 9.01311 3.99609 10.1177V38.1177C3.99609 39.2222 4.89152 40.1177 5.99609 40.1177H41.9961C43.1007 40.1177 43.9961 39.2222 43.9961 38.1177V31.4445C43.0868 31.8765 42.0697 32.1182 40.9961 32.1182C37.1301 32.1182 33.9961 28.9842 33.9961 25.1182C33.9961 21.2522 37.1301 18.1182 40.9961 18.1182C42.0697 18.1182 43.0868 18.3599 43.9961 18.7918V10.1177C43.9961 9.01311 43.1007 8.11768 41.9961 8.11768H5.99609Z" fill="#A9D953"/>
</svg>
