<svg width="48" height="48" viewBox="0 0 48 48" fill="none" xmlns="http://www.w3.org/2000/svg">
<path d="M4 28H44V28C44 37.9411 35.9411 46 26 46H22C12.0589 46 4 37.9411 4 28V28Z" fill="#A9D953"/>
<path opacity="0.3" fill-rule="evenodd" clip-rule="evenodd" d="M18.4875 24.8395C18.2113 25.3178 18.3752 25.9294 18.8535 26.2055L20.5041 27.1585C20.9824 27.4346 21.5939 27.2708 21.8701 26.7925L22.4462 25.7946C22.4883 25.9224 22.5571 26.0438 22.6529 26.1502L23.9282 27.5666C24.2978 27.977 24.9301 28.0101 25.3405 27.6406L44.3174 10.5537C44.7278 10.1842 44.7609 9.55187 44.3914 9.14145L43.1161 7.72508C42.7465 7.31466 42.1142 7.28152 41.7038 7.65107L23.4129 24.1203L34.638 4.67773C34.9142 4.19944 34.7503 3.58785 34.272 3.3117L32.6214 2.35875C32.1432 2.08261 31.5316 2.24648 31.2554 2.72478L18.4875 24.8395Z" fill="#A9D953"/>
</svg>
