<svg width="181" height="55" viewBox="0 0 181 55" fill="none" xmlns="http://www.w3.org/2000/svg">
<path d="M12.1044 26.2116H9.03125V11.6611H12.1044V20.9434L18.8152 11.6611H22.5156L17.749 18.1838L19.8814 21.7587C20.3205 22.3859 20.7595 22.6995 21.1358 22.8249C21.5748 22.9503 21.9511 23.013 22.3274 23.013H23.3309V26.0862H22.0766C21.7003 26.0862 21.3239 26.0862 21.0104 26.0235C20.6968 25.9608 20.3832 25.8981 20.0069 25.7099C19.6933 25.5845 19.317 25.3336 19.0034 25.02C18.6271 24.7064 18.2508 24.2674 17.8117 23.7657L15.8048 20.4416L12.1044 26.2116Z" fill="#040E07"/>
<path d="M38.2569 21.8214C38.445 22.135 38.6332 22.3859 38.8213 22.5113C39.0095 22.6995 39.2603 22.8249 39.4485 22.8876C39.6994 22.9503 39.8875 23.013 40.1384 23.0758C40.3266 23.0758 40.5147 23.1385 40.7029 23.1385H41.7063V26.2116H40.452C40.0757 26.2116 39.6994 26.2116 39.3231 26.1489C38.9468 26.0862 38.5705 26.0235 38.2569 25.8981C37.8806 25.7726 37.567 25.5217 37.1907 25.2082C36.8771 24.8946 36.5008 24.4555 36.1872 23.9538L33.9293 20.3162H33.7412C33.1767 20.3162 32.7377 20.3162 32.2987 20.3789C31.9224 20.3789 31.6088 20.4416 31.2952 20.5043C30.9816 20.567 30.7307 20.6925 30.4799 20.7552C30.229 20.8806 29.9781 21.0061 29.6645 21.1315V26.2116H26.7168V11.6611H36.1245C36.8144 11.6611 37.3788 11.7866 37.9433 11.9747C38.5077 12.1629 38.9468 12.4765 39.3858 12.9155C39.8248 13.2918 40.1384 13.7935 40.3266 14.2953C40.5774 14.8597 40.6402 15.4242 40.6402 16.0514C40.6402 17.1803 40.3265 18.0583 39.7621 18.7482C39.1976 19.4381 38.3823 19.9399 37.3161 20.2535L38.2569 21.8214ZM36.1245 17.3684C36.5635 17.3684 36.9398 17.243 37.2534 16.9921C37.567 16.7413 37.7551 16.4277 37.7551 15.9259C37.7551 15.6123 37.6924 15.3615 37.567 15.1733C37.4415 14.9852 37.2534 14.8597 37.0652 14.7343C36.8771 14.6716 36.6262 14.6089 36.3753 14.5461C36.1245 14.5461 35.8736 14.4834 35.6227 14.4834H29.7272V18.1211C30.2917 17.8075 30.9189 17.5566 31.6088 17.4312C32.2987 17.3057 33.0513 17.243 33.8039 17.243H36.1245V17.3684Z" fill="#040E07"/>
<path d="M50.1105 11.2852H53.2464L61.0861 26.1493H57.8876L56.7586 23.9541H55.0025C54.1245 23.9541 53.2464 24.0169 52.3684 24.205C51.4903 24.3305 50.675 24.5186 49.9851 24.7695C49.2952 24.9576 48.668 25.2085 48.1663 25.4594C47.6646 25.7103 47.351 25.8984 47.2255 26.0238L47.1628 26.212H44.1523L51.114 13.1667L50.1105 11.2852ZM55.3788 21.3827L52.5565 15.989L49.1071 22.6371C49.5461 22.3862 50.2987 22.1353 51.2395 21.8217C52.1802 21.5081 53.4346 21.3827 54.9398 21.3827H55.3788Z" fill="#040E07"/>
<path d="M70.4313 26.2116H66.731L60.3965 11.6611H63.6578L68.5498 23.2639L73.5672 11.6611H76.8285L70.4313 26.2116Z" fill="#040E07"/>
<path d="M86.9893 14.5461V26.2116H84.1042V14.5461H78.8359V11.6611H92.4457V14.5461H86.9893Z" fill="#040E07"/>
<path d="M105.992 26.2116H103.107V11.6611H114.02V14.5461H105.992V18.0583C106.62 17.682 107.31 17.4312 108.125 17.3684C108.877 17.3057 109.693 17.243 110.571 17.243H112.139V20.128H110.571C109.881 20.128 109.316 20.128 108.877 20.1907C108.438 20.1907 108.062 20.2535 107.749 20.3162C107.435 20.3789 107.121 20.4416 106.87 20.567C106.62 20.6925 106.306 20.8179 105.992 21.0061V26.2116V26.2116Z" fill="#040E07"/>
<path d="M133.464 18.748C133.464 20.0024 133.213 21.0686 132.711 22.0721C132.21 23.0756 131.582 23.8909 130.767 24.5181C129.952 25.208 129.074 25.7097 128.008 26.086C126.941 26.4623 125.875 26.5878 124.809 26.5878C123.68 26.5878 122.614 26.3996 121.61 26.086C120.607 25.7097 119.666 25.208 118.851 24.5808C118.035 23.8909 117.408 23.0756 116.969 22.1348C116.467 21.194 116.279 20.0651 116.279 18.8108C116.279 17.5564 116.53 16.4902 117.032 15.5494C117.534 14.6087 118.161 13.7933 118.976 13.1662C119.792 12.539 120.67 12.0372 121.736 11.6609C122.739 11.3473 123.805 11.1592 124.934 11.1592C126.001 11.1592 127.067 11.3473 128.133 11.6609C129.199 11.9745 130.077 12.4763 130.893 13.1034C131.708 13.7306 132.335 14.5459 132.837 15.4867C133.213 16.4275 133.464 17.4937 133.464 18.748ZM130.391 18.8108C130.391 17.9954 130.203 17.3055 129.889 16.7411C129.575 16.1766 129.136 15.6749 128.635 15.2986C128.133 14.9223 127.506 14.6087 126.879 14.4832C126.189 14.2951 125.562 14.2323 124.872 14.2323C124.182 14.2323 123.492 14.2951 122.802 14.4832C122.112 14.6714 121.548 14.985 121.046 15.3613C120.544 15.7376 120.105 16.2393 119.791 16.8665C119.478 17.4937 119.29 18.1836 119.29 18.9989C119.29 19.8142 119.478 20.5041 119.791 21.1313C120.105 21.7585 120.544 22.1975 121.046 22.6365C121.548 23.0129 122.175 23.3264 122.802 23.5146C123.492 23.7027 124.119 23.7655 124.872 23.7655C125.562 23.7655 126.251 23.64 126.879 23.4519C127.506 23.2637 128.133 22.9501 128.635 22.5111C129.136 22.0721 129.575 21.5703 129.889 21.0059C130.265 20.316 130.391 19.5634 130.391 18.8108Z" fill="#040E07"/>
<path d="M153.407 18.748C153.407 20.0024 153.156 21.0686 152.655 22.0721C152.153 23.0756 151.526 23.8909 150.71 24.5181C149.895 25.208 149.017 25.7097 147.951 26.086C146.885 26.4623 145.818 26.5878 144.752 26.5878C143.623 26.5878 142.557 26.3996 141.554 26.086C140.55 25.7097 139.609 25.208 138.794 24.5808C137.979 23.8909 137.352 23.0756 136.913 22.1348C136.411 21.194 136.223 20.0651 136.223 18.8108C136.223 17.5564 136.474 16.4902 136.975 15.5494C137.477 14.6087 138.104 13.7933 138.92 13.1662C139.735 12.539 140.613 12.0372 141.679 11.6609C142.683 11.3473 143.749 11.1592 144.878 11.1592C146.007 11.1592 147.01 11.3473 148.076 11.6609C149.143 11.9745 150.021 12.4763 150.836 13.1034C151.651 13.7306 152.278 14.5459 152.78 15.4867C153.156 16.4275 153.407 17.4937 153.407 18.748ZM150.334 18.8108C150.334 17.9954 150.146 17.3055 149.832 16.7411C149.519 16.1766 149.08 15.6749 148.578 15.2986C148.076 14.9223 147.449 14.6087 146.822 14.4832C146.132 14.2951 145.505 14.2323 144.815 14.2323C144.125 14.2323 143.435 14.2951 142.745 14.4832C142.055 14.6714 141.491 14.985 140.989 15.3613C140.487 15.7376 140.048 16.2393 139.735 16.8665C139.421 17.4937 139.233 18.1836 139.233 18.9989C139.233 19.8142 139.421 20.5041 139.735 21.1313C140.048 21.7585 140.487 22.1975 140.989 22.6365C141.491 23.0129 142.118 23.3264 142.745 23.5146C143.435 23.7027 144.062 23.7655 144.815 23.7655C145.505 23.7655 146.195 23.64 146.822 23.4519C147.449 23.2637 148.076 22.9501 148.578 22.5111C149.08 22.0721 149.519 21.5703 149.832 21.0059C150.209 20.316 150.334 19.5634 150.334 18.8108Z" fill="#040E07"/>
<path d="M154.912 11.6611H163.943C165.01 11.6611 166.013 11.7866 166.954 12.1001C167.832 12.4137 168.647 12.8528 169.274 13.4799C169.902 14.1071 170.403 14.8597 170.78 15.7378C171.156 16.6158 171.281 17.6193 171.281 18.811C171.281 19.9399 171.093 20.9434 170.78 21.8841C170.403 22.8249 169.964 23.5775 169.274 24.2047C168.647 24.8319 167.832 25.3336 166.954 25.6472C166.076 26.0235 165.072 26.1489 163.943 26.1489H158.048V14.4834H156.229L154.912 11.6611ZM161.058 14.5461V23.2639H163.943C165.323 23.2639 166.389 22.8876 167.205 22.135C167.957 21.3824 168.334 20.2535 168.334 18.8737C168.334 17.4312 167.957 16.365 167.205 15.6751C166.452 14.9225 165.386 14.6089 163.943 14.6089H161.058V14.5461Z" fill="#040E07"/>
<path d="M55.0662 2.94238L55.6934 4.3849H178.871V32.6706H1.44252V4.3849H42.9617L42.3345 2.94238H0V34.1131H180.314V2.94238H55.0662Z" fill="#040E07"/>
<path d="M51.679 8.46191C51.679 8.46191 54.6268 4.5734 46.9125 0.308594C46.9125 0.308594 43.9648 7.64658 51.679 8.46191Z" fill="#040E07"/>
<path d="M35.5613 51.7365C35.4358 51.7365 35.2477 51.7365 35.2477 51.2975V44.6494H34.7459V47.6599C34.5578 47.409 34.3696 47.2209 34.1188 47.0327C33.6797 46.7191 33.178 46.5937 32.5508 46.5937C31.7982 46.5937 31.1083 46.8446 30.5439 47.409C30.0421 47.9735 29.7285 48.6634 29.7285 49.4787C29.7285 50.294 29.9794 50.9839 30.5439 51.5484C31.0456 52.1128 31.7355 52.3637 32.5508 52.3637C33.1153 52.3637 33.617 52.2383 34.1188 51.9247C34.3696 51.7365 34.6205 51.5484 34.7459 51.2975V51.3602C34.7459 52.2383 35.2477 52.3637 35.5613 52.3637C35.7494 52.3637 35.8749 52.3637 36.0003 52.301L36.1257 52.2383V51.7365L35.8749 51.862C35.7494 51.7365 35.6867 51.7365 35.5613 51.7365ZM32.4881 47.0327C33.1153 47.0327 33.617 47.2209 34.0561 47.6599C34.4951 48.0989 34.6832 48.6634 34.6832 49.3532C34.6832 50.0431 34.4951 50.6076 34.0561 51.0466C33.617 51.4857 33.1153 51.6738 32.4881 51.6738C31.8609 51.6738 31.2965 51.4229 30.8574 50.9839C30.4184 50.5449 30.2303 49.9804 30.2303 49.2905C30.2303 48.6007 30.4184 48.0989 30.8574 47.5972C31.2965 47.2836 31.8609 47.0327 32.4881 47.0327Z" fill="#040E07"/>
<path d="M39.1356 51.7364C38.9475 51.7364 38.822 51.6737 38.822 51.2974V46.6562H38.3203V51.3601C38.3203 52.1754 38.822 52.3009 39.1356 52.3009C39.3238 52.3009 39.4492 52.3008 39.5747 52.2381L39.7001 52.1754V51.6737L39.5119 51.7364C39.3238 51.7364 39.1984 51.7364 39.1356 51.7364Z" fill="#040E07"/>
<path d="M38.258 45.6535C38.3208 45.7163 38.3835 45.779 38.5089 45.779C38.6971 45.779 38.8852 45.6535 38.8852 45.4027C38.8852 45.1518 38.7598 45.0264 38.5089 45.0264C38.3835 45.0264 38.3208 45.0891 38.258 45.1518C38.1953 45.2145 38.1953 45.2772 38.1953 45.4027C38.1953 45.4654 38.1953 45.5281 38.258 45.6535Z" fill="#040E07"/>
<path d="M44.2162 46.5312C43.4636 46.5312 42.8364 46.7821 42.3346 47.3466C41.8329 47.9111 41.582 48.6009 41.582 49.4163C41.582 50.2316 41.8329 50.9215 42.3346 51.486C42.8364 52.0504 43.4636 52.3013 44.2162 52.3013C45.0942 52.3013 45.7841 51.9877 46.2859 51.3605L46.4113 51.2351L46.035 50.8588L45.9096 50.9842C45.4705 51.486 44.9061 51.7368 44.2162 51.7368C43.589 51.7368 43.0873 51.5487 42.7109 51.1097C42.3346 50.7334 42.1465 50.2316 42.0838 49.6044H46.7876V49.479C46.7876 49.4163 46.7876 49.3536 46.7876 49.2908C46.7876 48.5382 46.5367 47.8483 46.035 47.3466C45.5332 46.8449 44.9061 46.5312 44.2162 46.5312ZM42.0838 49.1027C42.1465 48.5382 42.3346 48.0992 42.7109 47.7229C43.15 47.2839 43.589 47.0957 44.2162 47.0957C44.7806 47.0957 45.2824 47.2839 45.6587 47.7229C46.035 48.0992 46.2231 48.6009 46.2859 49.1654H42.0838V49.1027Z" fill="#040E07"/>
<path d="M50.1113 44.6494H49.6096V46.6564H48.9824V47.1581H49.6096V50.6076C49.6096 51.2348 49.735 51.6111 49.9859 51.9247C50.2368 52.1756 50.6131 52.301 51.1775 52.301C51.4284 52.301 51.6166 52.301 51.8047 52.2383H51.9302V51.7365L51.742 51.7993C51.5538 51.862 51.3657 51.862 51.1775 51.862C50.8012 51.862 50.5504 51.7992 50.4249 51.6111C50.2995 51.4229 50.1741 51.1094 50.1741 50.6703V47.2208H51.9302V46.7191H50.1741V44.6494H50.1113Z" fill="#040E07"/>
<path d="M65.1008 51.674C65.038 51.674 64.7872 51.674 64.7872 51.1723V48.9144C64.7872 48.1618 64.599 47.5974 64.16 47.1583C63.721 46.7193 63.2192 46.5312 62.5921 46.5312C62.0276 46.5312 61.5258 46.6566 61.1495 46.9702C60.9614 47.0956 60.8359 47.2211 60.7732 47.4092V44.5869H60.2715V52.113H60.7732V49.2907C60.7732 48.6009 60.9614 48.0364 61.275 47.5974C61.5886 47.2211 62.0276 46.9702 62.5921 46.9702C63.0938 46.9702 63.5328 47.1583 63.8464 47.4719C64.16 47.7855 64.3481 48.2873 64.3481 48.8517V51.1096C64.3481 51.9876 64.8499 52.113 65.1635 52.113C65.2889 52.113 65.3516 52.113 65.4771 52.0503L65.6025 51.9876V51.4859L65.4144 51.5486C65.1635 51.674 65.1008 51.674 65.1008 51.674Z" fill="#040E07"/>
<path d="M70.181 46.5312C69.4284 46.5312 68.8012 46.7821 68.2995 47.3466C67.7977 47.9111 67.5469 48.6009 67.5469 49.4163C67.5469 50.2316 67.7977 50.9215 68.2995 51.486C68.8012 52.0504 69.4284 52.3013 70.181 52.3013C71.0591 52.3013 71.749 51.9877 72.2507 51.3605L72.3761 51.2351L71.9998 50.8588L71.8744 50.9842C71.4354 51.486 70.8709 51.7368 70.181 51.7368C69.5538 51.7368 69.0521 51.5487 68.6758 51.1097C68.2995 50.7334 68.1113 50.2316 68.0486 49.6044H72.7524V49.479C72.7524 49.4163 72.7524 49.3536 72.7524 49.2908C72.7524 48.5382 72.5016 47.8483 71.9998 47.3466C71.5608 46.8449 70.9336 46.5312 70.181 46.5312ZM68.1113 49.1027C68.174 48.5382 68.3622 48.0992 68.7385 47.7229C69.1775 47.2839 69.6166 47.0957 70.2437 47.0957C70.8082 47.0957 71.3099 47.2839 71.6863 47.7229C72.0626 48.0992 72.2507 48.6009 72.3134 49.1654H68.1113V49.1027Z" fill="#040E07"/>
<path d="M80.8445 51.7366C80.719 51.7366 80.5309 51.7366 80.5309 51.2976V46.6565H80.0291V47.66C79.841 47.4091 79.6528 47.2209 79.402 47.0328C78.9629 46.7192 78.4612 46.5938 77.834 46.5938C77.0814 46.5938 76.3915 46.8446 75.827 47.4091C75.3253 47.9736 75.0117 48.6634 75.0117 49.4788C75.0117 50.2941 75.2626 50.984 75.827 51.5485C76.3288 52.1129 77.0187 52.3638 77.834 52.3638C78.3985 52.3638 78.9002 52.2384 79.402 51.9248C79.6528 51.7366 79.9037 51.5485 80.0291 51.2976V51.3603C80.0291 52.2384 80.5309 52.3638 80.8445 52.3638C81.0326 52.3638 81.1581 52.3638 81.2835 52.3011L81.4089 52.2384V51.7366L81.1581 51.862C81.0953 51.7366 81.0326 51.7366 80.8445 51.7366ZM77.834 47.0328C78.4612 47.0328 78.9629 47.2209 79.402 47.66C79.841 48.099 80.0291 48.6634 80.0291 49.3533C80.0291 50.0432 79.841 50.6077 79.402 51.0467C78.9629 51.4857 78.4612 51.6739 77.834 51.6739C77.2068 51.6739 76.6424 51.423 76.2034 50.984C75.7643 50.545 75.5762 49.9805 75.5762 49.2906C75.5762 48.6007 75.7643 48.099 76.2034 47.5972C76.6424 47.2836 77.1441 47.0328 77.834 47.0328Z" fill="#040E07"/>
<path d="M84.9206 51.7367C84.607 51.7367 84.1053 51.6113 84.1053 50.6705V44.5869H83.6035V50.6705C83.6035 51.9876 84.2934 52.2385 84.9206 52.2385C85.1087 52.2385 85.2969 52.2385 85.4223 52.1758H85.5478V51.674L85.3596 51.7367C85.2342 51.7367 85.046 51.7367 84.9206 51.7367Z" fill="#040E07"/>
<path d="M88.7461 44.6494H88.2444V46.6564H87.6172V47.1581H88.2444V50.6076C88.2444 51.2348 88.3698 51.6111 88.6207 51.9247C88.8715 52.1756 89.2479 52.301 89.8123 52.301C90.0632 52.301 90.2513 52.301 90.4395 52.2383H90.5649V51.7365L90.3768 51.7993C90.1886 51.862 90.0005 51.862 89.8123 51.862C89.436 51.862 89.1851 51.7992 89.0597 51.6111C88.9343 51.4229 88.8088 51.1094 88.8088 50.6703V47.2208H90.5649V46.7191H88.8088V44.6494H88.7461Z" fill="#040E07"/>
<path d="M97.7765 51.674C97.7138 51.674 97.4629 51.674 97.4629 51.1723V48.9144C97.4629 48.1618 97.2748 47.5974 96.8358 47.1583C96.3967 46.7193 95.895 46.5312 95.2678 46.5312C94.7034 46.5312 94.2016 46.6566 93.8253 46.9702C93.6372 47.0956 93.5117 47.2211 93.449 47.4092V44.5869H92.9473V52.113H93.449V49.2907C93.449 48.6009 93.6372 48.0364 93.9508 47.5974C94.2643 47.2211 94.7034 46.9702 95.2678 46.9702C95.7696 46.9702 96.2086 47.1583 96.5222 47.4719C96.8358 47.7855 97.0239 48.2873 97.0239 48.8517V51.1096C97.0239 51.9876 97.5257 52.113 97.8392 52.113C97.9647 52.113 98.0274 52.113 98.1528 52.0503L98.2783 51.9876V51.4859L98.0901 51.5486C97.8392 51.674 97.7765 51.674 97.7765 51.674Z" fill="#040E07"/>
<path d="M102.356 51.3601L100.537 46.7817L100.475 46.6562H99.9102L102.043 52.05L101.666 52.928C101.478 53.3671 101.353 53.5552 101.227 53.6179C101.102 53.7434 100.976 53.8061 100.788 53.8061C100.663 53.8061 100.537 53.8061 100.412 53.7434L100.224 53.6179V54.1824L100.286 54.2451C100.412 54.3078 100.6 54.3078 100.788 54.3078C101.102 54.3078 101.353 54.2451 101.604 54.0569C101.792 53.8688 101.98 53.5552 102.231 53.0535L104.928 46.6562H104.363L102.356 51.3601Z" fill="#040E07"/>
<path d="M115.402 46.5312C114.649 46.5312 114.022 46.7821 113.52 47.3466C113.018 47.9111 112.768 48.6009 112.768 49.4163C112.768 50.2316 113.018 50.9215 113.52 51.486C114.022 52.0504 114.649 52.3013 115.402 52.3013C116.28 52.3013 116.97 51.9877 117.471 51.3605L117.597 51.2351L117.221 50.8588L117.095 50.9842C116.656 51.486 116.092 51.7368 115.402 51.7368C114.775 51.7368 114.273 51.5487 113.896 51.1097C113.52 50.7334 113.332 50.2316 113.269 49.6044H117.973V49.479C117.973 49.4163 117.973 49.3536 117.973 49.2908C117.973 48.5382 117.722 47.8483 117.221 47.3466C116.782 46.8449 116.154 46.5312 115.402 46.5312ZM113.332 49.1027C113.395 48.5382 113.583 48.0992 113.959 47.7229C114.398 47.2839 114.837 47.0957 115.464 47.0957C116.029 47.0957 116.531 47.2839 116.907 47.7229C117.283 48.0992 117.471 48.6009 117.534 49.1654H113.332V49.1027Z" fill="#040E07"/>
<path d="M126.063 51.7366C125.938 51.7366 125.75 51.7366 125.75 51.2976V46.6565H125.248V47.66C125.06 47.4091 124.872 47.2209 124.621 47.0328C124.182 46.7192 123.68 46.5938 123.053 46.5938C122.3 46.5938 121.61 46.8446 121.046 47.4091C120.544 47.9736 120.23 48.6634 120.23 49.4788C120.23 50.2941 120.481 50.984 121.046 51.5485C121.548 52.1129 122.237 52.3638 123.053 52.3638C123.617 52.3638 124.119 52.2384 124.621 51.9248C124.872 51.7366 125.122 51.5485 125.248 51.2976V51.3603C125.248 52.2384 125.75 52.3638 126.063 52.3638C126.251 52.3638 126.377 52.3638 126.502 52.3011L126.628 52.2384V51.7366L126.377 51.862C126.314 51.7366 126.251 51.7366 126.063 51.7366ZM123.053 47.0328C123.68 47.0328 124.182 47.2209 124.621 47.66C125.06 48.099 125.248 48.6634 125.248 49.3533C125.248 50.0432 125.06 50.6077 124.621 51.0467C124.182 51.4857 123.68 51.6739 123.053 51.6739C122.426 51.6739 121.861 51.423 121.422 50.984C120.983 50.545 120.795 49.9805 120.795 49.2906C120.795 48.6007 120.983 48.099 121.422 47.5972C121.861 47.2836 122.426 47.0328 123.053 47.0328Z" fill="#040E07"/>
<path d="M129.701 44.6494H129.199V46.6564H128.572V47.1581H129.199V50.6076C129.199 51.2348 129.325 51.6111 129.576 51.9247C129.827 52.1756 130.203 52.301 130.767 52.301C131.018 52.301 131.206 52.301 131.395 52.2383H131.52V51.7365L131.332 51.7993C131.144 51.862 130.956 51.862 130.767 51.862C130.391 51.862 130.14 51.7992 130.015 51.6111C129.889 51.4229 129.764 51.1094 129.764 50.6703V47.2208H131.52V46.7191H129.764V44.6494H129.701Z" fill="#040E07"/>
<path d="M133.84 45.6535C133.903 45.7163 133.965 45.779 134.091 45.779C134.279 45.779 134.467 45.6535 134.467 45.4027C134.467 45.1518 134.342 45.0264 134.091 45.0264C133.965 45.0264 133.903 45.0891 133.84 45.1518C133.777 45.2145 133.777 45.2772 133.777 45.4027C133.777 45.4654 133.777 45.5281 133.84 45.6535Z" fill="#040E07"/>
<path d="M134.718 51.7364C134.53 51.7364 134.404 51.6737 134.404 51.2974V46.6562H133.902V51.3601C133.902 52.1754 134.404 52.3009 134.718 52.3009C134.906 52.3009 135.031 52.3008 135.157 52.2381L135.282 52.1754V51.6737L135.094 51.7364C134.906 51.7364 134.78 51.7364 134.718 51.7364Z" fill="#040E07"/>
<path d="M142.244 51.6741C142.181 51.6741 141.93 51.6741 141.93 51.1724V48.9145C141.93 48.1619 141.742 47.5975 141.303 47.1584C140.864 46.7194 140.362 46.5312 139.672 46.5312C139.108 46.5312 138.606 46.6567 138.23 46.9703C138.042 47.0957 137.916 47.2212 137.791 47.4093V46.594H137.289V52.1131H137.791V49.2908C137.791 48.601 137.979 48.0365 138.293 47.5975C138.606 47.2212 139.045 46.9703 139.61 46.9703C140.111 46.9703 140.55 47.1584 140.864 47.472C141.178 47.7856 141.366 48.2874 141.366 48.8518V51.1097C141.366 51.9877 141.867 52.1131 142.181 52.1131C142.306 52.1131 142.432 52.1131 142.495 52.0504L142.62 51.9877V51.486L142.432 51.5487C142.369 51.6741 142.307 51.6741 142.244 51.6741Z" fill="#040E07"/>
<path d="M149.709 46.6565V47.66C149.52 47.4091 149.332 47.2209 149.081 47.0328C148.642 46.7192 148.141 46.5938 147.513 46.5938C146.761 46.5938 146.071 46.8446 145.569 47.4091C145.005 47.9736 144.754 48.6634 144.754 49.4788C144.754 50.2941 145.005 50.984 145.569 51.4857C146.071 52.0502 146.761 52.3011 147.576 52.3011C148.141 52.3011 148.642 52.1756 149.144 51.862C149.395 51.6739 149.646 51.4857 149.771 51.2349V51.4857C149.771 52.3638 149.583 52.991 149.144 53.3673C148.768 53.6809 148.266 53.8063 147.576 53.8063C146.635 53.8063 145.883 53.5554 145.444 53.0537L145.318 52.9283L145.005 53.3046L145.13 53.43C145.695 53.9944 146.51 54.308 147.639 54.308C148.454 54.308 149.081 54.1199 149.52 53.7436C149.834 53.4927 150.085 53.1164 150.148 52.7401C150.273 52.3638 150.273 51.9248 150.273 51.3603V46.6565H149.709V46.6565ZM147.513 47.0328C148.141 47.0328 148.642 47.2209 149.081 47.66C149.52 48.099 149.709 48.6634 149.709 49.3533C149.709 50.0432 149.52 50.6077 149.081 51.0467C148.642 51.4857 148.141 51.6739 147.513 51.6739C146.886 51.6739 146.322 51.4857 145.883 50.984C145.444 50.545 145.256 49.9805 145.256 49.2906C145.256 48.6007 145.444 48.099 145.883 47.5972C146.322 47.2836 146.824 47.0328 147.513 47.0328Z" fill="#040E07"/>
</svg>
