<svg width="86" height="25" viewBox="0 0 86 25" fill="none" xmlns="http://www.w3.org/2000/svg">
<path d="M15.2213 5.52491V18.9473H11.5042V17.4006C10.5396 18.5648 9.14256 19.1469 7.31298 19.1469C6.04917 19.1469 4.90525 18.864 3.88271 18.2987C2.85968 17.7335 2.0571 16.9264 1.47498 15.8786C0.892868 14.8308 0.601562 13.6166 0.601562 12.2363C0.601562 10.8561 0.892372 9.64183 1.47498 8.59402C2.0571 7.54621 2.85968 6.73967 3.88271 6.17391C4.90575 5.60863 6.04917 5.32575 7.31298 5.32575C9.02614 5.32575 10.3652 5.86625 11.3298 6.94725V5.5254H15.2218L15.2213 5.52491ZM7.98625 15.9534C8.96768 15.9534 9.78264 15.6166 10.4311 14.9433C11.0796 14.2695 11.4041 13.3674 11.4041 12.2363C11.4041 11.1053 11.0796 10.2031 10.4311 9.52937C9.78264 8.8556 8.96768 8.51872 7.98625 8.51872C6.98848 8.51872 6.1651 8.8556 5.5166 9.52937C4.8681 10.2031 4.5436 11.1053 4.5436 12.2363C4.5436 13.3674 4.8681 14.2695 5.5166 14.9433C6.1651 15.6171 6.98848 15.9534 7.98625 15.9534ZM22.606 5.52491H26.0487V8.51872H22.7056V18.9473H18.8136V5.22568C18.8136 3.69533 19.2669 2.48156 20.1735 1.58337C21.0801 0.685176 22.3563 0.236328 24.0031 0.236328C24.5852 0.236328 25.1381 0.298751 25.6623 0.423596C26.1864 0.548441 26.6229 0.727287 26.9721 0.960133L25.9491 3.77906C25.4998 3.46298 24.9761 3.30494 24.3771 3.30494C23.1961 3.30494 22.606 3.95394 22.606 5.25094V5.5254V5.52491ZM31.7871 5.52491H35.2297V8.51872H31.8867V12.92C30.4034 12.92 29.045 13.456 27.9947 14.3453V5.22568C27.9947 3.69533 28.448 2.48156 29.3546 1.58337C30.2612 0.685176 31.5374 0.236328 33.1842 0.236328C33.7663 0.236328 34.3192 0.298751 34.8433 0.423596C35.3675 0.548441 35.8039 0.727287 36.1532 0.960133L35.1302 3.77906C34.6808 3.46298 34.1572 3.30494 33.5582 3.30494C32.3771 3.30494 31.7871 3.95394 31.7871 5.25094V5.5254V5.52491ZM50.6229 5.52491V18.9473H46.9058V17.4006C45.9412 18.5648 44.5441 19.1469 42.7145 19.1469C41.4507 19.1469 40.3068 18.864 39.2842 18.2987C38.2612 17.7335 37.4591 16.9264 36.877 15.8786C36.2949 14.8308 36.0036 13.6166 36.0036 12.2363C36.0036 10.8561 36.2944 9.64183 36.877 8.59402C37.4591 7.54621 38.2617 6.73967 39.2842 6.17391C40.3073 5.60863 41.4507 5.32575 42.7145 5.32575C44.4277 5.32575 45.7668 5.86625 46.7309 6.94725V5.5254H50.6229V5.52491ZM43.3878 15.9534C44.3692 15.9534 45.1842 15.6166 45.8327 14.9433C46.4812 14.2695 46.8057 13.3674 46.8057 12.2363C46.8057 11.1053 46.4812 10.2031 45.8327 9.52937C45.1842 8.8556 44.3692 8.51872 43.3878 8.51872C42.39 8.51872 41.5666 8.8556 40.9181 9.52937C40.2696 10.2031 39.9451 11.1053 39.9451 12.2363C39.9451 13.3674 40.2696 14.2695 40.9181 14.9433C41.5666 15.6171 42.39 15.9534 43.3878 15.9534ZM57.9327 7.29652C58.3984 6.64802 59.0261 6.15756 59.8163 5.82464C60.606 5.49221 61.5171 5.32575 62.5481 5.32575V8.91852C62.1156 8.88532 61.8247 8.86848 61.6746 8.86848C60.5604 8.86848 59.687 9.18059 59.0549 9.80432C58.4227 10.4281 58.1066 11.3634 58.1066 12.6109V18.9477H54.2146V5.5254H57.9318V7.29652H57.9327ZM72.9513 18.2987C72.5689 18.5816 72.0992 18.7937 71.5419 18.9349C70.9845 19.0761 70.4069 19.1469 69.8079 19.1469C68.1948 19.1469 66.9553 18.7392 66.0908 17.9242C65.2258 17.1093 64.7933 15.9118 64.7933 14.3314V2.55587H68.6853V5.52441H72.0036V8.51822H68.6853V14.2814C68.6853 14.8467 68.8265 15.2836 69.1094 15.5913C69.3922 15.8989 69.7995 16.053 70.3321 16.053C70.931 16.053 71.4631 15.8866 71.9288 15.5541L72.9518 18.2983L72.9513 18.2987ZM79.6622 19.1469C78.5481 19.1469 77.4586 19.0097 76.394 18.7352C75.3293 18.4608 74.4812 18.1154 73.849 17.6998L75.1465 14.9056C75.7455 15.2881 76.4688 15.6002 77.3169 15.841C78.1651 16.0823 78.9969 16.2026 79.8119 16.2026C81.4586 16.2026 82.2815 15.7949 82.2815 14.9799C82.2815 14.5975 82.0571 14.323 81.6077 14.1566C81.1589 13.9901 80.4683 13.8489 79.5369 13.7325C78.4391 13.566 77.533 13.3748 76.8176 13.1588C76.1027 12.9428 75.4829 12.5598 74.9588 12.0109C74.4346 11.462 74.173 10.6802 74.173 9.66561C74.173 8.81745 74.4183 8.06491 74.9092 7.40799C75.3997 6.75107 76.1151 6.2398 77.0549 5.87368C77.9947 5.50806 79.1049 5.32476 80.3856 5.32476C81.3338 5.32476 82.2776 5.4288 83.2174 5.63687C84.1572 5.84495 84.9345 6.13179 85.5498 6.49741L84.2523 9.2668C83.0712 8.60145 81.7826 8.26903 80.3856 8.26903C79.5537 8.26903 78.93 8.38545 78.5144 8.61829C78.0987 8.85114 77.8906 9.15037 77.8906 9.51649C77.8906 9.93214 78.1151 10.2234 78.5644 10.3899C79.0133 10.5564 79.7286 10.7144 80.7101 10.864C81.8079 11.0468 82.7061 11.2425 83.4046 11.4501C84.1032 11.6582 84.7101 12.0362 85.2258 12.5851C85.7415 13.134 85.9991 13.8989 85.9991 14.8804C85.9991 15.7122 85.7494 16.4523 85.2506 17.1008C84.7517 17.7493 84.0239 18.2527 83.0677 18.6104C82.1116 18.9681 80.9761 19.1469 79.6622 19.1469Z" fill="#040E07"/>
<path d="M31.8842 22.8406C34.0337 22.8406 35.7762 21.0981 35.7762 18.9486C35.7762 16.7991 34.0337 15.0566 31.8842 15.0566C29.7347 15.0566 27.9922 16.7991 27.9922 18.9486C27.9922 21.0981 29.7347 22.8406 31.8842 22.8406Z" fill="#FF0043"/>
</svg>
