<svg width="159" height="42" viewBox="0 0 159 42" fill="none" xmlns="http://www.w3.org/2000/svg">
<g clip-path="url(#clip0_1_38)">
<path d="M27.48 9.82751V34.7691H20.5725V31.8949C18.7803 34.0584 16.1842 35.1402 12.7845 35.1402C10.4361 35.1402 8.3104 34.6145 6.41056 33.5639C4.5093 32.5136 3.01799 31.0138 1.93634 29.067C0.854519 27.1199 0.313293 24.8634 0.313293 22.2987C0.313293 19.7341 0.853568 17.4777 1.93634 15.5307C3.01815 13.5836 4.50946 12.0848 6.41056 11.0335C8.31151 9.98334 10.4361 9.45749 12.7845 9.45749C15.9679 9.45749 18.4562 10.4616 20.2487 12.4707V9.82846H27.4808L27.48 9.82735V9.82751ZM14.0356 29.2059C15.859 29.2059 17.3736 28.5798 18.5785 27.3287C19.7835 26.0765 20.3865 24.4002 20.3865 22.2985C20.3865 20.197 19.7835 18.5204 18.5785 17.2685C17.3735 16.0166 15.859 15.3904 14.0356 15.3904C12.1814 15.3904 10.6513 16.0166 9.44612 17.2685C8.24144 18.5207 7.63823 20.197 7.63823 22.2985C7.63823 24.4002 8.24144 26.0768 9.44612 27.3287C10.6513 28.5806 12.1814 29.2059 14.0356 29.2059ZM41.202 9.82751H47.599V15.3905H41.387V34.7687H34.1548V9.27138C34.1548 6.42765 34.9971 4.17238 36.6819 2.50305C38.3665 0.834033 40.7381 0 43.7981 0C44.8799 0 45.9072 0.116045 46.8812 0.348134C47.8552 0.580066 48.6662 0.912188 49.3153 1.34498L47.4143 6.58317C46.5792 5.99565 45.6061 5.70221 44.4929 5.70221C42.2982 5.70221 41.202 6.90815 41.202 9.31815V9.8283V9.82735V9.82751ZM58.2621 9.82751H64.6595V15.3905H58.4473V23.569C55.6911 23.569 53.167 24.565 51.2153 26.2173V9.27138C51.2153 6.42765 52.0572 4.17238 53.7423 2.50337C55.427 0.834191 57.7986 0.000158531 60.8584 0.000158531C61.9401 0.000158531 62.9678 0.116362 63.9414 0.348134C64.9154 0.580066 65.7266 0.912347 66.3754 1.34514L64.4742 6.58317C63.6395 5.99597 62.6666 5.70237 61.5531 5.70237C59.3587 5.70237 58.2621 6.90831 58.2621 9.3183V9.8283V9.82735V9.82751ZM93.263 9.82751V34.7691H86.3554V31.8949C84.5634 34.0584 81.967 35.1402 78.5673 35.1402C76.219 35.1402 74.0932 34.6145 72.1934 33.5639C70.2923 32.5136 68.8021 31.0138 67.7198 29.067C66.6383 27.1199 66.0969 24.8634 66.0969 22.2987C66.0969 19.7341 66.6372 17.4777 67.7198 15.5307C68.8021 13.5836 70.2934 12.0848 72.1934 11.0335C74.0945 9.98334 76.219 9.45749 78.5673 9.45749C81.7511 9.45749 84.2394 10.4616 86.0306 12.4707V9.82846H93.263V9.82735V9.82751ZM79.8186 29.2059C81.6423 29.2059 83.1568 28.5798 84.3614 27.3287C85.5666 26.0765 86.1695 24.4002 86.1695 22.2985C86.1695 20.197 85.5666 18.5204 84.3614 17.2685C83.1568 16.0166 81.6423 15.3904 79.8186 15.3904C77.9645 15.3904 76.4344 16.0166 75.2293 17.2685C74.0246 18.5207 73.421 20.197 73.421 22.2985C73.421 24.4002 74.0246 26.0768 75.2293 27.3287C76.4344 28.5806 77.9645 29.2059 79.8186 29.2059ZM106.846 13.1194C107.711 11.9144 108.878 11.0032 110.346 10.3843C111.813 9.76647 113.506 9.45718 115.422 9.45718V16.1332C114.619 16.0716 114.078 16.04 113.799 16.04C111.729 16.04 110.106 16.6204 108.931 17.7793C107.756 18.9383 107.169 20.6766 107.169 22.9943V34.7694H99.9368V9.82782H106.844V13.1189L106.846 13.1191V13.1194ZM134.754 33.5639C134.043 34.0894 133.17 34.4837 132.134 34.7458C131.099 35.0083 130.026 35.1397 128.912 35.1397C125.915 35.1397 123.612 34.3822 122.005 32.8676C120.398 31.3533 119.594 29.128 119.594 26.1916V4.31015H126.826V9.82624H132.992V15.3893H126.826V26.0985C126.826 27.1488 127.089 27.9608 127.614 28.5326C128.14 29.1046 128.896 29.3907 129.886 29.3907C131 29.3907 131.988 29.0813 132.854 28.4635L134.755 33.5625L134.754 33.5636V33.5639ZM147.224 35.1399C145.154 35.1399 143.129 34.8848 141.151 34.375C139.173 33.8648 137.597 33.2232 136.422 32.4509L138.833 27.2588C139.946 27.9693 141.29 28.5494 142.867 28.9968C144.443 29.4453 145.988 29.6688 147.503 29.6688C150.562 29.6688 152.091 28.9112 152.091 27.3967C152.091 26.6862 151.675 26.1759 150.839 25.8667C150.005 25.5576 148.722 25.2951 146.991 25.0787C144.951 24.7694 143.268 24.4141 141.938 24.0126C140.61 23.6113 139.458 22.8997 138.484 21.8795C137.51 20.8595 137.024 19.4068 137.024 17.5215C137.024 15.9455 137.48 14.5473 138.393 13.3263C139.304 12.1054 140.633 11.1558 142.38 10.4751C144.126 9.79596 146.189 9.45528 148.569 9.45528C150.331 9.45528 152.085 9.64837 153.83 10.0352C155.577 10.4218 157.021 10.955 158.165 11.6344L155.753 16.7804C153.559 15.5441 151.165 14.9262 148.569 14.9262C147.023 14.9262 145.864 15.1427 145.091 15.5755C144.319 16.0082 143.933 16.5641 143.933 17.2444C143.933 18.0168 144.35 18.558 145.184 18.8674C146.018 19.1769 147.348 19.4706 149.171 19.7484C151.212 20.0881 152.881 20.4516 154.179 20.8375C155.476 21.2242 156.604 21.9268 157.563 22.9466C158.521 23.9666 159 25.3881 159 27.2116C159 28.7572 158.536 30.1327 157.609 31.3375C156.682 32.5425 155.329 33.4778 153.552 34.1427C151.776 34.8074 149.666 35.1395 147.224 35.1395V35.1397L147.224 35.1399Z" fill="#1D1D1D"/>
<path fill-rule="evenodd" clip-rule="evenodd" d="M65.6798 34.7678C65.6798 30.7736 62.4418 27.5358 58.4474 27.5358C54.4532 27.5358 51.2154 30.7736 51.2154 34.7678C51.2154 38.762 54.4532 42 58.4474 42C62.4418 42 65.6798 38.762 65.6798 34.7678Z" fill="#FF0043"/>
</g>
<defs>
<clipPath id="clip0_1_38">
<rect width="158.686" height="42" fill="white" transform="translate(0.313599)"/>
</clipPath>
</defs>
</svg>
