<svg width="187" height="36" viewBox="0 0 187 36" fill="none" xmlns="http://www.w3.org/2000/svg">
<path d="M12.5522 27.3335H9.36523V12.2441H12.5522V21.8701L19.5116 12.2441H23.349L18.4059 19.0084L20.6173 22.7157C21.0725 23.3661 21.5278 23.6913 21.9181 23.8214C22.3734 23.9514 22.7636 24.0165 23.1538 24.0165H24.1945V27.2035H22.8937C22.5034 27.2035 22.1132 27.2035 21.788 27.1384C21.4628 27.0734 21.1376 27.0083 20.7473 26.8132C20.4221 26.6831 20.0319 26.423 19.7067 26.0978C19.3165 25.7726 18.9262 25.3173 18.4709 24.797L16.3896 21.3498L12.5522 27.3335Z" fill="#040E07"/>
<path d="M39.6745 22.7807C39.8696 23.1059 40.0647 23.3661 40.2599 23.4962C40.455 23.6913 40.7151 23.8214 40.9103 23.8864C41.1704 23.9514 41.3655 24.0165 41.6257 24.0815C41.8208 24.0815 42.0159 24.1466 42.2111 24.1466H43.2517V27.3335H41.9509C41.5607 27.3335 41.1704 27.3335 40.7802 27.2685C40.3899 27.2035 39.9997 27.1384 39.6745 27.0083C39.2842 26.8783 38.9591 26.6181 38.5688 26.2929C38.2436 25.9677 37.8534 25.5124 37.5282 24.9921L35.1867 21.2197H34.9916C34.4062 21.2197 33.9509 21.2197 33.4956 21.2848C33.1054 21.2848 32.7802 21.3498 32.455 21.4148C32.1298 21.4799 31.8696 21.61 31.6095 21.675C31.3493 21.8051 31.0891 21.9352 30.7639 22.0653V27.3335H27.707V12.2441H37.4631C38.1786 12.2441 38.7639 12.3742 39.3493 12.5693C39.9347 12.7645 40.39 13.0897 40.8452 13.545C41.3005 13.9352 41.6257 14.4555 41.8208 14.9758C42.081 15.5612 42.146 16.1466 42.146 16.797C42.146 17.9677 41.8208 18.8783 41.2355 19.5937C40.6501 20.3092 39.8046 20.8295 38.6989 21.1547L39.6745 22.7807ZM37.4631 18.1628C37.9184 18.1628 38.3086 18.0328 38.6338 17.7726C38.959 17.5124 39.1542 17.1872 39.1542 16.6669C39.1542 16.3417 39.0891 16.0815 38.959 15.8864C38.829 15.6913 38.6338 15.5612 38.4387 15.4311C38.2436 15.3661 37.9834 15.301 37.7233 15.236C37.4631 15.236 37.203 15.171 36.9428 15.171H30.829V18.9433C31.4143 18.6181 32.0647 18.3579 32.7802 18.2279C33.4956 18.0978 34.2761 18.0327 35.0566 18.0327H37.4631V18.1628Z" fill="#040E07"/>
<path d="M51.966 11.854H55.218L63.3481 27.2686H60.031L58.8603 24.9922H57.0391C56.1286 24.9922 55.218 25.0572 54.3074 25.2524C53.3969 25.3824 52.5513 25.5776 51.8359 25.8377C51.1204 26.0328 50.47 26.293 49.9497 26.5532C49.4294 26.8133 49.1042 27.0085 48.9741 27.1385L48.9091 27.3337H45.7871L53.0066 13.8052L51.966 11.854ZM57.4294 22.3255L54.5026 16.732L50.9253 23.6264C51.3806 23.3662 52.1611 23.106 53.1367 22.7808C54.1123 22.4556 55.4131 22.3255 56.9741 22.3255H57.4294Z" fill="#040E07"/>
<path d="M73.0393 27.3335H69.2019L62.6328 12.2441H66.0149L71.0881 24.2766L76.2913 12.2441H79.6734L73.0393 27.3335Z" fill="#040E07"/>
<path d="M90.2111 15.236V27.3335H87.2193V15.236H81.7559V12.2441H95.8697V15.236H90.2111Z" fill="#040E07"/>
<path d="M109.918 27.3335H106.926V12.2441H118.243V15.236H109.918V18.8783C110.568 18.488 111.283 18.2279 112.129 18.1628C112.91 18.0978 113.755 18.0327 114.666 18.0327H116.292V21.0246H114.666C113.95 21.0246 113.365 21.0246 112.91 21.0896C112.454 21.0896 112.064 21.1547 111.739 21.2197C111.414 21.2848 111.088 21.3498 110.828 21.4799C110.568 21.61 110.243 21.7401 109.918 21.9352V27.3335Z" fill="#040E07"/>
<path d="M138.405 19.5935C138.405 20.8944 138.145 22 137.625 23.0407C137.104 24.0813 136.454 24.9269 135.608 25.5773C134.763 26.2927 133.852 26.8131 132.747 27.2033C131.641 27.5935 130.535 27.7236 129.43 27.7236C128.259 27.7236 127.153 27.5285 126.112 27.2033C125.072 26.8131 124.096 26.2927 123.251 25.6423C122.405 24.9269 121.755 24.0813 121.299 23.1057C120.779 22.1301 120.584 20.9594 120.584 19.6586C120.584 18.3578 120.844 17.2521 121.364 16.2765C121.885 15.3009 122.535 14.4553 123.381 13.8049C124.226 13.1545 125.137 12.6342 126.243 12.244C127.283 11.9188 128.389 11.7236 129.56 11.7236C130.665 11.7236 131.771 11.9188 132.877 12.244C133.982 12.5692 134.893 13.0895 135.738 13.7399C136.584 14.3903 137.234 15.2358 137.755 16.2114C138.145 17.187 138.405 18.2927 138.405 19.5935ZM135.218 19.6586C135.218 18.8131 135.023 18.0976 134.698 17.5122C134.373 16.9269 133.917 16.4066 133.397 16.0163C132.877 15.6261 132.226 15.3009 131.576 15.1708C130.86 14.9757 130.21 14.9106 129.495 14.9106C128.779 14.9106 128.064 14.9757 127.348 15.1708C126.633 15.3659 126.047 15.6911 125.527 16.0814C125.007 16.4716 124.551 16.9919 124.226 17.6423C123.901 18.2927 123.706 19.0082 123.706 19.8537C123.706 20.6992 123.901 21.4147 124.226 22.0651C124.551 22.7155 125.007 23.1708 125.527 23.6261C126.047 24.0163 126.698 24.3415 127.348 24.5366C128.064 24.7318 128.714 24.7968 129.495 24.7968C130.21 24.7968 130.925 24.6667 131.576 24.4716C132.226 24.2765 132.877 23.9513 133.397 23.496C133.917 23.0407 134.373 22.5204 134.698 21.935C135.088 21.2196 135.218 20.4391 135.218 19.6586Z" fill="#040E07"/>
<path d="M159.089 19.5935C159.089 20.8944 158.829 22 158.308 23.0407C157.788 24.0813 157.137 24.9269 156.292 25.5773C155.446 26.2927 154.536 26.8131 153.43 27.2033C152.324 27.5935 151.219 27.7236 150.113 27.7236C148.942 27.7236 147.837 27.5285 146.796 27.2033C145.755 26.8131 144.78 26.2927 143.934 25.6423C143.089 24.9269 142.438 24.0813 141.983 23.1057C141.463 22.1301 141.268 20.9594 141.268 19.6586C141.268 18.3578 141.528 17.2521 142.048 16.2765C142.568 15.3009 143.219 14.4553 144.064 13.8049C144.91 13.1545 145.82 12.6342 146.926 12.244C147.967 11.9188 149.072 11.7236 150.243 11.7236C151.414 11.7236 152.455 11.9188 153.56 12.244C154.666 12.5692 155.577 13.0895 156.422 13.7399C157.268 14.3903 157.918 15.2358 158.438 16.2114C158.829 17.187 159.089 18.2927 159.089 19.5935ZM155.902 19.6586C155.902 18.8131 155.707 18.0976 155.381 17.5122C155.056 16.9269 154.601 16.4066 154.081 16.0163C153.56 15.6261 152.91 15.3009 152.259 15.1708C151.544 14.9757 150.894 14.9106 150.178 14.9106C149.463 14.9106 148.747 14.9757 148.032 15.1708C147.316 15.3659 146.731 15.6911 146.211 16.0814C145.69 16.4716 145.235 16.9919 144.91 17.6423C144.585 18.2927 144.39 19.0082 144.39 19.8537C144.39 20.6992 144.585 21.4147 144.91 22.0651C145.235 22.7155 145.69 23.1708 146.211 23.6261C146.731 24.0163 147.381 24.3415 148.032 24.5366C148.747 24.7318 149.398 24.7968 150.178 24.7968C150.894 24.7968 151.609 24.6667 152.259 24.4716C152.91 24.2765 153.56 23.9513 154.081 23.496C154.601 23.0407 155.056 22.5204 155.381 21.935C155.772 21.2196 155.902 20.4391 155.902 19.6586Z" fill="#040E07"/>
<path d="M160.65 12.2441H170.016C171.122 12.2441 172.163 12.3742 173.138 12.6994C174.049 13.0246 174.894 13.4799 175.545 14.1303C176.195 14.7807 176.715 15.5612 177.106 16.4718C177.496 17.3823 177.626 18.423 177.626 19.6588C177.626 20.8295 177.431 21.8701 177.106 22.8457C176.715 23.8214 176.26 24.6019 175.545 25.2523C174.894 25.9027 174.049 26.423 173.138 26.7482C172.228 27.1384 171.187 27.2685 170.016 27.2685H163.902V15.171H162.016L160.65 12.2441ZM167.024 15.236V24.2766H170.016C171.447 24.2766 172.553 23.8864 173.398 23.1059C174.179 22.3254 174.569 21.1547 174.569 19.7238C174.569 18.2279 174.179 17.1222 173.398 16.4067C172.618 15.6262 171.512 15.301 170.016 15.301H167.024V15.236Z" fill="#040E07"/>
<path d="M57.1056 3.20361L57.756 4.69956H185.496V34.0329H1.49595V4.69956H44.5528L43.9024 3.20361H0V35.5288H186.992V3.20361H57.1056Z" fill="#040E07"/>
<path d="M53.5929 8.92696C53.5929 8.92696 56.6498 4.89444 48.6498 0.47168C48.6498 0.47168 45.5929 8.08143 53.5929 8.92696Z" fill="#040E07"/>
</svg>
