<svg width="82" height="26" viewBox="0 0 82 26" fill="none" xmlns="http://www.w3.org/2000/svg">
<path d="M4.32116 13.7811C4.57732 13.9158 4.86407 13.9863 5.15543 13.9863C5.44679 13.9863 5.73354 13.9158 5.9897 13.7811C6.79307 13.1716 7.73034 11.8128 8.85299 10.9935C9.10394 10.8005 9.38575 10.6486 9.68726 10.5439L9.10018 13.0417C9.08666 13.0859 9.08253 13.1323 9.08806 13.178C9.09359 13.2238 9.10865 13.268 9.13233 13.3079C9.15601 13.3478 9.18782 13.3827 9.22582 13.4103C9.26382 13.4379 9.30721 13.4578 9.35336 13.4686C9.39952 13.4795 9.44746 13.4811 9.49429 13.4734C9.54111 13.4658 9.58583 13.4489 9.62574 13.4239C9.66564 13.399 9.69989 13.3664 9.7264 13.3281C9.75292 13.2899 9.77114 13.2469 9.77996 13.2016L10.5627 10.2042C10.5768 10.1491 10.5776 10.0916 10.5651 10.0361C10.5526 9.9807 10.5271 9.92879 10.4906 9.88444C10.4539 9.83945 10.4068 9.80338 10.3532 9.7791C10.2995 9.75482 10.2408 9.743 10.1816 9.74456C9.52947 9.77633 8.90343 10.0032 8.38951 10.394C7.25655 11.1633 6.23689 12.4922 5.46442 13.0417C5.27903 13.1716 4.97004 13.0417 4.70225 12.9618C4.43446 12.8819 4.17697 12.722 4.18727 12.5222C4.21721 11.942 4.4056 11.3799 4.73315 10.8936C5.26386 10.1109 5.91316 9.41027 6.65917 8.81535C7.35947 8.2008 8.21056 7.77079 9.13108 7.56642C10.0814 7.40168 11.0543 7.40168 12.0047 7.56642C12.9246 7.77697 13.8566 7.93378 14.7959 8.03602C15.4819 8.12125 16.1776 8.09762 16.8558 7.96608C17.6137 7.86307 18.3568 7.67532 19.0702 7.40656C19.8127 7.08975 20.4818 6.631 21.0374 6.05771C21.4494 5.63807 21.7893 4.98862 22.2116 4.549C22.2866 4.44674 22.3878 4.36527 22.5052 4.31269C22.6227 4.26011 22.7522 4.23824 22.8811 4.24925C23.2175 4.27527 23.5309 4.42546 23.7565 4.6689C23.9578 4.96283 24.0352 5.32042 23.9728 5.66804C23.8938 6.24682 23.6514 6.79315 23.2725 7.24669C22.6366 8.01561 21.8869 8.689 21.0477 9.24499C20.457 9.60971 19.82 9.89854 19.1526 10.1043C18.5235 10.3457 17.8515 10.4645 17.1751 10.454C17 10.454 16.691 10.6138 16.4438 11.0235C16.0433 11.7459 15.7289 12.5101 15.5065 13.3015C15.4872 13.3783 15.4988 13.4593 15.539 13.528C15.5792 13.5968 15.645 13.648 15.7228 13.6712C15.7607 13.6833 15.8007 13.6877 15.8404 13.6841C15.8801 13.6805 15.9185 13.6689 15.9534 13.6501C15.9882 13.6313 16.0187 13.6058 16.0428 13.575C16.067 13.5442 16.0843 13.509 16.0936 13.4714C16.3222 12.6585 16.669 11.8813 17.1236 11.1633C17.8656 11.1772 18.6045 11.0656 19.3071 10.8336C20.0305 10.6116 20.7225 10.3028 21.367 9.91441C22.3329 9.34148 23.2015 8.62696 23.9419 7.79622C24.4695 7.23557 24.8261 6.54374 24.9719 5.79793C25.0625 5.22601 24.9303 4.64185 24.6011 4.15933C24.4187 3.92497 24.1899 3.72826 23.9282 3.58072C23.6664 3.43318 23.377 3.33776 23.0768 3.30007C22.8446 3.25919 22.6061 3.26655 22.3771 3.32166C22.1481 3.37678 21.9337 3.47839 21.7481 3.61979C21.1841 4.14807 20.6609 4.71577 20.1826 5.31834C19.7248 5.77843 19.1744 6.14232 18.5655 6.38743C18.0214 6.60364 17.4498 6.74814 16.8661 6.81706C17.4222 6.43004 17.8268 5.87165 18.0139 5.23296C18.2009 4.59426 18.1594 3.91293 17.8961 3.30007C17.6593 2.77789 17.3068 2.31283 16.8635 1.93805C16.4201 1.56327 15.897 1.28802 15.3315 1.13192C14.9206 1.03342 14.4979 0.989723 14.0749 1.00203C13.6592 1.0247 13.2478 1.09513 12.8492 1.21185C12.3239 1.36896 11.8512 1.6592 11.4801 2.05262C11.1089 2.44604 10.8527 2.9284 10.7378 3.44994C10.6372 3.95301 10.6515 4.47135 10.7796 4.96851C10.9077 5.46566 11.1466 5.92953 11.4794 6.32748L11.5515 6.39742C10.653 6.28325 9.74128 6.31363 8.85299 6.48734C7.76665 6.73818 6.76591 7.258 5.9485 7.99605C5.13993 8.67364 4.44498 9.46915 3.88858 10.354C3.4901 10.9945 3.27005 11.7244 3.25 12.4722C3.29 12.7639 3.41071 13.0396 3.59932 13.2701C3.78793 13.5006 4.03738 13.6772 4.32116 13.7811ZM11.8811 3.69972C11.953 3.37172 12.1127 3.06788 12.3441 2.81881C12.5755 2.56973 12.8706 2.38421 13.1994 2.28094C13.5077 2.18611 13.8252 2.12249 14.147 2.0911C14.4581 2.05107 14.7732 2.05107 15.0843 2.0911C15.53 2.16004 15.9513 2.33475 16.3107 2.5997C16.67 2.86465 16.9564 3.21163 17.1442 3.6098C17.9991 5.99776 14.1779 8.22586 12.3137 5.69802C12.0944 5.41635 11.9419 5.09119 11.8672 4.74577C11.7924 4.40034 11.7971 4.04316 11.8811 3.69972Z" fill="#040E07" stroke="#040E07" stroke-width="0.3"/>
<path d="M17.0913 18.7167C17.3392 19.6398 17.4604 20.5905 17.4518 21.5443C17.4658 22.2564 17.2959 22.9605 16.9574 23.5926C16.8664 23.7379 16.7319 23.8531 16.5719 23.9227C16.4119 23.9922 16.2338 24.013 16.0614 23.9822C15.8122 23.9644 15.5718 23.8853 15.3628 23.7524C15.1537 23.6196 14.983 23.4374 14.8666 23.2229C14.5737 22.3559 14.3971 21.4559 14.3413 20.5452C14.2215 19.8961 13.9143 19.2932 13.4556 18.8066C13.2683 18.6202 13.0439 18.4727 12.796 18.373C12.5481 18.2734 12.2819 18.2238 12.0136 18.2271C11.4304 18.2334 10.8616 18.4034 10.376 18.7167C9.74192 19.1538 9.19123 19.6948 8.74864 20.3154C8.11458 21.094 7.26925 21.6857 6.30763 22.0239C5.35623 22.3786 4.30305 22.3786 3.35164 22.0239C3.15677 21.9209 2.99212 21.7714 2.8732 21.5896C2.75428 21.4078 2.685 21.1997 2.67187 20.9848C2.6371 20.8845 2.62376 20.7784 2.63263 20.6729C2.64151 20.5675 2.67243 20.4649 2.7235 20.3714C2.77458 20.2779 2.84474 20.1955 2.92971 20.1292C3.01468 20.0629 3.11268 20.014 3.21775 19.9856C3.96591 19.8329 4.6898 19.5842 5.37037 19.2463C6.04395 18.9246 6.65955 18.4995 7.1934 17.9873C7.25002 17.9313 7.28173 17.856 7.28173 17.7775C7.28173 17.6991 7.25002 17.6237 7.1934 17.5677C7.1655 17.5393 7.13195 17.5167 7.09477 17.5012C7.05759 17.4857 7.01756 17.4778 6.97711 17.4778C6.93666 17.4778 6.89663 17.4857 6.85945 17.5012C6.82227 17.5167 6.78871 17.5393 6.76082 17.5677C6.25822 18.0294 5.68055 18.4075 5.05108 18.6867C4.41072 18.9689 3.73576 19.1704 3.04265 19.2862C2.63876 19.3661 2.2828 19.5954 2.05017 19.9255C1.81754 20.2556 1.72652 20.6606 1.7964 21.0547C1.80757 21.4346 1.91962 21.8053 2.1217 22.1308C2.32379 22.4564 2.60908 22.7258 2.94996 22.9131C4.10932 23.3976 5.41354 23.4439 6.60632 23.043C7.78277 22.6649 8.82526 21.9722 9.61381 21.0447C9.96765 20.5294 10.406 20.0738 10.9116 19.6959C11.2177 19.5001 11.5749 19.3927 11.9415 19.3861C12.0853 19.3894 12.226 19.4267 12.3517 19.4945C12.4773 19.5624 12.584 19.659 12.6625 19.7758C12.8862 20.0732 13.0408 20.4141 13.1157 20.775C13.2188 21.7833 13.4578 22.7743 13.8264 23.7224C14.0245 24.0901 14.3194 24.4003 14.6813 24.6214C15.0431 24.8426 15.4589 24.9668 15.8863 24.9814C16.2502 25.0334 16.6217 24.9749 16.95 24.8139C17.2782 24.6529 17.5471 24.3973 17.7196 24.0821C18.115 23.2962 18.3059 22.4283 18.2758 21.5543C18.2432 20.5381 18.0736 19.5303 17.7711 18.5569C17.6498 18.2034 17.4801 17.8673 17.2664 17.5577C17.0913 17.218 16.2365 17.268 16.4116 17.5577C16.7125 17.8983 16.9432 18.2918 17.0913 18.7167Z" fill="#040E07" stroke="#040E07" stroke-width="0.3"/>
<path d="M23.7053 13.1816C23.6142 13.1842 23.5278 13.2211 23.4643 13.2845C23.4008 13.348 23.3654 13.4329 23.3654 13.5213C23.393 13.958 23.3042 14.3942 23.1076 14.788C22.9109 15.1817 22.6131 15.5197 22.2427 15.7694C21.4037 16.2062 20.4519 16.3972 19.503 16.3189C18.0347 16.2601 16.574 16.083 15.136 15.7894C13.6529 15.5396 12.1594 15.2598 10.666 15.1499C9.34236 15.0316 8.00831 15.0887 6.70061 15.3198C5.89724 15.4696 4.64068 15.7394 3.41503 16.0391C2.62196 16.239 1.84949 16.4488 1.24181 16.6486C1.2 16.6577 1.16059 16.675 1.12607 16.6996C1.09155 16.7242 1.06267 16.7555 1.04128 16.7915C1.0199 16.8275 1.00646 16.8674 1.00182 16.9087C0.997179 16.95 1.00144 16.9918 1.01434 17.0315C1.02724 17.0711 1.04849 17.1077 1.07674 17.1389C1.10499 17.1701 1.13963 17.1953 1.17845 17.2129C1.21727 17.2304 1.25943 17.24 1.30226 17.2409C1.34508 17.2418 1.38763 17.234 1.4272 17.2181C2.02458 17.0483 2.78675 16.8884 3.57982 16.7385C4.78488 16.5087 6.05173 16.3189 6.8551 16.219C8.08658 16.0746 9.33149 16.0746 10.563 16.219C12.0152 16.3788 13.3954 16.6286 14.8682 16.8085C16.4015 17.0555 17.9497 17.2056 19.503 17.2581C20.6312 17.3054 21.7467 17.0122 22.6959 16.4188C23.178 16.0964 23.5628 15.6553 23.8108 15.1407C24.0588 14.6262 24.161 14.0569 24.107 13.4913C24.1033 13.4447 24.0897 13.3994 24.0671 13.3581C24.0445 13.3169 24.0134 13.2806 23.9757 13.2515C23.938 13.2224 23.8945 13.2012 23.848 13.1892C23.8015 13.1772 23.7529 13.1746 23.7053 13.1816Z" fill="#A9D953" stroke="#A9D953" stroke-width="0.3"/>
<path d="M32.3212 13.7811C32.5773 13.9158 32.8641 13.9863 33.1554 13.9863C33.4468 13.9863 33.7335 13.9158 33.9897 13.7811C34.7931 13.1716 35.7303 11.8128 36.853 10.9935C37.1039 10.8005 37.3858 10.6486 37.6873 10.5439L37.1002 13.0417C37.0867 13.0859 37.0825 13.1323 37.0881 13.178C37.0936 13.2238 37.1087 13.268 37.1323 13.3079C37.156 13.3478 37.1878 13.3827 37.2258 13.4103C37.2638 13.4379 37.3072 13.4578 37.3534 13.4686C37.3995 13.4795 37.4475 13.4811 37.4943 13.4734C37.5411 13.4658 37.5858 13.4489 37.6257 13.4239C37.6656 13.399 37.6999 13.3664 37.7264 13.3281C37.7529 13.2899 37.7711 13.2469 37.78 13.2016L38.5627 10.2042C38.5768 10.1491 38.5776 10.0916 38.5651 10.0361C38.5526 9.9807 38.5271 9.92879 38.4906 9.88444C38.4539 9.83945 38.4068 9.80338 38.3532 9.7791C38.2995 9.75482 38.2408 9.743 38.1816 9.74456C37.5295 9.77633 36.9034 10.0032 36.3895 10.394C35.2566 11.1633 34.2369 12.4922 33.4644 13.0417C33.279 13.1716 32.97 13.0417 32.7022 12.9618C32.4345 12.8819 32.177 12.722 32.1873 12.5222C32.2172 11.942 32.4056 11.3799 32.7331 10.8936C33.2639 10.1109 33.9132 9.41027 34.6592 8.81535C35.3595 8.2008 36.2106 7.77079 37.1311 7.56642C38.0814 7.40168 39.0543 7.40168 40.0047 7.56642C40.9246 7.77697 41.8566 7.93378 42.7959 8.03602C43.4819 8.12125 44.1776 8.09762 44.8558 7.96608C45.6137 7.86307 46.3568 7.67532 47.0702 7.40656C47.8127 7.08975 48.4818 6.631 49.0374 6.05771C49.4494 5.63807 49.7893 4.98862 50.2116 4.549C50.2866 4.44674 50.3878 4.36527 50.5052 4.31269C50.6227 4.26011 50.7522 4.23824 50.8811 4.24925C51.2175 4.27527 51.5309 4.42546 51.7565 4.6689C51.9578 4.96283 52.0352 5.32042 51.9728 5.66804C51.8938 6.24682 51.6514 6.79315 51.2725 7.24669C50.6366 8.01561 49.8869 8.689 49.0477 9.24499C48.457 9.60971 47.82 9.89854 47.1526 10.1043C46.5235 10.3457 45.8515 10.4645 45.1751 10.454C45 10.454 44.691 10.6138 44.4438 11.0235C44.0433 11.7459 43.7289 12.5101 43.5065 13.3015C43.4872 13.3783 43.4988 13.4593 43.539 13.528C43.5792 13.5968 43.645 13.648 43.7228 13.6712C43.7607 13.6833 43.8007 13.6877 43.8404 13.6841C43.8801 13.6805 43.9185 13.6689 43.9534 13.6501C43.9882 13.6313 44.0187 13.6058 44.0428 13.575C44.067 13.5442 44.0843 13.509 44.0936 13.4714C44.3222 12.6585 44.669 11.8813 45.1236 11.1633C45.8656 11.1772 46.6045 11.0656 47.3071 10.8336C48.0305 10.6116 48.7225 10.3028 49.367 9.91441C50.3329 9.34148 51.2015 8.62696 51.9419 7.79622C52.4695 7.23557 52.8261 6.54374 52.9719 5.79793C53.0625 5.22601 52.9303 4.64185 52.6011 4.15933C52.4187 3.92497 52.1899 3.72826 51.9282 3.58072C51.6664 3.43318 51.377 3.33776 51.0768 3.30007C50.8446 3.25919 50.6061 3.26655 50.3771 3.32166C50.1481 3.37678 49.9337 3.47839 49.7481 3.61979C49.1841 4.14807 48.6609 4.71577 48.1826 5.31834C47.7248 5.77843 47.1744 6.14232 46.5655 6.38743C46.0214 6.60364 45.4498 6.74814 44.8661 6.81706C45.4222 6.43004 45.8268 5.87165 46.0139 5.23296C46.2009 4.59426 46.1594 3.91293 45.8961 3.30007C45.6593 2.77789 45.3068 2.31283 44.8635 1.93805C44.4201 1.56327 43.897 1.28802 43.3315 1.13192C42.9206 1.03342 42.4979 0.989723 42.0749 1.00203C41.6592 1.0247 41.2478 1.09513 40.8492 1.21185C40.3239 1.36896 39.8512 1.6592 39.4801 2.05262C39.1089 2.44604 38.8527 2.9284 38.7378 3.44994C38.6372 3.95301 38.6515 4.47135 38.7796 4.96851C38.9077 5.46566 39.1466 5.92953 39.4794 6.32748L39.5515 6.39742C38.653 6.28325 37.7413 6.31363 36.853 6.48734C35.7666 6.73818 34.7659 7.258 33.9485 7.99605C33.1399 8.67364 32.445 9.46915 31.8886 10.354C31.4901 10.9945 31.27 11.7244 31.25 12.4722C31.29 12.7639 31.4107 13.0396 31.5993 13.2701C31.7879 13.5006 32.0374 13.6772 32.3212 13.7811ZM39.8811 3.69972C39.953 3.37172 40.1127 3.06788 40.3441 2.81881C40.5755 2.56973 40.8706 2.38421 41.1994 2.28094C41.5077 2.18611 41.8252 2.12249 42.147 2.0911C42.4581 2.05107 42.7732 2.05107 43.0843 2.0911C43.53 2.16004 43.9513 2.33475 44.3107 2.5997C44.67 2.86465 44.9564 3.21163 45.1442 3.6098C45.9991 5.99776 42.1779 8.22586 40.3137 5.69802C40.0944 5.41635 39.9419 5.09119 39.8672 4.74577C39.7924 4.40034 39.7971 4.04316 39.8811 3.69972Z" fill="#040E07" stroke="#040E07" stroke-width="0.3"/>
<path d="M45.0913 18.7167C45.3392 19.6398 45.4604 20.5905 45.4518 21.5443C45.4658 22.2564 45.2959 22.9605 44.9574 23.5926C44.8664 23.7379 44.7319 23.8531 44.5719 23.9227C44.4119 23.9922 44.2338 24.013 44.0614 23.9822C43.8122 23.9644 43.5718 23.8853 43.3628 23.7524C43.1537 23.6196 42.983 23.4374 42.8666 23.2229C42.5737 22.3559 42.3971 21.4559 42.3413 20.5452C42.2215 19.8961 41.9143 19.2932 41.4556 18.8066C41.2683 18.6202 41.0439 18.4727 40.796 18.373C40.5481 18.2734 40.2819 18.2238 40.0136 18.2271C39.4304 18.2334 38.8616 18.4034 38.376 18.7167C37.7419 19.1538 37.1912 19.6948 36.7486 20.3154C36.1146 21.094 35.2692 21.6857 34.3076 22.0239C33.3562 22.3786 32.303 22.3786 31.3516 22.0239C31.1568 21.9209 30.9921 21.7714 30.8732 21.5896C30.7543 21.4078 30.685 21.1997 30.6719 20.9848C30.6371 20.8845 30.6238 20.7784 30.6326 20.6729C30.6415 20.5675 30.6724 20.4649 30.7235 20.3714C30.7746 20.2779 30.8447 20.1955 30.9297 20.1292C31.0147 20.0629 31.1127 20.014 31.2177 19.9856C31.9659 19.8329 32.6898 19.5842 33.3704 19.2463C34.0439 18.9246 34.6596 18.4995 35.1934 17.9873C35.25 17.9313 35.2817 17.856 35.2817 17.7775C35.2817 17.6991 35.25 17.6237 35.1934 17.5677C35.1655 17.5393 35.1319 17.5167 35.0948 17.5012C35.0576 17.4857 35.0176 17.4778 34.9771 17.4778C34.9367 17.4778 34.8966 17.4857 34.8594 17.5012C34.8223 17.5167 34.7887 17.5393 34.7608 17.5677C34.2582 18.0294 33.6806 18.4075 33.0511 18.6867C32.4107 18.9689 31.7358 19.1704 31.0427 19.2862C30.6388 19.3661 30.2828 19.5954 30.0502 19.9255C29.8175 20.2556 29.7265 20.6606 29.7964 21.0547C29.8076 21.4346 29.9196 21.8053 30.1217 22.1308C30.3238 22.4564 30.6091 22.7258 30.95 22.9131C32.1093 23.3976 33.4135 23.4439 34.6063 23.043C35.7828 22.6649 36.8253 21.9722 37.6138 21.0447C37.9677 20.5294 38.406 20.0738 38.9116 19.6959C39.2177 19.5001 39.5749 19.3927 39.9415 19.3861C40.0853 19.3894 40.226 19.4267 40.3517 19.4945C40.4773 19.5624 40.584 19.659 40.6625 19.7758C40.8862 20.0732 41.0408 20.4141 41.1157 20.775C41.2188 21.7833 41.4578 22.7743 41.8264 23.7224C42.0245 24.0901 42.3194 24.4003 42.6813 24.6214C43.0431 24.8426 43.4589 24.9668 43.8863 24.9814C44.2502 25.0334 44.6217 24.9749 44.95 24.8139C45.2782 24.6529 45.5471 24.3973 45.7196 24.0821C46.115 23.2962 46.3059 22.4283 46.2758 21.5543C46.2432 20.5381 46.0736 19.5303 45.7711 18.5569C45.6498 18.2034 45.4801 17.8673 45.2664 17.5577C45.0913 17.218 44.2365 17.268 44.4116 17.5577C44.7125 17.8983 44.9432 18.2918 45.0913 18.7167Z" fill="#040E07" stroke="#040E07" stroke-width="0.3"/>
<path d="M51.7053 13.1816C51.6142 13.1842 51.5278 13.2211 51.4643 13.2845C51.4008 13.348 51.3654 13.4329 51.3654 13.5213C51.393 13.958 51.3042 14.3942 51.1076 14.788C50.9109 15.1817 50.6131 15.5197 50.2427 15.7694C49.4037 16.2062 48.4519 16.3972 47.503 16.3189C46.0347 16.2601 44.574 16.083 43.136 15.7894C41.6529 15.5396 40.1594 15.2598 38.666 15.1499C37.3424 15.0316 36.0083 15.0887 34.7006 15.3198C33.8972 15.4696 32.6407 15.7394 31.415 16.0391C30.622 16.239 29.8495 16.4488 29.2418 16.6486C29.2 16.6577 29.1606 16.675 29.1261 16.6996C29.0915 16.7242 29.0627 16.7555 29.0413 16.7915C29.0199 16.8275 29.0065 16.8674 29.0018 16.9087C28.9972 16.95 29.0014 16.9918 29.0143 17.0315C29.0272 17.0711 29.0485 17.1077 29.0767 17.1389C29.105 17.1701 29.1396 17.1953 29.1785 17.2129C29.2173 17.2304 29.2594 17.24 29.3023 17.2409C29.3451 17.2418 29.3876 17.234 29.4272 17.2181C30.0246 17.0483 30.7868 16.8884 31.5798 16.7385C32.7849 16.5087 34.0517 16.3189 34.8551 16.219C36.0866 16.0746 37.3315 16.0746 38.563 16.219C40.0152 16.3788 41.3954 16.6286 42.8682 16.8085C44.4015 17.0555 45.9497 17.2056 47.503 17.2581C48.6312 17.3054 49.7467 17.0122 50.6959 16.4188C51.178 16.0964 51.5628 15.6553 51.8108 15.1407C52.0588 14.6262 52.161 14.0569 52.107 13.4913C52.1033 13.4447 52.0897 13.3994 52.0671 13.3581C52.0445 13.3169 52.0134 13.2806 51.9757 13.2515C51.938 13.2224 51.8945 13.2012 51.848 13.1892C51.8015 13.1772 51.7529 13.1746 51.7053 13.1816Z" fill="#A9D953" stroke="#A9D953" stroke-width="0.3"/>
<path d="M60.3212 13.7811C60.5773 13.9158 60.8641 13.9863 61.1554 13.9863C61.4468 13.9863 61.7335 13.9158 61.9897 13.7811C62.7931 13.1716 63.7303 11.8128 64.853 10.9935C65.1039 10.8005 65.3858 10.6486 65.6873 10.5439L65.1002 13.0417C65.0867 13.0859 65.0825 13.1323 65.0881 13.178C65.0936 13.2238 65.1087 13.268 65.1323 13.3079C65.156 13.3478 65.1878 13.3827 65.2258 13.4103C65.2638 13.4379 65.3072 13.4578 65.3534 13.4686C65.3995 13.4795 65.4475 13.4811 65.4943 13.4734C65.5411 13.4658 65.5858 13.4489 65.6257 13.4239C65.6656 13.399 65.6999 13.3664 65.7264 13.3281C65.7529 13.2899 65.7711 13.2469 65.78 13.2016L66.5627 10.2042C66.5768 10.1491 66.5776 10.0916 66.5651 10.0361C66.5526 9.9807 66.5271 9.92879 66.4906 9.88444C66.4539 9.83945 66.4068 9.80338 66.3532 9.7791C66.2995 9.75482 66.2408 9.743 66.1816 9.74456C65.5295 9.77633 64.9034 10.0032 64.3895 10.394C63.2566 11.1633 62.2369 12.4922 61.4644 13.0417C61.279 13.1716 60.97 13.0417 60.7022 12.9618C60.4345 12.8819 60.177 12.722 60.1873 12.5222C60.2172 11.942 60.4056 11.3799 60.7331 10.8936C61.2639 10.1109 61.9132 9.41027 62.6592 8.81535C63.3595 8.2008 64.2106 7.77079 65.1311 7.56642C66.0814 7.40168 67.0543 7.40168 68.0047 7.56642C68.9246 7.77697 69.8566 7.93378 70.7959 8.03602C71.4819 8.12125 72.1776 8.09762 72.8558 7.96608C73.6137 7.86307 74.3568 7.67532 75.0702 7.40656C75.8127 7.08975 76.4818 6.631 77.0374 6.05771C77.4494 5.63807 77.7893 4.98862 78.2116 4.549C78.2866 4.44674 78.3878 4.36527 78.5052 4.31269C78.6227 4.26011 78.7522 4.23824 78.8811 4.24925C79.2175 4.27527 79.5309 4.42546 79.7565 4.6689C79.9578 4.96283 80.0352 5.32042 79.9728 5.66804C79.8938 6.24682 79.6514 6.79315 79.2725 7.24669C78.6366 8.01561 77.8869 8.689 77.0477 9.24499C76.457 9.60971 75.82 9.89854 75.1526 10.1043C74.5235 10.3457 73.8515 10.4645 73.1751 10.454C73 10.454 72.691 10.6138 72.4438 11.0235C72.0433 11.7459 71.7289 12.5101 71.5065 13.3015C71.4872 13.3783 71.4988 13.4593 71.539 13.528C71.5792 13.5968 71.645 13.648 71.7228 13.6712C71.7607 13.6833 71.8007 13.6877 71.8404 13.6841C71.8801 13.6805 71.9185 13.6689 71.9534 13.6501C71.9882 13.6313 72.0187 13.6058 72.0428 13.575C72.067 13.5442 72.0843 13.509 72.0936 13.4714C72.3222 12.6585 72.669 11.8813 73.1236 11.1633C73.8656 11.1772 74.6045 11.0656 75.3071 10.8336C76.0305 10.6116 76.7225 10.3028 77.367 9.91441C78.3329 9.34148 79.2015 8.62696 79.9419 7.79622C80.4695 7.23557 80.8261 6.54374 80.9719 5.79793C81.0625 5.22601 80.9303 4.64185 80.6011 4.15933C80.4187 3.92497 80.1899 3.72826 79.9282 3.58072C79.6664 3.43318 79.377 3.33776 79.0768 3.30007C78.8446 3.25919 78.6061 3.26655 78.3771 3.32166C78.1481 3.37678 77.9337 3.47839 77.7481 3.61979C77.1841 4.14807 76.6609 4.71577 76.1826 5.31834C75.7248 5.77843 75.1744 6.14232 74.5655 6.38743C74.0214 6.60364 73.4498 6.74814 72.8661 6.81706C73.4222 6.43004 73.8268 5.87165 74.0139 5.23296C74.2009 4.59426 74.1594 3.91293 73.8961 3.30007C73.6593 2.77789 73.3068 2.31283 72.8635 1.93805C72.4201 1.56327 71.897 1.28802 71.3315 1.13192C70.9206 1.03342 70.4979 0.989723 70.0749 1.00203C69.6592 1.0247 69.2478 1.09513 68.8492 1.21185C68.3239 1.36896 67.8512 1.6592 67.4801 2.05262C67.1089 2.44604 66.8527 2.9284 66.7378 3.44994C66.6372 3.95301 66.6515 4.47135 66.7796 4.96851C66.9077 5.46566 67.1466 5.92953 67.4794 6.32748L67.5515 6.39742C66.653 6.28325 65.7413 6.31363 64.853 6.48734C63.7666 6.73818 62.7659 7.258 61.9485 7.99605C61.1399 8.67364 60.445 9.46915 59.8886 10.354C59.4901 10.9945 59.27 11.7244 59.25 12.4722C59.29 12.7639 59.4107 13.0396 59.5993 13.2701C59.7879 13.5006 60.0374 13.6772 60.3212 13.7811ZM67.8811 3.69972C67.953 3.37172 68.1127 3.06788 68.3441 2.81881C68.5755 2.56973 68.8706 2.38421 69.1994 2.28094C69.5077 2.18611 69.8252 2.12249 70.147 2.0911C70.4581 2.05107 70.7732 2.05107 71.0843 2.0911C71.53 2.16004 71.9513 2.33475 72.3107 2.5997C72.67 2.86465 72.9564 3.21163 73.1442 3.6098C73.9991 5.99776 70.1779 8.22586 68.3137 5.69802C68.0944 5.41635 67.9419 5.09119 67.8672 4.74577C67.7924 4.40034 67.7971 4.04316 67.8811 3.69972Z" fill="#040E07" stroke="#040E07" stroke-width="0.3"/>
<path d="M73.0913 18.7167C73.3392 19.6398 73.4604 20.5905 73.4518 21.5443C73.4658 22.2564 73.2959 22.9605 72.9574 23.5926C72.8664 23.7379 72.7319 23.8531 72.5719 23.9227C72.4119 23.9922 72.2338 24.013 72.0614 23.9822C71.8122 23.9644 71.5718 23.8853 71.3628 23.7524C71.1537 23.6196 70.983 23.4374 70.8666 23.2229C70.5737 22.3559 70.3971 21.4559 70.3413 20.5452C70.2215 19.8961 69.9143 19.2932 69.4556 18.8066C69.2683 18.6202 69.0439 18.4727 68.796 18.373C68.5481 18.2734 68.2819 18.2238 68.0136 18.2271C67.4304 18.2334 66.8616 18.4034 66.376 18.7167C65.7419 19.1538 65.1912 19.6948 64.7486 20.3154C64.1146 21.094 63.2692 21.6857 62.3076 22.0239C61.3562 22.3786 60.303 22.3786 59.3516 22.0239C59.1568 21.9209 58.9921 21.7714 58.8732 21.5896C58.7543 21.4078 58.685 21.1997 58.6719 20.9848C58.6371 20.8845 58.6238 20.7784 58.6326 20.6729C58.6415 20.5675 58.6724 20.4649 58.7235 20.3714C58.7746 20.2779 58.8447 20.1955 58.9297 20.1292C59.0147 20.0629 59.1127 20.014 59.2177 19.9856C59.9659 19.8329 60.6898 19.5842 61.3704 19.2463C62.0439 18.9246 62.6596 18.4995 63.1934 17.9873C63.25 17.9313 63.2817 17.856 63.2817 17.7775C63.2817 17.6991 63.25 17.6237 63.1934 17.5677C63.1655 17.5393 63.1319 17.5167 63.0948 17.5012C63.0576 17.4857 63.0176 17.4778 62.9771 17.4778C62.9367 17.4778 62.8966 17.4857 62.8594 17.5012C62.8223 17.5167 62.7887 17.5393 62.7608 17.5677C62.2582 18.0294 61.6806 18.4075 61.0511 18.6867C60.4107 18.9689 59.7358 19.1704 59.0427 19.2862C58.6388 19.3661 58.2828 19.5954 58.0502 19.9255C57.8175 20.2556 57.7265 20.6606 57.7964 21.0547C57.8076 21.4346 57.9196 21.8053 58.1217 22.1308C58.3238 22.4564 58.6091 22.7258 58.95 22.9131C60.1093 23.3976 61.4135 23.4439 62.6063 23.043C63.7828 22.6649 64.8253 21.9722 65.6138 21.0447C65.9677 20.5294 66.406 20.0738 66.9116 19.6959C67.2177 19.5001 67.5749 19.3927 67.9415 19.3861C68.0853 19.3894 68.226 19.4267 68.3517 19.4945C68.4773 19.5624 68.584 19.659 68.6625 19.7758C68.8862 20.0732 69.0408 20.4141 69.1157 20.775C69.2188 21.7833 69.4578 22.7743 69.8264 23.7224C70.0245 24.0901 70.3194 24.4003 70.6813 24.6214C71.0431 24.8426 71.4589 24.9668 71.8863 24.9814C72.2502 25.0334 72.6217 24.9749 72.95 24.8139C73.2782 24.6529 73.5471 24.3973 73.7196 24.0821C74.115 23.2962 74.3059 22.4283 74.2758 21.5543C74.2432 20.5381 74.0736 19.5303 73.7711 18.5569C73.6498 18.2034 73.4801 17.8673 73.2664 17.5577C73.0913 17.218 72.2365 17.268 72.4116 17.5577C72.7125 17.8983 72.9432 18.2918 73.0913 18.7167Z" fill="#040E07" stroke="#040E07" stroke-width="0.3"/>
<path d="M79.7053 13.1816C79.6142 13.1842 79.5278 13.2211 79.4643 13.2845C79.4008 13.348 79.3654 13.4329 79.3654 13.5213C79.393 13.958 79.3042 14.3942 79.1076 14.788C78.9109 15.1817 78.6131 15.5197 78.2427 15.7694C77.4037 16.2062 76.4519 16.3972 75.503 16.3189C74.0347 16.2601 72.574 16.083 71.136 15.7894C69.6529 15.5396 68.1594 15.2598 66.666 15.1499C65.3424 15.0316 64.0083 15.0887 62.7006 15.3198C61.8972 15.4696 60.6407 15.7394 59.415 16.0391C58.622 16.239 57.8495 16.4488 57.2418 16.6486C57.2 16.6577 57.1606 16.675 57.1261 16.6996C57.0915 16.7242 57.0627 16.7555 57.0413 16.7915C57.0199 16.8275 57.0065 16.8674 57.0018 16.9087C56.9972 16.95 57.0014 16.9918 57.0143 17.0315C57.0272 17.0711 57.0485 17.1077 57.0767 17.1389C57.105 17.1701 57.1396 17.1953 57.1785 17.2129C57.2173 17.2304 57.2594 17.24 57.3023 17.2409C57.3451 17.2418 57.3876 17.234 57.4272 17.2181C58.0246 17.0483 58.7868 16.8884 59.5798 16.7385C60.7849 16.5087 62.0517 16.3189 62.8551 16.219C64.0866 16.0746 65.3315 16.0746 66.563 16.219C68.0152 16.3788 69.3954 16.6286 70.8682 16.8085C72.4015 17.0555 73.9497 17.2056 75.503 17.2581C76.6312 17.3054 77.7467 17.0122 78.6959 16.4188C79.178 16.0964 79.5628 15.6553 79.8108 15.1407C80.0588 14.6262 80.161 14.0569 80.107 13.4913C80.1033 13.4447 80.0897 13.3994 80.0671 13.3581C80.0445 13.3169 80.0134 13.2806 79.9757 13.2515C79.938 13.2224 79.8945 13.2012 79.848 13.1892C79.8015 13.1772 79.7529 13.1746 79.7053 13.1816Z" fill="#A9D953" stroke="#A9D953" stroke-width="0.3"/>
</svg>
