<svg width="82" height="26" viewBox="0 0 82 26" fill="none" xmlns="http://www.w3.org/2000/svg">
<path d="M4.32189 13.7811C4.57805 13.9158 4.8648 13.9863 5.15616 13.9863C5.44752 13.9863 5.73427 13.9158 5.99043 13.7811C6.7938 13.1716 7.73107 11.8128 8.85373 10.9935C9.10467 10.8005 9.38648 10.6486 9.688 10.5439L9.10092 13.0417C9.08739 13.0859 9.08327 13.1323 9.08879 13.178C9.09432 13.2238 9.10938 13.268 9.13306 13.3079C9.15675 13.3478 9.18855 13.3827 9.22655 13.4103C9.26455 13.4379 9.30794 13.4578 9.3541 13.4686C9.40025 13.4795 9.4482 13.4811 9.49502 13.4734C9.54184 13.4658 9.58657 13.4489 9.62647 13.4239C9.66637 13.399 9.70062 13.3664 9.72714 13.3281C9.75365 13.2899 9.77187 13.2469 9.78069 13.2016L10.5635 10.2042C10.5776 10.1491 10.5784 10.0916 10.5659 10.0361C10.5534 9.9807 10.5279 9.92879 10.4914 9.88444C10.4546 9.83945 10.4075 9.80338 10.3539 9.7791C10.3003 9.75482 10.2415 9.743 10.1824 9.74456C9.5302 9.77633 8.90416 10.0032 8.39024 10.394C7.25729 11.1633 6.23762 12.4922 5.46515 13.0417C5.27976 13.1716 4.97077 13.0417 4.70298 12.9618C4.43519 12.8819 4.1777 12.722 4.188 12.5222C4.21794 11.942 4.40633 11.3799 4.73388 10.8936C5.26459 10.1109 5.9139 9.41027 6.65991 8.81535C7.3602 8.2008 8.2113 7.77079 9.13182 7.56642C10.0822 7.40168 11.0551 7.40168 12.0054 7.56642C12.9253 7.77697 13.8574 7.93378 14.7966 8.03602C15.4826 8.12125 16.1783 8.09762 16.8565 7.96608C17.6145 7.86307 18.3575 7.67532 19.071 7.40656C19.8135 7.08975 20.4825 6.631 21.0382 6.05771C21.4502 5.63807 21.79 4.98862 22.2123 4.549C22.2873 4.44674 22.3885 4.36527 22.5059 4.31269C22.6234 4.26011 22.753 4.23824 22.8818 4.24925C23.2182 4.27527 23.5316 4.42546 23.7573 4.6689C23.9585 4.96283 24.0359 5.32042 23.9736 5.66804C23.8946 6.24682 23.6522 6.79315 23.2732 7.24669C22.6373 8.01561 21.8876 8.689 21.0485 9.24499C20.4577 9.60971 19.8207 9.89854 19.1533 10.1043C18.5243 10.3457 17.8523 10.4645 17.1758 10.454C17.0007 10.454 16.6917 10.6138 16.4445 11.0235C16.044 11.7459 15.7296 12.5101 15.5073 13.3015C15.4879 13.3783 15.4995 13.4593 15.5397 13.528C15.5799 13.5968 15.6457 13.648 15.7236 13.6712C15.7614 13.6833 15.8014 13.6877 15.8411 13.6841C15.8808 13.6805 15.9193 13.6689 15.9541 13.6501C15.989 13.6313 16.0194 13.6058 16.0435 13.575C16.0677 13.5442 16.085 13.509 16.0944 13.4714C16.323 12.6585 16.6698 11.8813 17.1243 11.1633C17.8664 11.1772 18.6052 11.0656 19.3078 10.8336C20.0312 10.6116 20.7232 10.3028 21.3678 9.91441C22.3336 9.34148 23.2022 8.62696 23.9427 7.79622C24.4702 7.23557 24.8268 6.54374 24.9726 5.79793C25.0633 5.22601 24.9311 4.64185 24.6018 4.15933C24.4194 3.92497 24.1907 3.72826 23.9289 3.58072C23.6672 3.43318 23.3777 3.33776 23.0775 3.30007C22.8453 3.25919 22.6068 3.26655 22.3778 3.32166C22.1488 3.37678 21.9344 3.47839 21.7489 3.61979C21.1849 4.14807 20.6616 4.71577 20.1833 5.31834C19.7255 5.77843 19.1751 6.14232 18.5663 6.38743C18.0221 6.60364 17.4506 6.74814 16.8668 6.81706C17.423 6.43004 17.8276 5.87165 18.0146 5.23296C18.2016 4.59426 18.1601 3.91293 17.8968 3.30007C17.6601 2.77789 17.3075 2.31283 16.8642 1.93805C16.4209 1.56327 15.8978 1.28802 15.3322 1.13192C14.9214 1.03342 14.4986 0.989723 14.0756 1.00203C13.66 1.0247 13.2485 1.09513 12.85 1.21185C12.3246 1.36896 11.852 1.6592 11.4808 2.05262C11.1097 2.44604 10.8534 2.9284 10.7386 3.44994C10.6379 3.95301 10.6522 4.47135 10.7803 4.96851C10.9084 5.46566 11.1473 5.92953 11.4801 6.32748L11.5522 6.39742C10.6537 6.28325 9.74201 6.31363 8.85373 6.48734C7.76738 6.73818 6.76665 7.258 5.94923 7.99605C5.14067 8.67364 4.44571 9.46915 3.88931 10.354C3.49083 10.9945 3.27078 11.7244 3.25073 12.4722C3.29073 12.7639 3.41145 13.0396 3.60005 13.2701C3.78866 13.5006 4.03811 13.6772 4.32189 13.7811ZM11.8818 3.69972C11.9537 3.37172 12.1134 3.06788 12.3448 2.81881C12.5763 2.56973 12.8713 2.38421 13.2002 2.28094C13.5084 2.18611 13.826 2.12249 14.1477 2.0911C14.4588 2.05107 14.7739 2.05107 15.085 2.0911C15.5307 2.16004 15.952 2.33475 16.3114 2.5997C16.6708 2.86465 16.9571 3.21163 17.1449 3.6098C17.9998 5.99776 14.1786 8.22586 12.3144 5.69802C12.0951 5.41635 11.9427 5.09119 11.8679 4.74577C11.7931 4.40034 11.7979 4.04316 11.8818 3.69972Z" fill="#040E07" stroke="#040E07" stroke-width="0.3"/>
<path d="M17.0921 18.7167C17.3399 19.6398 17.4612 20.5905 17.4526 21.5443C17.4666 22.2564 17.2966 22.9605 16.9582 23.5926C16.8671 23.7379 16.7327 23.8531 16.5727 23.9227C16.4126 23.9922 16.2346 24.013 16.0621 23.9822C15.8129 23.9644 15.5725 23.8853 15.3635 23.7524C15.1545 23.6196 14.9837 23.4374 14.8674 23.2229C14.5744 22.3559 14.3979 21.4559 14.3421 20.5452C14.2222 19.8961 13.9151 19.2932 13.4563 18.8066C13.2691 18.6202 13.0447 18.4727 12.7968 18.373C12.5489 18.2734 12.2827 18.2238 12.0144 18.2271C11.4312 18.2334 10.8624 18.4034 10.3767 18.7167C9.74265 19.1538 9.19197 19.6948 8.74938 20.3154C8.11531 21.094 7.26998 21.6857 6.30837 22.0239C5.35696 22.3786 4.30378 22.3786 3.35237 22.0239C3.1575 21.9209 2.99285 21.7714 2.87393 21.5896C2.75501 21.4078 2.68573 21.1997 2.6726 20.9848C2.63784 20.8845 2.62449 20.7784 2.63337 20.6729C2.64224 20.5675 2.67316 20.4649 2.72423 20.3714C2.77531 20.2779 2.84547 20.1955 2.93044 20.1292C3.01541 20.0629 3.11342 20.014 3.21848 19.9856C3.96664 19.8329 4.69053 19.5842 5.3711 19.2463C6.04468 18.9246 6.66029 18.4995 7.19413 17.9873C7.25075 17.9313 7.28246 17.856 7.28246 17.7775C7.28246 17.6991 7.25075 17.6237 7.19413 17.5677C7.16624 17.5393 7.13268 17.5167 7.0955 17.5012C7.05832 17.4857 7.01829 17.4778 6.97784 17.4778C6.93739 17.4778 6.89736 17.4857 6.86018 17.5012C6.823 17.5167 6.78945 17.5393 6.76155 17.5677C6.25896 18.0294 5.68129 18.4075 5.05181 18.6867C4.41145 18.9689 3.73649 19.1704 3.04339 19.2862C2.63949 19.3661 2.28353 19.5954 2.0509 19.9255C1.81827 20.2556 1.72726 20.6606 1.79713 21.0547C1.8083 21.4346 1.92035 21.8053 2.12244 22.1308C2.32452 22.4564 2.60981 22.7258 2.95069 22.9131C4.11005 23.3976 5.41427 23.4439 6.60706 23.043C7.78351 22.6649 8.82599 21.9722 9.61454 21.0447C9.96839 20.5294 10.4068 20.0738 10.9123 19.6959C11.2185 19.5001 11.5756 19.3927 11.9423 19.3861C12.086 19.3894 12.2268 19.4267 12.3524 19.4945C12.478 19.5624 12.5847 19.659 12.6632 19.7758C12.8869 20.0732 13.0415 20.4141 13.1164 20.775C13.2196 21.7833 13.4585 22.7743 13.8271 23.7224C14.0252 24.0901 14.3202 24.4003 14.682 24.6214C15.0438 24.8426 15.4596 24.9668 15.887 24.9814C16.2509 25.0334 16.6225 24.9749 16.9507 24.8139C17.279 24.6529 17.5478 24.3973 17.7203 24.0821C18.1157 23.2962 18.3067 22.4283 18.2765 21.5543C18.244 20.5381 18.0743 19.5303 17.7718 18.5569C17.6505 18.2034 17.4808 17.8673 17.2672 17.5577C17.0921 17.218 16.2372 17.268 16.4123 17.5577C16.7132 17.8983 16.944 18.2918 17.0921 18.7167Z" fill="#040E07" stroke="#040E07" stroke-width="0.3"/>
<path d="M23.706 13.1816C23.6149 13.1842 23.5285 13.2211 23.465 13.2845C23.4016 13.348 23.3661 13.4329 23.3661 13.5213C23.3937 13.958 23.3049 14.3942 23.1083 14.788C22.9117 15.1817 22.6138 15.5197 22.2435 15.7694C21.4044 16.2062 20.4526 16.3972 19.5038 16.3189C18.0355 16.2601 16.5748 16.083 15.1367 15.7894C13.6536 15.5396 12.1601 15.2598 10.6667 15.1499C9.34309 15.0316 8.00904 15.0887 6.70134 15.3198C5.89797 15.4696 4.64142 15.7394 3.41576 16.0391C2.62269 16.239 1.85022 16.4488 1.24254 16.6486C1.20073 16.6577 1.16132 16.675 1.1268 16.6996C1.09228 16.7242 1.06341 16.7555 1.04202 16.7915C1.02063 16.8275 1.00719 16.8674 1.00255 16.9087C0.997911 16.95 1.00218 16.9918 1.01507 17.0315C1.02797 17.0711 1.04922 17.1077 1.07747 17.1389C1.10573 17.1701 1.14036 17.1953 1.17918 17.2129C1.21801 17.2304 1.26017 17.24 1.30299 17.2409C1.34581 17.2418 1.38836 17.234 1.42793 17.2181C2.02531 17.0483 2.78748 16.8884 3.58056 16.7385C4.78561 16.5087 6.05246 16.3189 6.85583 16.219C8.08731 16.0746 9.33223 16.0746 10.5637 16.219C12.0159 16.3788 13.3961 16.6286 14.8689 16.8085C16.4022 17.0555 17.9504 17.2056 19.5038 17.2581C20.6319 17.3054 21.7475 17.0122 22.6967 16.4188C23.1787 16.0964 23.5635 15.6553 23.8115 15.1407C24.0595 14.6262 24.1618 14.0569 24.1077 13.4913C24.104 13.4447 24.0904 13.3994 24.0678 13.3581C24.0453 13.3169 24.0141 13.2806 23.9764 13.2515C23.9388 13.2224 23.8953 13.2012 23.8487 13.1892C23.8022 13.1772 23.7536 13.1746 23.706 13.1816Z" fill="#A9D953" stroke="#A9D953" stroke-width="0.3"/>
<g opacity="0.2">
<path d="M32.3216 13.7811C32.5778 13.9158 32.8646 13.9863 33.1559 13.9863C33.4473 13.9863 33.734 13.9158 33.9902 13.7811C34.7936 13.1716 35.7308 11.8128 36.8535 10.9935C37.1044 10.8005 37.3862 10.6486 37.6878 10.5439L37.1007 13.0417C37.0871 13.0859 37.083 13.1323 37.0885 13.178C37.0941 13.2238 37.1091 13.268 37.1328 13.3079C37.1565 13.3478 37.1883 13.3827 37.2263 13.4103C37.2643 13.4379 37.3077 13.4578 37.3539 13.4686C37.4 13.4795 37.448 13.4811 37.4948 13.4734C37.5416 13.4658 37.5863 13.4489 37.6262 13.4239C37.6661 13.399 37.7004 13.3664 37.7269 13.3281C37.7534 13.2899 37.7716 13.2469 37.7804 13.2016L38.5632 10.2042C38.5773 10.1491 38.5781 10.0916 38.5656 10.0361C38.5531 9.9807 38.5276 9.92879 38.4911 9.88444C38.4544 9.83945 38.4073 9.80338 38.3537 9.7791C38.3 9.75482 38.2413 9.743 38.1821 9.74456C37.53 9.77633 36.9039 10.0032 36.39 10.394C35.257 11.1633 34.2374 12.4922 33.4649 13.0417C33.2795 13.1716 32.9705 13.0417 32.7027 12.9618C32.4349 12.8819 32.1775 12.722 32.1878 12.5222C32.2177 11.942 32.4061 11.3799 32.7336 10.8936C33.2643 10.1109 33.9137 9.41027 34.6597 8.81535C35.36 8.2008 36.2111 7.77079 37.1316 7.56642C38.0819 7.40168 39.0548 7.40168 40.0052 7.56642C40.925 7.77697 41.8571 7.93378 42.7964 8.03602C43.4824 8.12125 44.1781 8.09762 44.8563 7.96608C45.6142 7.86307 46.3573 7.67532 47.0707 7.40656C47.8132 7.08975 48.4823 6.631 49.0379 6.05771C49.4499 5.63807 49.7898 4.98862 50.2121 4.549C50.287 4.44674 50.3883 4.36527 50.5057 4.31269C50.6231 4.26011 50.7527 4.23824 50.8816 4.24925C51.218 4.27527 51.5313 4.42546 51.757 4.6689C51.9583 4.96283 52.0357 5.32042 51.9733 5.66804C51.8943 6.24682 51.6519 6.79315 51.273 7.24669C50.6371 8.01561 49.8874 8.689 49.0482 9.24499C48.4575 9.60971 47.8205 9.89854 47.1531 10.1043C46.524 10.3457 45.852 10.4645 45.1756 10.454C45.0005 10.454 44.6915 10.6138 44.4443 11.0235C44.0438 11.7459 43.7294 12.5101 43.507 13.3015C43.4877 13.3783 43.4993 13.4593 43.5395 13.528C43.5797 13.5968 43.6455 13.648 43.7233 13.6712C43.7612 13.6833 43.8012 13.6877 43.8409 13.6841C43.8806 13.6805 43.919 13.6689 43.9539 13.6501C43.9887 13.6313 44.0192 13.6058 44.0433 13.575C44.0674 13.5442 44.0847 13.509 44.0941 13.4714C44.3227 12.6585 44.6695 11.8813 45.1241 11.1633C45.8661 11.1772 46.605 11.0656 47.3076 10.8336C48.031 10.6116 48.723 10.3028 49.3675 9.91441C50.3334 9.34148 51.2019 8.62696 51.9424 7.79622C52.47 7.23557 52.8266 6.54374 52.9724 5.79793C53.063 5.22601 52.9308 4.64185 52.6016 4.15933C52.4192 3.92497 52.1904 3.72826 51.9287 3.58072C51.6669 3.43318 51.3775 3.33776 51.0773 3.30007C50.8451 3.25919 50.6066 3.26655 50.3776 3.32166C50.1485 3.37678 49.9342 3.47839 49.7486 3.61979C49.1846 4.14807 48.6614 4.71577 48.1831 5.31834C47.7253 5.77843 47.1749 6.14232 46.566 6.38743C46.0219 6.60364 45.4503 6.74814 44.8666 6.81706C45.4227 6.43004 45.8273 5.87165 46.0144 5.23296C46.2014 4.59426 46.1599 3.91293 45.8966 3.30007C45.6598 2.77789 45.3073 2.31283 44.8639 1.93805C44.4206 1.56327 43.8975 1.28802 43.3319 1.13192C42.9211 1.03342 42.4984 0.989723 42.0754 1.00203C41.6597 1.0247 41.2483 1.09513 40.8497 1.21185C40.3244 1.36896 39.8517 1.6592 39.4806 2.05262C39.1094 2.44604 38.8532 2.9284 38.7383 3.44994C38.6377 3.95301 38.6519 4.47135 38.7801 4.96851C38.9082 5.46566 39.1471 5.92953 39.4799 6.32748L39.552 6.39742C38.6535 6.28325 37.7418 6.31363 36.8535 6.48734C35.7671 6.73818 34.7664 7.258 33.949 7.99605C33.1404 8.67364 32.4455 9.46915 31.8891 10.354C31.4906 10.9945 31.2705 11.7244 31.2505 12.4722C31.2905 12.7639 31.4112 13.0396 31.5998 13.2701C31.7884 13.5006 32.0379 13.6772 32.3216 13.7811ZM39.8816 3.69972C39.9534 3.37172 40.1131 3.06788 40.3446 2.81881C40.576 2.56973 40.871 2.38421 41.1999 2.28094C41.5082 2.18611 41.8257 2.12249 42.1475 2.0911C42.4585 2.05107 42.7737 2.05107 43.0848 2.0911C43.5305 2.16004 43.9518 2.33475 44.3112 2.5997C44.6705 2.86465 44.9569 3.21163 45.1447 3.6098C45.9995 5.99776 42.1784 8.22586 40.3142 5.69802C40.0949 5.41635 39.9424 5.09119 39.8677 4.74577C39.7929 4.40034 39.7976 4.04316 39.8816 3.69972Z" fill="#040E07" stroke="#040E07" stroke-width="0.3"/>
<path d="M45.0918 18.7167C45.3397 19.6398 45.4609 20.5905 45.4523 21.5443C45.4663 22.2564 45.2964 22.9605 44.9579 23.5926C44.8669 23.7379 44.7324 23.8531 44.5724 23.9227C44.4124 23.9922 44.2343 24.013 44.0619 23.9822C43.8127 23.9644 43.5723 23.8853 43.3632 23.7524C43.1542 23.6196 42.9835 23.4374 42.8671 23.2229C42.5742 22.3559 42.3976 21.4559 42.3418 20.5452C42.222 19.8961 41.9148 19.2932 41.4561 18.8066C41.2688 18.6202 41.0444 18.4727 40.7965 18.373C40.5486 18.2734 40.2824 18.2238 40.0141 18.2271C39.4309 18.2334 38.8621 18.4034 38.3765 18.7167C37.7424 19.1538 37.1917 19.6948 36.7491 20.3154C36.1151 21.094 35.2697 21.6857 34.3081 22.0239C33.3567 22.3786 32.3035 22.3786 31.3521 22.0239C31.1573 21.9209 30.9926 21.7714 30.8737 21.5896C30.7548 21.4078 30.6855 21.1997 30.6724 20.9848C30.6376 20.8845 30.6242 20.7784 30.6331 20.6729C30.642 20.5675 30.6729 20.4649 30.724 20.3714C30.7751 20.2779 30.8452 20.1955 30.9302 20.1292C31.0152 20.0629 31.1132 20.014 31.2182 19.9856C31.9664 19.8329 32.6903 19.5842 33.3709 19.2463C34.0444 18.9246 34.66 18.4995 35.1939 17.9873C35.2505 17.9313 35.2822 17.856 35.2822 17.7775C35.2822 17.6991 35.2505 17.6237 35.1939 17.5677C35.166 17.5393 35.1324 17.5167 35.0953 17.5012C35.0581 17.4857 35.018 17.4778 34.9776 17.4778C34.9371 17.4778 34.8971 17.4857 34.8599 17.5012C34.8228 17.5167 34.7892 17.5393 34.7613 17.5677C34.2587 18.0294 33.681 18.4075 33.0516 18.6867C32.4112 18.9689 31.7362 19.1704 31.0431 19.2862C30.6392 19.3661 30.2833 19.5954 30.0507 19.9255C29.818 20.2556 29.727 20.6606 29.7969 21.0547C29.8081 21.4346 29.9201 21.8053 30.1222 22.1308C30.3243 22.4564 30.6096 22.7258 30.9504 22.9131C32.1098 23.3976 33.414 23.4439 34.6068 23.043C35.7833 22.6649 36.8257 21.9722 37.6143 21.0447C37.9681 20.5294 38.4065 20.0738 38.9121 19.6959C39.2182 19.5001 39.5754 19.3927 39.942 19.3861C40.0858 19.3894 40.2265 19.4267 40.3521 19.4945C40.4778 19.5624 40.5844 19.659 40.663 19.7758C40.8867 20.0732 41.0413 20.4141 41.1162 20.775C41.2193 21.7833 41.4583 22.7743 41.8268 23.7224C42.0249 24.0901 42.3199 24.4003 42.6818 24.6214C43.0436 24.8426 43.4594 24.9668 43.8868 24.9814C44.2507 25.0334 44.6222 24.9749 44.9505 24.8139C45.2787 24.6529 45.5476 24.3973 45.7201 24.0821C46.1155 23.2962 46.3064 22.4283 46.2763 21.5543C46.2437 20.5381 46.0741 19.5303 45.7716 18.5569C45.6503 18.2034 45.4805 17.8673 45.2669 17.5577C45.0918 17.218 44.237 17.268 44.4121 17.5577C44.713 17.8983 44.9437 18.2918 45.0918 18.7167Z" fill="#040E07" stroke="#040E07" stroke-width="0.3"/>
<path d="M51.7058 13.1816C51.6147 13.1842 51.5282 13.2211 51.4648 13.2845C51.4013 13.348 51.3658 13.4329 51.3659 13.5213C51.3935 13.958 51.3047 14.3942 51.108 14.788C50.9114 15.1817 50.6136 15.5197 50.2432 15.7694C49.4042 16.2062 48.4524 16.3972 47.5035 16.3189C46.0352 16.2601 44.5745 16.083 43.1365 15.7894C41.6533 15.5396 40.1599 15.2598 38.6665 15.1499C37.3428 15.0316 36.0088 15.0887 34.7011 15.3198C33.8977 15.4696 32.6412 15.7394 31.4155 16.0391C30.6224 16.239 29.85 16.4488 29.2423 16.6486C29.2005 16.6577 29.1611 16.675 29.1266 16.6996C29.092 16.7242 29.0632 16.7555 29.0418 16.7915C29.0204 16.8275 29.0069 16.8674 29.0023 16.9087C28.9977 16.95 29.0019 16.9918 29.0148 17.0315C29.0277 17.0711 29.049 17.1077 29.0772 17.1389C29.1055 17.1701 29.1401 17.1953 29.1789 17.2129C29.2178 17.2304 29.2599 17.24 29.3027 17.2409C29.3456 17.2418 29.3881 17.234 29.4277 17.2181C30.0251 17.0483 30.7872 16.8884 31.5803 16.7385C32.7854 16.5087 34.0522 16.3189 34.8556 16.219C36.0871 16.0746 37.332 16.0746 38.5635 16.219C40.0157 16.3788 41.3959 16.6286 42.8687 16.8085C44.402 17.0555 45.9502 17.2056 47.5035 17.2581C48.6317 17.3054 49.7472 17.0122 50.6964 16.4188C51.1785 16.0964 51.5633 15.6553 51.8113 15.1407C52.0593 14.6262 52.1615 14.0569 52.1075 13.4913C52.1038 13.4447 52.0902 13.3994 52.0676 13.3581C52.045 13.3169 52.0139 13.2806 51.9762 13.2515C51.9385 13.2224 51.895 13.2012 51.8485 13.1892C51.802 13.1772 51.7534 13.1746 51.7058 13.1816Z" fill="#A9D953" stroke="#A9D953" stroke-width="0.3"/>
</g>
<g opacity="0.2">
<path d="M60.3214 13.7811C60.5776 13.9158 60.8643 13.9863 61.1557 13.9863C61.447 13.9863 61.7338 13.9158 61.9899 13.7811C62.7933 13.1716 63.7306 11.8128 64.8532 10.9935C65.1042 10.8005 65.386 10.6486 65.6875 10.5439L65.1004 13.0417C65.0869 13.0859 65.0828 13.1323 65.0883 13.178C65.0938 13.2238 65.1089 13.268 65.1326 13.3079C65.1563 13.3478 65.1881 13.3827 65.2261 13.4103C65.2641 13.4379 65.3075 13.4578 65.3536 13.4686C65.3998 13.4795 65.4477 13.4811 65.4945 13.4734C65.5414 13.4658 65.5861 13.4489 65.626 13.4239C65.6659 13.399 65.7001 13.3664 65.7266 13.3281C65.7532 13.2899 65.7714 13.2469 65.7802 13.2016L66.563 10.2042C66.5771 10.1491 66.5779 10.0916 66.5654 10.0361C66.5529 9.9807 66.5274 9.92879 66.4909 9.88444C66.4541 9.83945 66.407 9.80338 66.3534 9.7791C66.2998 9.75482 66.2411 9.743 66.1819 9.74456C65.5297 9.77633 64.9037 10.0032 64.3898 10.394C63.2568 11.1633 62.2371 12.4922 61.4647 13.0417C61.2793 13.1716 60.9703 13.0417 60.7025 12.9618C60.4347 12.8819 60.1772 12.722 60.1875 12.5222C60.2175 11.942 60.4058 11.3799 60.7334 10.8936C61.2641 10.1109 61.9134 9.41027 62.6594 8.81535C63.3597 8.2008 64.2108 7.77079 65.1313 7.56642C66.0817 7.40168 67.0546 7.40168 68.0049 7.56642C68.9248 7.77697 69.8569 7.93378 70.7961 8.03602C71.4821 8.12125 72.1779 8.09762 72.856 7.96608C73.614 7.86307 74.357 7.67532 75.0705 7.40656C75.813 7.08975 76.482 6.631 77.0377 6.05771C77.4497 5.63807 77.7896 4.98862 78.2118 4.549C78.2868 4.44674 78.388 4.36527 78.5055 4.31269C78.6229 4.26011 78.7525 4.23824 78.8813 4.24925C79.2178 4.27527 79.5311 4.42546 79.7568 4.6689C79.958 4.96283 80.0354 5.32042 79.9731 5.66804C79.8941 6.24682 79.6517 6.79315 79.2727 7.24669C78.6368 8.01561 77.8871 8.689 77.048 9.24499C76.4572 9.60971 75.8202 9.89854 75.1529 10.1043C74.5238 10.3457 73.8518 10.4645 73.1753 10.454C73.0002 10.454 72.6912 10.6138 72.4441 11.0235C72.0436 11.7459 71.7291 12.5101 71.5068 13.3015C71.4874 13.3783 71.499 13.4593 71.5392 13.528C71.5795 13.5968 71.6452 13.648 71.7231 13.6712C71.7609 13.6833 71.801 13.6877 71.8406 13.6841C71.8803 13.6805 71.9188 13.6689 71.9536 13.6501C71.9885 13.6313 72.0189 13.6058 72.0431 13.575C72.0672 13.5442 72.0845 13.509 72.0939 13.4714C72.3225 12.6585 72.6693 11.8813 73.1238 11.1633C73.8659 11.1772 74.6047 11.0656 75.3074 10.8336C76.0308 10.6116 76.7227 10.3028 77.3673 9.91441C78.3331 9.34148 79.2017 8.62696 79.9422 7.79622C80.4697 7.23557 80.8263 6.54374 80.9721 5.79793C81.0628 5.22601 80.9306 4.64185 80.6014 4.15933C80.4189 3.92497 80.1902 3.72826 79.9284 3.58072C79.6667 3.43318 79.3772 3.33776 79.077 3.30007C78.8448 3.25919 78.6064 3.26655 78.3773 3.32166C78.1483 3.37678 77.9339 3.47839 77.7484 3.61979C77.1844 4.14807 76.6611 4.71577 76.1828 5.31834C75.725 5.77843 75.1746 6.14232 74.5658 6.38743C74.0216 6.60364 73.4501 6.74814 72.8663 6.81706C73.4225 6.43004 73.8271 5.87165 74.0141 5.23296C74.2012 4.59426 74.1596 3.91293 73.8963 3.30007C73.6596 2.77789 73.307 2.31283 72.8637 1.93805C72.4204 1.56327 71.8973 1.28802 71.3317 1.13192C70.9209 1.03342 70.4981 0.989723 70.0751 1.00203C69.6595 1.0247 69.248 1.09513 68.8495 1.21185C68.3241 1.36896 67.8515 1.6592 67.4803 2.05262C67.1092 2.44604 66.8529 2.9284 66.7381 3.44994C66.6374 3.95301 66.6517 4.47135 66.7798 4.96851C66.9079 5.46566 67.1468 5.92953 67.4796 6.32748L67.5517 6.39742C66.6533 6.28325 65.7415 6.31363 64.8532 6.48734C63.7669 6.73818 62.7662 7.258 61.9487 7.99605C61.1402 8.67364 60.4452 9.46915 59.8888 10.354C59.4903 10.9945 59.2703 11.7244 59.2502 12.4722C59.2902 12.7639 59.411 13.0396 59.5996 13.2701C59.7882 13.5006 60.0376 13.6772 60.3214 13.7811ZM67.8813 3.69972C67.9532 3.37172 68.1129 3.06788 68.3443 2.81881C68.5758 2.56973 68.8708 2.38421 69.1997 2.28094C69.5079 2.18611 69.8255 2.12249 70.1472 2.0911C70.4583 2.05107 70.7734 2.05107 71.0845 2.0911C71.5303 2.16004 71.9515 2.33475 72.3109 2.5997C72.6703 2.86465 72.9566 3.21163 73.1444 3.6098C73.9993 5.99776 70.1781 8.22586 68.3139 5.69802C68.0946 5.41635 67.9422 5.09119 67.8674 4.74577C67.7926 4.40034 67.7974 4.04316 67.8813 3.69972Z" fill="#040E07" stroke="#040E07" stroke-width="0.3"/>
<path d="M73.0916 18.7167C73.3395 19.6398 73.4607 20.5905 73.4521 21.5443C73.4661 22.2564 73.2961 22.9605 72.9577 23.5926C72.8666 23.7379 72.7322 23.8531 72.5722 23.9227C72.4121 23.9922 72.2341 24.013 72.0616 23.9822C71.8124 23.9644 71.572 23.8853 71.363 23.7524C71.154 23.6196 70.9833 23.4374 70.8669 23.2229C70.5739 22.3559 70.3974 21.4559 70.3416 20.5452C70.2217 19.8961 69.9146 19.2932 69.4558 18.8066C69.2686 18.6202 69.0442 18.4727 68.7963 18.373C68.5484 18.2734 68.2822 18.2238 68.0139 18.2271C67.4307 18.2334 66.8619 18.4034 66.3762 18.7167C65.7422 19.1538 65.1915 19.6948 64.7489 20.3154C64.1148 21.094 63.2695 21.6857 62.3079 22.0239C61.3565 22.3786 60.3033 22.3786 59.3519 22.0239C59.157 21.9209 58.9924 21.7714 58.8734 21.5896C58.7545 21.4078 58.6852 21.1997 58.6721 20.9848C58.6373 20.8845 58.624 20.7784 58.6329 20.6729C58.6418 20.5675 58.6727 20.4649 58.7237 20.3714C58.7748 20.2779 58.845 20.1955 58.93 20.1292C59.0149 20.0629 59.1129 20.014 59.218 19.9856C59.9662 19.8329 60.69 19.5842 61.3706 19.2463C62.0442 18.9246 62.6598 18.4995 63.1936 17.9873C63.2503 17.9313 63.282 17.856 63.282 17.7775C63.282 17.6991 63.2503 17.6237 63.1936 17.5677C63.1657 17.5393 63.1322 17.5167 63.095 17.5012C63.0578 17.4857 63.0178 17.4778 62.9774 17.4778C62.9369 17.4778 62.8969 17.4857 62.8597 17.5012C62.8225 17.5167 62.789 17.5393 62.7611 17.5677C62.2585 18.0294 61.6808 18.4075 61.0513 18.6867C60.411 18.9689 59.736 19.1704 59.0429 19.2862C58.639 19.3661 58.283 19.5954 58.0504 19.9255C57.8178 20.2556 57.7268 20.6606 57.7966 21.0547C57.8078 21.4346 57.9199 21.8053 58.1219 22.1308C58.324 22.4564 58.6093 22.7258 58.9502 22.9131C60.1096 23.3976 61.4138 23.4439 62.6066 23.043C63.783 22.6649 64.8255 21.9722 65.6141 21.0447C65.9679 20.5294 66.4063 20.0738 66.9118 19.6959C67.218 19.5001 67.5751 19.3927 67.9418 19.3861C68.0855 19.3894 68.2263 19.4267 68.3519 19.4945C68.4775 19.5624 68.5842 19.659 68.6627 19.7758C68.8864 20.0732 69.041 20.4141 69.1159 20.775C69.2191 21.7833 69.458 22.7743 69.8266 23.7224C70.0247 24.0901 70.3197 24.4003 70.6815 24.6214C71.0434 24.8426 71.4591 24.9668 71.8865 24.9814C72.2504 25.0334 72.622 24.9749 72.9502 24.8139C73.2785 24.6529 73.5473 24.3973 73.7199 24.0821C74.1152 23.2962 74.3062 22.4283 74.276 21.5543C74.2435 20.5381 74.0738 19.5303 73.7714 18.5569C73.65 18.2034 73.4803 17.8673 73.2667 17.5577C73.0916 17.218 72.2367 17.268 72.4118 17.5577C72.7127 17.8983 72.9435 18.2918 73.0916 18.7167Z" fill="#040E07" stroke="#040E07" stroke-width="0.3"/>
<path d="M79.7055 13.1816C79.6144 13.1842 79.528 13.2211 79.4645 13.2845C79.4011 13.348 79.3656 13.4329 79.3656 13.5213C79.3932 13.958 79.3044 14.3942 79.1078 14.788C78.9112 15.1817 78.6133 15.5197 78.243 15.7694C77.4039 16.2062 76.4521 16.3972 75.5033 16.3189C74.035 16.2601 72.5743 16.083 71.1362 15.7894C69.6531 15.5396 68.1597 15.2598 66.6662 15.1499C65.3426 15.0316 64.0086 15.0887 62.7009 15.3198C61.8975 15.4696 60.6409 15.7394 59.4153 16.0391C58.6222 16.239 57.8497 16.4488 57.2421 16.6486C57.2002 16.6577 57.1608 16.675 57.1263 16.6996C57.0918 16.7242 57.0629 16.7555 57.0415 16.7915C57.0201 16.8275 57.0067 16.8674 57.0021 16.9087C56.9974 16.95 57.0017 16.9918 57.0146 17.0315C57.0275 17.0711 57.0487 17.1077 57.077 17.1389C57.1052 17.1701 57.1399 17.1953 57.1787 17.2129C57.2175 17.2304 57.2597 17.24 57.3025 17.2409C57.3453 17.2418 57.3879 17.234 57.4274 17.2181C58.0248 17.0483 58.787 16.8884 59.5801 16.7385C60.7851 16.5087 62.052 16.3189 62.8553 16.219C64.0868 16.0746 65.3317 16.0746 66.5632 16.219C68.0155 16.3788 69.3956 16.6286 70.8685 16.8085C72.4017 17.0555 73.9499 17.2056 75.5033 17.2581C76.6314 17.3054 77.747 17.0122 78.6962 16.4188C79.1782 16.0964 79.563 15.6553 79.811 15.1407C80.059 14.6262 80.1613 14.0569 80.1072 13.4913C80.1035 13.4447 80.0899 13.3994 80.0674 13.3581C80.0448 13.3169 80.0137 13.2806 79.976 13.2515C79.9383 13.2224 79.8948 13.2012 79.8483 13.1892C79.8017 13.1772 79.7531 13.1746 79.7055 13.1816Z" fill="#A9D953" stroke="#A9D953" stroke-width="0.3"/>
</g>
</svg>
