<svg width="218" height="218" viewBox="0 0 218 218" fill="none" xmlns="http://www.w3.org/2000/svg">
<path d="M198.891 116.921L203.949 112.522L199.319 112.11L199.463 110.493L209.364 111.373L209.22 112.991L204.953 112.611L208.866 116.965L208.683 119.029L204.334 114.201L198.695 119.125L198.891 116.921Z" fill="#040E07"/>
<path d="M197.687 126.679L207.271 129.315L206.32 132.771C206.078 133.653 205.628 134.284 204.972 134.665C204.322 135.057 203.596 135.143 202.795 134.923C202.12 134.737 201.614 134.395 201.277 133.896C200.947 133.408 200.802 132.792 200.842 132.048L195.556 134.427L196.09 132.483L201.267 130.132L201.464 129.417L197.252 128.258L197.687 126.679ZM202.841 129.795L202.377 131.483C202.248 131.951 202.254 132.349 202.396 132.679C202.547 133.011 202.825 133.232 203.23 133.344C203.635 133.455 203.982 133.405 204.272 133.195C204.572 132.987 204.786 132.649 204.914 132.181L205.379 130.493L202.841 129.795Z" fill="#040E07"/>
<path d="M193.439 141.68L200.39 150.005L199.752 151.283L188.921 150.722L189.684 149.194L192.52 149.344L194.51 145.361L192.682 143.195L193.439 141.68ZM198.099 149.643L195.531 146.576L194.104 149.431L198.099 149.643Z" fill="#040E07"/>
<path d="M182.624 161.07L193.03 163.886L191.929 165.3L184.163 163.173L188.135 170.171L187.025 171.596L181.747 162.197L182.624 161.07Z" fill="#040E07"/>
<path d="M171.667 173.723L177.3 179.916L179.434 177.975L180.489 179.135L175 184.128L173.945 182.968L176.089 181.018L170.455 174.825L171.667 173.723Z" fill="#040E07"/>
<path d="M156.333 185.731L161.102 194.452L155.919 197.287L155.166 195.911L158.913 193.862L157.684 191.614L154.736 193.226L153.99 191.863L156.938 190.251L154.896 186.517L156.333 185.731Z" fill="#040E07"/>
<path d="M140.627 194.86C139.705 195.163 139.032 195.748 138.61 196.614C138.187 197.48 138.13 198.383 138.439 199.323C138.748 200.262 139.33 200.955 140.184 201.402C141.038 201.848 141.926 201.92 142.848 201.616C143.779 201.31 144.456 200.724 144.879 199.858C145.301 198.992 145.358 198.09 145.049 197.15C144.74 196.21 144.159 195.517 143.305 195.071C142.451 194.624 141.558 194.554 140.627 194.86ZM137.143 195.917C137.78 194.656 138.776 193.803 140.133 193.357C141.49 192.911 142.797 193.002 144.054 193.63C145.315 194.267 146.17 195.268 146.619 196.634C147.067 197.999 146.972 199.308 146.332 200.56C145.695 201.82 144.699 202.673 143.342 203.119C141.985 203.565 140.677 203.47 139.416 202.833C138.156 202.196 137.302 201.199 136.856 199.843C136.411 198.486 136.506 197.178 137.143 195.917Z" fill="#040E07"/>
<path d="M121.224 199.662C120.258 199.759 119.475 200.185 118.876 200.94C118.276 201.694 118.026 202.563 118.125 203.548C118.224 204.532 118.643 205.334 119.38 205.954C120.118 206.574 120.97 206.836 121.936 206.738C122.911 206.64 123.698 206.214 124.298 205.46C124.897 204.705 125.147 203.836 125.048 202.851C124.949 201.867 124.531 201.065 123.793 200.445C123.055 199.825 122.199 199.564 121.224 199.662ZM117.594 199.943C118.487 198.849 119.645 198.231 121.066 198.088C122.486 197.945 123.743 198.316 124.836 199.2C125.929 200.094 126.548 201.256 126.692 202.686C126.836 204.116 126.46 205.373 125.566 206.458C124.672 207.551 123.515 208.17 122.094 208.312C120.673 208.455 119.416 208.08 118.322 207.186C117.229 206.293 116.61 205.135 116.468 203.714C116.325 202.294 116.7 201.036 117.594 199.943Z" fill="#040E07"/>
<path d="M105.605 199.221L104.496 209.099L101.463 208.759C99.9979 208.594 98.8221 207.983 97.9358 206.926C97.0496 205.868 96.6851 204.639 96.8423 203.239C96.9995 201.838 97.6274 200.721 98.7261 199.886C99.8247 199.051 101.107 198.716 102.572 198.881L105.605 199.221ZM103.807 200.555L102.402 200.397C101.363 200.281 100.483 200.51 99.7606 201.087C99.0292 201.662 98.6083 202.441 98.4979 203.425C98.3875 204.408 98.6252 205.261 99.2108 205.984C99.7872 206.706 100.595 207.126 101.634 207.242L103.039 207.4L103.807 200.555Z" fill="#040E07"/>
<path d="M78.6805 196.649C78.9876 196.76 79.2155 196.967 79.3641 197.269C79.5008 197.576 79.5119 197.888 79.3974 198.204C79.2861 198.511 79.0794 198.739 78.7773 198.888C78.4665 199.033 78.1575 199.05 77.8504 198.939C77.5345 198.825 77.3082 198.613 77.1716 198.306C77.0261 197.995 77.009 197.686 77.1203 197.379C77.2348 197.063 77.4475 196.832 77.7583 196.687C78.0572 196.547 78.3646 196.534 78.6805 196.649Z" fill="#040E07"/>
<path d="M59.4216 184.268L60.9298 190.799L63.4679 186.905L64.8284 187.792L59.4005 196.119L58.04 195.233L60.3794 191.644L54.6974 193.054L52.9616 191.922L59.2671 190.35L57.5686 183.06L59.4216 184.268Z" fill="#040E07"/>
<path d="M51.2389 178.5L44.3913 185.705L41.7934 183.236C41.1304 182.606 40.7859 181.912 40.76 181.153C40.7209 180.395 40.9875 179.715 41.5598 179.113C42.042 178.605 42.5827 178.321 43.1819 178.259C43.7679 178.198 44.3794 178.361 45.0164 178.748L45.4139 172.964L46.8753 174.353L46.5047 180.027L47.0425 180.538L50.0516 177.372L51.2389 178.5ZM46.0588 181.573L44.7903 180.367C44.4385 180.033 44.0839 179.851 43.7266 179.82C43.3629 179.796 43.0364 179.937 42.7471 180.241C42.4578 180.546 42.3374 180.875 42.3861 181.231C42.4283 181.593 42.6253 181.941 42.9771 182.275L44.2456 183.481L46.0588 181.573Z" fill="#040E07"/>
<path d="M40.1768 167.873L29.5687 170.133L28.7371 168.972L34.2906 159.656L35.2852 161.044L33.8287 163.482L36.4212 167.102L39.1903 166.496L40.1768 167.873ZM30.9593 168.276L34.8706 167.437L33.0119 164.842L30.9593 168.276Z" fill="#040E07"/>
<path d="M28.0888 149.284L20.7337 157.165L19.9989 155.53L25.5104 149.66L17.4672 149.899L16.7266 148.252L27.5032 147.981L28.0888 149.284Z" fill="#040E07"/>
<path d="M22.048 133.756L13.9352 135.823L14.6471 138.617L13.1277 139.004L11.2959 131.814L12.8153 131.427L13.5308 134.235L21.6436 132.168L22.048 133.756Z" fill="#040E07"/>
<path d="M18.6243 114.534L8.685 114.649L8.61659 108.741L10.1845 108.723L10.2339 112.993L12.7958 112.963L12.7568 109.603L14.3107 109.585L14.3497 112.945L18.6054 112.896L18.6243 114.534Z" fill="#040E07"/>
<path d="M17.9535 96.0188C18.1207 95.0627 17.9221 94.1941 17.3575 93.4132C16.793 92.6322 16.0234 92.1565 15.0489 91.986C14.0744 91.8156 13.189 92.0018 12.3929 92.5447C11.5968 93.0877 11.1151 93.8372 10.9478 94.7934C10.779 95.7587 10.9768 96.6319 11.5414 97.4128C12.1059 98.1938 12.8755 98.6695 13.85 98.84C14.8245 99.0104 15.7099 98.8242 16.506 98.2813C17.3021 97.7383 17.7846 96.9842 17.9535 96.0188ZM18.6634 92.4477C19.4751 93.6036 19.7579 94.8848 19.5118 96.2914C19.2658 97.6981 18.5694 98.808 17.4228 99.6213C16.267 100.433 14.9812 100.715 13.5653 100.467C12.1495 100.22 11.0404 99.5187 10.2379 98.3645C9.42625 97.2086 9.14345 95.9274 9.38951 94.5208C9.63556 93.1141 10.3365 92.005 11.4923 91.1933C12.6481 90.3817 13.9293 90.0989 15.336 90.3449C16.7426 90.591 17.8518 91.2919 18.6634 92.4477Z" fill="#040E07"/>
<path d="M22.8263 76.6484C23.1977 75.7516 23.1929 74.8606 22.812 73.9755C22.431 73.0903 21.7835 72.4585 20.8695 72.0799C19.9555 71.7013 19.0508 71.6903 18.1556 72.0469C17.2603 72.4035 16.627 73.0301 16.2556 73.9269C15.8806 74.8323 15.8835 75.7276 16.2645 76.6128C16.6454 77.4979 17.2929 78.1298 18.207 78.5083C19.121 78.8869 20.0256 78.8979 20.9209 78.5414C21.8161 78.1848 22.4513 77.5538 22.8263 76.6484ZM24.2967 73.3176C24.8373 74.6224 24.8343 75.9344 24.2879 77.2538C23.7414 78.5731 22.8201 79.5048 21.5239 80.0489C20.2191 80.5894 18.9027 80.5846 17.5748 80.0346C16.2469 79.4846 15.317 78.559 14.7851 77.2577C14.2446 75.9529 14.2475 74.6409 14.794 73.3216C15.3404 72.0022 16.266 71.0723 17.5708 70.5318C18.8756 69.9913 20.1877 69.9943 21.507 70.5407C22.8263 71.0871 23.7562 72.0128 24.2967 73.3176Z" fill="#040E07"/>
<path d="M30.2033 63.6909L21.9975 58.0812L23.7198 55.5617C24.5521 54.3443 25.6429 53.592 26.9924 53.3048C28.3419 53.0177 29.5984 53.2718 30.7619 54.0671C31.9253 54.8625 32.6182 55.941 32.8405 57.3027C33.0629 58.6644 32.7579 59.9539 31.9257 61.1713L30.2033 63.6909ZM29.8679 61.4774L30.6659 60.3101C31.2558 59.4472 31.4655 58.5616 31.2948 57.6536C31.1295 56.7378 30.6384 56.0008 29.8217 55.4425C29.005 54.8841 28.1399 54.6941 27.2266 54.8725C26.3185 55.0431 25.5695 55.5599 24.9796 56.4229L24.1816 57.5902L29.8679 61.4774Z" fill="#040E07"/>
<path d="M45.1686 40.9257C44.9261 41.1446 44.6367 41.2488 44.3002 41.2383C43.9644 41.2146 43.6839 41.078 43.4587 40.8287C43.2397 40.5862 43.1355 40.2968 43.1461 39.9603C43.1635 39.6176 43.2935 39.3367 43.5359 39.1178C43.7853 38.8926 44.0778 38.7918 44.4137 38.8155C44.7564 38.833 45.0372 38.9629 45.2562 39.2054C45.4814 39.4547 45.5853 39.7508 45.5678 40.0935C45.551 40.4231 45.4179 40.7005 45.1686 40.9257Z" fill="#040E07"/>
<path d="M65.054 29.6585L58.5734 27.9455L60.8335 32.0071L59.4144 32.7967L54.5811 24.1109L56.0002 23.3213L58.0833 27.0647L59.4867 21.3812L61.2973 20.3737L59.746 26.6842L66.9869 28.5829L65.054 29.6585Z" fill="#040E07"/>
<path d="M73.9166 25.0947L70.7415 15.6754L74.1377 14.5306C75.0045 14.2384 75.7793 14.258 76.4622 14.5892C77.151 14.9086 77.628 15.4618 77.8934 16.249C78.117 16.9123 78.1161 17.5233 77.8907 18.0818C77.6712 18.6286 77.2418 19.0934 76.6027 19.4763L81.5316 22.5278L79.6212 23.1717L74.7766 20.1953L74.0735 20.4323L75.4688 24.5715L73.9166 25.0947ZM73.6174 19.0791L75.2757 18.5201C75.7356 18.3651 76.0624 18.1367 76.2562 17.835C76.447 17.5245 76.4753 17.1702 76.3412 16.7722C76.207 16.3742 75.9715 16.1138 75.6346 15.991C75.2947 15.8593 74.8949 15.871 74.435 16.026L72.7766 16.585L73.6174 19.0791Z" fill="#040E07"/>
<path d="M88.2174 20.2861L91.1818 9.85292L92.5968 9.66095L98.2337 18.9273L96.5412 19.1569L95.0674 16.729L90.6558 17.3275L89.896 20.0584L88.2174 20.2861ZM92.1728 11.9507L91.0844 15.8L94.2474 15.3709L92.1728 11.9507Z" fill="#040E07"/>
<path d="M111.169 18.2519L107.696 8.0464L109.484 8.17074L112.055 15.8015L115.643 8.59912L117.445 8.72443L112.593 18.351L111.169 18.2519Z" fill="#040E07"/>
<path d="M127.709 20.2247L129.714 12.0964L126.914 11.4056L127.29 9.88327L134.494 11.6604L134.118 13.1827L131.305 12.4887L129.3 20.617L127.709 20.2247Z" fill="#040E07"/>
<path d="M145.973 26.0905L150.547 17.2656L155.792 19.9845L155.071 21.3766L151.28 19.4115L150.101 21.6861L153.084 23.2324L152.368 24.6121L149.385 23.0658L147.427 26.8443L145.973 26.0905Z" fill="#040E07"/>
<path d="M162.586 34.1521C163.352 34.7485 164.212 34.9808 165.167 34.8488C166.121 34.7169 166.903 34.2606 167.511 33.4801C168.119 32.6996 168.37 31.8304 168.264 30.8726C168.158 29.9148 167.722 29.1377 166.957 28.5412C166.183 27.939 165.32 27.7039 164.365 27.8358C163.41 27.9678 162.629 28.424 162.021 29.2045C161.413 29.9851 161.162 30.8542 161.268 31.812C161.374 32.7699 161.813 33.5499 162.586 34.1521ZM165.406 36.4551C164.005 36.6293 162.741 36.2776 161.614 35.4001C160.488 34.5227 159.834 33.3868 159.654 31.9927C159.48 30.5911 159.835 29.3234 160.718 28.1894C161.601 27.0555 162.741 26.4051 164.136 26.2382C165.538 26.064 166.802 26.4156 167.929 27.2931C169.055 28.1706 169.706 29.3101 169.88 30.7116C170.054 32.1132 169.702 33.3773 168.825 34.5038C167.947 35.6304 166.808 36.2808 165.406 36.4551Z" fill="#040E07"/>
<path d="M177.561 47.6819C178.18 48.43 178.969 48.843 179.93 48.9208C180.89 48.9986 181.752 48.7223 182.514 48.0919C183.277 47.4614 183.71 46.6672 183.814 45.7092C183.918 44.7512 183.661 43.8982 183.042 43.1501C182.418 42.3948 181.626 41.9783 180.665 41.9005C179.705 41.8227 178.843 42.099 178.081 42.7294C177.318 43.3598 176.885 44.154 176.781 45.112C176.677 46.07 176.937 46.9267 177.561 47.6819ZM179.816 50.5408C178.41 50.4075 177.252 49.7905 176.342 48.69C175.432 47.5895 175.04 46.3391 175.166 44.9391C175.3 43.533 175.92 42.3721 177.028 41.4562C178.136 40.5403 179.389 40.152 180.788 40.2913C182.194 40.4246 183.352 41.0415 184.262 42.142C185.172 43.2426 185.56 44.4959 185.427 45.9019C185.293 47.3079 184.676 48.4659 183.576 49.3758C182.475 50.2858 181.222 50.6741 179.816 50.5408Z" fill="#040E07"/>
<path d="M185.507 60.1858L194.298 55.5463L195.722 58.2454C196.411 59.5496 196.567 60.8655 196.191 62.193C195.815 63.5206 195.004 64.5133 193.758 65.1711C192.511 65.8289 191.234 65.9384 189.926 65.4995C188.618 65.0607 187.62 64.1891 186.932 62.885L185.507 60.1858ZM187.621 60.9222L188.281 62.1727C188.769 63.0972 189.454 63.6958 190.337 63.9687C191.224 64.2498 192.105 64.1595 192.98 63.6977C193.855 63.2359 194.427 62.5595 194.695 61.6685C194.968 60.7858 194.861 59.8822 194.373 58.9577L193.713 57.7072L187.621 60.9222Z" fill="#040E07"/>
<path d="M198.672 84.1967C198.593 83.8798 198.636 83.5753 198.804 83.2832C198.982 82.9979 199.235 82.8143 199.561 82.7326C199.877 82.6532 200.182 82.6971 200.474 82.8644C200.768 83.0408 200.955 83.2874 201.035 83.6043C201.117 83.9302 201.068 84.2358 200.889 84.5212C200.713 84.8156 200.466 85.0025 200.15 85.0819C199.824 85.1636 199.514 85.1163 199.219 84.9399C198.936 84.7704 198.754 84.5226 198.672 84.1967Z" fill="#040E07"/>
</svg>
