<svg width="48" height="48" viewBox="0 0 48 48" fill="none" xmlns="http://www.w3.org/2000/svg">
<g id="Stockholm-icons / Communication / Group-chat">
<path id="Combined Shape" fill-rule="evenodd" clip-rule="evenodd" d="M45.1887 37.1421C45.5042 37.4577 46.0438 37.2331 46.0422 36.7868L46.0045 26.2105V11.0526C46.0045 8.26214 43.7424 6 40.9519 6H17.3729C14.5825 6 12.3203 8.26214 12.3203 11.0526V18H29C30.6569 18 32 19.3431 32 21V31.2632H39.3097L45.1887 37.1421Z" fill="#A9D953"/>
<path id="Combined Shape_2" fill-rule="evenodd" clip-rule="evenodd" d="M3.96875 36V26C3.96875 23.7909 5.75961 22 7.96875 22H23.9688C26.1779 22 27.9688 23.7909 27.9688 26V36C27.9688 38.2091 26.1779 40 23.9688 40H8.20021L4.86678 43.1905C4.54878 43.4949 4.02105 43.2695 4.02105 42.8293V36.6485C3.98664 36.4374 3.96875 36.2208 3.96875 36ZM12 28.5C12 28.2239 12.2239 28 12.5 28H23.5C23.7761 28 24 28.2239 24 28.5V29.5C24 29.7761 23.7761 30 23.5 30H12.5C12.2239 30 12 29.7761 12 29.5V28.5ZM18.5 32C18.2239 32 18 32.2239 18 32.5V33.5C18 33.7761 18.2239 34 18.5 34H23.5C23.7761 34 24 33.7761 24 33.5V32.5C24 32.2239 23.7761 32 23.5 32H18.5Z" fill="#A9D953"/>
</g>
</svg>
