<svg width="48" height="48" viewBox="0 0 48 48" fill="none" xmlns="http://www.w3.org/2000/svg">
<path opacity="0.4" d="M38.6969 11.3199L26.1169 4.54C24.7969 3.82 23.1969 3.82 21.8569 4.54L9.27692 11.3199C8.35692 11.8199 7.79688 12.8 7.79688 13.88C7.79688 14.96 8.35692 15.9399 9.27692 16.4399L21.8569 23.2199C22.5169 23.5799 23.2569 23.76 23.9769 23.76C24.6969 23.76 25.4369 23.5799 26.0969 23.2199L38.6769 16.4399C39.5969 15.9399 40.1569 14.96 40.1569 13.88C40.1969 12.8 39.6169 11.8199 38.6969 11.3199Z" fill="#A9D953"/>
<path opacity="0.4" d="M19.7975 25.5798L8.09747 19.7198C7.19747 19.2598 6.15749 19.3198 5.29749 19.8398C4.43749 20.3598 3.9375 21.2798 3.9375 22.2798V33.3398C3.9375 35.2598 4.99747 36.9798 6.71747 37.8398L18.4175 43.6799C18.8175 43.8799 19.2575 43.9798 19.6975 43.9798C20.2175 43.9798 20.7375 43.8398 21.1975 43.5398C22.0575 43.0198 22.5575 42.0998 22.5575 41.0998V30.0398C22.5775 28.1598 21.5175 26.4398 19.7975 25.5798Z" fill="#A9D953"/>
<path opacity="0.4" d="M44.0619 22.3003V31.4802C44.0419 31.4602 44.0219 31.4203 44.0019 31.4003C44.0019 31.3803 43.9819 31.3602 43.9619 31.3402C43.8819 31.2202 43.7819 31.1003 43.6819 31.0003C43.6619 30.9803 43.6419 30.9403 43.6219 30.9203C42.0019 29.1203 39.6219 28.0003 37.0019 28.0003C34.4819 28.0003 32.1819 29.0402 30.5419 30.7202C28.9619 32.3402 28.0019 34.5603 28.0019 37.0003C28.0019 38.6803 28.4819 40.2803 29.3019 41.6403C29.6419 42.2203 30.0619 42.7402 30.5219 43.2202L29.5819 43.7002C29.1819 43.9002 28.7419 44.0003 28.3019 44.0003C27.7819 44.0003 27.2619 43.8603 26.7819 43.5603C25.9419 43.0403 25.4219 42.1203 25.4219 41.1203V30.0802C25.4219 28.1602 26.4819 26.4402 28.2019 25.5802L39.9019 19.7403C40.8019 19.2803 41.8419 19.3202 42.7019 19.8602C43.5419 20.3802 44.0619 21.3003 44.0619 22.3003Z" fill="#A9D953"/>
<path d="M43.96 31.34C42.32 29.32 39.82 28.04 37 28.04C34.88 28.04 32.92 28.78 31.38 30.02C29.3 31.66 28 34.2 28 37.04C28 38.72 28.48 40.3201 29.3 41.6801C29.84 42.5801 30.52 43.36 31.32 44H31.34C32.88 45.28 34.86 46.04 37 46.04C39.28 46.04 41.34 45.2 42.92 43.8C43.62 43.2 44.22 42.4801 44.7 41.6801C45.52 40.3201 46 38.72 46 37.04C46 34.88 45.24 32.88 43.96 31.34ZM41.52 35.92L36.72 40.36C36.44 40.62 36.06 40.76 35.7 40.76C35.32 40.76 34.94 40.6199 34.64 40.3199L32.42 38.1C31.84 37.52 31.84 36.56 32.42 35.98C33 35.4 33.96 35.4 34.54 35.98L35.74 37.1801L39.48 33.72C40.08 33.16 41.04 33.2 41.6 33.8C42.18 34.42 42.14 35.36 41.52 35.92Z" fill="#A9D953"/>
</svg>
