<svg width="275" height="275" viewBox="0 0 275 275" fill="none" xmlns="http://www.w3.org/2000/svg">
<path d="M255.844 145.46C256.467 144.978 257.052 144.528 257.6 144.109C258.148 143.69 258.684 143.279 259.207 142.877L261.87 140.829L261.909 139.975L263.6 140.053L263.561 140.889L265.595 142.885C266.071 143.357 266.545 143.821 267.017 144.275C267.494 144.736 268.046 145.272 268.672 145.883L268.556 148.383C267.908 147.728 267.271 147.089 266.645 146.465C266.025 145.848 265.399 145.227 264.767 144.603L262.39 142.241L263.327 142.248L260.226 144.609C259.752 144.978 259.242 145.368 258.694 145.781C258.146 146.201 257.611 146.608 257.088 147.004C256.571 147.407 256.116 147.758 255.724 148.058L255.844 145.46ZM256.199 137.8C256.906 137.833 257.586 137.865 258.24 137.895C258.893 137.925 259.618 137.959 260.415 137.996L264.731 138.196C265.546 138.234 266.286 138.268 266.951 138.299C267.617 138.329 268.306 138.361 269.019 138.394L268.922 140.498C268.208 140.465 267.519 140.433 266.854 140.402C266.189 140.372 265.448 140.337 264.633 140.299L260.318 140.1C259.521 140.063 258.796 140.029 258.142 139.999C257.489 139.968 256.809 139.937 256.101 139.904L256.199 137.8Z" fill="#040E07"/>
<path d="M255.636 148.883C256.337 148.981 257.011 149.075 257.659 149.166C258.307 149.256 259.026 149.356 259.816 149.467L264.104 150.065C264.9 150.176 265.631 150.278 266.296 150.371C266.962 150.464 267.645 150.56 268.346 150.657C268.297 151.014 268.239 151.43 268.172 151.905C268.106 152.381 268.035 152.892 267.958 153.438C267.881 153.991 267.801 154.567 267.717 155.168C267.578 156.16 267.346 156.976 267.021 157.615C266.701 158.255 266.26 158.708 265.695 158.975C265.137 159.242 264.424 159.315 263.556 159.194C262.849 159.096 262.224 158.866 261.681 158.505C261.136 158.151 260.73 157.634 260.461 156.954C260.199 156.275 260.139 155.403 260.281 154.339L261.06 155.202L258.272 156.757C257.838 157 257.378 157.257 256.892 157.528C256.406 157.799 255.93 158.063 255.464 158.319C254.997 158.581 254.583 158.811 254.222 159.009L254.56 156.594C255.136 156.286 255.689 155.988 256.22 155.699C256.756 155.416 257.28 155.138 257.791 154.864L261.149 153.07L259.885 154.184L260.294 151.251L261.997 151.489L261.674 153.797C261.584 154.445 261.584 154.99 261.673 155.433C261.768 155.882 261.973 156.235 262.289 156.491C262.604 156.753 263.049 156.924 263.626 157.005C264.095 157.07 264.477 157.048 264.771 156.937C265.065 156.827 265.297 156.66 265.468 156.435C265.638 156.216 265.764 155.967 265.845 155.688C265.926 155.408 265.986 155.132 266.024 154.859L266.561 151.017L267.739 152.663C267.009 152.561 266.313 152.464 265.654 152.372C264.994 152.28 264.275 152.179 263.497 152.071L259.53 151.517C258.74 151.407 258.021 151.306 257.373 151.216C256.725 151.125 256.051 151.031 255.35 150.933L255.636 148.883Z" fill="#040E07"/>
<path d="M254.27 159.055C254.884 159.451 255.53 159.868 256.208 160.304C256.887 160.74 257.529 161.158 258.136 161.559L262.061 164.085C262.764 164.546 263.398 164.959 263.964 165.325C264.536 165.692 265.109 166.063 265.685 166.437L265.038 169.105C264.336 169.175 263.65 169.241 262.981 169.3C262.311 169.366 261.561 169.441 260.732 169.523L256.079 169.959C255.333 170.032 254.565 170.105 253.775 170.178C252.99 170.26 252.237 170.333 251.518 170.399L252.035 168.265C252.796 168.209 253.576 168.151 254.374 168.092C255.179 168.034 255.939 167.978 256.656 167.923L263.542 167.408L263.584 167.233L257.768 163.609C257.135 163.214 256.472 162.803 255.78 162.376C255.087 161.949 254.416 161.533 253.767 161.128L254.27 159.055ZM256.587 162.331L258.115 162.906L256.646 168.958L255.034 168.733L256.587 162.331Z" fill="#040E07"/>
<path d="M249.968 175.006C250.646 175.014 251.369 175.019 252.137 175.021C252.904 175.028 253.613 175.035 254.266 175.04L258.518 175.069C259.005 175.074 259.532 175.077 260.097 175.078C260.667 175.086 261.246 175.092 261.836 175.095C262.424 175.103 262.988 175.11 263.527 175.114L262.754 177.322C261.829 177.298 260.841 177.267 259.793 177.231C258.747 177.202 257.766 177.173 256.848 177.145L251.573 176.988L251.514 177.158L255.753 180.356C256.502 180.923 257.282 181.511 258.093 182.119C258.902 182.732 259.688 183.328 260.452 183.906L259.703 186.047C259.273 185.713 258.829 185.367 258.369 185.009C257.915 184.653 257.464 184.298 257.016 183.944C256.571 183.598 256.156 183.275 255.772 182.975L252.403 180.339C251.884 179.934 251.325 179.497 250.726 179.027C250.131 178.565 249.565 178.122 249.026 177.699L249.968 175.006Z" fill="#040E07"/>
<path d="M245.837 185.61C246.48 185.906 247.099 186.189 247.694 186.462C248.288 186.735 248.948 187.037 249.674 187.37L253.314 189.039C254.05 189.377 254.721 189.685 255.327 189.962C255.937 190.242 256.565 190.53 257.208 190.825L255.468 190.928L256.132 189.48C256.427 188.837 256.688 188.267 256.916 187.77C257.144 187.274 257.36 186.802 257.565 186.355L259.259 187.132L254.873 196.695L253.179 195.918C253.382 195.477 253.597 195.008 253.825 194.511C254.052 194.015 254.315 193.442 254.613 192.793L255.277 191.345L256.33 192.739C255.687 192.444 255.06 192.157 254.449 191.877C253.843 191.599 253.173 191.291 252.436 190.954L248.796 189.284C248.07 188.952 247.411 188.649 246.816 188.376C246.222 188.104 245.603 187.82 244.959 187.525L245.837 185.61Z" fill="#040E07"/>
<path d="M240.682 195.908C241.286 196.278 241.867 196.632 242.425 196.973C242.983 197.314 243.603 197.693 244.284 198.109L247.971 200.36C248.667 200.786 249.299 201.172 249.868 201.519C250.436 201.866 251.025 202.226 251.634 202.598L247.45 209.449L245.921 208.516C246.225 208.019 246.55 207.486 246.897 206.918C247.244 206.35 247.654 205.679 248.126 204.906L249.482 202.686L250.279 204.196C249.675 203.827 249.086 203.467 248.512 203.117C247.944 202.77 247.314 202.385 246.623 201.963L243.205 199.875C242.524 199.459 241.904 199.081 241.346 198.74C240.788 198.399 240.207 198.044 239.603 197.675L240.682 195.908ZM244.571 200.108L246.045 201.009L244.83 202.998C244.405 203.695 244.039 204.294 243.733 204.796C243.426 205.297 243.131 205.781 242.846 206.247L241.371 205.346C241.675 204.85 241.98 204.351 242.286 203.849C242.59 203.352 242.948 202.766 243.36 202.09L244.571 200.108Z" fill="#040E07"/>
<path d="M232.134 208.428C232.807 207.537 233.534 206.869 234.316 206.421C235.094 205.979 235.894 205.726 236.716 205.663C237.535 205.605 238.344 205.709 239.143 205.975C239.943 206.24 240.697 206.641 241.405 207.176C242.396 207.925 243.141 208.8 243.64 209.802C244.141 210.811 244.334 211.879 244.221 213.004C244.109 214.138 243.628 215.267 242.777 216.392C242.134 217.244 241.431 217.89 240.67 218.33C239.905 218.775 239.114 219.031 238.296 219.097C237.48 219.172 236.668 219.078 235.86 218.813C235.052 218.548 234.28 218.138 233.543 217.581C232.533 216.817 231.78 215.932 231.284 214.926C230.789 213.92 230.6 212.856 230.718 211.735C230.837 210.621 231.309 209.519 232.134 208.428ZM233.583 209.466C233.138 210.055 232.858 210.644 232.743 211.234C232.628 211.824 232.646 212.398 232.796 212.955C232.947 213.513 233.203 214.034 233.566 214.519C233.926 215.009 234.359 215.445 234.867 215.829C235.412 216.241 235.976 216.55 236.557 216.756C237.138 216.962 237.716 217.053 238.291 217.029C238.863 217.01 239.407 216.861 239.926 216.583C240.449 216.309 240.922 215.892 241.345 215.332C241.783 214.753 242.061 214.17 242.181 213.584C242.301 212.997 242.289 212.421 242.146 211.854C241.999 211.291 241.748 210.763 241.392 210.269C241.036 209.774 240.598 209.33 240.076 208.935C239.559 208.545 239.016 208.243 238.446 208.031C237.877 207.819 237.304 207.717 236.727 207.724C236.151 207.74 235.593 207.887 235.053 208.163C234.518 208.443 234.028 208.877 233.583 209.466Z" fill="#040E07"/>
<path d="M223.141 219.051C223.913 218.245 224.713 217.665 225.541 217.312C226.366 216.963 227.19 216.805 228.014 216.838C228.833 216.875 229.625 217.072 230.388 217.429C231.151 217.786 231.854 218.271 232.495 218.885C233.392 219.744 234.03 220.7 234.41 221.753C234.789 222.814 234.858 223.896 234.614 225.001C234.371 226.114 233.762 227.179 232.787 228.198C232.049 228.969 231.276 229.529 230.469 229.878C229.657 230.231 228.842 230.393 228.022 230.364C227.203 230.344 226.407 230.155 225.635 229.799C224.864 229.442 224.144 228.944 223.477 228.305C222.562 227.43 221.917 226.464 221.542 225.407C221.167 224.35 221.103 223.271 221.351 222.171C221.598 221.079 222.195 220.039 223.141 219.051ZM224.46 220.251C223.949 220.784 223.603 221.337 223.42 221.909C223.237 222.482 223.188 223.054 223.273 223.625C223.358 224.196 223.552 224.743 223.856 225.267C224.156 225.795 224.536 226.279 224.995 226.719C225.49 227.192 226.013 227.565 226.567 227.837C227.12 228.109 227.684 228.267 228.257 228.309C228.827 228.356 229.385 228.272 229.932 228.056C230.484 227.845 231.002 227.486 231.487 226.979C231.99 226.454 232.334 225.908 232.521 225.339C232.708 224.771 232.764 224.197 232.687 223.617C232.607 223.042 232.419 222.488 232.123 221.955C231.827 221.423 231.443 220.93 230.97 220.478C230.502 220.03 229.998 219.667 229.457 219.391C228.916 219.114 228.359 218.946 227.785 218.886C227.211 218.835 226.639 218.915 226.071 219.127C225.507 219.343 224.97 219.718 224.46 220.251Z" fill="#040E07"/>
<path d="M217.53 225.018C217.985 225.56 218.423 226.082 218.843 226.583C219.264 227.084 219.73 227.64 220.243 228.251L223.02 231.56C223.545 232.186 224.021 232.753 224.449 233.263C224.877 233.773 225.321 234.302 225.78 234.849C225.38 235.185 224.982 235.518 224.587 235.85C224.187 236.185 223.787 236.521 223.387 236.856C222.988 237.192 222.579 237.535 222.16 237.886C221.406 238.519 220.645 238.97 219.876 239.239C219.107 239.516 218.342 239.614 217.583 239.53C216.828 239.451 216.094 239.198 215.382 238.769C214.665 238.344 213.983 237.746 213.335 236.974C212.752 236.28 212.303 235.553 211.986 234.792C211.669 234.041 211.523 233.27 211.55 232.48C211.571 231.694 211.805 230.899 212.25 230.095C212.695 229.29 213.389 228.493 214.331 227.702C214.74 227.359 215.122 227.039 215.476 226.742C215.829 226.445 216.174 226.156 216.51 225.874C216.841 225.596 217.181 225.311 217.53 225.018ZM217.021 227.701L215.435 229.032C214.585 229.745 214.04 230.473 213.8 231.214C213.561 231.955 213.562 232.694 213.804 233.431C214.047 234.168 214.461 234.885 215.047 235.584C215.494 236.117 215.964 236.546 216.455 236.87C216.95 237.198 217.462 237.403 217.992 237.483C218.525 237.568 219.071 237.518 219.628 237.333C220.185 237.147 220.753 236.811 221.332 236.325L223.049 234.885C222.744 234.522 222.438 234.156 222.129 233.789C221.824 233.426 221.487 233.023 221.117 232.582L218.918 229.962C218.556 229.53 218.222 229.133 217.917 228.77C217.617 228.411 217.318 228.055 217.021 227.701Z" fill="#040E07"/>
<path d="M205.887 239.547C206.121 239.389 206.355 239.301 206.588 239.282C206.824 239.267 207.045 239.311 207.25 239.411C207.453 239.52 207.629 239.684 207.776 239.903C207.997 240.232 208.073 240.564 208.002 240.901C207.927 241.241 207.716 241.528 207.367 241.762C207.133 241.92 206.9 242.008 206.667 242.027C206.437 242.052 206.223 242.012 206.022 241.908C205.822 241.804 205.65 241.645 205.506 241.431C205.288 241.107 205.207 240.771 205.262 240.423C205.321 240.08 205.529 239.788 205.887 239.547Z" fill="#040E07"/>
<path d="M190.413 243.618C191.145 243.908 191.832 244.182 192.472 244.439C193.112 244.696 193.738 244.947 194.351 245.192L197.471 246.437L198.226 246.035L199.021 247.528L198.282 247.922L197.604 250.689C197.441 251.34 197.285 251.984 197.135 252.622C196.982 253.267 196.803 254.015 196.596 254.866L194.388 256.042C194.62 255.15 194.845 254.276 195.062 253.42C195.276 252.571 195.49 251.716 195.704 250.854L196.523 247.604L196.994 248.414L193.382 246.952C192.823 246.733 192.226 246.493 191.592 246.233C190.952 245.976 190.328 245.724 189.72 245.476C189.11 245.237 188.576 245.025 188.117 244.841L190.413 243.618ZM197.181 240.014C197.514 240.639 197.834 241.24 198.142 241.817C198.449 242.395 198.79 243.035 199.165 243.74L201.196 247.553C201.579 248.273 201.928 248.927 202.241 249.515C202.554 250.103 202.878 250.712 203.214 251.342L201.355 252.332C201.019 251.702 200.695 251.093 200.382 250.505C200.069 249.917 199.721 249.263 199.337 248.543L197.307 244.73C196.931 244.025 196.59 243.385 196.283 242.807C195.975 242.23 195.655 241.629 195.323 241.004L197.181 240.014Z" fill="#040E07"/>
<path d="M187.192 245.252C187.463 245.906 187.723 246.535 187.974 247.139C188.224 247.744 188.502 248.414 188.807 249.152L190.464 253.151C190.771 253.894 191.054 254.576 191.311 255.197C191.568 255.817 191.832 256.455 192.103 257.109C191.77 257.247 191.382 257.407 190.939 257.591C190.495 257.775 190.019 257.972 189.509 258.183C188.993 258.397 188.455 258.62 187.895 258.852C186.97 259.235 186.149 259.448 185.433 259.492C184.719 259.54 184.105 259.389 183.589 259.038C183.075 258.692 182.651 258.114 182.316 257.305C182.043 256.645 181.924 255.99 181.959 255.339C181.989 254.69 182.229 254.077 182.679 253.501C183.131 252.931 183.852 252.438 184.842 252.021L184.493 253.13L181.739 251.514C181.31 251.263 180.856 250.997 180.375 250.715C179.895 250.433 179.427 250.157 178.97 249.885C178.507 249.615 178.099 249.375 177.746 249.164L179.999 248.231C180.556 248.572 181.094 248.898 181.612 249.209C182.128 249.528 182.633 249.838 183.128 250.14L186.376 252.126L184.775 251.601L187.511 250.468L188.169 252.056L186.015 252.948C185.411 253.198 184.941 253.474 184.605 253.776C184.265 254.085 184.065 254.441 184.004 254.843C183.938 255.247 184.016 255.718 184.239 256.255C184.42 256.693 184.633 257.011 184.877 257.209C185.121 257.406 185.383 257.522 185.663 257.555C185.938 257.591 186.216 257.573 186.498 257.501C186.781 257.43 187.049 257.342 187.304 257.236L190.888 255.752L190.066 257.602C189.784 256.92 189.515 256.271 189.261 255.656C189.006 255.041 188.728 254.37 188.427 253.644L186.895 249.944C186.589 249.206 186.311 248.536 186.061 247.931C185.811 247.327 185.55 246.698 185.279 246.044L187.192 245.252Z" fill="#040E07"/>
<path d="M177.78 249.206C177.751 249.936 177.721 250.704 177.69 251.51C177.659 252.315 177.625 253.081 177.588 253.807L177.406 258.472C177.367 259.311 177.333 260.068 177.306 260.741C177.28 261.42 177.252 262.102 177.222 262.789L174.596 263.586C174.178 263.017 173.774 262.46 173.382 261.914C172.985 261.37 172.54 260.762 172.047 260.09L169.308 256.304C168.866 255.698 168.413 255.074 167.949 254.431C167.48 253.796 167.034 253.185 166.611 252.599L168.712 251.961C169.147 252.587 169.593 253.229 170.05 253.887C170.509 254.55 170.944 255.177 171.355 255.767L175.297 261.436L175.469 261.383L175.636 254.532C175.654 253.787 175.671 253.007 175.687 252.193C175.703 251.379 175.721 250.59 175.739 249.826L177.78 249.206ZM176.136 252.866L176.417 254.473L170.458 256.284L169.832 254.781L176.136 252.866Z" fill="#040E07"/>
<path d="M161.799 253.602C162.136 254.189 162.499 254.815 162.887 255.478C163.27 256.142 163.625 256.756 163.951 257.322L166.086 260.999C166.329 261.422 166.593 261.877 166.88 262.365C167.162 262.859 167.451 263.361 167.748 263.871C168.039 264.382 168.32 264.871 168.59 265.337L166.295 265.793C165.846 264.983 165.372 264.117 164.87 263.195C164.364 262.28 163.891 261.42 163.449 260.615L160.906 255.99L160.73 256.026L160.126 261.302C160.018 262.235 159.908 263.205 159.796 264.212C159.678 265.221 159.564 266.201 159.454 267.153L157.229 267.594C157.299 267.054 157.372 266.496 157.447 265.918C157.523 265.346 157.599 264.777 157.676 264.211C157.749 263.653 157.817 263.131 157.88 262.648L158.441 258.407C158.525 257.754 158.618 257.051 158.719 256.297C158.815 255.549 158.909 254.837 159.001 254.158L161.799 253.602Z" fill="#040E07"/>
<path d="M150.695 255.394C150.768 256.098 150.839 256.775 150.907 257.426C150.975 258.076 151.05 258.798 151.133 259.592L151.549 263.575C151.634 264.381 151.71 265.115 151.78 265.778C151.849 266.446 151.921 267.132 151.995 267.836L151.02 266.391L152.605 266.225C153.309 266.152 153.932 266.086 154.475 266.03C155.018 265.973 155.535 265.919 156.024 265.868L156.217 267.721L145.753 268.814L145.56 266.961C146.043 266.911 146.556 266.857 147.099 266.8C147.643 266.744 148.269 266.678 148.979 266.604L150.564 266.438L149.9 268.055C149.826 267.351 149.755 266.665 149.685 265.996C149.616 265.334 149.539 264.6 149.455 263.794L149.039 259.811C148.956 259.017 148.88 258.295 148.812 257.645C148.744 256.994 148.674 256.317 148.6 255.613L150.695 255.394Z" fill="#040E07"/>
<path d="M138.616 256.208C138.602 256.916 138.589 257.597 138.576 258.251C138.564 258.904 138.55 259.63 138.534 260.428L138.451 264.747C138.435 265.563 138.421 266.304 138.408 266.97C138.395 267.636 138.382 268.326 138.368 269.039L130.342 268.885L130.376 267.094C130.958 267.105 131.582 267.117 132.248 267.13C132.914 267.143 133.699 267.158 134.605 267.176L137.206 267.226L136.305 268.676C136.318 267.968 136.332 267.278 136.345 266.606C136.357 265.94 136.372 265.202 136.387 264.392L136.465 260.388C136.48 259.59 136.494 258.864 136.507 258.211C136.519 257.557 136.532 256.876 136.546 256.168L138.616 256.208ZM136.953 261.685L136.919 263.412L134.589 263.368C133.773 263.352 133.071 263.338 132.483 263.327C131.895 263.316 131.328 263.305 130.783 263.294L130.816 261.566C131.398 261.578 131.983 261.589 132.571 261.6C133.152 261.611 133.839 261.625 134.631 261.64L136.953 261.685Z" fill="#040E07"/>
<path d="M123.518 255.174C124.626 255.302 125.571 255.59 126.353 256.038C127.128 256.484 127.752 257.046 128.223 257.723C128.688 258.399 129.009 259.149 129.185 259.973C129.361 260.796 129.398 261.649 129.295 262.531C129.152 263.765 128.775 264.851 128.165 265.789C127.548 266.732 126.726 267.44 125.698 267.912C124.664 268.39 123.447 268.548 122.046 268.385C120.986 268.262 120.073 267.984 119.307 267.551C118.536 267.117 117.915 266.564 117.443 265.893C116.965 265.228 116.635 264.48 116.454 263.649C116.272 262.819 116.235 261.945 116.341 261.027C116.487 259.769 116.869 258.672 117.485 257.735C118.101 256.798 118.922 256.096 119.949 255.629C120.969 255.168 122.159 255.016 123.518 255.174ZM123.357 256.949C122.624 256.864 121.974 256.921 121.407 257.121C120.84 257.321 120.354 257.627 119.95 258.039C119.546 258.451 119.227 258.937 118.993 259.495C118.753 260.053 118.596 260.648 118.523 261.28C118.444 261.96 118.463 262.602 118.58 263.208C118.697 263.813 118.911 264.358 119.224 264.841C119.53 265.323 119.934 265.718 120.436 266.024C120.938 266.336 121.537 266.532 122.234 266.613C122.955 266.697 123.599 266.642 124.165 266.448C124.731 266.254 125.222 265.951 125.639 265.541C126.049 265.129 126.377 264.645 126.623 264.087C126.869 263.53 127.03 262.927 127.105 262.277C127.18 261.633 127.164 261.012 127.059 260.414C126.953 259.816 126.751 259.27 126.451 258.776C126.146 258.288 125.737 257.881 125.225 257.556C124.713 257.236 124.09 257.034 123.357 256.949Z" fill="#040E07"/>
<path d="M109.891 252.814C110.976 253.073 111.88 253.471 112.604 254.008C113.321 254.543 113.874 255.174 114.261 255.902C114.643 256.628 114.873 257.411 114.95 258.25C115.027 259.089 114.963 259.94 114.757 260.804C114.469 262.012 113.966 263.046 113.249 263.905C112.525 264.768 111.625 265.374 110.549 265.721C109.465 266.074 108.238 266.086 106.866 265.759C105.828 265.511 104.954 265.127 104.245 264.606C103.531 264.084 102.979 263.462 102.59 262.74C102.194 262.022 101.955 261.24 101.873 260.394C101.791 259.548 101.858 258.676 102.072 257.777C102.366 256.546 102.874 255.501 103.597 254.643C104.32 253.786 105.219 253.186 106.293 252.844C107.361 252.507 108.56 252.497 109.891 252.814ZM109.521 254.558C108.803 254.387 108.151 254.367 107.564 254.498C106.978 254.63 106.459 254.876 106.009 255.237C105.559 255.599 105.185 256.043 104.886 256.57C104.582 257.096 104.356 257.668 104.208 258.287C104.049 258.952 103.992 259.592 104.037 260.207C104.081 260.823 104.23 261.388 104.483 261.905C104.73 262.421 105.085 262.86 105.547 263.223C106.008 263.592 106.58 263.858 107.263 264.021C107.969 264.19 108.614 264.211 109.199 264.086C109.785 263.96 110.308 263.718 110.77 263.359C111.226 262.999 111.609 262.557 111.919 262.033C112.229 261.509 112.46 260.928 112.612 260.292C112.763 259.662 112.821 259.043 112.787 258.437C112.752 257.83 112.616 257.264 112.378 256.739C112.132 256.217 111.774 255.765 111.304 255.381C110.833 255.004 110.239 254.729 109.521 254.558Z" fill="#040E07"/>
<path d="M101.958 251.011C101.719 251.677 101.49 252.318 101.269 252.934C101.049 253.55 100.804 254.233 100.535 254.984L99.078 259.051C98.8028 259.82 98.553 260.517 98.3284 261.144C98.1038 261.771 97.8711 262.421 97.6304 263.093C97.1389 262.917 96.6503 262.742 96.1646 262.568C95.6731 262.392 95.1817 262.216 94.6903 262.04C94.1989 261.864 93.6961 261.684 93.1821 261.5C92.2557 261.168 91.4824 260.738 90.8622 260.21C90.2342 259.685 89.7648 259.074 89.4539 258.377C89.1409 257.684 88.9898 256.923 89.0007 256.092C89.0059 255.259 89.1785 254.368 89.5184 253.419C89.8239 252.566 90.2249 251.811 90.7216 251.154C91.2105 250.501 91.8027 249.986 92.498 249.611C93.1877 249.233 93.9921 249.034 94.9111 249.012C95.8301 248.991 96.8686 249.188 98.0266 249.602C98.5293 249.782 98.9982 249.95 99.4331 250.106C99.868 250.262 100.292 250.414 100.704 250.561C101.111 250.707 101.529 250.857 101.958 251.011ZM99.3842 251.924L97.4354 251.226C96.3905 250.852 95.4875 250.748 94.7265 250.916C93.9656 251.083 93.3282 251.457 92.8142 252.037C92.3003 252.618 91.8896 253.338 91.5821 254.196C91.3474 254.852 91.214 255.473 91.182 256.061C91.148 256.654 91.2298 257.199 91.4275 257.697C91.6232 258.201 91.9416 258.646 92.3828 259.034C92.824 259.421 93.4005 259.742 94.1122 259.997L96.2219 260.753C96.3818 260.307 96.5426 259.858 96.7045 259.406C96.8643 258.96 97.0413 258.465 97.2356 257.923L98.3888 254.703C98.579 254.172 98.754 253.684 98.9138 253.237C99.0716 252.797 99.2284 252.359 99.3842 251.924Z" fill="#040E07"/>
<path d="M83.586 248.312C83.8401 248.435 84.0344 248.591 84.1687 248.783C84.3005 248.979 84.3748 249.191 84.3917 249.419C84.4006 249.65 84.3477 249.884 84.2332 250.122C84.0615 250.479 83.8128 250.712 83.487 250.822C83.1559 250.929 82.8011 250.891 82.4226 250.709C82.1685 250.587 81.9743 250.43 81.8399 250.239C81.7029 250.053 81.6287 249.847 81.6173 249.622C81.6058 249.397 81.656 249.168 81.7679 248.936C81.937 248.584 82.1857 248.344 82.5138 248.216C82.8394 248.093 83.1968 248.125 83.586 248.312Z" fill="#040E07"/>
<path d="M72.2939 237.02C72.4136 237.799 72.524 238.529 72.6252 239.211C72.7264 239.894 72.8262 240.561 72.9247 241.214L73.4266 244.535L74.1546 244.984L73.2674 246.424L72.5547 245.985L69.8239 246.798C69.1796 246.986 68.5445 247.176 67.9187 247.369C67.2846 247.563 66.5483 247.786 65.7098 248.038L63.5794 246.726C64.4662 246.476 65.334 246.228 66.1827 245.983C67.0232 245.739 67.8694 245.492 68.7213 245.242L71.9396 244.307L71.4795 245.122L70.9159 241.266C70.8229 240.673 70.7284 240.037 70.6323 239.358C70.5311 238.676 70.4338 238.01 70.3405 237.36C70.2389 236.713 70.1518 236.145 70.0792 235.656L72.2939 237.02ZM78.8232 241.041C78.4519 241.644 78.0948 242.224 77.7519 242.781C77.409 243.338 77.0283 243.956 76.6098 244.635L74.3446 248.314C73.9167 249.009 73.5281 249.639 73.1789 250.207C72.8297 250.774 72.4679 251.361 72.0935 251.969L70.3002 250.865C70.6746 250.257 71.0364 249.669 71.3857 249.102C71.7349 248.535 72.1234 247.904 72.5513 247.209L74.8166 243.531C75.235 242.851 75.6157 242.233 75.9587 241.676C76.3016 241.12 76.6587 240.54 77.0299 239.937L78.8232 241.041Z" fill="#040E07"/>
<path d="M69.2555 235.055C68.8286 235.62 68.418 236.163 68.0237 236.685C67.6294 237.207 67.1917 237.786 66.7106 238.423L64.1006 241.876C63.6158 242.518 63.1709 243.106 62.7657 243.643C62.3606 244.179 61.9446 244.729 61.5177 245.294C61.2305 245.077 60.8954 244.824 60.5125 244.534C60.1295 244.245 59.7179 243.934 59.2775 243.601C58.8323 243.265 58.368 242.914 57.8845 242.548C57.0851 241.944 56.4855 241.345 56.0856 240.749C55.6822 240.158 55.5014 239.552 55.5433 238.929C55.5815 238.311 55.8647 237.653 56.3929 236.954C56.8233 236.384 57.3283 235.95 57.9078 235.651C58.4825 235.348 59.1321 235.245 59.8566 235.341C60.5774 235.442 61.3681 235.814 62.2285 236.457L61.0954 236.717L61.0944 233.524C61.0938 233.027 61.0933 232.5 61.093 231.944C61.0926 231.387 61.094 230.843 61.0971 230.311C61.0954 229.776 61.096 229.302 61.0987 228.891L63.0445 230.361C63.0326 231.014 63.0237 231.643 63.0179 232.248C63.0037 232.854 62.9919 233.446 62.9826 234.026L62.9147 237.833L62.5571 236.186L64.9194 237.971L63.883 239.343L62.0233 237.937C61.5016 237.543 61.0255 237.277 60.5952 237.14C60.1565 237.004 59.7485 237.012 59.3711 237.163C58.989 237.31 58.6225 237.616 58.2716 238.08C57.9858 238.459 57.8195 238.803 57.7728 239.114C57.7261 239.424 57.7592 239.709 57.8723 239.967C57.9806 240.222 58.1369 240.453 58.3414 240.66C58.5458 240.867 58.7581 241.054 58.9783 241.22L62.073 243.559L60.0616 243.788C60.5065 243.199 60.9298 242.639 61.3313 242.107C61.7329 241.576 62.1706 240.997 62.6445 240.37L65.0591 237.175C65.5402 236.538 65.978 235.959 66.3723 235.437C66.7666 234.915 67.1771 234.372 67.604 233.807L69.2555 235.055Z" fill="#040E07"/>
<path d="M61.093 228.942C60.4487 229.286 59.7711 229.649 59.0602 230.029C58.3494 230.41 57.6716 230.769 57.0269 231.104L52.9114 233.307C52.167 233.698 51.4975 234.051 50.903 234.368C50.3044 234.689 49.7016 235.011 49.0945 235.332L47.0775 233.47C47.3573 232.822 47.6336 232.191 47.9062 231.577C48.1745 230.959 48.4738 230.268 48.8041 229.503L50.6838 225.225C50.9833 224.537 51.2926 223.831 51.6117 223.105C51.9224 222.379 52.2237 221.685 52.5157 221.024L54.1294 222.514C53.8089 223.206 53.4806 223.915 53.1445 224.642C52.8043 225.373 52.4838 226.065 52.183 226.719L49.2874 232.987L49.4196 233.109L55.4138 229.787C56.066 229.425 56.7471 229.046 57.4573 228.648C58.1674 228.25 58.8569 227.866 59.5257 227.495L61.093 228.942ZM57.1042 229.375L55.8599 230.431L51.2836 226.207L52.2634 224.907L57.1042 229.375Z" fill="#040E07"/>
<path d="M49.2017 217.389C48.8658 217.977 48.5104 218.606 48.1356 219.277C47.7568 219.944 47.4064 220.561 47.0844 221.129L44.9946 224.832C44.7532 225.256 44.4949 225.714 44.2197 226.208C43.9359 226.702 43.6495 227.206 43.3603 227.72C43.0671 228.23 42.7879 228.719 42.5226 229.188L40.9669 227.44C41.4383 226.643 41.9445 225.795 42.4856 224.896C43.0182 223.996 43.52 223.152 43.9909 222.364L46.69 217.829L46.5703 217.695L41.715 219.847C40.8557 220.226 39.9635 220.623 39.0385 221.036C38.1094 221.446 37.2065 221.843 36.3298 222.23L34.822 220.536C35.3231 220.323 35.8417 220.102 36.3777 219.874C36.9092 219.65 37.4385 219.428 37.9656 219.208C38.4841 218.988 38.9678 218.782 39.4166 218.591L43.3575 216.927C43.9632 216.669 44.6168 216.393 45.3182 216.098C46.0111 215.803 46.6734 215.523 47.305 215.258L49.2017 217.389Z" fill="#040E07"/>
<path d="M42.0096 208.725C41.4401 209.145 40.8924 209.55 40.3663 209.939C39.8402 210.327 39.2563 210.758 38.6144 211.233L35.3929 213.612C34.7414 214.093 34.1478 214.532 33.6121 214.928C33.0715 215.327 32.5165 215.737 31.947 216.157L32.6984 214.584L33.6448 215.866C34.0655 216.435 34.438 216.939 34.7624 217.379C35.0868 217.818 35.3952 218.235 35.6875 218.631L34.1889 219.738L27.938 211.275L29.4365 210.168C29.7253 210.559 30.0319 210.974 30.3563 211.413C30.6807 211.853 31.055 212.359 31.4792 212.934L32.4256 214.215L30.6958 214.463C31.2653 214.043 31.8203 213.633 32.3608 213.234C32.8965 212.838 33.4901 212.399 34.1417 211.918L37.3631 209.539C38.005 209.064 38.589 208.633 39.115 208.245C39.6411 207.856 40.1889 207.451 40.7584 207.031L42.0096 208.725Z" fill="#040E07"/>
<path d="M35.4145 199.13C34.7983 199.478 34.2057 199.814 33.6366 200.136C33.0675 200.458 32.4357 200.816 31.7413 201.209L27.982 203.337C27.2719 203.739 26.6271 204.105 26.0475 204.433C25.4679 204.761 24.8675 205.101 24.2462 205.453L20.2909 198.466L21.8495 197.584C22.1362 198.091 22.4437 198.634 22.7718 199.213C23.0999 199.793 23.4871 200.477 23.9335 201.265L25.215 203.528L23.5083 203.492C24.1244 203.143 24.7248 202.803 25.3096 202.472C25.8892 202.144 26.5314 201.78 27.2362 201.381L30.7214 199.408C31.4159 199.015 32.0477 198.657 32.6168 198.335C33.1859 198.012 33.7785 197.677 34.3946 197.328L35.4145 199.13ZM29.8542 200.488L28.3505 201.34L27.2021 199.311C26.8 198.601 26.4542 197.99 26.1645 197.478C25.8748 196.967 25.5955 196.473 25.3264 195.998L26.8302 195.147C27.1169 195.653 27.4051 196.162 27.6948 196.674C27.9816 197.181 28.32 197.778 28.7102 198.468L29.8542 200.488Z" fill="#040E07"/>
<path d="M28.6999 185.801C29.1538 186.821 29.3873 187.781 29.4006 188.681C29.4115 189.576 29.2457 190.399 28.9031 191.149C28.5581 191.894 28.076 192.552 27.4568 193.123C26.8375 193.694 26.1223 194.16 25.311 194.521C24.1764 195.026 23.0501 195.255 21.9321 195.208C20.8063 195.157 19.7784 194.81 18.8483 194.167C17.9104 193.52 17.1547 192.553 16.5813 191.265C16.147 190.289 15.9214 189.362 15.9044 188.483C15.885 187.598 16.0439 186.782 16.381 186.034C16.7101 185.283 17.1858 184.619 17.8081 184.039C18.4304 183.46 19.1636 182.983 20.0077 182.607C21.1643 182.092 22.3028 181.861 23.4232 181.914C24.5435 181.967 25.566 182.317 26.4905 182.963C27.4071 183.605 28.1436 184.552 28.6999 185.801ZM27.0902 186.567C26.7901 185.893 26.4097 185.363 25.9489 184.977C25.4881 184.591 24.9774 184.329 24.4169 184.191C23.8563 184.053 23.276 184.026 22.676 184.109C22.0736 184.187 21.4818 184.355 20.9008 184.613C20.2759 184.892 19.7327 185.235 19.2711 185.644C18.8096 186.053 18.4504 186.515 18.1936 187.03C17.9344 187.54 17.801 188.088 17.7934 188.676C17.7803 189.266 17.9165 189.882 18.202 190.524C18.4972 191.187 18.8725 191.713 19.3278 192.101C19.7831 192.49 20.2935 192.758 20.8589 192.907C21.4219 193.051 22.0059 193.086 22.6108 193.014C23.2157 192.942 23.8168 192.773 24.4143 192.507C25.0063 192.243 25.5328 191.914 25.9937 191.518C26.4547 191.122 26.8215 190.67 27.0941 190.161C27.3588 189.649 27.5007 189.09 27.5199 188.484C27.5336 187.88 27.3903 187.241 27.0902 186.567Z" fill="#040E07"/>
<path d="M23.7295 172.718C24.0579 173.785 24.1748 174.766 24.0802 175.661C23.9838 176.551 23.7206 177.348 23.2906 178.051C22.8589 178.749 22.3015 179.345 21.6182 179.838C20.935 180.33 20.1691 180.708 19.3204 180.969C18.1334 181.334 16.9878 181.427 15.8837 181.246C14.772 181.06 13.793 180.593 12.9468 179.843C12.093 179.089 11.4587 178.038 11.0437 176.69C10.7294 175.669 10.6165 174.722 10.705 173.847C10.7917 172.966 11.0472 172.175 11.4714 171.473C11.8881 170.767 12.44 170.164 13.1272 169.664C13.8144 169.163 14.5995 168.777 15.4826 168.505C16.6925 168.133 17.8505 168.04 18.9564 168.227C20.0624 168.414 21.0356 168.883 21.8761 169.635C22.7091 170.383 23.3269 171.411 23.7295 172.718ZM22.0397 173.285C21.8225 172.58 21.5083 172.008 21.097 171.57C20.6858 171.131 20.2102 170.81 19.6702 170.606C19.1302 170.402 18.5574 170.305 17.9517 170.316C17.3443 170.321 16.7367 170.417 16.1288 170.604C15.4751 170.805 14.8947 171.081 14.3874 171.432C13.8802 171.783 13.4683 172.199 13.1517 172.679C12.8333 173.154 12.6351 173.683 12.5572 174.265C12.4735 174.85 12.5349 175.478 12.7415 176.149C12.9552 176.842 13.2647 177.409 13.6702 177.85C14.0757 178.29 14.5502 178.618 15.0937 178.833C15.6355 179.043 16.211 179.148 16.8202 179.149C17.4294 179.15 18.0465 179.054 18.6715 178.862C19.2908 178.671 19.853 178.407 20.358 178.069C20.863 177.732 21.2814 177.326 21.613 176.854C21.9371 176.377 22.145 175.839 22.2366 175.24C22.3225 174.642 22.2569 173.991 22.0397 173.285Z" fill="#040E07"/>
<path d="M21.24 164.977C20.5446 165.11 19.8756 165.237 19.2332 165.36C18.5908 165.483 17.8776 165.619 17.0938 165.768L12.8503 166.577C12.0487 166.73 11.3208 166.869 10.6666 166.994C10.0124 167.119 9.33465 167.248 8.63329 167.382C8.53549 166.869 8.43825 166.359 8.34158 165.852C8.24377 165.34 8.14597 164.827 8.04817 164.314C7.95037 163.801 7.85032 163.277 7.74802 162.74C7.56366 161.774 7.54155 160.889 7.68168 160.087C7.81479 159.28 8.103 158.565 8.5463 157.943C8.9837 157.322 9.56315 156.805 10.2846 156.393C11.005 155.974 11.8603 155.671 12.8504 155.482C13.7404 155.312 14.5944 155.275 15.4126 155.369C16.2238 155.458 16.9676 155.708 17.6441 156.116C18.3195 156.519 18.8997 157.11 19.3846 157.891C19.8695 158.672 20.2272 159.667 20.4576 160.875C20.5577 161.4 20.651 161.889 20.7375 162.343C20.8241 162.797 20.9084 163.239 20.9905 163.669C21.0714 164.093 21.1546 164.529 21.24 164.977ZM19.1464 163.223L18.7585 161.19C18.5506 160.1 18.1814 159.269 17.6511 158.698C17.1208 158.128 16.475 157.768 15.7138 157.62C14.9526 157.472 14.124 157.484 13.2282 157.655C12.5445 157.785 11.9414 157.986 11.4189 158.256C10.8904 158.528 10.462 158.876 10.1334 159.299C9.79895 159.723 9.57678 160.223 9.46691 160.8C9.35703 161.377 9.37291 162.037 9.51456 162.779L9.93443 164.98C10.4 164.892 10.8686 164.802 11.3401 164.712C11.8057 164.624 12.3214 164.525 12.8872 164.417L16.2466 163.777C16.8006 163.671 17.3105 163.574 17.7761 163.485C18.2358 163.397 18.6925 163.31 19.1464 163.223Z" fill="#040E07"/>
<path d="M14.2377 148.018C14.2616 148.299 14.2254 148.546 14.1291 148.759C14.0268 148.972 13.8819 149.144 13.6943 149.275C13.5001 149.399 13.2716 149.473 13.0085 149.495C12.6139 149.529 12.2867 149.433 12.0267 149.209C11.7662 148.978 11.6181 148.653 11.5825 148.235C11.5586 147.954 11.5948 147.707 11.6911 147.494C11.7815 147.281 11.9207 147.113 12.1088 146.989C12.297 146.864 12.5196 146.791 12.7766 146.769C13.1652 146.736 13.4982 146.828 13.7757 147.046C14.0471 147.263 14.2011 147.588 14.2377 148.018Z" fill="#040E07"/>
<path d="M18.174 132.127C17.5643 132.625 16.9912 133.091 16.4547 133.525C15.9182 133.959 15.3939 134.384 14.8818 134.8L12.2754 136.919L12.2589 137.774L10.5672 137.741L10.5834 136.904L8.49641 134.965C8.00719 134.505 7.52079 134.055 7.03722 133.613C6.54777 133.166 5.98172 132.645 5.33907 132.05L5.38736 129.549C6.05319 130.186 6.70731 130.807 7.34973 131.414C7.98626 132.014 8.62873 132.618 9.27714 133.224L11.7173 135.522L10.7807 135.54L13.8165 133.096C14.2799 132.715 14.7798 132.31 15.3162 131.883C15.8526 131.449 16.3769 131.027 16.8889 130.617C17.395 130.2 17.8401 129.837 18.2242 129.526L18.174 132.127ZM18.026 139.793C17.3181 139.78 16.6373 139.767 15.9834 139.754C15.3295 139.741 14.6036 139.727 13.8058 139.712L9.48659 139.629C8.67074 139.613 7.92988 139.599 7.264 139.586C6.59813 139.573 5.90826 139.56 5.19439 139.546L5.23503 137.44C5.9489 137.454 6.63877 137.467 7.30465 137.48C7.97052 137.493 8.71139 137.507 9.52723 137.523L13.8464 137.606C14.6443 137.622 15.3701 137.636 16.024 137.648C16.6779 137.661 17.3588 137.674 18.0666 137.688L18.026 139.793Z" fill="#040E07"/>
<path d="M18.3277 128.223C17.6244 128.141 16.948 128.063 16.2983 127.987C15.6487 127.912 14.9275 127.828 14.1349 127.736L9.83478 127.236C9.03614 127.144 8.30307 127.058 7.63556 126.981C6.96805 126.903 6.28266 126.824 5.57938 126.742C5.62092 126.384 5.66937 125.967 5.72475 125.49C5.78013 125.014 5.83966 124.501 5.90335 123.953C5.96773 123.399 6.03487 122.82 6.10479 122.218C6.22039 121.223 6.43353 120.402 6.74419 119.756C7.04889 119.109 7.48022 118.645 8.03819 118.366C8.59021 118.086 9.30129 117.996 10.1714 118.097C10.8807 118.18 11.5111 118.395 12.0626 118.743C12.6148 119.085 13.033 119.592 13.3173 120.266C13.5955 120.938 13.6757 121.808 13.5577 122.876L12.7589 122.031L15.5111 120.412C15.939 120.159 16.3929 119.892 16.8727 119.609C17.3525 119.327 17.8223 119.052 18.2822 118.785C18.7427 118.513 19.1511 118.273 19.5073 118.067L19.2259 120.49C18.6571 120.81 18.1105 121.121 17.5863 121.423C17.0567 121.718 16.5398 122.008 16.0354 122.294L12.7194 124.165L13.9575 123.022L13.6159 125.963L11.9084 125.765L12.1773 123.449C12.2528 122.8 12.2406 122.255 12.1407 121.814C12.0356 121.367 11.8223 121.019 11.5009 120.77C11.1801 120.516 10.7307 120.355 10.1526 120.288C9.68176 120.233 9.30061 120.264 9.00915 120.381C8.71768 120.498 8.48922 120.671 8.32376 120.9C8.15899 121.122 8.03914 121.374 7.96419 121.655C7.88924 121.936 7.83585 122.214 7.80401 122.488L7.35647 126.341L6.14004 124.723C6.87311 124.808 7.57043 124.889 8.23198 124.966C8.89353 125.043 9.61468 125.127 10.3954 125.218L14.3737 125.68C15.1664 125.772 15.8875 125.855 16.5371 125.931C17.1868 126.006 17.8632 126.085 18.5665 126.167L18.3277 128.223Z" fill="#040E07"/>
<path d="M19.4523 117.984C18.8295 117.602 18.174 117.201 17.486 116.78C16.7979 116.359 16.1461 115.956 15.5304 115.569L11.5488 113.133C10.8353 112.688 10.1916 112.29 9.61764 111.937C9.03785 111.583 8.45578 111.226 7.87141 110.864L8.45757 108.183C9.15818 108.096 9.84221 108.016 10.5097 107.94C11.1784 107.859 11.9262 107.768 12.753 107.666L17.3948 107.124C18.1391 107.035 18.905 106.944 19.6928 106.852C20.4761 106.753 21.2268 106.662 21.9449 106.58L21.476 108.725C20.7168 108.799 19.9387 108.874 19.1418 108.952C18.3389 109.028 17.5797 109.102 16.8641 109.173L9.99206 109.845L9.95363 110.021L15.8512 113.512C16.4929 113.891 17.1649 114.287 17.8673 114.698C18.5696 115.11 19.2498 115.51 19.9078 115.9L19.4523 117.984ZM17.0612 114.762L15.5208 114.222L16.8507 108.138L18.468 108.326L17.0612 114.762Z" fill="#040E07"/>
<path d="M23.3628 101.997C22.6855 102.004 21.9627 102.016 21.1943 102.031C20.4279 102.041 19.7183 102.051 19.0657 102.06L14.8141 102.128C14.3265 102.133 13.8 102.142 13.2347 102.154C12.6655 102.159 12.0859 102.166 11.4958 102.177C10.9077 102.181 10.3442 102.188 9.80539 102.196L10.5277 99.97C11.4537 99.974 12.4414 99.9823 13.4908 99.9949C14.5363 99.9999 15.5183 100.006 16.4367 100.014L21.7137 100.052L21.7693 99.8808L17.4584 96.7786C16.6969 96.2286 15.904 95.6591 15.0797 95.0698C14.2572 94.4749 13.4576 93.8968 12.6808 93.3356L13.381 91.1784C13.818 91.5032 14.2704 91.8392 14.738 92.1865C15.1999 92.532 15.659 92.8765 16.1152 93.2202C16.5676 93.5562 16.9894 93.8697 17.3807 94.1607L20.8078 96.7207C21.3365 97.113 21.9053 97.5373 22.5142 97.9936C23.1193 98.4423 23.6957 98.8722 24.2435 99.2834L23.3628 101.997Z" fill="#040E07"/>
<path d="M27.0684 91.7241C26.4174 91.4458 25.7912 91.1782 25.1898 90.9212C24.5884 90.6642 23.9208 90.3789 23.187 90.0653L19.5043 88.4914C18.7594 88.173 18.0808 87.883 17.4684 87.6213C16.8505 87.3572 16.216 87.086 15.5649 86.8078L17.302 86.6595L16.676 88.1243C16.3977 88.7754 16.1513 89.3519 15.9367 89.854C15.7222 90.3561 15.5182 90.8333 15.3249 91.2857L13.6118 90.5536L17.7464 80.8791L19.4595 81.6112C19.2685 82.0581 19.0657 82.5326 18.8511 83.0347C18.6366 83.5367 18.389 84.116 18.1084 84.7726L17.4824 86.2374L16.3926 84.8712C17.0436 85.1495 17.6781 85.4206 18.296 85.6847C18.9085 85.9465 19.5871 86.2365 20.3319 86.5548L24.0147 88.1287C24.7485 88.4423 25.4161 88.7276 26.0174 88.9846C26.6188 89.2417 27.245 89.5093 27.8961 89.7875L27.0684 91.7241Z" fill="#040E07"/>
<path d="M32.0788 80.9893C31.4665 80.6337 30.8777 80.2916 30.3122 79.9631C29.7466 79.6347 29.1189 79.27 28.4288 78.8692L24.6933 76.6994C23.9877 76.2895 23.3469 75.9174 22.771 75.5829C22.1951 75.2483 21.5985 74.9018 20.9811 74.5432L25.0133 67.6013L26.562 68.5008C26.2696 69.0041 25.9562 69.5437 25.6217 70.1196C25.2872 70.6955 24.8924 71.3751 24.4374 72.1585L23.131 74.4077L22.3009 72.9159C22.9131 73.2716 23.5098 73.6181 24.0909 73.9556C24.6668 74.2902 25.3049 74.6608 26.0053 75.0677L29.4685 77.0792C30.1585 77.4801 30.7863 77.8447 31.3519 78.1732C31.9174 78.5017 32.5062 78.8437 33.1185 79.1993L32.0788 80.9893ZM28.098 76.8764L26.6037 76.0085L27.7745 73.9929C28.1844 73.2873 28.537 72.6802 28.8323 72.1718C29.1276 71.6633 29.4124 71.173 29.6867 70.7009L31.1809 71.5688C30.8886 72.0721 30.5947 72.5779 30.2994 73.0864C30.0071 73.5897 29.662 74.1837 29.2642 74.8686L28.098 76.8764Z" fill="#040E07"/>
<path d="M40.3474 68.2301C39.6942 69.135 38.9818 69.8195 38.2101 70.2837C37.442 70.743 36.6476 71.0131 35.8269 71.0941C35.0098 71.1703 34.1987 71.0843 33.3936 70.8361C32.5886 70.588 31.826 70.2041 31.106 69.6843C30.099 68.9574 29.335 68.0988 28.814 67.1085C28.2917 66.1099 28.0748 65.0469 28.1634 63.9195C28.2507 62.7837 28.707 61.6442 29.5322 60.5009C30.1573 59.635 30.8456 58.9737 31.597 58.5171C32.3519 58.0556 33.1372 57.7826 33.953 57.6981C34.7674 57.6052 35.5814 57.6822 36.3948 57.929C37.2083 58.1758 37.9896 58.5696 38.7388 59.1104C39.7653 59.8514 40.5373 60.7194 41.0547 61.7145C41.5722 62.7096 41.7842 63.7691 41.6907 64.893C41.5958 66.0086 41.1481 67.1209 40.3474 68.2301ZM38.8762 67.2236C39.3081 66.6252 39.5751 66.0299 39.6771 65.4375C39.7791 64.8451 39.7488 64.272 39.5863 63.7181C39.4237 63.1641 39.1557 62.6488 38.7821 62.1719C38.412 61.6902 37.9692 61.2632 37.4535 60.8909C36.8989 60.4906 36.3288 60.1938 35.7431 60.0004C35.1575 59.8071 34.5776 59.7289 34.0034 59.7658C33.4327 59.7978 32.8913 59.9583 32.3793 60.2473C31.8624 60.5328 31.3985 60.9601 30.9877 61.5293C30.5627 62.118 30.2969 62.7067 30.19 63.2956C30.0831 63.8844 30.1075 64.4607 30.263 65.0243C30.422 65.5831 30.6848 66.1058 31.0513 66.5924C31.4179 67.079 31.8663 67.5137 32.3966 67.8965C32.922 68.2757 33.4716 68.5651 34.0453 68.7647C34.619 68.9642 35.1944 69.054 35.7713 69.0338C36.3469 69.0053 36.9015 68.847 37.4351 68.5588C37.9639 68.2671 38.4442 67.822 38.8762 67.2236Z" fill="#040E07"/>
<path d="M49.0904 57.3773C48.3364 58.2001 47.5492 58.7971 46.7288 59.1684C45.9125 59.5353 45.0921 59.7112 44.2676 59.6962C43.4471 59.6768 42.6515 59.4971 41.8807 59.157C41.11 58.8169 40.3973 58.3469 39.7426 57.747C38.8269 56.9079 38.1679 55.9662 37.7657 54.9221C37.363 53.8695 37.2713 52.7885 37.4904 51.6791C37.7092 50.5611 38.2948 49.4824 39.2475 48.4429C39.969 47.6555 40.7295 47.0787 41.5289 46.7126C42.3323 46.342 43.1441 46.1622 43.9642 46.1732C44.7839 46.1756 45.5833 46.3467 46.3626 46.6864C47.1418 47.0261 47.872 47.5081 48.5532 48.1324C49.4866 48.9877 50.1524 49.9396 50.5506 50.9882C50.9489 52.0367 51.0362 53.1137 50.8126 54.2191C50.5887 55.316 50.0146 56.3687 49.0904 57.3773ZM47.7462 56.2066C48.2448 55.6625 48.5792 55.1022 48.7494 54.5257C48.9196 53.9492 48.9562 53.3764 48.8591 52.8074C48.7621 52.2383 48.5558 51.6952 48.2402 51.1782C47.9287 50.6567 47.5385 50.1811 47.0696 49.7514C46.5653 49.2893 46.0336 48.9282 45.4744 48.668C44.9153 48.4079 44.3484 48.2628 43.7737 48.2326C43.2032 48.1981 42.6468 48.2945 42.1047 48.522C41.5581 48.7455 41.0477 49.116 40.5734 49.6335C40.0829 50.1688 39.7504 50.7226 39.5757 51.295C39.4011 51.8675 39.3583 52.4426 39.4472 53.0206C39.5402 53.594 39.7404 54.1438 40.0479 54.6697C40.3553 55.1956 40.7502 55.6795 41.2323 56.1213C41.7101 56.5591 42.2223 56.9105 42.7689 57.1754C43.3155 57.4403 43.8765 57.5963 44.4519 57.6434C45.0269 57.682 45.5961 57.5892 46.1597 57.365C46.7188 57.1368 47.2476 56.7506 47.7462 56.2066Z" fill="#040E07"/>
<path d="M53.9639 51.8111C53.4951 51.2805 53.0442 50.7701 52.6112 50.28C52.1782 49.7899 51.6975 49.2458 51.1692 48.6478L48.3089 45.4103C47.7686 44.7988 47.278 44.2434 46.8371 43.7443C46.3961 43.2452 45.9393 42.7281 45.4665 42.193C45.8577 41.8474 46.2467 41.5038 46.6334 41.1622C47.0246 40.8165 47.4157 40.4709 47.8069 40.1253C48.1981 39.7797 48.5983 39.4261 49.0075 39.0646C49.7449 38.4131 50.4945 37.943 51.2563 37.6543C52.0185 37.3572 52.7802 37.2406 53.5414 37.3047C54.2986 37.3643 55.0386 37.5993 55.7613 38.0095C56.4886 38.4158 57.1859 38.9967 57.8533 39.7521C58.4532 40.4311 58.9211 41.1465 59.2572 41.8984C59.5938 42.6419 59.7589 43.4087 59.7525 44.199C59.7506 44.9853 59.5374 45.7861 59.1129 46.6015C58.6884 47.4169 58.0152 48.2317 57.0935 49.0461C56.6933 49.3997 56.3201 49.7294 55.9738 50.0353C55.6276 50.3412 55.2904 50.6391 54.9621 50.9291C54.6384 51.2152 54.3056 51.5091 53.9639 51.8111ZM54.4048 49.1157L55.9561 47.7452C56.7879 47.0102 57.3141 46.2692 57.5346 45.5219C57.7551 44.7747 57.735 44.0359 57.4741 43.3057C57.2132 42.5754 56.7808 41.8685 56.177 41.1851C55.7162 40.6635 55.2361 40.2469 54.7368 39.9355C54.2335 39.6196 53.7161 39.4282 53.1846 39.3613C52.6492 39.2899 52.1054 39.354 51.5532 39.5537C51.001 39.7533 50.4416 40.1034 49.8751 40.6039L48.1956 42.0877C48.5095 42.4429 48.8253 42.8004 49.1431 43.1601C49.4569 43.5153 49.8045 43.9088 50.1859 44.3404L52.4503 46.9034C52.8237 47.3261 53.1673 47.7151 53.4812 48.0703C53.791 48.421 54.0989 48.7695 54.4048 49.1157Z" fill="#040E07"/>
<path d="M65.204 36.9252C64.9742 37.0886 64.7431 37.1829 64.5108 37.2082C64.275 37.2285 64.0533 37.1911 63.8456 37.0957C63.6394 36.992 63.4598 36.8326 63.3069 36.6174C63.0775 36.2946 62.9935 35.9642 63.055 35.626C63.1213 35.2844 63.3257 34.9919 63.668 34.7486C63.8978 34.5852 64.1289 34.4909 64.3612 34.4656C64.5901 34.4355 64.8059 34.4698 65.0086 34.5686C65.2114 34.6674 65.3875 34.822 65.5369 35.0323C65.7629 35.3502 65.8528 35.6838 65.8066 36.0331C65.757 36.3775 65.5562 36.6749 65.204 36.9252Z" fill="#040E07"/>
<path d="M80.638 32.3456C79.8986 32.0747 79.2056 31.8189 78.5591 31.5782C77.9126 31.3375 77.2799 31.1028 76.6608 30.8741L73.5096 29.7106L72.7656 30.1318L71.932 28.6594L72.6604 28.2471L73.2664 25.4631C73.4127 24.8081 73.5526 24.16 73.6861 23.5191C73.8219 22.8699 73.9819 22.1174 74.1662 21.2615L76.3435 20.0289C76.1345 20.9263 75.9326 21.8059 75.7379 22.6677C75.5455 23.5213 75.3534 24.3815 75.1617 25.2485L74.4275 28.5187L73.9351 27.7219L77.5844 29.0894C78.1485 29.2941 78.7511 29.5182 79.3924 29.7619C80.0389 30.0027 80.6691 30.2388 81.2829 30.4705C81.899 30.694 82.4385 30.8919 82.9014 31.0641L80.638 32.3456ZM73.9652 36.1234C73.6164 35.5073 73.2809 34.9147 72.9587 34.3456C72.6365 33.7765 72.2788 33.1447 71.8856 32.4503L69.7573 28.691C69.3552 27.9809 68.9902 27.336 68.662 26.7565C68.3339 26.1769 67.994 25.5765 67.6422 24.9551L69.4749 23.9176C69.8266 24.5389 70.1666 25.1393 70.4947 25.7189C70.8228 26.2985 71.1879 26.9433 71.5899 27.6534L73.7183 31.4127C74.1115 32.1071 74.4691 32.7389 74.7913 33.308C75.1136 33.8771 75.4491 34.4698 75.7979 35.0859L73.9652 36.1234Z" fill="#040E07"/>
<path d="M84.0372 30.4809C83.7493 29.8341 83.4723 29.2119 83.2064 28.6145C82.9404 28.017 82.6452 27.3537 82.3207 26.6247L80.5602 22.6698C80.2333 21.9353 79.9332 21.2611 79.6599 20.6471C79.3866 20.0332 79.106 19.4029 78.8181 18.756C79.147 18.6096 79.5307 18.4388 79.9692 18.2436C80.4077 18.0484 80.8791 17.8386 81.3834 17.6141C81.8932 17.3872 82.4249 17.1505 82.9785 16.9041C83.8939 16.4966 84.7089 16.2619 85.4235 16.2C86.1356 16.1326 86.754 16.2678 87.2787 16.6056C87.801 16.9379 88.2403 17.5042 88.5965 18.3045C88.8869 18.9568 89.0228 19.6089 89.0043 20.2607C88.9913 20.9102 88.7674 21.5286 88.3328 22.1162C87.8957 22.6982 87.1878 23.2103 86.2091 23.6526L86.5292 22.5348L89.3245 24.0785C89.7596 24.3182 90.2209 24.5726 90.7084 24.8416C91.196 25.1106 91.6716 25.375 92.1353 25.6349C92.6046 25.8923 93.0187 26.1218 93.3776 26.3232L91.1494 27.315C90.5839 26.9888 90.0378 26.6769 89.5113 26.3793C88.9878 26.0738 88.4747 25.7768 87.9719 25.4883L84.6729 23.5877L86.287 24.0711L83.5819 25.2752L82.8828 23.7047L85.0124 22.7568C85.6098 22.4909 86.0727 22.2027 86.4009 21.8925C86.7321 21.5743 86.9229 21.2135 86.9732 20.8102C87.029 20.4044 86.9386 19.9357 86.7019 19.404C86.5092 18.9709 86.2881 18.6589 86.0389 18.4677C85.7896 18.2766 85.5245 18.168 85.2437 18.1419C84.9683 18.1135 84.6905 18.1386 84.4103 18.2173C84.1301 18.2961 83.8639 18.3916 83.6118 18.5038L80.068 20.0813L80.841 18.2102C81.1411 18.8845 81.4265 19.5258 81.6974 20.1342C81.9682 20.7427 82.2635 21.4059 82.5831 22.124L84.2118 25.7829C84.5363 26.5119 84.8315 27.1752 85.0975 27.7727C85.3634 28.3702 85.6404 28.9923 85.9283 29.6391L84.0372 30.4809Z" fill="#040E07"/>
<path d="M92.8958 26.4118C92.9056 25.6813 92.9153 24.9128 92.9252 24.1065C92.935 23.3001 92.9485 22.5336 92.9659 21.8069L93.0247 17.1394C93.0421 16.2989 93.0556 15.5418 93.0654 14.8682C93.0732 14.189 93.083 13.5059 93.0947 12.8191L95.6991 11.9521C96.1315 12.5101 96.5506 13.0567 96.9564 13.5919C97.368 14.1252 97.8288 14.7212 98.3389 15.3798L101.178 19.0921C101.635 19.6862 102.104 20.2983 102.586 20.9284C103.071 21.5509 103.533 22.1497 103.971 22.7248L101.888 23.4184C101.436 22.8035 100.974 22.1734 100.5 21.5281C100.024 20.8771 99.5722 20.2622 99.1455 19.6833L95.0551 14.1205L94.8843 14.1774L94.8987 21.0307C94.9003 21.7763 94.9038 22.5561 94.9091 23.3701C94.9145 24.1841 94.918 24.9734 94.9196 25.738L92.8958 26.4118ZM94.4426 22.7097L94.1188 21.11L100.028 19.1429L100.693 20.6288L94.4426 22.7097Z" fill="#040E07"/>
<path d="M109.464 21.3657C109.114 20.786 108.737 20.1692 108.333 19.5152C107.935 18.86 107.567 18.2536 107.227 17.696L105.009 14.0683C104.757 13.6512 104.482 13.2023 104.184 12.7214C103.891 12.2334 103.59 11.7379 103.282 11.235C102.979 10.7307 102.687 10.2486 102.406 9.78858L104.69 9.28019C105.157 10.0799 105.652 10.9348 106.174 11.8451C106.701 12.7482 107.194 13.5973 107.654 14.3925L110.302 18.9572L110.478 18.9181L110.96 13.6289C111.047 12.6937 111.135 11.7214 111.224 10.712C111.318 9.70128 111.41 8.71888 111.499 7.76479L113.713 7.27204C113.655 7.81351 113.595 8.37387 113.534 8.95309C113.471 9.52646 113.407 10.0969 113.343 10.6644C113.283 11.2248 113.227 11.7474 113.175 12.2322L112.711 16.4847C112.642 17.1394 112.565 17.8449 112.482 18.6011C112.402 19.3502 112.325 20.0651 112.249 20.7459L109.464 21.3657Z" fill="#040E07"/>
<path d="M119.623 19.4134C119.53 18.7115 119.441 18.0363 119.356 17.3879C119.271 16.7395 119.176 16.0198 119.071 15.2286L118.548 11.2579C118.442 10.4549 118.346 9.72318 118.259 9.06288C118.171 8.39664 118.081 7.71255 117.989 7.01062L119.002 8.42945L117.422 8.63754C116.72 8.73002 116.099 8.81192 115.557 8.88324C115.016 8.95456 114.502 9.02236 114.014 9.08662L113.77 7.23959L124.201 5.86528L124.445 7.71232C123.963 7.77581 123.451 7.84321 122.91 7.91453C122.369 7.98585 121.744 8.06814 121.036 8.16141L119.457 8.36949L120.077 6.73552C120.169 7.43746 120.259 8.12155 120.347 8.78779C120.434 9.44808 120.53 10.1798 120.636 10.9828L121.159 14.9535C121.264 15.7447 121.358 16.4644 121.444 17.1128C121.529 17.7612 121.618 18.4364 121.711 19.1383L119.623 19.4134Z" fill="#040E07"/>
<path d="M131.198 18.2151C131.19 17.5071 131.182 16.8262 131.174 16.1722C131.167 15.5182 131.158 14.7923 131.149 13.9943L131.099 9.67464C131.09 8.85869 131.081 8.11774 131.073 7.45179C131.066 6.78583 131.058 6.09588 131.049 5.38193L139.077 5.28896L139.098 7.07984C138.516 7.08658 137.892 7.09381 137.226 7.10152C136.56 7.10923 135.774 7.11833 134.868 7.12882L132.267 7.15894L133.123 5.68193C133.131 6.38989 133.139 7.07984 133.147 7.75179C133.155 8.41775 133.163 9.1557 133.173 9.96565L133.219 13.9704C133.228 14.7683 133.237 15.4943 133.244 16.1482C133.252 16.8022 133.26 17.4831 133.268 18.1911L131.198 18.2151ZM132.691 12.6894L132.671 10.9615L135.002 10.9345C135.818 10.9251 136.52 10.9169 137.108 10.9101C137.696 10.9033 138.263 10.8968 138.809 10.8904L138.829 12.6183C138.247 12.6251 137.662 12.6318 137.074 12.6386C136.492 12.6454 135.805 12.6533 135.013 12.6625L132.691 12.6894Z" fill="#040E07"/>
<path d="M147.559 18.8226C146.448 18.7194 145.496 18.4534 144.705 18.0244C143.919 17.5959 143.283 17.0488 142.796 16.383C142.316 15.7177 141.978 14.9753 141.783 14.1558C141.587 13.3362 141.531 12.4844 141.613 11.6002C141.728 10.3635 142.079 9.26929 142.668 8.3176C143.263 7.36049 144.069 6.63383 145.085 6.13762C146.107 5.636 147.321 5.45034 148.725 5.58065C149.788 5.67935 150.707 5.9364 151.482 6.35179C152.263 6.76774 152.897 7.30563 153.384 7.96548C153.878 8.6199 154.225 9.36014 154.426 10.1862C154.626 11.0123 154.684 11.8853 154.598 12.8054C154.481 14.066 154.126 15.1718 153.531 16.1229C152.937 17.0741 152.132 17.7948 151.116 18.285C150.107 18.7698 148.921 18.949 147.559 18.8226ZM147.679 17.044C148.414 17.1123 149.062 17.0399 149.624 16.8269C150.186 16.6139 150.665 16.2968 151.059 15.8755C151.454 15.4541 151.762 14.9615 151.983 14.3975C152.21 13.8341 152.353 13.2357 152.412 12.6024C152.475 11.9214 152.441 11.2795 152.31 10.6768C152.179 10.0741 151.952 9.53483 151.629 9.05891C151.311 8.58354 150.898 8.19871 150.389 7.90441C149.881 7.60413 149.277 7.42156 148.578 7.35668C147.855 7.28959 147.213 7.35954 146.651 7.56653C146.09 7.77352 145.606 8.08712 145.199 8.50735C144.799 8.92812 144.482 9.41995 144.249 9.98283C144.016 10.5457 143.869 11.1527 143.809 11.8039C143.749 12.4492 143.779 13.0696 143.898 13.6652C144.017 14.2608 144.232 14.8019 144.543 15.2887C144.86 15.77 145.278 16.1674 145.797 16.4807C146.317 16.7881 146.944 16.9758 147.679 17.044Z" fill="#040E07"/>
<path d="M160.799 20.7284C159.707 20.4984 158.792 20.1249 158.055 19.6079C157.323 19.0921 156.754 18.4755 156.347 17.7583C155.946 17.0423 155.696 16.266 155.596 15.4295C155.496 14.593 155.538 13.7402 155.721 12.8713C155.977 11.656 156.452 10.6094 157.146 9.73149C157.846 8.84899 158.73 8.21959 159.797 7.84329C160.87 7.46235 162.097 7.41716 163.477 7.70774C164.522 7.92783 165.405 8.28867 166.127 8.79026C166.855 9.29308 167.423 9.90018 167.832 10.6116C168.247 11.3183 168.507 12.0935 168.611 12.9371C168.715 13.7807 168.672 14.6546 168.482 15.5588C168.221 16.7976 167.741 17.8553 167.041 18.732C166.341 19.6086 165.459 20.2321 164.394 20.6026C163.336 20.9684 162.137 21.0103 160.799 20.7284ZM161.122 18.9754C161.844 19.1275 162.497 19.13 163.079 18.9829C163.662 18.8359 164.174 18.5757 164.614 18.2025C165.055 17.8292 165.417 17.3751 165.701 16.8402C165.991 16.3066 166.202 15.7286 166.333 15.1062C166.474 14.4369 166.514 13.7954 166.453 13.1817C166.393 12.568 166.229 12.0062 165.962 11.4963C165.701 10.9876 165.335 10.5579 164.863 10.2072C164.393 9.85052 163.814 9.59986 163.127 9.4552C162.416 9.30558 161.77 9.30136 161.189 9.44254C160.607 9.58372 160.09 9.8397 159.638 10.2105C159.192 10.5825 158.821 11.0347 158.525 11.5671C158.229 12.0996 158.013 12.6857 157.879 13.3257C157.745 13.9598 157.703 14.5795 157.754 15.1849C157.804 15.7903 157.955 16.3525 158.208 16.8717C158.467 17.3862 158.837 17.8289 159.317 18.1998C159.798 18.5647 160.4 18.8233 161.122 18.9754Z" fill="#040E07"/>
<path d="M168.738 22.2511C168.959 21.5785 169.172 20.9315 169.376 20.3103C169.58 19.689 169.807 18.9993 170.056 18.2412L171.405 14.1372C171.66 13.362 171.891 12.6581 172.099 12.0254C172.307 11.3927 172.523 10.7372 172.746 10.0589C173.242 10.2219 173.735 10.384 174.225 10.5451C174.721 10.7081 175.217 10.8711 175.713 11.0341C176.209 11.1971 176.716 11.3639 177.234 11.5344C178.169 11.8417 178.954 12.2511 179.588 12.7626C180.229 13.2704 180.715 13.8689 181.044 14.5582C181.375 15.2417 181.546 15.999 181.557 16.83C181.574 17.6629 181.425 18.5581 181.11 19.5157C180.827 20.3764 180.446 21.1417 179.967 21.8116C179.495 22.4776 178.917 23.0075 178.232 23.4012C177.552 23.7968 176.753 24.0174 175.835 24.063C174.917 24.1085 173.874 23.9393 172.705 23.5552C172.198 23.3884 171.725 23.2329 171.286 23.0886C170.847 22.9443 170.42 22.8038 170.003 22.667C169.593 22.5321 169.171 22.3935 168.738 22.2511ZM171.287 21.27L173.253 21.9164C174.308 22.263 175.213 22.3427 175.97 22.1555C176.726 21.9683 177.353 21.5777 177.852 20.9836C178.35 20.3896 178.742 19.6594 179.026 18.793C179.244 18.1318 179.361 17.507 179.377 16.9188C179.396 16.3248 179.299 15.7816 179.089 15.2892C178.88 14.791 178.55 14.3541 178.098 13.9784C177.647 13.6027 177.063 13.2968 176.344 13.0608L174.215 12.3609C174.067 12.8112 173.918 13.2644 173.769 13.7204C173.621 14.1707 173.457 14.6694 173.277 15.2166L172.209 18.4656C172.033 19.0014 171.871 19.4944 171.723 19.9447C171.576 20.3893 171.431 20.8311 171.287 21.27Z" fill="#040E07"/>
<path d="M187.688 24.6299C187.431 24.5133 187.233 24.3609 187.094 24.1728C186.958 23.9792 186.879 23.7686 186.857 23.5412C186.843 23.3108 186.891 23.0754 187 22.8351C187.164 22.4745 187.407 22.2358 187.731 22.119C188.059 22.0046 188.415 22.0343 188.797 22.208C189.054 22.3246 189.252 22.4769 189.39 22.6651C189.531 22.8477 189.61 23.0516 189.627 23.2765C189.643 23.5014 189.598 23.7314 189.491 23.9663C189.33 24.3214 189.087 24.5668 188.762 24.7025C188.439 24.8327 188.081 24.8085 187.688 24.6299Z" fill="#040E07"/>
<path d="M198.757 35.3232C198.617 34.5482 198.488 33.821 198.369 33.1414C198.25 32.4618 198.133 31.7971 198.018 31.1474L197.431 27.8399L196.691 27.4105L197.541 25.9474L198.265 26.3678L200.974 25.485C201.613 25.2804 202.243 25.0738 202.864 24.8654C203.493 24.6547 204.223 24.4128 205.055 24.1396L207.218 25.3963C206.338 25.6692 205.477 25.9392 204.635 26.2063C203.801 26.4713 202.962 26.74 202.116 27.0124L198.923 28.0302L199.362 27.2028L200.025 31.0432C200.133 31.6334 200.244 32.2668 200.357 32.9433C200.476 33.6229 200.591 34.2861 200.701 34.9329C200.819 35.5775 200.921 36.143 201.006 36.6296L198.757 35.3232ZM192.126 31.4718C192.482 30.8596 192.824 30.2707 193.152 29.7052C193.481 29.1397 193.845 28.5119 194.246 27.8219L196.416 24.0863C196.826 23.3807 197.198 22.74 197.532 22.1641C197.867 21.5882 198.213 20.9915 198.572 20.3741L200.393 21.4319C200.035 22.0493 199.688 22.6459 199.353 23.2218C199.019 23.7977 198.647 24.4385 198.237 25.1441L196.067 28.8797C195.666 29.5697 195.302 30.1975 194.973 30.763C194.645 31.3285 194.303 31.9174 193.947 32.5296L192.126 31.4718Z" fill="#040E07"/>
<path d="M202.005 37.2549C202.417 36.6793 202.814 36.1257 203.195 35.594C203.576 35.0624 203.998 34.4721 204.463 33.8234L206.984 30.3041C207.452 29.6505 207.882 29.0505 208.273 28.5042C208.665 27.9579 209.066 27.397 209.479 26.8214C209.771 27.0311 210.113 27.2756 210.503 27.5551C210.893 27.8347 211.313 28.1351 211.761 28.4566C212.215 28.7815 212.688 29.1204 213.181 29.4733C213.995 30.0568 214.61 30.6411 215.025 31.2261C215.444 31.8063 215.64 32.4081 215.614 33.0317C215.591 33.6503 215.325 34.3157 214.815 35.0279C214.399 35.6083 213.906 36.0554 213.334 36.3692C212.767 36.6865 212.12 36.8063 211.394 36.7286C210.67 36.6461 209.871 36.2945 208.994 35.674L210.12 35.3846L210.203 38.5768C210.216 39.0734 210.23 39.6 210.245 40.1566C210.259 40.7133 210.272 41.2573 210.282 41.7888C210.297 42.3238 210.309 42.7971 210.317 43.2086L208.334 41.7883C208.329 41.1354 208.322 40.5066 208.312 39.9019C208.311 39.2958 208.308 38.7029 208.302 38.1233L208.273 34.316L208.672 35.9529L206.265 34.2286L207.266 32.8311L209.161 34.1885C209.693 34.5694 210.176 34.8229 210.609 34.949C211.051 35.0737 211.459 35.0558 211.832 34.8952C212.211 34.7381 212.569 34.4229 212.908 33.9498C213.184 33.5644 213.342 33.2159 213.38 32.9042C213.419 32.5925 213.379 32.3089 213.259 32.0534C213.144 31.8015 212.982 31.5746 212.772 31.3727C212.563 31.1709 212.346 30.9896 212.121 30.8289L208.968 28.57L210.973 28.2902C210.543 28.8902 210.134 29.4609 209.746 30.0023C209.359 30.5437 208.936 31.1339 208.478 31.7729L206.146 35.0288C205.681 35.6776 205.259 36.2678 204.878 36.7994C204.497 37.3311 204.1 37.8847 203.688 38.4603L202.005 37.2549Z" fill="#040E07"/>
<path d="M210.435 43.1842C211.071 42.8237 211.739 42.444 212.44 42.0452C213.141 41.6464 213.809 41.271 214.445 40.9189L218.503 38.6122C219.237 38.2027 219.898 37.8321 220.484 37.5003C221.074 37.164 221.669 36.8275 222.267 36.4906L224.331 38.3006C224.068 38.9556 223.808 39.5934 223.551 40.214C223.298 40.8385 223.017 41.5372 222.706 42.3101L220.936 46.6353C220.654 47.3298 220.363 48.0441 220.062 48.7781C219.77 49.5115 219.486 50.2125 219.211 50.881L217.56 49.433C217.863 48.7329 218.173 48.0153 218.491 47.2802C218.812 46.5406 219.115 45.8405 219.399 45.1799L222.134 38.8399L221.999 38.7212L216.091 42.195C215.448 42.573 214.777 42.9699 214.077 43.3856C213.378 43.8014 212.698 44.203 212.039 44.5906L210.435 43.1842ZM214.412 42.6494L215.629 41.562L220.311 45.6686L219.365 46.9934L214.412 42.6494Z" fill="#040E07"/>
<path d="M222.69 54.4549C223.011 53.8584 223.35 53.22 223.708 52.5398C224.07 51.8639 224.404 51.2381 224.712 50.6624L226.706 46.9072C226.937 46.4775 227.184 46.0123 227.446 45.5115C227.717 45.011 227.991 44.4999 228.267 43.9783C228.547 43.4611 228.814 42.9647 229.067 42.4891L230.666 44.1969C230.216 45.0057 229.731 45.8664 229.213 46.7791C228.703 47.6921 228.223 48.5487 227.773 49.349L225.19 53.9509L225.313 54.0822L230.112 51.8069C230.961 51.4059 231.843 50.9869 232.757 50.5499C233.676 50.1173 234.568 49.6965 235.435 49.2876L236.985 50.9429C236.49 51.1687 235.977 51.4023 235.447 51.6439C234.921 51.8814 234.398 52.1169 233.876 52.3503C233.364 52.584 232.885 52.8018 232.441 53.0038L228.544 54.7674C227.945 55.0407 227.299 55.3337 226.605 55.6463C225.92 55.9592 225.265 56.2562 224.64 56.5371L222.69 54.4549Z" fill="#040E07"/>
<path d="M230.161 62.9688C230.72 62.5338 231.257 62.1153 231.773 61.7134C232.289 61.3116 232.862 60.8655 233.491 60.3751L236.651 57.9141C237.29 57.4164 237.872 56.9629 238.398 56.5536C238.928 56.1407 239.472 55.7167 240.031 55.2816L239.32 56.8735L238.341 55.6167C237.906 55.0581 237.521 54.5635 237.185 54.1327C236.85 53.702 236.531 53.2925 236.228 52.9044L237.698 51.7596L244.163 60.0599L242.693 61.2047C242.395 60.8213 242.078 60.4142 241.742 59.9834C241.407 59.5527 241.02 59.0557 240.581 58.4924L239.602 57.2356L241.325 56.9431C240.766 57.3782 240.222 57.8022 239.692 58.2151C239.166 58.6244 238.584 59.0778 237.945 59.5756L234.786 62.0366C234.156 62.5269 233.583 62.9731 233.067 63.3749C232.551 63.7768 232.014 64.1953 231.455 64.6303L230.161 62.9688Z" fill="#040E07"/>
<path d="M237.095 72.4806C237.702 72.116 238.286 71.7653 238.847 71.4285C239.407 71.0918 240.03 70.7179 240.714 70.307L244.417 68.0824C245.116 67.6622 245.752 67.2806 246.323 66.9377C246.893 66.5947 247.485 66.2394 248.097 65.8718L252.231 72.7535L250.696 73.6758C250.396 73.1769 250.075 72.642 249.732 72.0711C249.389 71.5002 248.984 70.8264 248.517 70.0498L247.178 67.8201L248.885 67.8131C248.278 68.1776 247.687 68.5329 247.111 68.879C246.54 69.2219 245.907 69.602 245.213 70.0191L241.78 72.0814C241.096 72.4924 240.473 72.8662 239.913 73.203C239.352 73.5398 238.768 73.8904 238.161 74.255L237.095 72.4806ZM242.619 70.9789L244.1 70.0891L245.3 72.0873C245.721 72.7868 246.082 73.3886 246.385 73.8926C246.688 74.3967 246.98 74.8827 247.261 75.3508L245.779 76.2406C245.48 75.7417 245.179 75.2402 244.876 74.7362C244.576 74.2372 244.222 73.6483 243.814 72.9694L242.619 70.9789Z" fill="#040E07"/>
<path d="M244.323 85.952C243.847 84.9428 243.592 83.9883 243.558 83.0884C243.527 82.194 243.675 81.3679 244.001 80.6103C244.329 79.8582 244.796 79.1897 245.402 78.6048C246.009 78.0199 246.713 77.5379 247.516 77.1588C248.64 76.6285 249.76 76.3746 250.879 76.3971C252.006 76.4225 253.041 76.7464 253.985 77.3689C254.938 77.9942 255.715 78.9444 256.317 80.2194C256.773 81.1852 257.019 82.1073 257.056 82.9858C257.095 83.8697 256.954 84.6892 256.634 85.4442C256.321 86.2021 255.861 86.8775 255.252 87.4703C254.642 88.0632 253.92 88.5569 253.084 88.9514C251.94 89.4919 250.807 89.7482 249.685 89.7203C248.564 89.6923 247.534 89.3658 246.595 88.7408C245.665 88.1186 244.907 87.189 244.323 85.952ZM245.915 85.1504C246.23 85.8178 246.623 86.3393 247.092 86.7149C247.561 87.0904 248.078 87.341 248.641 87.4664C249.205 87.5918 249.785 87.6062 250.383 87.5096C250.984 87.4185 251.572 87.2371 252.147 86.9656C252.765 86.6736 253.301 86.3179 253.753 85.8987C254.205 85.4794 254.554 85.0095 254.799 84.489C255.047 83.9739 255.168 83.4224 255.163 82.8345C255.163 82.244 255.013 81.6314 254.713 80.9966C254.403 80.3401 254.016 79.8227 253.552 79.4446C253.088 79.0664 252.572 78.8092 252.003 78.673C251.437 78.5421 250.853 78.5196 250.25 78.6053C249.647 78.691 249.049 78.8735 248.458 79.1527C247.872 79.4294 247.353 79.7706 246.901 80.1765C246.449 80.5823 246.092 81.0426 245.831 81.5574C245.578 82.0751 245.449 82.6371 245.443 83.2436C245.443 83.8475 245.6 84.4831 245.915 85.1504Z" fill="#040E07"/>
<path d="M249.479 98.5432C249.123 97.4857 248.98 96.5081 249.051 95.6104C249.124 94.7184 249.366 93.915 249.777 93.2002C250.19 92.491 250.732 91.8811 251.402 91.3703C252.072 90.8596 252.827 90.4624 253.669 90.1787C254.846 89.782 255.989 89.6595 257.097 89.8114C258.213 89.967 259.204 90.4086 260.07 91.1362C260.944 91.8675 261.605 92.9012 262.056 94.2374C262.397 95.2494 262.535 96.1938 262.47 97.0706C262.406 97.9531 262.172 98.7508 261.766 99.4637C261.368 100.18 260.832 100.798 260.159 101.316C259.485 101.835 258.71 102.241 257.835 102.537C256.635 102.941 255.48 103.064 254.369 102.907C253.259 102.749 252.274 102.306 251.414 101.576C250.561 100.851 249.916 99.8396 249.479 98.5432ZM251.154 97.9314C251.389 98.6307 251.719 99.1941 252.141 99.6214C252.564 100.049 253.048 100.357 253.593 100.547C254.138 100.737 254.713 100.819 255.319 100.792C255.926 100.771 256.53 100.659 257.133 100.456C257.781 100.237 258.354 99.9458 258.852 99.5817C259.35 99.2176 259.751 98.7913 260.055 98.3026C260.36 97.8196 260.544 97.2859 260.607 96.7013C260.675 96.1147 260.597 95.4889 260.373 94.8236C260.141 94.1357 259.817 93.577 259.4 93.1477C258.983 92.7185 258.5 92.4032 257.951 92.2021C257.403 92.0066 256.825 91.9165 256.216 91.9318C255.607 91.9472 254.993 92.0593 254.373 92.2682C253.759 92.4752 253.204 92.7541 252.708 93.1049C252.212 93.4557 251.805 93.8716 251.486 94.3527C251.174 94.8376 250.981 95.3809 250.905 95.9826C250.835 96.5825 250.918 97.232 251.154 97.9314Z" fill="#040E07"/>
<path d="M252.17 106.19C252.861 106.039 253.527 105.894 254.166 105.754C254.804 105.615 255.514 105.46 256.293 105.289L260.514 104.367C261.311 104.192 262.035 104.034 262.685 103.892C263.336 103.75 264.01 103.602 264.708 103.45C264.819 103.96 264.93 104.467 265.04 104.971C265.152 105.481 265.263 105.991 265.375 106.501C265.486 107.011 265.6 107.533 265.717 108.066C265.927 109.027 265.972 109.911 265.854 110.717C265.742 111.527 265.473 112.249 265.047 112.883C264.626 113.515 264.061 114.047 263.351 114.479C262.642 114.917 261.795 115.243 260.81 115.458C259.925 115.652 259.072 115.712 258.252 115.64C257.438 115.572 256.688 115.343 256.001 114.952C255.315 114.568 254.719 113.992 254.214 113.224C253.708 112.456 253.324 111.472 253.061 110.27C252.947 109.748 252.841 109.262 252.742 108.811C252.644 108.359 252.548 107.92 252.454 107.492C252.362 107.07 252.267 106.636 252.17 106.19ZM254.309 107.888L254.751 109.91C254.988 110.994 255.38 111.815 255.925 112.371C256.47 112.927 257.126 113.269 257.891 113.397C258.655 113.525 259.483 113.491 260.374 113.296C261.054 113.148 261.652 112.931 262.167 112.647C262.688 112.361 263.107 112.002 263.424 111.57C263.747 111.137 263.956 110.631 264.05 110.052C264.145 109.472 264.111 108.813 263.95 108.074L263.471 105.885C263.008 105.986 262.542 106.088 262.073 106.191C261.61 106.292 261.097 106.404 260.534 106.527L257.193 107.257C256.642 107.378 256.135 107.489 255.672 107.59C255.215 107.69 254.761 107.789 254.309 107.888Z" fill="#040E07"/>
<path d="M259.679 123.399C259.649 123.118 259.68 122.87 259.771 122.655C259.868 122.44 260.009 122.264 260.194 122.13C260.385 122 260.612 121.921 260.874 121.893C261.268 121.85 261.597 121.938 261.862 122.157C262.128 122.382 262.284 122.703 262.329 123.12C262.359 123.401 262.329 123.649 262.237 123.864C262.152 124.078 262.017 124.25 261.832 124.378C261.646 124.507 261.425 124.585 261.169 124.613C260.781 124.655 260.446 124.571 260.164 124.36C259.887 124.148 259.726 123.828 259.679 123.399Z" fill="#040E07"/>
</svg>
