<svg width="70" height="22" viewBox="0 0 70 22" fill="none" xmlns="http://www.w3.org/2000/svg">
<path d="M3.76763 11.6509C3.9811 11.7631 4.22006 11.8219 4.46286 11.8219C4.70566 11.8219 4.94462 11.7631 5.15808 11.6509C5.82756 11.143 6.60861 10.0107 7.54416 9.32791C7.75328 9.16706 7.98813 9.04049 8.23938 8.95323L7.75015 11.0348C7.73888 11.0716 7.73544 11.1102 7.74005 11.1484C7.74466 11.1865 7.75721 11.2233 7.77694 11.2566C7.79668 11.2899 7.82318 11.3189 7.85485 11.3419C7.88651 11.3649 7.92268 11.3815 7.96114 11.3905C7.9996 11.3996 8.03955 11.4009 8.07857 11.3945C8.11759 11.3881 8.15486 11.3741 8.18811 11.3533C8.22137 11.3325 8.24991 11.3053 8.272 11.2734C8.29409 11.2416 8.30928 11.2057 8.31663 11.168L8.96894 8.67014C8.98068 8.62423 8.98137 8.57632 8.97095 8.53012C8.96053 8.48391 8.93929 8.44065 8.90886 8.4037C8.87822 8.3662 8.839 8.33615 8.7943 8.31592C8.74961 8.29568 8.70067 8.28583 8.65137 8.28713C8.10789 8.31361 7.58619 8.50266 7.15792 8.82833C6.21379 9.46945 5.36407 10.5768 4.72035 11.0348C4.56585 11.143 4.30836 11.0348 4.08521 10.9682C3.86205 10.9016 3.64747 10.7683 3.65605 10.6018C3.68101 10.1183 3.838 9.64993 4.11095 9.24464C4.55322 8.5924 5.0943 8.00856 5.71598 7.51279C6.29956 7.00067 7.0088 6.64232 7.7759 6.47202C8.56785 6.33473 9.37861 6.33473 10.1706 6.47202C10.9371 6.64747 11.7139 6.77815 12.4966 6.86335C13.0682 6.93437 13.648 6.91469 14.2132 6.80506C14.8448 6.71923 15.464 6.56276 16.0585 6.3388C16.6773 6.07479 17.2348 5.6925 17.6979 5.21476C18.0412 4.86506 18.3244 4.32385 18.6763 3.9575C18.7388 3.87228 18.8231 3.80439 18.921 3.76057C19.0189 3.71676 19.1269 3.69853 19.2342 3.70771C19.5146 3.72939 19.7757 3.85455 19.9638 4.05741C20.1315 4.30236 20.196 4.60034 20.144 4.89003C20.0782 5.37235 19.8762 5.82763 19.5604 6.20558C19.0305 6.84634 18.4057 7.4075 17.7064 7.87082C17.2142 8.17476 16.6833 8.41545 16.1272 8.58687C15.6029 8.78808 15.0429 8.8871 14.4792 8.87829C14.3333 8.87829 14.0758 9.01151 13.8698 9.35288C13.5361 9.95488 13.2741 10.5918 13.0888 11.2513C13.0727 11.3152 13.0823 11.3828 13.1158 11.44C13.1493 11.4973 13.2041 11.54 13.269 11.5593C13.3006 11.5694 13.3339 11.5731 13.367 11.5701C13.4001 11.5671 13.4321 11.5574 13.4611 11.5418C13.4902 11.5261 13.5156 11.5048 13.5357 11.4792C13.5558 11.4535 13.5702 11.4241 13.578 11.3928C13.7685 10.7154 14.0575 10.0678 14.4363 9.46945V9.46945C15.0547 9.48097 15.6704 9.38799 16.2559 9.19469C16.8588 9.00965 17.4354 8.75233 17.9725 8.42868C18.7774 7.95123 19.5012 7.3558 20.1183 6.66352C20.5579 6.1963 20.8551 5.61978 20.9766 4.99828C21.0521 4.52167 20.9419 4.03487 20.6676 3.63278C20.5156 3.43747 20.3249 3.27355 20.1068 3.1506C19.8887 3.02765 19.6475 2.94814 19.3973 2.91672C19.2038 2.88266 19.0051 2.88879 18.8142 2.93472C18.6234 2.98065 18.4447 3.06532 18.2901 3.18316C17.8201 3.62339 17.3841 4.09648 16.9855 4.59862C16.604 4.98202 16.1453 5.28527 15.6379 5.48952C15.1845 5.6697 14.7082 5.79012 14.2217 5.84755C14.6852 5.52503 15.0224 5.05971 15.1782 4.52746C15.3341 3.99521 15.2995 3.42744 15.08 2.91672C14.8828 2.48158 14.589 2.09402 14.2195 1.78171C13.8501 1.46939 13.4142 1.24001 12.9429 1.10993C12.6005 1.02785 12.2482 0.991436 11.8957 1.00169C11.5494 1.02058 11.2065 1.07928 10.8744 1.17654C10.4366 1.30747 10.0427 1.54933 9.73341 1.87718C9.42411 2.20503 9.21058 2.607 9.11485 3.04161C9.031 3.46084 9.04288 3.89279 9.14965 4.30709C9.25641 4.72138 9.45548 5.10794 9.73283 5.43956L9.79291 5.49785C9.04418 5.4027 8.2844 5.42802 7.54416 5.57278C6.63887 5.78181 5.80493 6.215 5.12375 6.83004C4.44995 7.3947 3.87082 8.05762 3.40715 8.79503C3.07508 9.32874 2.89171 9.93701 2.875 10.5602C2.90833 10.8033 3.00893 11.033 3.1661 11.2251C3.32327 11.4171 3.53115 11.5643 3.76763 11.6509V11.6509ZM10.0676 3.24977C10.1275 2.97643 10.2605 2.72324 10.4534 2.51567C10.6463 2.30811 10.8921 2.15351 11.1662 2.06745C11.4231 1.98843 11.6877 1.93541 11.9558 1.90925C12.215 1.87589 12.4777 1.87589 12.7369 1.90925C13.1083 1.9667 13.4594 2.11229 13.7589 2.33308C14.0584 2.55387 14.297 2.84303 14.4535 3.17483C15.1659 5.1648 11.9816 7.02155 10.4281 4.91501C10.2453 4.68029 10.1183 4.40933 10.056 4.12147C9.99365 3.83362 9.99761 3.53597 10.0676 3.24977V3.24977Z" fill="#040E07" stroke="#040E07" stroke-width="0.3"/>
<path d="M14.4094 15.7639C14.616 16.5331 14.717 17.3254 14.7098 18.1203C14.7215 18.7136 14.5799 19.3004 14.2979 19.8271C14.222 19.9483 14.11 20.0442 13.9766 20.1022C13.8432 20.1602 13.6949 20.1775 13.5511 20.1518C13.3435 20.137 13.1431 20.0711 12.969 19.9604C12.7948 19.8497 12.6525 19.6978 12.5555 19.5191C12.3114 18.7966 12.1643 18.0466 12.1178 17.2876C12.0179 16.7467 11.7619 16.2444 11.3796 15.8389C11.2236 15.6835 11.0366 15.5606 10.83 15.4775C10.6234 15.3945 10.4016 15.3531 10.178 15.3559C9.69203 15.3612 9.21802 15.5029 8.81332 15.7639C8.28493 16.1282 7.82603 16.579 7.4572 17.0961C6.92881 17.745 6.22437 18.238 5.42303 18.5199C4.63019 18.8155 3.75254 18.8155 2.9597 18.5199C2.79731 18.434 2.6601 18.3095 2.561 18.158C2.4619 18.0065 2.40416 17.8331 2.39322 17.654C2.36425 17.5704 2.35313 17.482 2.36053 17.3941C2.36792 17.3062 2.39369 17.2208 2.43625 17.1429C2.47881 17.065 2.53728 16.9963 2.60809 16.941C2.6789 16.8857 2.76057 16.845 2.84812 16.8214C3.47159 16.6941 4.07483 16.4869 4.64197 16.2052C5.20329 15.9371 5.71629 15.5829 6.16117 15.1561C6.20835 15.1094 6.23477 15.0466 6.23477 14.9813C6.23477 14.9159 6.20835 14.8531 6.16117 14.8064C6.13792 14.7827 6.10996 14.7639 6.07897 14.751C6.04799 14.7381 6.01463 14.7315 5.98092 14.7315C5.94721 14.7315 5.91386 14.7381 5.88287 14.751C5.85189 14.7639 5.82393 14.7827 5.80068 14.8064C5.38185 15.1912 4.90046 15.5062 4.3759 15.739C3.84227 15.9741 3.2798 16.142 2.70221 16.2385C2.36563 16.3051 2.069 16.4962 1.87514 16.7713C1.68128 17.0464 1.60544 17.3839 1.66367 17.7123C1.67297 18.0288 1.76635 18.3377 1.93475 18.609C2.10316 18.8803 2.3409 19.1049 2.62496 19.2609C3.5911 19.6647 4.67795 19.7033 5.67193 19.3692C6.65231 19.0541 7.52105 18.4769 8.17817 17.7039C8.47304 17.2745 8.83836 16.8948 9.25963 16.5799C9.51477 16.4168 9.81241 16.3273 10.1179 16.3218C10.2377 16.3245 10.355 16.3555 10.4597 16.4121C10.5644 16.4687 10.6533 16.5491 10.7187 16.6465C10.9052 16.8943 11.034 17.1784 11.0964 17.4791C11.1824 18.3195 11.3815 19.1452 11.6886 19.9354C11.8537 20.2418 12.0995 20.5003 12.4011 20.6845C12.7026 20.8688 13.0491 20.9723 13.4052 20.9845C13.7085 21.0278 14.0181 20.979 14.2917 20.8449C14.5652 20.7107 14.7892 20.4977 14.933 20.2351C15.2625 19.5802 15.4216 18.8569 15.3965 18.1286C15.3694 17.2817 15.228 16.4419 14.9759 15.6307C14.8748 15.3361 14.7334 15.0561 14.5554 14.7981C14.4094 14.515 13.6971 14.5566 13.843 14.7981C14.0937 15.0819 14.286 15.4098 14.4094 15.7639V15.7639Z" fill="#040E07" stroke="#040E07" stroke-width="0.3"/>
<path d="M19.9211 11.1512C19.8452 11.1533 19.7731 11.1841 19.7202 11.237C19.6674 11.2898 19.6378 11.3606 19.6378 11.4342C19.6608 11.7982 19.5868 12.1617 19.423 12.4898C19.2591 12.8179 19.0109 13.0996 18.7023 13.3076C18.0031 13.6717 17.2099 13.8308 16.4192 13.7656C15.1956 13.7166 13.9783 13.569 12.78 13.3243C11.544 13.1161 10.2995 12.883 9.05497 12.7914C7.95196 12.6928 6.84026 12.7404 5.75051 12.933C5.08103 13.0579 4.0339 13.2827 3.01252 13.5325C2.35163 13.699 1.70791 13.8738 1.20151 14.0403C1.16667 14.0479 1.13382 14.0624 1.10505 14.0828C1.07629 14.1033 1.05223 14.1294 1.0344 14.1594C1.01658 14.1894 1.00538 14.2227 1.00151 14.2571C0.997649 14.2915 1.0012 14.3264 1.01195 14.3594C1.0227 14.3924 1.04041 14.4229 1.06395 14.4489C1.08749 14.4749 1.11636 14.4959 1.14871 14.5106C1.18106 14.5252 1.2162 14.5331 1.25188 14.5339C1.28757 14.5346 1.32302 14.5282 1.356 14.5149C1.85382 14.3734 2.48896 14.2402 3.14985 14.1153C4.15406 13.9238 5.20978 13.7656 5.87925 13.6823C6.90548 13.562 7.94291 13.562 8.96914 13.6823C10.1793 13.8155 11.3295 14.0237 12.5568 14.1736C13.8346 14.3794 15.1247 14.5045 16.4192 14.5482C17.3593 14.5877 18.2889 14.3433 19.0799 13.8488C19.4816 13.5802 19.8023 13.2126 20.009 12.7838C20.2157 12.355 20.3008 11.8806 20.2558 11.4093C20.2527 11.3705 20.2414 11.3327 20.2226 11.2983C20.2038 11.2639 20.1778 11.2337 20.1464 11.2094C20.115 11.1852 20.0788 11.1675 20.04 11.1575C20.0012 11.1475 19.9607 11.1453 19.9211 11.1512V11.1512Z" fill="#A9D953" stroke="#A9D953" stroke-width="0.3"/>
<path d="M27.7676 11.6509C27.9811 11.7631 28.2201 11.8219 28.4629 11.8219C28.7057 11.8219 28.9446 11.7631 29.1581 11.6509C29.8276 11.143 30.6086 10.0107 31.5442 9.32791C31.7533 9.16706 31.9881 9.04049 32.2394 8.95323L31.7502 11.0348C31.7389 11.0716 31.7354 11.1102 31.74 11.1484C31.7447 11.1865 31.7572 11.2233 31.7769 11.2566C31.7967 11.2899 31.8232 11.3189 31.8548 11.3419C31.8865 11.3649 31.9227 11.3815 31.9611 11.3905C31.9996 11.3996 32.0396 11.4009 32.0786 11.3945C32.1176 11.3881 32.1549 11.3741 32.1881 11.3533C32.2214 11.3325 32.2499 11.3053 32.272 11.2734C32.2941 11.2416 32.3093 11.2057 32.3166 11.168L32.9689 8.67014C32.9807 8.62423 32.9814 8.57632 32.9709 8.53012C32.9605 8.48391 32.9393 8.44065 32.9089 8.4037C32.8782 8.3662 32.839 8.33615 32.7943 8.31592C32.7496 8.29568 32.7007 8.28583 32.6514 8.28713C32.1079 8.31361 31.5862 8.50266 31.1579 8.82833C30.2138 9.46945 29.3641 10.5768 28.7203 11.0348C28.5659 11.143 28.3084 11.0348 28.0852 10.9682C27.862 10.9016 27.6475 10.7683 27.6561 10.6018C27.681 10.1183 27.838 9.64993 28.111 9.24464C28.5532 8.5924 29.0943 8.00856 29.716 7.51279C30.2996 7.00067 31.0088 6.64232 31.7759 6.47202C32.5678 6.33473 33.3786 6.33473 34.1706 6.47202C34.9371 6.64747 35.7139 6.77815 36.4966 6.86335C37.0682 6.93437 37.648 6.91469 38.2132 6.80506C38.8448 6.71923 39.464 6.56276 40.0585 6.3388C40.6773 6.07479 41.2348 5.6925 41.6979 5.21476C42.0412 4.86506 42.3244 4.32385 42.6763 3.9575C42.7388 3.87228 42.8231 3.80439 42.921 3.76057C43.0189 3.71676 43.1269 3.69853 43.2342 3.70771C43.5146 3.72939 43.7757 3.85455 43.9638 4.05741C44.1315 4.30236 44.196 4.60034 44.144 4.89003C44.0782 5.37235 43.8762 5.82763 43.5604 6.20558C43.0305 6.84634 42.4057 7.4075 41.7064 7.87082C41.2142 8.17476 40.6833 8.41545 40.1272 8.58687C39.6029 8.78808 39.0429 8.8871 38.4792 8.87829C38.3333 8.87829 38.0758 9.01151 37.8698 9.35288C37.5361 9.95488 37.2741 10.5918 37.0888 11.2513C37.0727 11.3152 37.0823 11.3828 37.1158 11.44C37.1493 11.4973 37.2041 11.54 37.269 11.5593C37.3006 11.5694 37.3339 11.5731 37.367 11.5701C37.4001 11.5671 37.4321 11.5574 37.4611 11.5418C37.4902 11.5261 37.5156 11.5048 37.5357 11.4792C37.5558 11.4535 37.5702 11.4241 37.578 11.3928C37.7685 10.7154 38.0575 10.0678 38.4363 9.46945V9.46945C39.0547 9.48097 39.6704 9.38799 40.2559 9.19469C40.8588 9.00965 41.4354 8.75233 41.9725 8.42868C42.7774 7.95123 43.5012 7.3558 44.1183 6.66352C44.5579 6.1963 44.8551 5.61978 44.9766 4.99828C45.0521 4.52167 44.9419 4.03487 44.6676 3.63278C44.5156 3.43747 44.3249 3.27355 44.1068 3.1506C43.8887 3.02765 43.6475 2.94814 43.3973 2.91672C43.2038 2.88266 43.0051 2.88879 42.8142 2.93472C42.6234 2.98065 42.4447 3.06532 42.2901 3.18316C41.8201 3.62339 41.3841 4.09648 40.9855 4.59862C40.604 4.98202 40.1453 5.28527 39.6379 5.48952C39.1845 5.6697 38.7082 5.79012 38.2217 5.84755C38.6852 5.52503 39.0224 5.05971 39.1782 4.52746C39.3341 3.99521 39.2995 3.42744 39.08 2.91672C38.8828 2.48158 38.589 2.09402 38.2195 1.78171C37.8501 1.46939 37.4142 1.24001 36.9429 1.10993C36.6005 1.02785 36.2482 0.991436 35.8957 1.00169C35.5494 1.02058 35.2065 1.07928 34.8744 1.17654C34.4366 1.30747 34.0427 1.54933 33.7334 1.87718C33.4241 2.20503 33.2106 2.607 33.1149 3.04161C33.031 3.46084 33.0429 3.89279 33.1496 4.30709C33.2564 4.72138 33.4555 5.10794 33.7328 5.43956L33.7929 5.49785C33.0442 5.4027 32.2844 5.42802 31.5442 5.57278C30.6389 5.78181 29.8049 6.215 29.1237 6.83004C28.4499 7.3947 27.8708 8.05762 27.4071 8.79503C27.0751 9.32874 26.8917 9.93701 26.875 10.5602C26.9083 10.8033 27.0089 11.033 27.1661 11.2251C27.3233 11.4171 27.5311 11.5643 27.7676 11.6509V11.6509ZM34.0676 3.24977C34.1275 2.97643 34.2605 2.72324 34.4534 2.51567C34.6463 2.30811 34.8921 2.15351 35.1662 2.06745C35.4231 1.98843 35.6877 1.93541 35.9558 1.90925C36.215 1.87589 36.4777 1.87589 36.7369 1.90925C37.1083 1.9667 37.4594 2.11229 37.7589 2.33308C38.0584 2.55387 38.297 2.84303 38.4535 3.17483C39.1659 5.1648 35.9816 7.02155 34.4281 4.91501C34.2453 4.68029 34.1183 4.40933 34.056 4.12147C33.9937 3.83362 33.9976 3.53597 34.0676 3.24977V3.24977Z" fill="#040E07" stroke="#040E07" stroke-width="0.3"/>
<path d="M38.4094 15.7639C38.616 16.5331 38.717 17.3254 38.7098 18.1203C38.7215 18.7136 38.5799 19.3004 38.2979 19.8271C38.222 19.9483 38.11 20.0442 37.9766 20.1022C37.8432 20.1602 37.6949 20.1775 37.5511 20.1518C37.3435 20.137 37.1431 20.0711 36.969 19.9604C36.7948 19.8497 36.6525 19.6978 36.5555 19.5191C36.3114 18.7966 36.1643 18.0466 36.1178 17.2876C36.0179 16.7467 35.7619 16.2444 35.3796 15.8389C35.2236 15.6835 35.0366 15.5606 34.83 15.4775C34.6234 15.3945 34.4016 15.3531 34.178 15.3559C33.692 15.3612 33.218 15.5029 32.8133 15.7639C32.2849 16.1282 31.826 16.579 31.4572 17.0961C30.9288 17.745 30.2244 18.238 29.423 18.5199C28.6302 18.8155 27.7525 18.8155 26.9597 18.5199C26.7973 18.434 26.6601 18.3095 26.561 18.158C26.4619 18.0065 26.4042 17.8331 26.3932 17.654C26.3643 17.5704 26.3531 17.482 26.3605 17.3941C26.3679 17.3062 26.3937 17.2208 26.4363 17.1429C26.4788 17.065 26.5373 16.9963 26.6081 16.941C26.6789 16.8857 26.7606 16.845 26.8481 16.8214C27.4716 16.6941 28.0748 16.4869 28.642 16.2052C29.2033 15.9371 29.7163 15.5829 30.1612 15.1561C30.2083 15.1094 30.2348 15.0466 30.2348 14.9813C30.2348 14.9159 30.2083 14.8531 30.1612 14.8064C30.1379 14.7827 30.11 14.7639 30.079 14.751C30.048 14.7381 30.0146 14.7315 29.9809 14.7315C29.9472 14.7315 29.9139 14.7381 29.8829 14.751C29.8519 14.7639 29.8239 14.7827 29.8007 14.8064C29.3819 15.1912 28.9005 15.5062 28.3759 15.739C27.8423 15.9741 27.2798 16.142 26.7022 16.2385C26.3656 16.3051 26.069 16.4962 25.8751 16.7713C25.6813 17.0464 25.6054 17.3839 25.6637 17.7123C25.673 18.0288 25.7663 18.3377 25.9348 18.609C26.1032 18.8803 26.3409 19.1049 26.625 19.2609C27.5911 19.6647 28.6779 19.7033 29.6719 19.3692C30.6523 19.0541 31.521 18.4769 32.1782 17.7039C32.473 17.2745 32.8384 16.8948 33.2596 16.5799C33.5148 16.4168 33.8124 16.3273 34.1179 16.3218C34.2377 16.3245 34.355 16.3555 34.4597 16.4121C34.5644 16.4687 34.6533 16.5491 34.7187 16.6465C34.9052 16.8943 35.034 17.1784 35.0964 17.4791C35.1824 18.3195 35.3815 19.1452 35.6886 19.9354C35.8537 20.2418 36.0995 20.5003 36.4011 20.6845C36.7026 20.8688 37.0491 20.9723 37.4052 20.9845C37.7085 21.0278 38.0181 20.979 38.2917 20.8449C38.5652 20.7107 38.7892 20.4977 38.933 20.2351C39.2625 19.5802 39.4216 18.8569 39.3965 18.1286C39.3694 17.2817 39.228 16.4419 38.9759 15.6307C38.8748 15.3361 38.7334 15.0561 38.5554 14.7981C38.4094 14.515 37.6971 14.5566 37.843 14.7981C38.0937 15.0819 38.286 15.4098 38.4094 15.7639V15.7639Z" fill="#040E07" stroke="#040E07" stroke-width="0.3"/>
<path d="M43.9211 11.1512C43.8452 11.1533 43.7731 11.1841 43.7202 11.237C43.6674 11.2898 43.6378 11.3606 43.6378 11.4342C43.6608 11.7982 43.5868 12.1617 43.423 12.4898C43.2591 12.8179 43.0109 13.0996 42.7023 13.3076C42.0031 13.6717 41.2099 13.8308 40.4192 13.7656C39.1956 13.7166 37.9783 13.569 36.78 13.3243C35.544 13.1161 34.2995 12.883 33.055 12.7914C31.952 12.6928 30.8403 12.7404 29.7505 12.933C29.081 13.0579 28.0339 13.2827 27.0125 13.5325C26.3516 13.699 25.7079 13.8738 25.2015 14.0403C25.1667 14.0479 25.1338 14.0624 25.1051 14.0828C25.0763 14.1033 25.0522 14.1294 25.0344 14.1594C25.0166 14.1894 25.0054 14.2227 25.0015 14.2571C24.9976 14.2915 25.0012 14.3264 25.012 14.3594C25.0227 14.3924 25.0404 14.4229 25.064 14.4489C25.0875 14.4749 25.1164 14.4959 25.1487 14.5106C25.1811 14.5252 25.2162 14.5331 25.2519 14.5339C25.2876 14.5346 25.323 14.5282 25.356 14.5149C25.8538 14.3734 26.489 14.2402 27.1499 14.1153C28.1541 13.9238 29.2098 13.7656 29.8793 13.6823C30.9055 13.562 31.9429 13.562 32.9691 13.6823C34.1793 13.8155 35.3295 14.0237 36.5568 14.1736C37.8346 14.3794 39.1247 14.5045 40.4192 14.5482C41.3593 14.5877 42.2889 14.3433 43.0799 13.8488C43.4816 13.5802 43.8023 13.2126 44.009 12.7838C44.2157 12.355 44.3008 11.8806 44.2558 11.4093C44.2527 11.3705 44.2414 11.3327 44.2226 11.2983C44.2038 11.2639 44.1778 11.2337 44.1464 11.2094C44.115 11.1852 44.0788 11.1675 44.04 11.1575C44.0012 11.1475 43.9607 11.1453 43.9211 11.1512V11.1512Z" fill="#A9D953" stroke="#A9D953" stroke-width="0.3"/>
<g opacity="0.2">
<path d="M51.7671 11.6509C51.9806 11.7631 52.2196 11.8219 52.4624 11.8219C52.7052 11.8219 52.9441 11.7631 53.1576 11.6509C53.8271 11.143 54.6081 10.0107 55.5437 9.32791C55.7528 9.16706 55.9876 9.04049 56.2389 8.95323L55.7497 11.0348C55.7384 11.0716 55.735 11.1102 55.7396 11.1484C55.7442 11.1865 55.7567 11.2233 55.7765 11.2566C55.7962 11.2899 55.8227 11.3189 55.8544 11.3419C55.886 11.3649 55.9222 11.3815 55.9606 11.3905C55.9991 11.3996 56.0391 11.4009 56.0781 11.3945C56.1171 11.3881 56.1544 11.3741 56.1876 11.3533C56.2209 11.3325 56.2494 11.3053 56.2715 11.2734C56.2936 11.2416 56.3088 11.2057 56.3161 11.168L56.9685 8.67014C56.9802 8.62423 56.9809 8.57632 56.9705 8.53012C56.96 8.48391 56.9388 8.44065 56.9084 8.4037C56.8777 8.3662 56.8385 8.33615 56.7938 8.31592C56.7491 8.29568 56.7002 8.28583 56.6509 8.28713C56.1074 8.31361 55.5857 8.50266 55.1574 8.82833C54.2133 9.46945 53.3636 10.5768 52.7199 11.0348C52.5654 11.143 52.3079 11.0348 52.0847 10.9682C51.8616 10.9016 51.647 10.7683 51.6556 10.6018C51.6805 10.1183 51.8375 9.64993 52.1105 9.24464C52.5527 8.5924 53.0938 8.00856 53.7155 7.51279C54.2991 7.00067 55.0083 6.64232 55.7754 6.47202C56.5674 6.33473 57.3781 6.33473 58.1701 6.47202C58.9366 6.64747 59.7134 6.77815 60.4961 6.86335C61.0677 6.93437 61.6475 6.91469 62.2127 6.80506C62.8443 6.71923 63.4635 6.56276 64.058 6.3388C64.6768 6.07479 65.2343 5.6925 65.6974 5.21476C66.0407 4.86506 66.3239 4.32385 66.6758 3.9575C66.7383 3.87228 66.8227 3.80439 66.9205 3.76057C67.0184 3.71676 67.1264 3.69853 67.2337 3.70771C67.5141 3.72939 67.7752 3.85455 67.9633 4.05741C68.131 4.30236 68.1955 4.60034 68.1435 4.89003C68.0777 5.37235 67.8757 5.82763 67.5599 6.20558C67.03 6.84634 66.4052 7.4075 65.706 7.87082C65.2137 8.17476 64.6828 8.41545 64.1267 8.58687C63.6024 8.78808 63.0425 8.8871 62.4787 8.87829C62.3328 8.87829 62.0753 9.01151 61.8694 9.35288C61.5356 9.95488 61.2736 10.5918 61.0883 11.2513C61.0722 11.3152 61.0818 11.3828 61.1153 11.44C61.1489 11.4973 61.2037 11.54 61.2685 11.5593C61.3001 11.5694 61.3334 11.5731 61.3665 11.5701C61.3996 11.5671 61.4316 11.5574 61.4607 11.5418C61.4897 11.5261 61.5151 11.5048 61.5352 11.4792C61.5553 11.4535 61.5697 11.4241 61.5775 11.3928C61.768 10.7154 62.057 10.0678 62.4358 9.46945V9.46945C63.0542 9.48097 63.6699 9.38799 64.2554 9.19469C64.8583 9.00965 65.4349 8.75233 65.972 8.42868C66.7769 7.95123 67.5007 7.3558 68.1178 6.66352C68.5574 6.1963 68.8546 5.61978 68.9761 4.99828C69.0516 4.52167 68.9415 4.03487 68.6671 3.63278C68.5151 3.43747 68.3244 3.27355 68.1063 3.1506C67.8882 3.02765 67.647 2.94814 67.3968 2.91672C67.2033 2.88266 67.0046 2.88879 66.8137 2.93472C66.6229 2.98065 66.4442 3.06532 66.2896 3.18316C65.8196 3.62339 65.3836 4.09648 64.985 4.59862C64.6035 4.98202 64.1448 5.28527 63.6375 5.48952C63.184 5.6697 62.7077 5.79012 62.2213 5.84755C62.6847 5.52503 63.0219 5.05971 63.1777 4.52746C63.3336 3.99521 63.299 3.42744 63.0796 2.91672C62.8823 2.48158 62.5885 2.09402 62.2191 1.78171C61.8496 1.46939 61.4137 1.24001 60.9424 1.10993C60.6 1.02785 60.2478 0.991436 59.8953 1.00169C59.5489 1.02058 59.206 1.07928 58.8739 1.17654C58.4361 1.30747 58.0422 1.54933 57.7329 1.87718C57.4236 2.20503 57.2101 2.607 57.1144 3.04161C57.0305 3.46084 57.0424 3.89279 57.1492 4.30709C57.2559 4.72138 57.455 5.10794 57.7323 5.43956L57.7924 5.49785C57.0437 5.4027 56.2839 5.42802 55.5437 5.57278C54.6384 5.78181 53.8044 6.215 53.1233 6.83004C52.4495 7.3947 51.8703 8.05762 51.4067 8.79503C51.0746 9.32874 50.8912 9.93701 50.8745 10.5602C50.9078 10.8033 51.0084 11.033 51.1656 11.2251C51.3228 11.4171 51.5307 11.5643 51.7671 11.6509V11.6509ZM58.0671 3.24977C58.127 2.97643 58.2601 2.72324 58.4529 2.51567C58.6458 2.30811 58.8916 2.15351 59.1657 2.06745C59.4226 1.98843 59.6872 1.93541 59.9553 1.90925C60.2146 1.87589 60.4772 1.87589 60.7364 1.90925C61.1079 1.9667 61.4589 2.11229 61.7584 2.33308C62.0579 2.55387 62.2965 2.84303 62.453 3.17483C63.1654 5.1648 59.9811 7.02155 58.4276 4.91501C58.2448 4.68029 58.1178 4.40933 58.0555 4.12147C57.9932 3.83362 57.9971 3.53597 58.0671 3.24977V3.24977Z" fill="#040E07" stroke="#040E07" stroke-width="0.3"/>
<path d="M62.409 15.7639C62.6155 16.5331 62.7165 17.3254 62.7094 18.1203C62.721 18.7136 62.5794 19.3004 62.2974 19.8271C62.2215 19.9483 62.1095 20.0442 61.9761 20.1022C61.8428 20.1602 61.6944 20.1775 61.5507 20.1518C61.343 20.137 61.1426 20.0711 60.9685 19.9604C60.7943 19.8497 60.652 19.6978 60.555 19.5191C60.3109 18.7966 60.1638 18.0466 60.1173 17.2876C60.0174 16.7467 59.7615 16.2444 59.3792 15.8389C59.2231 15.6835 59.0361 15.5606 58.8295 15.4775C58.623 15.3945 58.4011 15.3531 58.1775 15.3559C57.6915 15.3612 57.2175 15.5029 56.8128 15.7639C56.2844 16.1282 55.8255 16.579 55.4567 17.0961C54.9283 17.745 54.2239 18.238 53.4225 18.5199C52.6297 18.8155 51.7521 18.8155 50.9592 18.5199C50.7968 18.434 50.6596 18.3095 50.5605 18.158C50.4614 18.0065 50.4037 17.8331 50.3927 17.654C50.3638 17.5704 50.3526 17.482 50.36 17.3941C50.3674 17.3062 50.3932 17.2208 50.4358 17.1429C50.4783 17.065 50.5368 16.9963 50.6076 16.941C50.6784 16.8857 50.7601 16.845 50.8476 16.8214C51.4711 16.6941 52.0743 16.4869 52.6415 16.2052C53.2028 15.9371 53.7158 15.5829 54.1607 15.1561C54.2079 15.1094 54.2343 15.0466 54.2343 14.9813C54.2343 14.9159 54.2079 14.8531 54.1607 14.8064C54.1374 14.7827 54.1095 14.7639 54.0785 14.751C54.0475 14.7381 54.0141 14.7315 53.9804 14.7315C53.9467 14.7315 53.9134 14.7381 53.8824 14.751C53.8514 14.7639 53.8234 14.7827 53.8002 14.8064C53.3814 15.1912 52.9 15.5062 52.3754 15.739C51.8418 15.9741 51.2793 16.142 50.7017 16.2385C50.3651 16.3051 50.0685 16.4962 49.8747 16.7713C49.6808 17.0464 49.6049 17.3839 49.6632 17.7123C49.6725 18.0288 49.7659 18.3377 49.9343 18.609C50.1027 18.8803 50.3404 19.1049 50.6245 19.2609C51.5906 19.6647 52.6775 19.7033 53.6714 19.3692C54.6518 19.0541 55.5206 18.4769 56.1777 17.7039C56.4726 17.2745 56.8379 16.8948 57.2591 16.5799C57.5143 16.4168 57.8119 16.3273 58.1174 16.3218C58.2372 16.3245 58.3545 16.3555 58.4592 16.4121C58.5639 16.4687 58.6528 16.5491 58.7183 16.6465C58.9047 16.8943 59.0335 17.1784 59.0959 17.4791C59.1819 18.3195 59.381 19.1452 59.6881 19.9354C59.8532 20.2418 60.099 20.5003 60.4006 20.6845C60.7021 20.8688 61.0486 20.9723 61.4047 20.9845C61.708 21.0278 62.0176 20.979 62.2912 20.8449C62.5647 20.7107 62.7887 20.4977 62.9325 20.2351C63.262 19.5802 63.4211 18.8569 63.396 18.1286C63.3689 17.2817 63.2275 16.4419 62.9754 15.6307C62.8743 15.3361 62.7329 15.0561 62.5549 14.7981C62.409 14.515 61.6966 14.5566 61.8425 14.7981C62.0932 15.0819 62.2855 15.4098 62.409 15.7639V15.7639Z" fill="#040E07" stroke="#040E07" stroke-width="0.3"/>
<path d="M67.9206 11.1512C67.8447 11.1533 67.7726 11.1841 67.7198 11.237C67.6669 11.2898 67.6373 11.3606 67.6373 11.4342C67.6603 11.7982 67.5863 12.1617 67.4225 12.4898C67.2586 12.8179 67.0104 13.0996 66.7018 13.3076C66.0026 13.6717 65.2094 13.8308 64.4187 13.7656C63.1951 13.7166 61.9779 13.569 60.7795 13.3243C59.5436 13.1161 58.299 12.883 57.0545 12.7914C55.9515 12.6928 54.8398 12.7404 53.75 12.933C53.0805 13.0579 52.0334 13.2827 51.012 13.5325C50.3511 13.699 49.7074 13.8738 49.201 14.0403C49.1662 14.0479 49.1333 14.0624 49.1046 14.0828C49.0758 14.1033 49.0517 14.1294 49.0339 14.1594C49.0161 14.1894 49.0049 14.2227 49.001 14.2571C48.9972 14.2915 49.0007 14.3264 49.0115 14.3594C49.0222 14.3924 49.0399 14.4229 49.0635 14.4489C49.087 14.4749 49.1159 14.4959 49.1482 14.5106C49.1806 14.5252 49.2157 14.5331 49.2514 14.5339C49.2871 14.5346 49.3225 14.5282 49.3555 14.5149C49.8533 14.3734 50.4885 14.2402 51.1494 14.1153C52.1536 13.9238 53.2093 13.7656 53.8788 13.6823C54.905 13.562 55.9424 13.562 56.9686 13.6823C58.1789 13.8155 59.329 14.0237 60.5563 14.1736C61.8341 14.3794 63.1243 14.5045 64.4187 14.5482C65.3588 14.5877 66.2884 14.3433 67.0794 13.8488C67.4812 13.5802 67.8018 13.2126 68.0085 12.7838C68.2152 12.355 68.3004 11.8806 68.2553 11.4093C68.2522 11.3705 68.2409 11.3327 68.2221 11.2983C68.2033 11.2639 68.1774 11.2337 68.1459 11.2094C68.1145 11.1852 68.0783 11.1675 68.0395 11.1575C68.0007 11.1475 67.9603 11.1453 67.9206 11.1512V11.1512Z" fill="#A9D953" stroke="#A9D953" stroke-width="0.3"/>
</g>
</svg>
