<svg width="48" height="48" viewBox="0 0 48 48" fill="none" xmlns="http://www.w3.org/2000/svg">
<g id="Stockholm-icons / Cooking / Bowl">
<path id="Rectangle" opacity="0.3" d="M16 34H32V39C32 39.5523 31.5523 40 31 40H17C16.4477 40 16 39.5523 16 39V34Z" fill="#A9D953"/>
<path id="Combined Shape" fill-rule="evenodd" clip-rule="evenodd" d="M44 14H4V16C4 27.0457 12.9543 36 24 36C35.0457 36 44 27.0457 44 16V14ZM37.7883 18.1617C36.773 17.7266 35.5973 18.1969 35.1621 19.2122C33.3424 23.4581 30.6673 26.4305 27.106 28.2112C26.1181 28.7051 25.7176 29.9065 26.2116 30.8945C26.7056 31.8824 27.9069 32.2829 28.8949 31.7889C33.3336 29.5695 36.6584 25.8752 38.8387 20.7879C39.2738 19.7726 38.8035 18.5968 37.7883 18.1617Z" fill="#A9D953"/>
</g>
</svg>
