<svg width="48" height="48" viewBox="0 0 48 48" fill="none" xmlns="http://www.w3.org/2000/svg">
<g id="Stockholm-icons / Food / Fish">
<path id="Combined Shape" opacity="0.3" fill-rule="evenodd" clip-rule="evenodd" d="M12.4749 18.3639C9.90058 15.7896 6.41162 14.6872 3.05401 15.0569C2.68704 18.3899 3.77051 21.8522 6.30443 24.4209C3.77051 26.9896 2.68704 30.4519 3.05401 33.7849C6.41162 34.1546 9.90058 33.0522 12.4749 30.4779C13.2721 29.6807 13.9281 28.7958 14.443 27.8543C14.89 27.857 15.3371 27.8338 15.7819 27.7849C15.9052 26.6652 15.8648 25.531 15.6607 24.4209C15.8648 23.3108 15.9052 22.1766 15.7819 21.0569C15.3371 21.008 14.89 20.9848 14.443 20.9875C13.9281 20.046 13.2721 19.1611 12.4749 18.3639Z" fill="#A9D953"/>
<path id="Combined Shape_2" fill-rule="evenodd" clip-rule="evenodd" d="M46.8168 25.1905C42.4207 18.2986 35.6249 12 27.9983 12C20.3716 12 13.5758 18.2986 9.17969 25.1905C13.5758 31.7014 20.3716 38 27.9983 38C35.6249 38 42.4207 31.7014 46.8168 25.1905ZM42 24C42 25.1046 41.1046 26 40 26C38.8954 26 38 25.1046 38 24C38 22.8954 38.8954 22 40 22C41.1046 22 42 22.8954 42 24Z" fill="#A9D953"/>
</g>
</svg>
