<svg width="48" height="48" viewBox="0 0 48 48" fill="none" xmlns="http://www.w3.org/2000/svg">
<g id="Stockholm-icons / Cooking / Knife&#38;fork#2">
<path id="Path 65" fill-rule="evenodd" clip-rule="evenodd" d="M7.97596 6.12012L22.1181 20.2623L16.4612 25.9191L7.97596 17.4338C4.85176 14.3096 4.85176 9.24431 7.97596 6.12012Z" fill="#A9D953"/>
<path id="Combined Shape" fill-rule="evenodd" clip-rule="evenodd" d="M35.5081 7.81422L29.7774 14.8184C29.4179 15.2578 29.4498 15.8981 29.8513 16.2995C30.2527 16.7009 30.893 16.7328 31.3323 16.3734L38.3365 10.6426L39.7508 12.0569L34.02 19.0611C33.6605 19.5004 33.6925 20.1407 34.0939 20.5421C34.4953 20.9436 35.1356 20.9755 35.575 20.616L42.5792 14.8853L43.9934 16.2995L37.6294 22.6635C34.8958 25.3971 30.4636 25.3971 27.7299 22.6635C24.9963 19.9298 24.9963 15.4976 27.7299 12.764L34.0939 6.4L35.5081 7.81422Z" fill="#A9D953"/>
<path id="Rectangle" opacity="0.3" fill-rule="evenodd" clip-rule="evenodd" d="M22.1479 27.849C22.9402 28.6414 22.9724 29.9157 22.2211 30.747L12.2809 41.7447C11.2246 42.9134 9.42089 43.0045 8.25223 41.9482C8.21663 41.916 8.18185 41.883 8.14792 41.849C7.03403 40.7351 7.03403 38.9292 8.14792 37.8153C8.18185 37.7813 8.21663 37.7483 8.25223 37.7161L19.25 27.7759C20.0812 27.0245 21.3556 27.0567 22.1479 27.849Z" fill="#A9D953"/>
<path id="Rectangle Copy" opacity="0.3" fill-rule="evenodd" clip-rule="evenodd" d="M26.1474 27.849C26.9397 27.0567 28.214 27.0245 29.0453 27.7759L40.0431 37.7161C40.0787 37.7483 40.1134 37.7813 40.1474 37.8153C41.2613 38.9292 41.2613 40.7351 40.1474 41.849C40.1134 41.883 40.0787 41.916 40.0431 41.9482C38.8744 43.0045 37.0707 42.9134 36.0144 41.7447L26.0742 30.747C25.3229 29.9157 25.355 28.6414 26.1474 27.849Z" fill="#A9D953"/>
</g>
</svg>
