<svg width="145" height="145" viewBox="0 0 145 145" fill="none" xmlns="http://www.w3.org/2000/svg">
<path d="M129.574 80.0784L134.631 75.6792L130.002 75.2674L130.145 73.6498L140.046 74.5303L139.902 76.1479L135.635 75.7684L139.549 80.1223L139.365 82.1861L135.016 77.3578L129.378 82.2817L129.574 80.0784Z" fill="#040E07"/>
<path d="M128.958 84.0326L138.542 86.6689L137.591 90.1245C137.349 91.0064 136.899 91.6378 136.242 92.0187C135.592 92.411 134.867 92.497 134.066 92.2767C133.391 92.0911 132.885 91.7486 132.548 91.2493C132.218 90.7616 132.073 90.1457 132.113 89.4017L126.826 91.7808L127.361 89.837L132.538 87.4859L132.735 86.7704L128.523 85.612L128.958 84.0326ZM134.112 87.1492L133.647 88.8365C133.519 89.3044 133.525 89.7031 133.667 90.0325C133.818 90.3643 134.096 90.586 134.501 90.6974C134.905 90.8088 135.253 90.7592 135.543 90.5486C135.843 90.3405 136.057 90.0025 136.185 89.5345L136.649 87.8472L134.112 87.1492Z" fill="#040E07"/>
<path d="M126.377 93.2531L133.329 101.579L132.691 102.856L121.859 102.295L122.622 100.767L125.459 100.917L127.449 96.9343L125.62 94.7685L126.377 93.2531ZM131.037 101.216L128.47 98.1487L127.043 101.004L131.037 101.216Z" fill="#040E07"/>
<path d="M118.537 106.906L128.943 109.723L127.841 111.137L120.075 109.009L124.048 116.007L122.938 117.432L117.66 108.033L118.537 106.906Z" fill="#040E07"/>
<path d="M111.588 114.644L117.222 120.837L119.355 118.896L120.41 120.056L114.921 125.049L113.866 123.889L116.01 121.939L110.376 115.746L111.588 114.644Z" fill="#040E07"/>
<path d="M102.215 121.827L106.984 130.549L101.801 133.383L101.049 132.007L104.795 129.959L103.566 127.711L100.618 129.323L99.8722 127.959L102.82 126.347L100.778 122.613L102.215 121.827Z" fill="#040E07"/>
<path d="M90.8029 128.6C89.8808 128.903 89.2084 129.488 88.7856 130.354C88.3629 131.22 88.306 132.123 88.615 133.062C88.9239 134.002 89.5054 134.695 90.3595 135.142C91.2136 135.588 92.1017 135.66 93.0238 135.356C93.9548 135.05 94.6316 134.464 95.0544 133.598C95.4771 132.732 95.534 131.829 95.225 130.89C94.9161 129.95 94.3346 129.257 93.4805 128.81C92.6264 128.364 91.7339 128.294 90.8029 128.6ZM87.3187 129.657C87.9556 128.396 88.9523 127.543 90.3089 127.097C91.6655 126.651 92.9726 126.742 94.2303 127.37C95.4908 128.007 96.3456 129.008 96.7944 130.374C97.2432 131.739 97.1478 133.048 96.508 134.3C95.8711 135.56 94.8744 136.413 93.5178 136.859C92.1612 137.305 90.8526 137.21 89.5921 136.573C88.3315 135.936 87.4782 134.939 87.0323 133.583C86.5864 132.226 86.6818 130.918 87.3187 129.657Z" fill="#040E07"/>
<path d="M78.1545 131.313C77.1887 131.41 76.406 131.836 75.8065 132.59C75.207 133.345 74.9568 134.214 75.0558 135.199C75.1548 136.183 75.5732 136.985 76.3109 137.605C77.0487 138.225 77.9005 138.486 78.8662 138.389C79.8413 138.291 80.6286 137.865 81.2281 137.11C81.8276 136.356 82.0779 135.487 81.9789 134.502C81.8799 133.518 81.4615 132.716 80.7237 132.096C79.986 131.476 79.1296 131.215 78.1545 131.313ZM74.5244 131.594C75.4181 130.5 76.5753 129.882 77.9962 129.739C79.417 129.596 80.6737 129.967 81.7664 130.851C82.86 131.745 83.4787 132.907 83.6226 134.337C83.7664 135.767 83.391 137.024 82.4964 138.109C81.6027 139.202 80.4454 139.82 79.0246 139.963C77.6037 140.106 76.3465 139.731 75.2529 138.837C74.1593 137.943 73.5411 136.786 73.3982 135.365C73.2552 133.944 73.6306 132.687 74.5244 131.594Z" fill="#040E07"/>
<path d="M69.6648 130.313L68.556 140.191L65.523 139.85C64.0576 139.686 62.8817 139.075 61.9955 138.017C61.1093 136.96 60.7447 135.731 60.902 134.33C61.0592 132.93 61.6871 131.812 62.7857 130.978C63.8844 130.143 65.1664 129.808 66.6319 129.972L69.6648 130.313ZM67.8668 131.647L66.4616 131.489C65.4228 131.372 64.5424 131.602 63.8202 132.178C63.0888 132.754 62.6679 133.533 62.5576 134.516C62.4472 135.499 62.6848 136.353 63.2705 137.076C63.8469 137.798 64.6545 138.217 65.6933 138.334L67.0984 138.492L67.8668 131.647Z" fill="#040E07"/>
<path d="M51.7296 129.37C52.0367 129.482 52.2646 129.688 52.4133 129.99C52.5499 130.298 52.561 130.61 52.4465 130.926C52.3352 131.233 52.1286 131.461 51.8265 131.609C51.5157 131.755 51.2067 131.772 50.8996 131.661C50.5837 131.546 50.3574 131.335 50.2207 131.027C50.0753 130.717 50.0582 130.408 50.1695 130.1C50.284 129.785 50.4966 129.554 50.8075 129.408C51.1063 129.269 51.4137 129.256 51.7296 129.37Z" fill="#040E07"/>
<path d="M38.1104 119.334L39.6186 125.865L42.1567 121.972L43.5172 122.858L38.0893 131.186L36.7288 130.299L39.0681 126.71L33.3862 128.12L31.6504 126.989L37.9558 125.417L36.2573 118.126L38.1104 119.334Z" fill="#040E07"/>
<path d="M34.8251 116.856L27.9775 124.061L25.3796 121.592C24.7166 120.962 24.3722 120.267 24.3463 119.509C24.3072 118.751 24.5737 118.07 25.146 117.468C25.6282 116.961 26.1689 116.676 26.7681 116.615C27.3541 116.554 27.9656 116.717 28.6026 117.103L29.0002 111.32L30.4615 112.708L30.0909 118.382L30.6287 118.893L33.6378 115.727L34.8251 116.856ZM29.645 119.929L28.3765 118.723C28.0247 118.389 27.6701 118.206 27.3129 118.176C26.9492 118.152 26.6226 118.292 26.3333 118.597C26.044 118.901 25.9236 119.231 25.9723 119.586C26.0145 119.948 26.2115 120.296 26.5633 120.631L27.8318 121.836L29.645 119.929Z" fill="#040E07"/>
<path d="M28.0119 110.351L17.4038 112.611L16.5722 111.45L22.1257 102.133L23.1203 103.522L21.6637 105.96L24.2563 109.579L27.0254 108.974L28.0119 110.351ZM18.7944 110.754L22.7057 109.915L20.8469 107.32L18.7944 110.754Z" fill="#040E07"/>
<path d="M19.6076 97.062L12.2525 104.943L11.5177 103.309L17.0292 97.4384L8.98593 97.6777L8.24536 96.0305L19.022 95.7596L19.6076 97.062Z" fill="#040E07"/>
<path d="M16.0332 87.3546L7.92029 89.4214L8.63227 92.2161L7.11281 92.6032L5.28101 85.4129L6.80047 85.0258L7.51591 87.8341L15.6288 85.7673L16.0332 87.3546Z" fill="#040E07"/>
<path d="M14.0777 75.6766L4.1384 75.7917L4.06998 69.8841L5.63788 69.8659L5.68732 74.1357L8.24915 74.106L8.21024 70.7462L9.76414 70.7282L9.80305 74.088L14.0588 74.0387L14.0777 75.6766Z" fill="#040E07"/>
<path d="M13.4703 62.1826C13.6376 61.2265 13.4389 60.3579 12.8744 59.577C12.3098 58.796 11.5403 58.3203 10.5658 58.1498C9.59124 57.9793 8.7059 58.1656 7.90978 58.7085C7.11365 59.2515 6.63196 60.001 6.4647 60.9572C6.29584 61.9225 6.49368 62.7957 7.05823 63.5766C7.62277 64.3576 8.39231 64.8333 9.36685 65.0037C10.3414 65.1742 11.2267 64.988 12.0228 64.445C12.819 63.9021 13.3015 63.148 13.4703 62.1826ZM14.1803 58.6115C14.9919 59.7673 15.2747 61.0486 15.0287 62.4552C14.7826 63.8619 14.0863 64.9718 12.9397 65.7851C11.7839 66.5967 10.498 66.8787 9.08219 66.631C7.66636 66.3834 6.55721 65.6824 5.75476 64.5282C4.9431 63.3724 4.66031 62.0912 4.90636 60.6846C5.15242 59.2779 5.85336 58.1688 7.00916 57.3571C8.16497 56.5455 9.4462 56.2627 10.8528 56.5087C12.2595 56.7548 13.3686 57.4557 14.1803 58.6115Z" fill="#040E07"/>
<path d="M17.0164 49.7574C17.3879 48.8606 17.3831 47.9696 17.0022 47.0845C16.6212 46.1994 15.9737 45.5675 15.0597 45.1889C14.1457 44.8103 13.241 44.7993 12.3458 45.1559C11.4505 45.5125 10.8172 46.1391 10.4457 47.0359C10.0707 47.9413 10.0737 48.8366 10.4547 49.7218C10.8356 50.6069 11.4831 51.2388 12.3971 51.6173C13.3112 51.9959 14.2158 52.0069 15.1111 51.6504C16.0063 51.2938 16.6414 50.6628 17.0164 49.7574ZM18.4869 46.4266C19.0274 47.7314 19.0245 49.0435 18.478 50.3628C17.9316 51.6821 17.0103 52.6138 15.7141 53.1579C14.4093 53.6984 13.0929 53.6936 11.765 53.1436C10.4371 52.5936 9.50714 51.668 8.97526 50.3667C8.43475 49.0619 8.43771 47.7499 8.98415 46.4306C9.53059 45.1112 10.4562 44.1813 11.761 43.6408C13.0658 43.1003 14.3779 43.1033 15.6972 43.6497C17.0165 44.1962 17.9464 45.1218 18.4869 46.4266Z" fill="#040E07"/>
<path d="M21.6521 43.1366L13.4463 37.527L15.1687 35.0074C16.0009 33.79 17.0918 33.0377 18.4413 32.7506C19.7908 32.4634 21.0473 32.7175 22.2107 33.5128C23.3742 34.3082 24.0671 35.3867 24.2894 36.7484C24.5117 38.1101 24.2067 39.3997 23.3745 40.617L21.6521 43.1366ZM21.3168 40.9232L22.1147 39.7559C22.7047 38.8929 22.9143 38.0074 22.7437 37.0993C22.5783 36.1836 22.0872 35.4465 21.2705 34.8882C20.4538 34.3299 19.5888 34.1399 18.6754 34.3182C17.7674 34.4889 17.0184 35.0057 16.4284 35.8686L15.6305 37.0359L21.3168 40.9232Z" fill="#040E07"/>
<path d="M30.9388 27.6123C30.6964 27.8313 30.4069 27.9355 30.0704 27.925C29.7346 27.9013 29.4541 27.7647 29.2289 27.5154C29.01 27.2729 28.9058 26.9835 28.9163 26.647C28.9338 26.3042 29.0637 26.0234 29.3061 25.8045C29.5555 25.5793 29.8481 25.4785 30.1839 25.5022C30.5266 25.5197 30.8075 25.6496 31.0264 25.892C31.2516 26.1414 31.3555 26.4375 31.338 26.7802C31.3213 27.1098 31.1882 27.3871 30.9388 27.6123Z" fill="#040E07"/>
<path d="M46.1374 20.2384L39.6567 18.5254L41.9168 22.587L40.4977 23.3766L35.6644 14.6908L37.0835 13.9012L39.1666 17.6446L40.5701 11.9611L42.3806 10.9536L40.8294 17.2641L48.0703 19.1628L46.1374 20.2384Z" fill="#040E07"/>
<path d="M49.8244 18.4771L46.6493 9.05784L50.0455 7.91301C50.9123 7.62084 51.6871 7.64036 52.37 7.97157C53.0588 8.29096 53.5359 8.84423 53.8012 9.63138C54.0248 10.2947 54.0239 10.9057 53.7985 11.4643C53.579 12.011 53.1497 12.4758 52.5105 12.8587L57.4394 15.9102L55.529 16.5541L50.6845 13.5777L49.9814 13.8147L51.3766 17.9539L49.8244 18.4771ZM49.5252 12.4615L51.1835 11.9025C51.6434 11.7475 51.9703 11.5191 52.1641 11.2174C52.3549 10.9069 52.3832 10.5526 52.249 10.1546C52.1149 9.7566 51.8793 9.49619 51.5424 9.37337C51.2026 9.2417 50.8027 9.25338 50.3428 9.40841L48.6845 9.96741L49.5252 12.4615Z" fill="#040E07"/>
<path d="M58.582 15.4982L61.5464 5.065L62.9615 4.87304L68.5983 14.1394L66.9058 14.369L65.432 11.9411L61.0204 12.5396L60.2607 15.2705L58.582 15.4982ZM62.5374 7.16282L61.449 11.0121L64.612 10.583L62.5374 7.16282Z" fill="#040E07"/>
<path d="M74.8232 14.2616L71.3509 4.05604L73.1386 4.18038L75.7093 11.8111L79.2977 4.60876L81.0994 4.73407L76.2477 14.3606L74.8232 14.2616Z" fill="#040E07"/>
<path d="M85.0696 15.6722L87.0747 7.54382L84.2746 6.85311L84.6501 5.33074L91.8542 7.10783L91.4787 8.63019L88.665 7.93612L86.6599 16.0645L85.0696 15.6722Z" fill="#040E07"/>
<path d="M96.0927 19.3356L100.667 10.5108L105.912 13.2296L105.191 14.6217L101.4 12.6567L100.221 14.9312L103.204 16.4775L102.489 17.8572L99.5055 16.3109L97.5469 20.0895L96.0927 19.3356Z" fill="#040E07"/>
<path d="M108.262 25.1091C109.028 25.7056 109.888 25.9378 110.843 25.8059C111.797 25.6739 112.578 25.2177 113.186 24.4372C113.794 23.6567 114.045 22.7875 113.94 21.8297C113.834 20.8719 113.398 20.0947 112.632 19.4983C111.859 18.8961 110.995 18.661 110.041 18.7929C109.086 18.9249 108.305 19.3811 107.697 20.1616C107.089 20.9421 106.838 21.8113 106.944 22.7691C107.049 23.7269 107.489 24.5069 108.262 25.1091ZM111.082 27.4121C109.681 27.5863 108.417 27.2347 107.29 26.3572C106.163 25.4797 105.51 24.3439 105.33 22.9497C105.156 21.5482 105.51 20.2804 106.394 19.1465C107.277 18.0125 108.416 17.3621 109.812 17.1953C111.214 17.0211 112.478 17.3727 113.604 18.2502C114.731 19.1277 115.381 20.2672 115.556 21.6687C115.73 23.0703 115.378 24.3343 114.501 25.4609C113.623 26.5875 112.484 27.2379 111.082 27.4121Z" fill="#040E07"/>
<path d="M117.677 34.1624C118.296 34.9105 119.085 35.3234 120.046 35.4012C121.006 35.479 121.868 35.2027 122.63 34.5723C123.393 33.9419 123.826 33.1477 123.93 32.1897C124.034 31.2317 123.777 30.3786 123.158 29.6306C122.534 28.8753 121.741 28.4587 120.781 28.3809C119.82 28.3031 118.959 28.5794 118.197 29.2098C117.434 29.8403 117.001 30.6345 116.897 31.5925C116.793 32.5505 117.053 33.4071 117.677 34.1624ZM119.932 37.0212C118.526 36.8879 117.368 36.271 116.458 35.1705C115.548 34.0699 115.156 32.8196 115.282 31.4195C115.416 30.0135 116.036 28.8525 117.144 27.9367C118.252 27.0208 119.505 26.6325 120.904 26.7717C122.31 26.905 123.468 27.5219 124.378 28.6225C125.288 29.723 125.676 30.9763 125.543 32.3823C125.409 33.7884 124.792 34.9463 123.692 35.8563C122.591 36.7662 121.338 37.1545 119.932 37.0212Z" fill="#040E07"/>
<path d="M121.327 41.3071L130.118 36.6675L131.542 39.3667C132.23 40.6708 132.387 41.9867 132.011 43.3143C131.635 44.6418 130.824 45.6345 129.578 46.2923C128.331 46.9501 127.054 47.0596 125.746 46.6208C124.438 46.1819 123.44 45.3104 122.751 44.0062L121.327 41.3071ZM123.441 42.0434L124.101 43.294C124.589 44.2184 125.274 44.8171 126.157 45.09C127.044 45.3711 127.925 45.2807 128.8 44.8189C129.675 44.3572 130.247 43.6808 130.515 42.7898C130.788 41.907 130.68 41.0034 130.193 40.0789L129.533 38.8284L123.441 42.0434Z" fill="#040E07"/>
<path d="M130.73 56.8626C130.65 56.5458 130.694 56.2413 130.861 55.9491C131.04 55.6638 131.292 55.4803 131.618 55.3986C131.935 55.3191 132.24 55.363 132.532 55.5304C132.826 55.7067 133.013 55.9533 133.093 56.2702C133.174 56.5961 133.126 56.9017 132.947 57.1871C132.771 57.4815 132.524 57.6684 132.207 57.7478C131.881 57.8296 131.571 57.7822 131.277 57.6059C130.994 57.4363 130.811 57.1885 130.73 56.8626Z" fill="#040E07"/>
</svg>
