<svg width="40" height="40" viewBox="0 0 40 40" fill="none" xmlns="http://www.w3.org/2000/svg">
<rect width="40" height="40" rx="20" fill="#F8FCF1"/>
<g clip-path="url(#clip0_2685_47825)">
<path d="M27.4197 16.6248C26.9314 15.8471 26.3688 15.1187 25.7397 14.4498C24.8994 13.4221 23.9229 12.5137 22.8372 11.7498C22.566 11.5556 22.2408 11.4512 21.9072 11.4512C21.5737 11.4512 21.2485 11.5556 20.9772 11.7498C20.8766 11.8318 20.7882 11.9278 20.7147 12.0348C20.4897 12.3423 20.0772 12.9498 20.8047 14.1573C21.0322 14.5014 21.2828 14.8296 21.5547 15.1398L18.2922 17.9898C17.9322 18.3198 17.5422 18.6498 17.2272 18.9948C16.4772 19.7448 15.7797 20.5323 15.0747 21.3123C14.7688 21.0035 14.4404 20.7177 14.0922 20.4573C12.9297 19.6473 12.2997 20.0298 11.9772 20.2323C11.8658 20.2999 11.7648 20.3832 11.6772 20.4798C11.4692 20.7395 11.3478 21.058 11.3303 21.3903C11.3128 21.7227 11.4001 22.0521 11.5797 22.3323C11.6697 22.5198 13.6422 24.8973 14.1222 25.3998C14.6403 25.9778 15.2214 26.496 15.8547 26.9448C16.4584 27.3646 17.1679 27.6063 17.9022 27.6423C18.1835 27.596 18.4457 27.4705 18.6583 27.2806C18.8708 27.0907 19.0248 26.8441 19.1022 26.5698C19.1598 26.3144 19.1656 26.0501 19.1192 25.7924C19.0728 25.5348 18.9753 25.2891 18.8322 25.0698C18.6627 24.7989 18.464 24.5474 18.2397 24.3198C18.1122 24.1848 17.9772 24.0498 17.8347 23.9223C18.2547 23.5323 19.1772 22.7748 20.1822 21.8748C20.5197 21.5748 20.8572 21.2598 21.1872 20.9373C21.5172 20.6148 21.8547 20.2848 22.1622 19.9623C22.9122 19.2123 23.5497 18.5073 23.9622 18.0423C24.0972 18.1998 24.2322 18.3573 24.3747 18.5073C24.5987 18.7508 24.8504 18.9673 25.1247 19.1523C25.3363 19.3127 25.5788 19.4276 25.837 19.4896C26.0952 19.5515 26.3634 19.5593 26.6247 19.5123C26.9016 19.4516 27.1557 19.3138 27.3575 19.1147C27.5592 18.9156 27.7004 18.6634 27.7647 18.3873C27.8579 18.0879 27.8752 17.7701 27.815 17.4624C27.7547 17.1548 27.6189 16.8669 27.4197 16.6248ZM18.1047 25.4823C18.2692 25.7348 18.3284 26.0417 18.2697 26.3373C18.2275 26.4568 18.1535 26.5625 18.0558 26.6431C17.958 26.7237 17.8401 26.7761 17.7147 26.7948C17.496 26.8325 17.2719 26.8246 17.0564 26.7717C16.8409 26.7188 16.6386 26.622 16.4622 26.4873C15.8193 25.9971 15.2218 25.4499 14.6772 24.8523C13.8437 24.1402 13.0733 23.3572 12.3747 22.5123C11.9322 21.8973 11.6247 21.2823 12.0522 20.7948C12.1075 20.732 12.1705 20.6766 12.2397 20.6298C12.6522 20.3373 13.1922 20.4873 13.7397 20.9148C14.2401 21.3428 14.7088 21.8065 15.1422 22.3023L16.7247 23.8923C17.0097 24.1848 17.3397 24.4998 17.6247 24.8373C17.8119 25.0306 17.9733 25.2474 18.1047 25.4823ZM21.5022 19.4148C20.9772 19.8948 20.4222 20.4048 19.9122 20.9148C18.8172 22.0098 17.8872 23.0748 17.4747 23.5623L17.2347 23.3373L15.5922 21.8373L15.3972 21.6498C16.2522 20.9748 17.0022 20.2998 17.7972 19.6098C18.1647 19.2873 18.5472 18.9498 18.8772 18.6273C19.2072 18.3048 19.7172 17.8173 20.1222 17.3898C20.6772 16.8123 21.2322 16.1973 21.8847 15.4773L22.0872 15.7098L23.4972 17.4498L23.5947 17.5698C23.1297 17.9898 22.3572 18.6498 21.5022 19.4148ZM26.8722 18.1173C26.8497 18.2431 26.792 18.3599 26.7057 18.4542C26.6194 18.5485 26.5081 18.6163 26.3847 18.6498C26.0872 18.6884 25.7862 18.6105 25.5447 18.4323C25.3219 18.2847 25.1135 18.1165 24.9222 17.9298C24.9222 17.9298 24.9222 17.9298 24.0447 16.9623L22.5447 15.2823C22.0716 14.8189 21.6376 14.3172 21.2472 13.7823C20.8497 13.1823 20.7447 12.6423 21.0522 12.2823C21.1052 12.2131 21.1684 12.1524 21.2397 12.1023C21.7872 11.7498 22.3797 12.0423 23.0022 12.4998C23.7988 13.2526 24.5314 14.0704 25.1922 14.9448C25.7475 15.5262 26.2495 16.1562 26.6922 16.8273C26.8172 17.0149 26.9 17.2274 26.935 17.4501C26.9699 17.6728 26.9562 17.9004 26.8947 18.1173H26.8722Z" fill="#040E07" stroke="#040E07" stroke-width="0.3"/>
<path d="M15.7475 27.8899C15.6527 27.96 15.5447 28.0101 15.4299 28.0372C15.3152 28.0642 15.1962 28.0677 15.08 28.0474C14.9344 27.9997 14.8012 27.9203 14.69 27.8149C14.4425 27.6199 14.21 27.3649 14.0075 27.1849C13.3798 26.6956 12.7998 26.1482 12.275 25.5499C11.9475 25.1987 11.7332 24.757 11.66 24.2824C11.6317 24.0998 11.6633 23.913 11.75 23.7499C11.8456 23.6039 11.959 23.4704 12.0875 23.3524C12.2075 23.2399 11.96 22.8649 11.75 22.9774C11.5748 23.1076 11.4161 23.2587 11.2775 23.4274C11.0954 23.6835 10.9983 23.9905 11 24.3049C11.0036 24.9421 11.2201 25.5598 11.615 26.0599C12.1618 26.725 12.7891 27.3195 13.4825 27.8299C13.776 28.0757 14.0841 28.3036 14.405 28.5124C14.5797 28.6255 14.7766 28.6997 14.9825 28.7299C15.3088 28.7584 15.6354 28.6794 15.9125 28.5049C16.238 28.289 16.5099 28.0017 16.7075 27.6649C16.79 27.4324 16.3925 27.2899 16.175 27.4924C16.055 27.6471 15.9106 27.7814 15.7475 27.8899Z" fill="#A9D953" stroke="#A9D953" stroke-width="0.3"/>
<path d="M28.8261 14.9299C28.6335 14.6085 28.4231 14.298 28.1961 13.9999C27.7295 13.2746 27.1753 12.6096 26.5461 12.0199C26.0785 11.5819 25.475 11.3173 24.8361 11.2699C24.5244 11.2541 24.2161 11.341 23.9586 11.5174C23.8377 11.5838 23.7308 11.673 23.6436 11.7799C23.4411 12.0499 23.6886 12.4099 23.8986 12.2374C24.0021 12.1405 24.1213 12.0619 24.2511 12.0049C24.4134 11.9238 24.5968 11.895 24.7761 11.9224C25.245 12.0253 25.6715 12.2686 25.9986 12.6199C26.5562 13.1803 27.0585 13.7932 27.4986 14.4499C27.6636 14.6599 27.9036 14.9149 28.0836 15.1999C28.182 15.3171 28.2513 15.4559 28.2861 15.6049C28.3002 15.7224 28.2902 15.8415 28.2567 15.955C28.2231 16.0685 28.1668 16.1739 28.0911 16.2649C27.9938 16.3737 27.8829 16.4694 27.7611 16.5499C27.5511 16.8199 27.6786 17.0524 27.9486 17.0524C28.2404 16.9178 28.497 16.7176 28.6986 16.4674C28.9078 16.1894 29.0138 15.8474 28.9986 15.4999C28.9784 15.3005 28.9199 15.107 28.8261 14.9299Z" fill="#A9D953" stroke="#A9D953" stroke-width="0.3"/>
</g>
<defs>
<clipPath id="clip0_2685_47825">
<rect width="18" height="18" fill="white" transform="translate(11 11)"/>
</clipPath>
</defs>
</svg>
