<svg width="40" height="40" viewBox="0 0 40 40" fill="none" xmlns="http://www.w3.org/2000/svg">
<rect width="40" height="40" rx="20" fill="#F8FCF1"/>
<g clip-path="url(#clip0_2687_50582)">
<path d="M16.5394 11.4349C17.0291 11.5852 17.4797 11.8412 17.8594 12.1849C18.1819 12.4474 18.4819 12.7474 18.7519 13.0024C19.2469 13.4824 19.6069 13.8574 19.6069 13.8574C19.6518 13.9049 19.7068 13.9417 19.7678 13.9651C19.8288 13.9885 19.8943 13.9978 19.9594 13.9924C20.0229 13.9846 20.084 13.9631 20.1383 13.9294C20.1927 13.8958 20.2391 13.8507 20.2744 13.7974C20.6297 13.3185 21.0725 12.9113 21.5794 12.5974C22.0374 12.2106 22.5606 11.9084 23.1244 11.7049C23.1898 11.7114 23.2551 11.6923 23.3068 11.6518C23.3585 11.6113 23.3926 11.5524 23.4019 11.4874C23.4061 11.4549 23.4038 11.4218 23.3951 11.3902C23.3864 11.3585 23.3715 11.3289 23.3513 11.3031C23.331 11.2773 23.3059 11.2558 23.2772 11.2398C23.2486 11.2238 23.217 11.2136 23.1844 11.2099C22.4733 11.3317 21.796 11.6027 21.1969 12.0049C20.7266 12.2733 20.2909 12.5982 19.8994 12.9724C19.7419 12.8224 19.5319 12.6274 19.2919 12.4249C18.9591 12.1518 18.6083 11.9012 18.2419 11.6749C17.7509 11.3316 17.19 11.1011 16.5994 10.9999C16.5708 10.9957 16.5417 10.9972 16.5137 11.0044C16.4857 11.0115 16.4594 11.0242 16.4363 11.0417C16.4133 11.0591 16.394 11.081 16.3795 11.106C16.365 11.1311 16.3556 11.1587 16.3519 11.1874C16.3477 11.216 16.3492 11.2451 16.3564 11.2732C16.3636 11.3012 16.3763 11.3275 16.3937 11.3505C16.4112 11.3735 16.4331 11.3929 16.4581 11.4074C16.4831 11.4219 16.5108 11.4312 16.5394 11.4349Z" fill="#040E07" stroke="#040E07" stroke-width="0.3"/>
<path d="M20.4845 24.005C20.4846 23.9761 20.4787 23.9475 20.4672 23.921C20.4557 23.8945 20.4389 23.8706 20.4178 23.8509C20.3967 23.8312 20.3717 23.8161 20.3445 23.8064C20.3172 23.7968 20.2883 23.7929 20.2595 23.795C20.2011 23.7988 20.1466 23.8253 20.1074 23.8687C20.0682 23.9121 20.0474 23.969 20.0495 24.0275C19.9806 24.1177 19.9226 24.2159 19.877 24.32C19.8691 24.3596 19.8691 24.4004 19.877 24.44C19.8734 24.4824 19.8734 24.525 19.877 24.5675C19.922 24.68 19.967 24.755 20.0195 24.8675C20.0195 24.9331 20.0456 24.9961 20.092 25.0425C20.1384 25.0889 20.2014 25.115 20.267 25.115C20.2995 25.116 20.3319 25.1106 20.3623 25.099C20.3927 25.0875 20.4206 25.0701 20.4442 25.0478C20.4679 25.0255 20.487 24.9988 20.5003 24.9691C20.5137 24.9395 20.521 24.9075 20.522 24.875C20.5745 24.7625 20.627 24.695 20.672 24.575C20.6791 24.5328 20.6791 24.4897 20.672 24.4475C20.6831 24.4032 20.6831 24.3568 20.672 24.3125C20.6238 24.2019 20.5607 24.0985 20.4845 24.005Z" fill="black"/>
<path d="M26.6771 25.1747C26.3096 24.7397 25.8596 24.3272 25.3721 23.6747C25.0461 23.2768 24.7923 22.825 24.6221 22.3397C24.4737 21.914 24.3853 21.4697 24.3596 21.0197L24.6371 20.9747C24.7759 20.9464 24.9024 20.8755 24.9992 20.7721C25.096 20.6686 25.1581 20.5376 25.1771 20.3972C25.2193 19.9674 25.1734 19.5335 25.0421 19.1222C25.5313 19.0441 26.0033 18.8816 26.4371 18.6422C27.0397 18.3347 27.5208 17.8325 27.8021 17.2172C28.1012 16.505 28.1566 15.714 27.9596 14.9672C27.7761 14.2677 27.4632 13.6089 27.0371 13.0247C26.9121 12.8608 26.8437 12.6608 26.8421 12.4547C26.8797 12.0867 26.95 11.7227 27.0521 11.3672C27.0598 11.3351 27.0611 11.3019 27.0558 11.2694C27.0506 11.2368 27.0389 11.2057 27.0214 11.1777C27.0039 11.1498 26.9811 11.1256 26.9541 11.1066C26.9272 11.0876 26.8968 11.0742 26.8646 11.0672C26.799 11.0538 26.7308 11.0667 26.6746 11.1032C26.6185 11.1397 26.579 11.1968 26.5646 11.2622C26.4444 11.6483 26.3615 12.0452 26.3171 12.4472C26.3116 12.7632 26.4061 13.073 26.5871 13.3322C26.9456 13.8755 27.1999 14.4808 27.3371 15.1172C27.4838 15.7319 27.4232 16.378 27.1646 16.9547C26.9425 17.4332 26.5643 17.822 26.0921 18.0572C25.6235 18.3088 25.1074 18.4595 24.5771 18.4997C24.5181 18.4999 24.46 18.5144 24.4078 18.5418C24.3556 18.5692 24.3108 18.6088 24.2771 18.6572C24.2423 18.7053 24.22 18.7614 24.2121 18.8203C24.2043 18.8791 24.2111 18.9391 24.2321 18.9947C24.3276 19.2983 24.3979 19.6094 24.4421 19.9247C24.4421 20.0597 24.3821 20.2022 24.4046 20.2772C22.9391 20.42 21.4667 20.4776 19.9946 20.4497C18.492 20.4797 16.9889 20.4146 15.4946 20.2547C15.4841 20.1424 15.4841 20.0294 15.4946 19.9172C15.5341 19.6017 15.6018 19.2905 15.6971 18.9872C15.718 18.9316 15.7248 18.8716 15.717 18.8128C15.7091 18.7539 15.6868 18.6978 15.6521 18.6497C15.6202 18.5989 15.5759 18.5572 15.5234 18.5283C15.471 18.4994 15.412 18.4844 15.3521 18.4847C14.8296 18.4455 14.3212 18.2973 13.8596 18.0497C13.3854 17.8182 13.0044 17.432 12.7796 16.9547C12.5207 16.3757 12.455 15.7288 12.5921 15.1097C12.7402 14.4646 13.01 13.8537 13.3871 13.3097C13.564 13.0549 13.6535 12.7496 13.6421 12.4397C13.5969 12.0378 13.514 11.641 13.3946 11.2547C13.3894 11.226 13.3782 11.1987 13.3619 11.1745C13.3456 11.1503 13.3244 11.1298 13.2997 11.1143C13.275 11.0988 13.2473 11.0886 13.2185 11.0843C13.1896 11.0801 13.1602 11.0819 13.1321 11.0897C13.1042 11.095 13.0777 11.1059 13.0541 11.1217C13.0305 11.1376 13.0105 11.158 12.995 11.1819C12.9796 11.2057 12.9692 11.2324 12.9644 11.2604C12.9596 11.2884 12.9605 11.317 12.9671 11.3447C13.0664 11.703 13.1342 12.0694 13.1696 12.4397C13.1696 12.6506 13.1011 12.8559 12.9746 13.0247C12.5454 13.6135 12.2299 14.2774 12.0446 14.9822C11.8452 15.7282 11.8979 16.5192 12.1946 17.2322C12.46 17.8538 12.9314 18.365 13.5296 18.6797C13.9625 18.9164 14.4312 19.0811 14.9171 19.1672C14.7819 19.5701 14.7259 19.9954 14.7521 20.4197C14.7711 20.562 14.8341 20.6949 14.9322 20.7998C15.0303 20.9046 15.1588 20.9763 15.2996 21.0047L15.7796 21.0722C15.7608 21.5524 15.6723 22.0273 15.5171 22.4822C15.3513 22.9672 15.097 23.4173 14.7671 23.8097C14.2871 24.4397 13.8371 24.8522 13.4621 25.3097C13.1546 25.6707 12.9019 26.0751 12.7121 26.5097C12.4207 27.2246 12.2655 27.9877 12.2546 28.7597C12.2522 28.7924 12.257 28.8253 12.2688 28.856C12.2805 28.8867 12.2988 28.9145 12.3224 28.9374C12.3459 28.9602 12.3743 28.9777 12.4053 28.9884C12.4364 28.9992 12.4694 29.003 12.5021 28.9997C12.5307 29.0028 12.5596 29.0002 12.5872 28.992C12.6147 28.9839 12.6404 28.9704 12.6628 28.9522C12.6851 28.9341 12.7036 28.9117 12.7172 28.8864C12.7308 28.8611 12.7393 28.8333 12.7421 28.8047C12.8318 28.1031 13.0505 27.4242 13.3871 26.8022C13.5613 26.5124 13.7676 26.2432 14.0021 25.9997C15.3784 26.563 16.8118 26.9754 18.2771 27.2297C19.3157 27.3976 20.3704 27.4429 21.4196 27.3647C23.0999 27.2649 24.721 26.7073 26.1071 25.7522C26.3949 26.0352 26.6468 26.3526 26.8571 26.6972C27.1928 27.3169 27.4114 27.9932 27.5021 28.6922C27.505 28.7207 27.5136 28.7484 27.5272 28.7737C27.5409 28.7989 27.5594 28.8213 27.5817 28.8394C27.604 28.8575 27.6296 28.871 27.6571 28.8792C27.6846 28.8874 27.7135 28.8901 27.7421 28.8872C27.7706 28.8842 27.7983 28.8757 27.8236 28.862C27.8488 28.8483 27.8712 28.8298 27.8893 28.8075C27.9074 28.7853 27.9209 28.7596 27.9291 28.7321C27.9373 28.7046 27.94 28.6757 27.9371 28.6472C27.9299 27.8755 27.7772 27.1122 27.4871 26.3972C27.2823 25.95 27.009 25.5375 26.6771 25.1747ZM21.3446 26.5397C20.343 26.5785 19.3399 26.5384 18.3446 26.4197C16.982 26.2652 15.6348 25.9967 14.3171 25.6172C14.7172 25.2019 15.0928 24.7636 15.4421 24.3047C15.7767 23.8046 16.0181 23.2482 16.1546 22.6622C16.2854 22.1606 16.3435 21.6428 16.3271 21.1247C17.2871 21.2072 18.6371 21.2522 19.9946 21.2522C21.3521 21.2522 22.8971 21.1997 23.8571 21.1097C23.8505 21.5943 23.9034 22.0779 24.0146 22.5497C24.1629 23.1381 24.417 23.6947 24.7646 24.1922C25.0721 24.6006 25.4027 24.9912 25.7546 25.3622C24.404 26.112 22.8891 26.5165 21.3446 26.5397Z" fill="#040E07" stroke="#040E07" stroke-width="0.3"/>
<path d="M22.8896 18.2749C22.0946 18.2749 21.3896 18.1924 20.7521 18.1699C20.2571 18.1699 19.7921 18.1699 19.3346 18.1699C18.5396 18.1699 17.7821 18.2674 16.9496 18.3274C16.8912 18.3274 16.8351 18.3501 16.7931 18.3906C16.7511 18.4312 16.7266 18.4866 16.7246 18.5449C16.7264 18.6028 16.7496 18.6579 16.7898 18.6995C16.8301 18.7411 16.8844 18.7662 16.9421 18.7699C17.6921 18.8374 18.3371 18.9349 19.0196 18.9799C19.3196 18.9799 19.6121 18.9799 19.9196 18.9799H20.8196C21.4571 18.9799 22.1321 18.8674 22.9046 18.7924C22.9709 18.7885 23.0331 18.7589 23.0779 18.7099C23.1228 18.6609 23.1467 18.5963 23.1446 18.5299C23.1456 18.4962 23.1398 18.4625 23.1273 18.4311C23.1149 18.3997 23.0961 18.3712 23.0722 18.3473C23.0483 18.3234 23.0198 18.3047 22.9884 18.2922C22.957 18.2798 22.9234 18.2739 22.8896 18.2749Z" fill="#A9D953"/>
</g>
<defs>
<clipPath id="clip0_2687_50582">
<rect width="18" height="18" fill="white" transform="translate(11 11)"/>
</clipPath>
</defs>
</svg>
